<svg xmlns="http://www.w3.org/2000/svg" width="80" height="81" viewBox="0 0 80 81" fill="none">
  <path d="M13.5429 16.4717C13.7385 16.255 13.8288 16.0023 13.8167 15.7134C13.8017 15.4216 13.6843 15.1778 13.4647 14.9762L11.1659 12.8851C11.0877 12.8881 11.0125 12.8791 10.9493 12.852C10.8801 12.8219 10.8349 12.7888 10.8079 12.7527L10.4648 13.1288L13.0344 15.4667C13.1127 15.5389 13.1548 15.6262 13.1578 15.7285C13.1608 15.8308 13.1277 15.9241 13.0615 16.0113C13.0224 16.0595 12.9923 16.0956 12.9682 16.1166C12.9321 16.1557 12.884 16.2009 12.8208 16.246L13.224 16.7394C13.3203 16.6853 13.4286 16.5951 13.5399 16.4717H13.5429Z" fill="#E1505F"/>
  <path d="M15.0173 14.8437L14.4185 13.9892L14.921 13.5078L15.7484 14.1427L16.2539 13.6582L12.6132 10.9382L11.9512 11.5731L14.5178 15.3252L15.0173 14.8437ZM14.0364 13.4416L12.9893 11.9973L14.3914 13.1016L14.0364 13.4446V13.4416Z" fill="#E1505F"/>
  <path d="M17.1716 12.8821L16.1005 11.5762L16.3984 11.3325C16.621 11.149 16.7444 10.9113 16.7685 10.6194C16.7925 10.3275 16.7113 10.0688 16.5217 9.84011L16.1095 9.33761C15.9139 9.09991 15.6853 8.9615 15.4205 8.92239C15.1407 8.88327 14.8759 8.96755 14.6231 9.17516L13.8107 9.84312L16.6571 13.3094L17.1716 12.8851V12.8821ZM15.6732 11.0617L14.7615 9.95445L15.0714 9.6987C15.1617 9.62649 15.255 9.59337 15.3543 9.60541C15.4536 9.61744 15.5408 9.6686 15.613 9.75886L16.0283 10.2644C16.0975 10.3486 16.1276 10.4419 16.1185 10.5472C16.1095 10.6525 16.0644 10.7398 15.9831 10.8059L15.6732 11.0617Z" fill="#E1505F"/>
  <path d="M18.3481 11.9131L18.9108 11.5098L18.643 10.9773C18.4414 11.0826 18.2307 11.1668 18.0021 11.212L18.3451 11.9131H18.3481Z" fill="#E1505F"/>
  <path d="M20.3039 10.5111L17.0904 7.29761L16.3472 7.83018L17.7885 10.7699C17.8968 10.5953 18.0382 10.4539 18.1977 10.3246C18.2127 10.2884 18.2188 10.2463 18.2398 10.2162C18.5437 9.82208 18.7393 9.74986 18.9619 9.94844C19.1154 10.0808 19.1816 10.1982 19.1696 10.3366L19.7352 10.9173L20.3039 10.5081V10.5111ZM18.1435 9.98154L17.3131 8.40188L18.5437 9.69571L18.1435 9.98455V9.98154Z" fill="#E1505F"/>
  <path d="M19.0733 5.99471L18.4324 6.37985L20.7432 10.2252L21.3149 9.88219L19.8345 7.4179L22.1002 9.40977L22.711 9.0427L20.4002 5.19434L19.8285 5.53735L21.3841 8.122L19.0733 5.99471Z" fill="#E1505F"/>
  <path d="M20.7131 4.23147L21.2818 5.08899L21.6458 4.89642L21.2577 3.94263L20.7131 4.23147Z" fill="#E1505F"/>
  <path d="M23.1352 5.67875C23.2917 5.79609 23.5143 5.90745 23.8062 6.01276C24.1522 6.13312 24.411 6.22034 24.5825 6.28052C24.8112 6.37681 24.9646 6.50922 25.0429 6.68073C25.097 6.79807 25.1181 6.89736 25.106 6.9786C25.085 7.14409 25.0098 7.25843 24.8804 7.32463C24.7871 7.37277 24.6878 7.37277 24.5765 7.32463C24.429 7.26445 24.2876 7.12001 24.1522 6.89434L23.5956 7.20126C23.7099 7.41188 23.8423 7.58337 23.9958 7.71576C24.1492 7.84815 24.3147 7.93243 24.4892 7.97155C24.6998 8.01969 24.9225 7.98657 25.1602 7.87825C25.2896 7.81808 25.3919 7.75187 25.4761 7.67664C25.6296 7.53824 25.7229 7.37576 25.759 7.19523C25.8161 6.92443 25.777 6.64762 25.6416 6.36779C25.5875 6.25345 25.4972 6.13911 25.3708 6.01875C25.3197 5.97061 25.2595 5.92247 25.1903 5.87132C25.0398 5.763 24.8563 5.66372 24.6367 5.58248C24.5705 5.5554 24.4381 5.51628 24.2425 5.46212C24.077 5.41698 23.9476 5.37186 23.8543 5.32673C23.6076 5.20638 23.4421 5.05291 23.3549 4.86636C23.3007 4.74601 23.2766 4.6377 23.2857 4.5354C23.2977 4.40902 23.3579 4.32176 23.4692 4.2676C23.5745 4.21946 23.6678 4.21644 23.7551 4.25857C23.8754 4.31573 23.9807 4.42408 24.077 4.58355L24.6066 4.20744C24.5103 4.03593 24.3929 3.9005 24.2545 3.7982C24.1191 3.6959 23.9717 3.63572 23.8182 3.61466C23.6197 3.58758 23.412 3.62368 23.1984 3.72298C22.9758 3.82528 22.8133 3.96972 22.714 4.15627C22.5575 4.46017 22.5635 4.79716 22.735 5.16725C22.8313 5.37186 22.9637 5.54335 23.1352 5.67875Z" fill="#E1505F"/>
  <path d="M28.7619 6.38272L28.5332 5.75086L27.453 6.142L26.1562 2.55542L25.5303 2.78408L27.0558 6.99952L28.7619 6.38272Z" fill="#E1505F"/>
  <path d="M28.3166 2.09213C28.1751 2.3509 28.145 2.62169 28.2263 2.90753L28.9003 5.26049C28.9815 5.54332 29.15 5.75993 29.4028 5.90436C29.6555 6.04878 29.9263 6.0819 30.2061 6.00066C30.486 5.91942 30.6966 5.75091 30.838 5.49515C30.9794 5.23639 31.0095 4.9656 30.9283 4.67976L30.2543 2.32682C30.173 2.04398 30.0045 1.82734 29.7488 1.68291C29.493 1.53849 29.2252 1.50541 28.9424 1.58665C28.6656 1.66488 28.455 1.83337 28.3135 2.09213H28.3166ZM28.8822 2.42009C28.9334 2.32682 29.0116 2.26664 29.1109 2.23655C29.2132 2.20647 29.3095 2.2185 29.4028 2.26965C29.493 2.3208 29.5562 2.39904 29.5863 2.50134L30.2633 4.86029C30.2934 4.96259 30.2813 5.06187 30.2332 5.15515C30.1821 5.24843 30.1068 5.30863 30.0045 5.33872C29.9022 5.36881 29.8059 5.35674 29.7127 5.30559C29.6194 5.25444 29.5592 5.17624 29.5291 5.07394L28.8521 2.71496C28.822 2.61265 28.8341 2.51337 28.8852 2.42009H28.8822Z" fill="#E1505F"/>
  <path d="M31.3194 2.38709C31.3976 2.51647 31.4458 2.66692 31.4729 2.72409C31.4759 2.98586 31.4307 3.13329 31.3074 3.24763C31.2983 3.25364 31.2893 3.25968 31.2773 3.2657L31.539 4.53845C31.5992 4.8273 31.7497 5.05598 31.9934 5.21846C32.2371 5.38093 32.5019 5.43209 32.7907 5.37492C33.0736 5.31775 33.2962 5.1643 33.4557 4.92058C33.6152 4.67686 33.6663 4.40605 33.6061 4.11418L33.552 3.85543C33.5099 3.89454 33.4587 3.91259 33.4076 3.88852C33.212 3.79825 33.0164 3.75915 32.8238 3.75012L32.9261 4.24659C32.9472 4.35191 32.9291 4.44818 32.872 4.53845C32.8148 4.62871 32.7336 4.68285 32.6283 4.70391C32.526 4.72497 32.4297 4.70393 32.3424 4.64676C32.2552 4.58658 32.201 4.50532 32.1769 4.40001L32.0566 3.81631C31.9723 3.83135 31.8851 3.84339 31.8008 3.85543C31.7587 3.86144 31.6714 3.76515 31.6534 3.69896C31.6353 3.63878 31.6564 3.53947 31.7015 3.49735C31.7828 3.42213 31.87 3.377 31.9603 3.34992L31.6805 1.99293C31.6594 1.88762 31.6775 1.79133 31.7346 1.70106C31.7918 1.61079 31.873 1.55664 31.9753 1.53558C32.0776 1.51451 32.1739 1.53558 32.2642 1.59275C32.3545 1.65292 32.4086 1.73416 32.4297 1.83948L32.535 2.354L33.212 2.21558L33.1097 1.71311C33.0495 1.42426 32.8991 1.19558 32.6553 1.0331C32.4116 0.86761 32.1468 0.816454 31.861 0.876631C31.5752 0.936809 31.3525 1.08726 31.193 1.33399C31.0336 1.58071 30.9824 1.8485 31.0426 2.14036L31.0907 2.37506C31.1058 2.35701 31.1148 2.33595 31.1298 2.31789C31.1449 2.29984 31.2893 2.33895 31.3194 2.38709Z" fill="#E1505F"/>
  <path d="M34.8849 3.90662L35.574 3.81634L35.8628 4.81828L36.5579 4.72804L35.246 0.377197L34.3373 0.494548L34.1718 5.03796L34.8608 4.94768L34.8879 3.90361L34.8849 3.90662ZM34.918 1.45438L35.3904 3.17545L34.9 3.23862L34.915 1.45438H34.918ZM34.6623 3.72606C34.5178 3.76217 34.4486 3.65388 34.4246 3.53352C34.4005 3.41618 34.4276 3.31085 34.5479 3.25067C34.6863 3.25368 34.7646 3.34096 34.7977 3.4583C34.8338 3.57866 34.7916 3.69296 34.6623 3.72606Z" fill="#E1505F"/>
  <path d="M36.952 0.894783L37.2108 4.68899L37.8757 4.64385L37.617 0.849661L38.0502 0.819561C38.0502 0.819561 38.0653 0.804515 38.0743 0.798497C38.1525 0.735311 38.2248 0.645046 38.306 0.611948L38.2729 0.124512L36.1968 0.265938L36.2419 0.945947L36.949 0.897795L36.952 0.894783Z" fill="#E1505F"/>
  <path d="M39.7381 0.0956524L39.0732 0.106445L39.1459 4.58911L39.8108 4.57831L39.7381 0.0956524Z" fill="#E1505F"/>
  <path d="M41.2848 4.6437C41.2968 4.406 41.3811 4.18333 41.5405 3.99076C41.5556 3.97271 41.7 4.01185 41.7301 4.05999C41.8083 4.18938 41.8565 4.33982 41.8835 4.39699C41.8835 4.47823 41.8805 4.54742 41.8685 4.60759C41.9949 4.55945 42.1122 4.48724 42.2205 4.38494C42.3289 4.28264 42.4131 4.1683 42.4703 4.04192C42.3078 4.06599 42.1483 4.09307 41.9858 4.11714C41.9437 4.12316 41.8565 4.02687 41.8384 3.96068C41.8204 3.9005 41.8414 3.80123 41.8865 3.75911C42.0851 3.56955 42.3258 3.57252 42.5666 3.57252L42.6628 1.19253C42.6749 0.897656 42.5816 0.638875 42.386 0.422236C42.1904 0.202588 41.9437 0.0882619 41.6519 0.0762264C41.363 0.0641909 41.1103 0.157467 40.8966 0.359061C40.683 0.560656 40.5687 0.807378 40.5566 1.10526L40.4573 3.55147C40.4453 3.84634 40.5386 4.10513 40.7341 4.32176C40.8876 4.49327 41.0742 4.59857 41.2908 4.6437H41.2848ZM41.2035 1.1173C41.2065 1.00898 41.2487 0.921723 41.3269 0.84951C41.4051 0.777297 41.4984 0.744191 41.6037 0.7472C41.709 0.750209 41.7963 0.792343 41.8685 0.870574C41.9407 0.948805 41.9738 1.04207 41.9678 1.14739L41.8685 3.59963C41.8655 3.70795 41.8234 3.79822 41.7481 3.86742C41.6699 3.93963 41.5796 3.97272 41.4743 3.96971C41.369 3.9667 41.2788 3.92457 41.2065 3.84634C41.1343 3.76811 41.1012 3.67486 41.1042 3.56955L41.2035 1.1173Z" fill="#E1505F"/>
  <path d="M43.6197 3.54235C43.6828 3.63562 43.7731 3.7229 43.8032 3.82821C43.8543 4.00574 43.722 4.21032 43.5896 4.14713C43.4421 4.07793 43.2947 4.04185 43.1503 4.02079L43.069 4.69477L43.731 4.773L44.068 1.91757L44.6397 4.87831L45.3498 4.96256L45.8763 0.506402L45.2144 0.428168L44.8593 3.42199L44.3358 0.322865L43.5926 0.235596L43.2315 3.29865C43.3338 3.28059 43.4211 3.3588 43.6136 3.53934L43.6197 3.54235Z" fill="#E1505F"/>
  <path d="M47.3627 5.40491C47.6486 5.46509 47.9134 5.41394 48.1571 5.25146C48.4038 5.08898 48.5573 4.86331 48.6174 4.57145L49.1229 2.17638C49.1831 1.88752 49.135 1.61974 48.9785 1.37C48.822 1.12327 48.5994 0.966817 48.3105 0.90664C48.121 0.867524 47.9404 0.879555 47.7689 0.939733C47.8442 0.981857 47.8983 1.0631 47.9134 1.18646C47.9344 1.35797 47.8562 1.49938 47.6877 1.5385C47.5433 1.57159 47.3688 1.59266 47.2394 1.5385C47.2003 1.52345 47.1732 1.5054 47.1461 1.48735C47.11 1.56558 47.0769 1.64982 47.0588 1.74009L46.5534 4.13518C46.4932 4.42403 46.5383 4.6918 46.6978 4.94153C46.8542 5.18826 47.0769 5.34474 47.3627 5.40491ZM47.1912 4.26153L47.6997 1.86045C47.7208 1.75514 47.778 1.6739 47.8682 1.61673C47.9585 1.55956 48.0548 1.54151 48.1571 1.56257C48.2594 1.58363 48.3406 1.6408 48.3978 1.72806C48.455 1.81832 48.473 1.91462 48.4489 2.01993L47.9404 4.421C47.9194 4.52632 47.8622 4.60754 47.775 4.6647C47.6877 4.72187 47.5914 4.73994 47.4891 4.71888C47.3868 4.69782 47.3056 4.64064 47.2454 4.55338C47.1882 4.46311 47.1702 4.36684 47.1912 4.26153Z" fill="#E1505F"/>
  <path d="M49.5863 5.89232L50.3987 3.13618L50.4649 6.15108L51.1509 6.35268L51.7437 4.34274C51.5451 4.36681 51.3465 4.40293 51.1449 4.43302C51.1178 4.43603 51.0787 4.39992 51.0456 4.3578L50.9313 4.74893L50.9373 1.60467L50.2212 1.39404L48.9514 5.69974L49.5893 5.8893L49.5863 5.89232Z" fill="#E1505F"/>
  <path d="M52.4207 2.04698L51.7828 1.85742L51.1539 3.99372C51.3736 3.86133 51.6323 3.89744 51.8791 3.8854L52.4207 2.04698Z" fill="#E1505F"/>
  <path d="M53.7056 2.5061L52.1333 6.70459L52.756 6.93779L54.3283 2.73929L53.7056 2.5061Z" fill="#E1505F"/>
  <path d="M55.4867 3.34968C55.1557 3.43393 54.906 3.66261 54.7405 4.03571C54.6502 4.24332 54.6081 4.45695 54.6202 4.67359C54.6352 4.86917 54.6984 5.10989 54.8127 5.39573C54.9511 5.73272 55.0564 5.98548 55.1256 6.15698C55.2039 6.39168 55.2069 6.59629 55.1317 6.76478C55.0805 6.88213 55.0203 6.96335 54.9511 7.00848C54.8157 7.10176 54.6773 7.12284 54.5449 7.06868C54.4486 7.03258 54.3825 6.95434 54.3433 6.84302C54.2922 6.69257 54.3072 6.49098 54.3855 6.24124L53.7867 6.02759C53.7024 6.25024 53.6633 6.46387 53.6633 6.66848C53.6633 6.87007 53.7085 7.05062 53.7987 7.20708C53.904 7.39664 54.0725 7.54406 54.3132 7.64937C54.4426 7.70654 54.563 7.73963 54.6713 7.75167C54.8759 7.77574 55.0594 7.73964 55.2189 7.64636C55.4596 7.51096 55.6402 7.29733 55.7605 7.00848C55.8087 6.89114 55.8357 6.74673 55.8448 6.57522C55.8448 6.50602 55.8448 6.42778 55.8357 6.34052C55.8207 6.15698 55.7695 5.95538 55.6853 5.73573C55.6612 5.66653 55.6041 5.54317 55.5168 5.35962C55.4416 5.20617 55.3874 5.07979 55.3603 4.97749C55.2881 4.71271 55.2911 4.48704 55.3754 4.30049C55.4295 4.18014 55.4957 4.08987 55.58 4.02969C55.6823 3.95447 55.7906 3.94243 55.9019 3.99057C56.0072 4.0357 56.0734 4.10493 56.1005 4.1982C56.1366 4.32758 56.1246 4.47803 56.0704 4.65255L56.7023 4.80299C56.7655 4.61644 56.7926 4.43891 56.7775 4.27041C56.7655 4.09891 56.7143 3.95147 56.6271 3.82209C56.5157 3.6566 56.3503 3.5242 56.1336 3.42791C55.908 3.32862 55.6943 3.30154 55.4897 3.35269L55.4867 3.34968ZM55.4717 5.84405C55.5078 5.9644 55.4656 6.07875 55.3363 6.11184C55.1918 6.14795 55.1226 6.03963 55.0986 5.91927C55.0745 5.80192 55.1016 5.69663 55.2219 5.63645C55.3603 5.63946 55.4386 5.7267 55.4717 5.84405Z" fill="#E1505F"/>
  <path d="M57.7102 8.52509L56.6962 7.98649L58.4805 4.61958L57.8907 4.30664L56.0403 7.79693C56.0884 7.93835 56.0343 8.0948 55.8778 8.31746L57.3913 9.12084L57.7072 8.52509H57.7102Z" fill="#E1505F"/>
  <path d="M58.0412 9.49105C58.0653 9.46397 58.0924 9.43688 58.1255 9.4098C58.2127 9.3406 58.294 9.22929 58.3933 9.20823C58.5287 9.18115 58.646 9.20821 58.7242 9.29546L59.0582 8.91036L59.648 9.28044L59.2327 10.2372L59.8255 10.6073L61.5766 6.41297L60.8004 5.92554L57.7855 9.32856L58.0442 9.49105H58.0412ZM60.6409 7.03881L59.9127 8.66963L59.4945 8.40786L60.6409 7.03881Z" fill="#E1505F"/>
  <path d="M64.7781 8.67561L64.2425 8.27842L63.1082 9.80093C63.1082 9.80093 63.1112 9.81596 63.1142 9.82198C63.1022 9.82799 63.0901 9.83403 63.0781 9.84005L62.4402 10.6946L63.5324 7.74588L62.9337 7.30054L60.2527 10.9022L60.7883 11.2993L62.5034 8.99454L61.5225 11.8469L62.0912 12.2682C62.0912 12.2682 62.1002 12.2652 62.1062 12.2622L64.7781 8.6726V8.67561Z" fill="#E1505F"/>
  <path d="M63.6739 12.1599C63.6949 12.193 63.722 12.2261 63.7491 12.2592L65.5333 10.2132L65.8372 10.478C65.9155 10.5472 65.9576 10.6314 65.9636 10.7397C65.9696 10.8451 65.9365 10.9383 65.8673 11.0195L64.3238 12.7888C64.2546 12.867 64.1673 12.9122 64.062 12.9242C63.9567 12.9332 63.8634 12.9061 63.7822 12.8369L63.713 12.7768C63.6919 12.7798 63.6708 12.7767 63.6468 12.7677C63.2797 12.5962 62.9186 12.6083 62.5576 12.6564L63.3248 13.3274C63.5415 13.5169 63.7972 13.6012 64.0891 13.5771C64.3809 13.553 64.6247 13.4297 64.8202 13.207L66.3608 11.4408C66.5533 11.2211 66.6436 10.9624 66.6286 10.6705C66.6135 10.3787 66.4962 10.138 66.2765 9.94539L65.4882 9.25635L62.9487 12.169C62.9487 12.169 62.9517 12.169 62.9547 12.169C63.2015 11.9443 63.4432 11.9423 63.6799 12.1629L63.6739 12.1599Z" fill="#E1505F"/>
  <path d="M66.6406 12.5661C66.5834 12.7526 66.5533 12.9994 66.5533 13.3093C66.5594 13.6734 66.5624 13.9472 66.5624 14.1307C66.5473 14.3774 66.4751 14.567 66.3427 14.6994C66.2494 14.7897 66.1652 14.8438 66.084 14.8618C65.9215 14.8979 65.7891 14.8679 65.6838 14.7656C65.6086 14.6964 65.5725 14.6001 65.5815 14.4827C65.5905 14.3233 65.6748 14.1427 65.8432 13.9381L65.3648 13.5199C65.2054 13.6974 65.088 13.8809 65.0158 14.0705C64.9436 14.2601 64.9195 14.4436 64.9436 14.6212C64.9707 14.8348 65.076 15.0364 65.2595 15.2199C65.3588 15.3192 65.4581 15.3974 65.5544 15.4486C65.7379 15.5449 65.9215 15.578 66.102 15.5509C66.3758 15.5118 66.6225 15.3824 66.8422 15.1597C66.9295 15.0695 67.0107 14.9461 67.0799 14.7866C67.107 14.7234 67.1341 14.6482 67.1581 14.567C67.2123 14.3895 67.2394 14.1849 67.2424 13.9502C67.2424 13.878 67.2394 13.7396 67.2243 13.538C67.2093 13.3665 67.2093 13.231 67.2213 13.1257C67.2514 12.8519 67.3387 12.6443 67.4831 12.4999C67.5764 12.4066 67.6726 12.3494 67.7719 12.3224C67.8953 12.2893 67.9976 12.3194 68.0849 12.4066C68.1661 12.4879 68.2022 12.5781 68.1902 12.6714C68.1751 12.8038 68.1119 12.9422 67.9946 13.0836L68.5272 13.4537C68.6535 13.3033 68.7438 13.1498 68.795 12.9843C68.8461 12.8218 68.8521 12.6624 68.822 12.5119C68.7799 12.3164 68.6746 12.1328 68.5091 11.9643C68.3346 11.7898 68.145 11.6875 67.9374 11.6574C67.5974 11.6123 67.2815 11.7326 66.9926 12.0215C66.8302 12.181 66.7158 12.3645 66.6466 12.5691L66.6406 12.5661Z" fill="#E1505F"/>
  <path d="M67.1551 17.2118L68.0547 16.6853L68.494 17.2239L67.796 17.9972L68.2383 18.5388L71.2381 15.1237L70.6574 14.4136L66.7128 16.6763L67.1521 17.2118H67.1551ZM70.1519 15.4156L68.9393 16.7274L68.6264 16.3453L70.1519 15.4156Z" fill="#E1505F"/>
  <path d="M68.6174 19.0712L69.0086 19.6098L72.0927 17.3833L72.5049 17.955L73.0555 17.5578L71.8399 15.8728L71.2893 16.27L71.7015 16.8447L68.6174 19.0712Z" fill="#E1505F"/>
  <path d="M73.2421 19.0773L73.6031 19.6851L70.3385 21.6348L70.6785 22.2065L73.9461 20.2568L74.3072 20.8616L74.8909 20.5125L73.8258 18.7283L73.2421 19.0773Z" fill="#E1505F"/>
  <path d="M73.4738 23.3831C73.8047 23.0822 73.8198 23.0912 74.1598 23.4101C74.223 23.5034 74.3132 23.5907 74.3433 23.696C74.3945 23.8735 74.2621 24.0781 74.1297 24.0149C73.8679 23.8916 73.6061 23.8645 73.3504 23.8765L72.4206 24.3429C72.4146 24.5535 72.3665 24.6829 72.2582 24.7882C72.2221 24.8213 72.1499 24.8333 72.0746 24.8303L72.2461 25.1764L76.257 23.1694L75.9591 22.5737L74.2561 23.4252L73.895 22.7061L75.598 21.8545L75.3001 21.2588L71.2893 23.2657L71.5872 23.8615L73.2872 23.01L73.4738 23.3831Z" fill="#E1505F"/>
  <path d="M72.4808 25.6968L73.203 27.451L73.8318 27.1922L73.3624 26.0549L74.4938 25.5885L74.8368 26.419L75.4656 26.1602L75.1226 25.3297L75.4295 25.2034C75.4025 25.1672 75.3844 25.1251 75.3754 25.077C75.3513 24.9597 75.3754 24.8543 75.4987 24.7942C75.6371 24.7972 75.7154 24.8844 75.7485 25.0018C75.7545 25.0259 75.7575 25.0469 75.7575 25.068L76.254 24.8633L76.7234 26.0007L77.3522 25.742L76.6301 23.9878L72.4808 25.6968Z" fill="#E1505F"/>
  <path d="M75.1587 30.1049L77.4936 29.3677C77.7764 29.2774 77.987 29.1059 78.1255 28.8442C78.2639 28.5854 78.2879 28.3146 78.2007 28.0348C78.1134 27.7579 77.9389 27.5533 77.6771 27.4209C77.4154 27.2855 77.1416 27.2645 76.8587 27.3547L75.935 27.6466C75.607 27.8362 75.264 27.9776 74.8548 27.9866L74.5238 28.0919C74.241 28.1822 74.0304 28.3537 73.892 28.6125C73.7536 28.8712 73.7295 29.139 73.8167 29.4188C73.904 29.6956 74.0785 29.9033 74.3403 30.0387C74.6021 30.1741 74.8729 30.1951 75.1587 30.1049ZM74.4998 28.9013C74.5479 28.808 74.6261 28.7448 74.7284 28.7118L77.0693 27.9746C77.1716 27.9415 77.2709 27.9505 77.3642 27.9986C77.4575 28.0468 77.5207 28.122 77.5538 28.2243C77.5869 28.3236 77.5778 28.4229 77.5267 28.5162C77.4785 28.6094 77.4003 28.6726 77.298 28.7057L74.9571 29.4429C74.8548 29.476 74.7555 29.467 74.6622 29.4188C74.569 29.3707 74.5058 29.2955 74.4727 29.1962C74.4396 29.0969 74.4486 28.9976 74.4998 28.9043V28.9013Z" fill="#E1505F"/>
  <path d="M78.3752 30.3095C78.2067 30.2372 78.1766 30.144 78.2278 30.0447L75.3272 30.7217C75.0384 30.7879 74.8187 30.9473 74.6623 31.191C74.5058 31.4378 74.4637 31.7026 74.5299 31.9884C74.5961 32.2712 74.7525 32.4909 74.9992 32.6444C75.246 32.7978 75.5168 32.8429 75.8086 32.7737L79.1846 31.9854L79.0251 31.3084L75.6552 32.0967C75.5499 32.1208 75.4536 32.1057 75.3633 32.0516C75.2731 31.9974 75.2159 31.9192 75.1918 31.8139C75.1678 31.7116 75.1828 31.6153 75.24 31.525C75.2971 31.4348 75.3754 31.3776 75.4807 31.3535L78.8506 30.5652L78.7904 30.3095C78.652 30.3365 78.4926 30.3546 78.3752 30.3034V30.3095Z" fill="#E1505F"/>
  <path d="M78.6701 32.9181L78.7814 33.6192L75.0233 34.2089L75.1256 34.8679L75.7725 34.7656C75.7725 34.7656 75.7635 34.7415 75.7605 34.7295C75.7364 34.6121 75.7635 34.5068 75.8838 34.4467C76.0223 34.4497 76.1005 34.5369 76.1336 34.6543C76.1396 34.6723 76.1396 34.6874 76.1396 34.7054L78.8837 34.2751L78.992 34.9702L79.663 34.8649L79.3411 32.8098L78.6701 32.9151V32.9181Z" fill="#E1505F"/>
  <path d="M75.4566 37.9699L76.1336 37.9127L76.0915 37.4253C75.8839 37.5246 75.6642 37.5998 75.4265 37.6299L75.4566 37.9729V37.9699Z" fill="#E1505F"/>
  <path d="M75.3814 37.0944C75.4837 36.9529 75.61 36.8386 75.7454 36.7273C75.7605 36.6912 75.7665 36.6491 75.7876 36.619C76.0915 36.2248 76.287 36.1526 76.5097 36.3512C76.618 36.4475 76.6872 36.5347 76.7113 36.628L77.2499 36.5829L77.3281 37.4795L78.0051 37.4223L77.9299 36.5257L79.1485 36.4204L79.2538 37.645L79.9308 37.5878L79.7683 35.6982L75.2971 36.0804L75.3844 37.0944H75.3814Z" fill="#E1505F"/>
  <path d="M75.4927 39.0893L77.1807 39.0622L77.1867 39.4474C77.1867 39.4684 77.1867 39.4895 77.1867 39.5075L75.5047 39.9378L75.5168 40.6569L77.4665 40.1304C77.6892 40.365 77.96 40.4794 78.2789 40.4734L78.9288 40.4614C79.2538 40.4553 79.5035 40.3771 79.6841 40.2206C79.8887 40.0431 79.988 39.7693 79.9819 39.3992L79.9639 38.3491L75.4807 38.4213L75.4927 39.0863V39.0893ZM77.647 39.1435C77.7343 39.0743 77.8155 38.9629 77.9148 38.9419C78.0593 38.9118 78.1856 38.9419 78.2609 39.0442L79.2869 39.0261L79.2929 39.4263C79.2959 39.679 79.1695 39.8084 78.9078 39.8144L78.2518 39.8265C78.1435 39.8265 78.0532 39.7934 77.975 39.7211C77.9359 39.685 77.9058 39.6429 77.8878 39.6008C77.8035 39.6068 77.7223 39.6008 77.6531 39.5707C77.3913 39.4594 77.4635 39.2909 77.647 39.1465V39.1435Z" fill="#E1505F"/>
  <path d="M75.4746 41.8363L78.2789 42.0409L75.4265 42.4802L75.3904 42.9586C75.4746 42.9676 75.5348 43.0067 75.5739 43.0669L78.1586 43.795L75.3453 43.5904L75.2971 44.2554L79.7743 44.5803L79.8405 43.6656L76.6692 42.8382L79.9308 42.4531L80 41.4993L75.5228 41.1743L75.4746 41.8393V41.8363Z" fill="#E1505F"/>
  <path d="M79.5306 46.5512C79.5757 46.2654 79.5125 46.0036 79.341 45.7659C79.1665 45.5282 78.9348 45.3868 78.64 45.3386L76.2238 44.9475C76.1757 44.9384 76.1276 44.9385 76.0794 44.9385C76.2599 45.131 76.2539 45.3025 76.0583 45.5944C76.0824 45.5944 76.1035 45.5884 76.1275 45.5944L78.5497 45.9886C78.655 46.0066 78.7393 46.0578 78.8024 46.145C78.8656 46.2323 78.8867 46.3256 78.8716 46.4309C78.8536 46.5362 78.8024 46.6174 78.7182 46.6776C78.6309 46.7378 78.5347 46.7619 78.4293 46.7438L76.0072 46.3496C75.9019 46.3316 75.8176 46.2804 75.7544 46.1962C75.6913 46.1119 75.6702 46.0157 75.6853 45.9133C75.6853 45.9013 75.6943 45.8923 75.6973 45.8803C75.4776 45.9976 75.249 46.0909 74.9962 46.133C75.0173 46.3015 75.0775 46.4609 75.1858 46.6084C75.3603 46.8461 75.592 46.9875 75.8868 47.0357L78.303 47.4268C78.5948 47.4749 78.8596 47.4117 79.1003 47.2432C79.341 47.0748 79.4825 46.8431 79.5306 46.5542V46.5512Z" fill="#E1505F"/>
  <path d="M78.1706 49.6054C78.0503 49.6626 77.8998 49.6806 77.7163 49.6565L77.6832 50.3034C77.8788 50.3335 78.0563 50.3275 78.2218 50.2824C78.3873 50.2373 78.5257 50.162 78.637 50.0537C78.7814 49.9153 78.8807 49.7287 78.9349 49.5001C78.992 49.2594 78.98 49.0427 78.8958 48.8532C78.8296 48.7057 78.7303 48.5854 78.6069 48.4861C78.4835 48.5071 78.3481 48.5132 78.2458 48.4711C78.0984 48.4079 78.0593 48.3266 78.0834 48.2424C77.8637 48.1912 77.6501 48.1882 77.4395 48.2394C77.2499 48.2875 77.0242 48.3958 76.7625 48.5583C76.4556 48.7539 76.2239 48.9013 76.0704 49.0006C75.8538 49.121 75.6522 49.1571 75.4717 49.115C75.3453 49.0849 75.255 49.0397 75.1978 48.9795C75.0805 48.8622 75.0384 48.7328 75.0685 48.5884C75.0865 48.4861 75.1497 48.4079 75.255 48.3507C75.3934 48.2725 75.595 48.2514 75.8568 48.2845L75.9591 47.6556C75.7244 47.6135 75.5078 47.6105 75.3062 47.6496C75.1076 47.6887 74.9391 47.7639 74.8007 47.8783C74.6322 48.0137 74.5178 48.2093 74.4577 48.462C74.4246 48.6004 74.4125 48.7238 74.4185 48.8351C74.4336 49.0427 74.4998 49.2142 74.6201 49.3556C74.7977 49.5663 75.0384 49.7077 75.3423 49.7769C75.4656 49.804 75.6131 49.807 75.7816 49.7829C75.8508 49.7739 75.926 49.7558 76.0102 49.7318C76.1878 49.6836 76.3773 49.5994 76.5789 49.476C76.6421 49.4399 76.7534 49.3617 76.9189 49.2413C77.0573 49.139 77.1717 49.0668 77.268 49.0217C77.5147 48.9013 77.7373 48.8652 77.9389 48.9133C78.0653 48.9434 78.1676 48.9946 78.2398 49.0668C78.3331 49.1541 78.3632 49.2564 78.3361 49.3767C78.309 49.4881 78.2519 49.5663 78.1676 49.6084L78.1706 49.6054Z" fill="#E1505F"/>
  <path d="M77.7644 51.1009L77.5477 51.7779L73.9251 50.6165L73.7205 51.2513L77.3462 52.4097L77.1295 53.0807L77.7764 53.2883L78.4113 51.3085L77.7644 51.1009Z" fill="#E1505F"/>
  <path d="M73.1548 52.87L72.4266 54.6212L73.0555 54.883L73.0615 54.8679C73.0856 54.7777 73.1217 54.6904 73.1698 54.6092L73.5279 53.7486L74.6592 54.218L74.3132 55.0485L74.9421 55.3102L75.2881 54.4798L76.4164 54.9491L75.944 56.0835L76.5729 56.3453L76.7805 55.8488C76.6631 55.8579 76.603 55.7646 76.5789 55.6532C76.5548 55.5359 76.5819 55.4306 76.7022 55.3704C76.8106 55.3704 76.8798 55.4276 76.9219 55.5058L77.304 54.5911L73.1608 52.864L73.1548 52.87Z" fill="#E1505F"/>
  <path d="M75.7876 57.973L76.257 57.0372L72.2431 55.0303L71.7737 55.966C71.6444 56.2248 71.6293 56.4926 71.7256 56.7694C71.8219 57.0462 72.0024 57.2508 72.2672 57.3832L74.3644 58.4333C74.6262 58.5657 74.897 58.5868 75.1768 58.4995C75.4566 58.4123 75.6612 58.2377 75.7906 57.976L75.7876 57.973ZM75.1617 57.6811C75.1166 57.7744 75.0414 57.8346 74.9391 57.8677C74.8368 57.9008 74.7405 57.8917 74.6442 57.8436L72.544 56.7935C72.4507 56.7453 72.3845 56.6731 72.3484 56.5738C72.3123 56.4745 72.3184 56.3753 72.3635 56.282L72.544 55.9239L75.3423 57.323L75.1617 57.6811Z" fill="#E1505F"/>
  <path d="M73.5911 60.4283C73.4858 60.4524 73.3895 60.4403 73.2962 60.3832L72.8449 60.1124L72.4898 60.7051L72.9291 60.9669C73.1819 61.1203 73.4527 61.1595 73.7385 61.0933C74.0244 61.0241 74.241 60.8646 74.3914 60.6118C74.5419 60.3621 74.578 60.0943 74.5058 59.8115C74.4336 59.5256 74.2681 59.309 74.0123 59.1556L71.9121 57.9008C71.6594 57.7504 71.3916 57.7083 71.1057 57.7775C70.8199 57.8467 70.6033 58.0061 70.4498 58.2589C70.3024 58.5056 70.2633 58.7734 70.3355 59.0562C70.4077 59.3391 70.5702 59.5587 70.8289 59.7122L72.1739 60.5155L72.7185 59.6039L72.1348 59.2548L71.9452 59.5738L71.19 59.1225C71.0967 59.0683 71.0395 58.9871 71.0125 58.8848C70.9854 58.7825 71.0004 58.6862 71.0546 58.5929C71.1088 58.5026 71.187 58.4454 71.2893 58.4184C71.3916 58.3943 71.4879 58.4093 71.5811 58.4635L73.6874 59.7242C73.7806 59.7784 73.8408 59.8596 73.8679 59.9619C73.895 60.0642 73.8829 60.1605 73.8288 60.2508C73.7746 60.3411 73.6964 60.3982 73.5911 60.4253V60.4283ZM74.0514 60.0672C74.0966 60.0191 74.1718 60.001 74.235 59.9679C74.253 60.0311 74.2711 60.0973 74.2861 60.1605C74.2229 60.1876 74.1537 60.2448 74.0996 60.2357C74.0063 60.2207 73.9852 60.1334 74.0514 60.0642V60.0672Z" fill="#E1505F"/>
  <path d="M72.8268 62.9498L73.3233 62.2397L69.9774 59.8958C69.9714 60.0342 69.8962 60.1455 69.7518 60.1786C69.6073 60.2117 69.4328 60.2327 69.3034 60.1786C69.2974 60.1786 69.2944 60.1726 69.2914 60.1726L68.5573 61.2197L69.1139 61.6108L69.818 60.6028L70.8199 61.3039L70.3054 62.0411L70.862 62.4323L71.3766 61.6951L72.3785 62.3961L71.6744 63.4041L72.2311 63.7952L72.55 63.3379C72.5922 63.1995 72.6614 63.0701 72.7607 62.9498C72.7667 62.9438 72.7907 62.9468 72.8208 62.9498H72.8268Z" fill="#E1505F"/>
  <path d="M68.3677 63.1332C68.142 62.9407 67.8863 62.8534 67.5914 62.8715C67.2995 62.8895 67.0558 63.0099 66.8662 63.2325C66.6767 63.4522 66.5924 63.7109 66.6165 64.0028C66.6406 64.2947 66.7639 64.5384 66.9896 64.7339L68.8431 66.3317C69.0657 66.5242 69.3245 66.6115 69.6194 66.5934C69.9112 66.5754 70.1549 66.455 70.3475 66.2324C70.5371 66.0127 70.6183 65.757 70.5942 65.4651C70.5702 65.1733 70.4468 64.9295 70.2211 64.7339L68.3677 63.1362V63.1332ZM69.851 65.778C69.7818 65.8593 69.6946 65.9014 69.5893 65.9074C69.484 65.9134 69.3907 65.8834 69.3095 65.8142L67.45 64.2104C67.3687 64.1412 67.3236 64.0539 67.3146 63.9486C67.3055 63.8433 67.3356 63.7501 67.4048 63.6718C67.474 63.5906 67.5613 63.5485 67.6666 63.5394C67.7719 63.5304 67.8652 63.5635 67.9464 63.6327L69.8059 65.2364C69.8872 65.3056 69.9323 65.3959 69.9383 65.5012C69.9473 65.6065 69.9142 65.6998 69.848 65.781L69.851 65.778Z" fill="#E1505F"/>
  <path d="M66.3397 64.9898C66.1381 65.1132 65.9305 65.2245 65.7078 65.2997L66.7098 66.2957L66.0749 66.9336L66.5563 67.415L67.1912 66.7771L68.0578 67.6406L67.1912 68.5132L67.6726 68.9916L69.0116 67.6467L66.3427 64.9868L66.3397 64.9898Z" fill="#E1505F"/>
  <path d="M63.7581 66.5151L63.3338 66.8732C63.3459 66.9153 63.3579 66.9574 63.3669 66.9996C63.3369 67.0116 63.3068 67.0297 63.2797 67.0477L63.7701 67.8571L63.2376 68.3054L62.4553 67.6164L61.9197 68.0677L63.3038 69.2532C63.5746 69.0125 63.6107 69.0396 63.9296 69.3375C63.9928 69.4307 64.0831 69.518 64.1131 69.6233C64.1432 69.7256 64.1132 69.8339 64.056 69.8971L65.3739 71.0254L66.0749 70.4357L63.7641 66.5212L63.7581 66.5151ZM63.734 68.7417L64.1101 68.4228L65.0579 69.9332L63.731 68.7387L63.734 68.7417Z" fill="#E1505F"/>
  <path d="M63.1623 72.4065C63.2195 72.4997 63.2616 72.602 63.2887 72.6743C63.3308 72.6502 63.376 72.6231 63.4181 72.59C63.6167 72.4456 63.7491 72.2741 63.8093 72.0725C63.9055 71.7445 63.8333 71.4136 63.5956 71.0826C63.4632 70.899 63.3008 70.7576 63.1052 70.6583C62.9307 70.5711 62.69 70.5049 62.383 70.4597C62.022 70.4086 61.7512 70.3695 61.5706 70.3454C61.3269 70.2942 61.1524 70.1919 61.0441 70.0415C60.9689 69.9362 60.9298 69.8429 60.9237 69.7617C60.9117 69.5962 60.9629 69.4698 61.0802 69.3795C61.1614 69.3164 61.2607 69.2953 61.3781 69.3193C61.5345 69.3524 61.7 69.4638 61.8776 69.6594L62.365 69.2501C62.2145 69.0666 62.0491 68.9222 61.8745 68.8199C61.7 68.7176 61.5225 68.6664 61.342 68.6634C61.1253 68.6574 60.9117 68.7296 60.7011 68.8831C60.5867 68.9643 60.4965 69.0516 60.4303 69.1388C60.3069 69.3043 60.2437 69.4788 60.2467 69.6654C60.2437 69.9422 60.334 70.204 60.5206 70.4567C60.5958 70.559 60.7071 70.6553 60.8515 70.7456C60.9087 70.7817 60.9779 70.8208 61.0591 70.8569C61.2276 70.9351 61.4262 70.9953 61.6579 71.0344C61.7271 71.0495 61.8655 71.0615 62.0671 71.0796C62.2386 71.0916 62.374 71.1096 62.4733 71.1397C62.7381 71.2089 62.9307 71.3293 63.051 71.4948C63.1292 71.6001 63.1714 71.7054 63.1804 71.8077C63.1924 71.9341 63.1503 72.0334 63.051 72.1056C62.9577 72.1718 62.8645 72.1959 62.7712 72.1718C62.6418 72.1387 62.5154 72.0514 62.3951 71.913L61.9468 72.3824C62.0761 72.5328 62.2146 72.6442 62.368 72.7164C62.4944 72.7766 62.6207 72.8037 62.7471 72.8067C62.7832 72.6352 62.8584 72.4757 62.9758 72.3342C62.9908 72.3162 63.1353 72.3553 63.1654 72.4034L63.1623 72.4065Z" fill="#E1505F"/>
  <path d="M59.3855 69.8537L58.8253 70.2119L61.2407 73.9888L61.8009 73.6305L59.3855 69.8537Z" fill="#E1505F"/>
  <path d="M57.7343 70.8752L58.0954 71.853L57.4876 72.193L56.8497 71.3686L56.2389 71.7116L59.0733 75.2651L59.8736 74.8168L58.3421 70.5352L57.7373 70.8721L57.7343 70.8752ZM57.8968 72.7196L58.3271 72.4789L58.974 74.1428L57.8968 72.7196Z" fill="#E1505F"/>
  <path d="M54.6141 74.3502C54.6292 74.3141 54.6352 74.2719 54.6563 74.2419C54.6563 74.2419 54.6563 74.2419 54.6593 74.2388L53.9973 72.7434L53.3895 73.0142L54.1899 74.8226C54.2982 74.633 54.4487 74.4856 54.6141 74.3502Z" fill="#E1505F"/>
  <path d="M55.3423 72.1508L55.0083 72.2982C55.0323 72.4126 54.9932 72.5149 54.8699 72.545C54.8398 72.554 54.8127 72.551 54.7886 72.545L55.4536 74.0434C55.6642 74.263 55.6341 74.4526 55.3543 74.8287C55.0504 75.0183 54.7375 75.1777 54.3764 75.2409L55.2038 77.1124L55.8116 76.8416L55.0414 75.0995L55.7755 74.7745L56.5458 76.5137L57.0453 76.291C57.0633 76.2549 57.0904 76.2188 57.1265 76.1827L55.3362 72.1448L55.3423 72.1508Z" fill="#E1505F"/>
  <path d="M52.2491 73.4447L52.4387 74.4707L51.7828 74.7024L51.2953 73.7817L50.6334 74.0133L52.1348 76.7514C52.1799 76.7153 52.2431 76.6942 52.2973 76.6672C52.3153 76.7303 52.3334 76.7965 52.3484 76.8597C52.3093 76.8778 52.2672 76.9048 52.2281 76.9199L52.8178 77.9941L53.6814 77.6902L52.9021 73.21L52.2491 73.4386V73.4447ZM52.0927 75.2891L52.559 75.1266L52.9111 76.8778L52.0927 75.2921V75.2891Z" fill="#E1505F"/>
  <path d="M51.1328 77.4315C51.0726 77.2118 50.9703 77.0223 50.8259 76.8598C50.6935 76.7184 50.4919 76.571 50.2211 76.4175C49.9022 76.243 49.6615 76.1106 49.502 76.0203C49.2944 75.8849 49.165 75.7285 49.1169 75.5479C49.0838 75.4246 49.0778 75.3223 49.1048 75.244C49.153 75.0846 49.2462 74.9853 49.3847 74.9432C49.484 74.9131 49.5832 74.9281 49.6825 74.9943C49.8179 75.0786 49.9323 75.244 50.0286 75.4907L50.6303 75.2801C50.5551 75.0545 50.4528 74.8619 50.3234 74.7054C50.194 74.549 50.0466 74.4377 49.8811 74.3715C49.6825 74.2902 49.4569 74.2812 49.2041 74.3504C49.0687 74.3865 48.9544 74.4347 48.8611 74.4948C48.6866 74.6062 48.5662 74.7476 48.5 74.9221C48.3977 75.1778 48.3917 75.4577 48.476 75.7585C48.5121 75.8789 48.5813 76.0113 48.6836 76.1467C48.7257 76.2009 48.7769 76.261 48.837 76.3242C48.9664 76.4566 49.1319 76.583 49.3335 76.7033C49.3937 76.7425 49.517 76.8026 49.7006 76.8899C49.8571 76.9621 49.9774 77.0283 50.0617 77.0885C50.2843 77.248 50.4227 77.4285 50.4769 77.6241C50.51 77.7504 50.516 77.8648 50.4889 77.9611C50.4558 78.0844 50.3806 78.1596 50.2632 78.1927C50.1519 78.2228 50.0586 78.2108 49.9804 78.1536C49.8721 78.0754 49.7848 77.952 49.7186 77.7805L49.1319 78.0603C49.1981 78.2439 49.2914 78.4004 49.4087 78.5237C49.5261 78.6471 49.6585 78.7343 49.8089 78.7795C50.0015 78.8396 50.2091 78.8396 50.4408 78.7795C50.6785 78.7163 50.862 78.6019 50.9914 78.4365C51.199 78.1626 51.2472 77.8287 51.1418 77.4345L51.1328 77.4315Z" fill="#E1505F"/>
  <path d="M47.3597 76.4505C47.3928 76.4235 47.4259 76.3903 47.459 76.3603L47.2032 74.8979L46.5473 75.0123L46.8753 76.8838L46.0839 77.0222L45.756 75.1507L45.1 75.265L45.8733 79.6821L46.5293 79.5677L46.2013 77.6932L46.9926 77.5548L47.3206 79.4293L47.9765 79.315L47.5553 76.9079C47.4891 76.9079 47.4229 76.9018 47.3657 76.8778C47.1039 76.7664 47.1762 76.598 47.3597 76.4536V76.4505Z" fill="#E1505F"/>
  <path d="M43.8243 76.4445L43.1774 76.5047C43.1774 76.5047 43.1834 76.5288 43.1864 76.5408C43.1232 76.5679 43.054 76.625 42.9999 76.616C42.9066 76.601 42.8855 76.5137 42.9517 76.4445C42.9878 76.4054 43.045 76.3873 43.0962 76.3633L42.8795 75.4967L42.1815 75.5629L43.051 78.8546C43.367 78.5658 43.4031 78.5568 43.6889 78.8215L43.2947 77.1546L43.7852 77.1095L43.707 78.8396C43.707 78.8396 43.731 78.8606 43.7461 78.8757C43.8093 78.969 43.8995 79.0562 43.9296 79.1615C43.9808 79.3391 43.8484 79.5437 43.716 79.4805C43.5355 79.3962 43.3579 79.3601 43.1804 79.3451L43.3429 79.9559L44.2546 79.8686L44.5795 75.3342L43.8905 75.4005L43.8273 76.4415L43.8243 76.4445Z" fill="#E1505F"/>
  <path d="M41.6669 79.3269C41.6669 79.3269 41.694 79.3239 41.7181 79.3269L41.6549 75.5869L40.6078 75.6049C40.3189 75.611 40.0752 75.7193 39.8736 75.9329C39.672 76.1466 39.5757 76.4023 39.5787 76.6972L39.6179 79.0411C39.6239 79.336 39.7292 79.5857 39.9368 79.7903C40.1444 79.9979 40.3941 80.0972 40.683 80.0912L41.4111 80.0791C41.4021 79.8023 41.4834 79.5436 41.6669 79.3239V79.3269ZM40.6529 79.4021C40.5506 79.4021 40.4603 79.366 40.3851 79.2908C40.3099 79.2156 40.2708 79.1254 40.2708 79.017L40.2317 76.6701C40.2317 76.5648 40.2648 76.4715 40.337 76.3933C40.4092 76.315 40.4964 76.2729 40.6018 76.2729L41.0019 76.2669L41.0561 79.3961L40.6559 79.4021H40.6529Z" fill="#E1505F"/>
  <path d="M38.2007 76.1315C38.288 76.0623 38.3692 75.951 38.4685 75.9299C38.4715 75.9299 38.4745 75.9299 38.4805 75.9299L38.5588 75.6049L37.8667 75.5538L37.629 76.5708L36.934 76.5196L36.8527 75.4816L36.1547 75.4304L36.5639 79.9558L37.4786 80.022L38.315 76.5858C38.2759 76.5798 38.2368 76.5738 38.2037 76.5587C37.9419 76.4474 38.0142 76.2789 38.1977 76.1345L38.2007 76.1315ZM37.1025 78.9628L36.9851 77.1816L37.4786 77.2177L37.1025 78.9628Z" fill="#E1505F"/>
  <path d="M34.5028 75.1929L34.226 76.8598L33.8468 76.7966C33.561 76.7485 33.3022 76.8117 33.0675 76.9862C32.8328 77.1607 32.6914 77.3924 32.6433 77.6842L32.538 78.3281C32.5199 78.4395 32.5199 78.5448 32.5259 78.6471C32.6343 78.6471 32.7396 78.6471 32.8449 78.623C33.0104 78.4726 33.1006 78.3913 33.1849 78.3763L33.2842 77.7775C33.3022 77.6722 33.3534 77.5879 33.4376 77.5247C33.5219 77.4616 33.6182 77.4375 33.7235 77.4556L34.1206 77.5217L33.886 78.9389L33.7566 78.9179C33.7987 79.0924 33.6693 79.2849 33.5399 79.2248C33.2451 79.0864 32.9532 79.0683 32.6643 79.0924C32.6704 79.1014 32.6734 79.1135 32.6794 79.1225C32.8359 79.3602 33.0736 79.5046 33.3925 79.5557L34.4275 79.7273L34.5629 78.9059C34.5629 78.9059 34.5539 78.8817 34.5509 78.8697C34.5329 78.7794 34.5449 78.6952 34.6081 78.635L35.1617 75.3012L34.5058 75.1929H34.5028Z" fill="#E1505F"/>
  <path d="M31.9513 74.7022L31.5481 76.3421L31.175 76.2518C31.1539 76.2458 31.1359 76.2427 31.1178 76.2367L31.1268 74.5006L30.4258 74.3291L30.4408 76.3481C30.158 76.5045 29.9805 76.7362 29.9022 77.0461L29.7488 77.678C29.6705 77.9939 29.6856 78.2557 29.7909 78.4693C29.9113 78.713 30.149 78.8785 30.51 78.9658L31.53 79.2155L32.5952 74.8587L31.9483 74.6992L31.9513 74.7022ZM31.4337 78.5806C31.3435 78.6649 31.0185 78.6228 31.0065 78.5175C31.0005 78.4693 31.0035 78.4212 31.0035 78.3761L30.6605 78.2918C30.4137 78.2316 30.3205 78.0751 30.3836 77.8224L30.5401 77.1875C30.5642 77.0822 30.6244 77.004 30.7146 76.9468C30.8049 76.8897 30.9012 76.8746 31.0035 76.8987L31.3946 76.995L31.2171 77.7201C31.2322 77.699 31.2442 77.675 31.2622 77.6539C31.2773 77.6359 31.4217 77.675 31.4518 77.7231C31.53 77.8525 31.5782 78.0029 31.6053 78.0601C31.6083 78.3219 31.5631 78.4693 31.4398 78.5837L31.4337 78.5806Z" fill="#E1505F"/>
  <path d="M29.6404 74.3623C29.511 74.1006 29.3064 73.923 29.0266 73.8328C28.7498 73.7425 28.479 73.7636 28.2202 73.899C27.9585 74.0344 27.7839 74.242 27.6907 74.5248L26.9354 76.8537C26.8452 77.1365 26.8632 77.4073 26.9956 77.6691C27.125 77.9308 27.3326 78.1084 27.6094 78.1986C27.8832 78.2889 28.151 78.2648 28.4128 78.1294C28.6746 77.994 28.8491 77.7864 28.9424 77.5036L29.6976 75.1747C29.7879 74.8919 29.7698 74.6211 29.6404 74.3593V74.3623ZM29.0748 74.9822L28.3165 77.3171C28.2834 77.4194 28.2202 77.4946 28.1239 77.5427C28.0307 77.5909 27.9314 77.5999 27.8321 77.5668C27.7328 77.5337 27.6576 77.4705 27.6094 77.3772C27.5613 77.2839 27.5553 77.1847 27.5884 77.0824L27.8802 76.1887C27.8261 76.1045 27.8712 76.0082 27.9675 75.9149L28.3466 74.7475C28.3797 74.6452 28.4429 74.5699 28.5362 74.5218C28.6294 74.4737 28.7257 74.4646 28.828 74.4977C28.9273 74.5308 29.0025 74.594 29.0507 74.6903C29.0988 74.7866 29.1048 74.8829 29.0717 74.9852L29.0748 74.9822Z" fill="#E1505F"/>
  <path d="M26.8542 73.1047L26.1351 74.8679L25.3047 74.5279L25.0459 75.1568L25.8794 75.4968L25.416 76.6311L24.2786 76.1647L24.0229 76.7966L25.7771 77.5127L27.4711 73.3545L26.8542 73.1047Z" fill="#E1505F"/>
  <path d="M24.9165 72.56C24.8262 72.2802 24.6487 72.0786 24.3839 71.9492C24.1221 71.8198 23.8513 71.8048 23.5745 71.9011C23.2977 71.9974 23.0931 72.1779 22.9607 72.4457L21.8805 74.6422C21.7511 74.907 21.7301 75.1808 21.8234 75.4606C21.9166 75.7404 22.0942 75.945 22.3559 76.0744C22.6147 76.2008 22.8825 76.2188 23.1623 76.1195C23.4391 76.0233 23.6437 75.8427 23.7761 75.5749L24.8563 73.3784C24.9857 73.1136 25.0067 72.8398 24.9165 72.563V72.56ZM24.2696 73.0956L23.1864 75.2981C23.1382 75.3944 23.066 75.4606 22.9637 75.4937C22.8644 75.5268 22.7651 75.5208 22.6719 75.4756C22.5756 75.4305 22.5124 75.3553 22.4793 75.256C22.4462 75.1567 22.4522 75.0574 22.5004 74.9611L23.5835 72.7586C23.6317 72.6623 23.7039 72.5961 23.8032 72.563C23.9025 72.5269 23.9988 72.533 24.0951 72.5811C24.1913 72.6262 24.2545 72.7014 24.2876 72.8007C24.3207 72.9 24.3147 72.9993 24.2696 73.0956Z" fill="#E1505F"/>
  <path d="M20.0902 74.8018L20.6529 75.1328L22.4101 72.1419C22.5605 71.8862 22.5997 71.6184 22.5274 71.3356C22.4552 71.0527 22.2958 70.8361 22.04 70.6886C21.7873 70.5412 21.5225 70.5021 21.2396 70.5743C20.9568 70.6465 20.7402 70.812 20.5867 71.0708L18.8295 74.0616L19.4283 74.4136L21.1825 71.4288C21.2366 71.3355 21.3149 71.2754 21.4172 71.2483C21.5195 71.2212 21.6157 71.2332 21.706 71.2874C21.7963 71.3416 21.8565 71.4198 21.8835 71.5221C21.9106 71.6244 21.8956 71.7237 21.8414 71.814L20.0872 74.7958L20.0902 74.8018Z" fill="#E1505F"/>
  <path d="M16.7384 72.3434C16.7685 72.3885 16.8046 72.4306 16.8347 72.4728L18.4444 70.1649L17.4425 73.1437L18.0563 73.571L20.6259 69.8911L20.0782 69.509L18.4324 71.865L19.326 68.9824L18.7393 68.5732L16.2449 72.1448C16.4074 72.0334 16.4766 72.0966 16.7354 72.3373L16.7384 72.3434Z" fill="#E1505F"/>
  <path d="M18.0111 68.0016L17.4845 67.5714C17.2619 67.3878 17.0031 67.3126 16.7143 67.3457C16.4224 67.3788 16.1847 67.5082 15.9952 67.7369L14.5088 69.5482C14.3222 69.7739 14.241 70.0327 14.2651 70.3245C14.2891 70.6164 14.4125 70.8541 14.6382 71.0376L15.4475 71.7026L18.1585 68.3958C18.0623 68.4109 17.969 68.4229 17.8667 68.4199C17.8907 68.2544 17.9449 68.119 18.0111 67.9987V68.0016ZM16.1817 70.0086C16.1185 70.0356 16.0523 70.0928 15.9952 70.0838C15.9711 70.0808 15.953 70.0718 15.938 70.0567L15.3723 70.7457L15.0624 70.49C14.9812 70.4238 14.939 70.3395 14.93 70.2312C14.921 70.1259 14.9511 70.0296 15.0203 69.9484L16.5097 68.134C16.5759 68.0528 16.6631 68.0047 16.7684 67.9926C16.8737 67.9776 16.967 68.0047 17.0483 68.0739L17.3582 68.3296L16.1336 69.822C16.1516 69.8852 16.1667 69.9484 16.1847 70.0116L16.1817 70.0086Z" fill="#E1505F"/>
  <path d="M15.4188 65.7336L12.3464 68.9985L12.8306 69.4542L15.903 66.1893L15.4188 65.7336Z" fill="#E1505F"/>
  <path d="M12.7787 65.1492L11.193 67.8632L11.7075 68.4078L14.9691 65.3237L14.5118 64.8393L12.4236 66.8131L13.8799 64.1743L13.3895 63.6538L10.1279 66.7379L10.5852 67.2223L12.7787 65.1492Z" fill="#E1505F"/>
  <path d="M8.86412 64.1472L8.40076 64.5233C8.49102 64.5504 8.54518 64.6226 8.57226 64.7159C8.58731 64.7671 8.5843 64.8182 8.57226 64.8634L9.5351 66.0488L13.0164 63.2175L12.5951 62.7L11.1178 63.9005L10.5521 63.2024L10.0255 63.6297L10.5912 64.3278L9.64041 65.1011L8.86412 64.1472Z" fill="#E1505F"/>
  <path d="M11.5481 61.385L11.2502 60.9668C11.2141 61.045 11.1509 61.1022 11.0546 61.1233C10.9102 61.1564 10.7357 61.1774 10.6063 61.1233C10.5431 61.0962 10.501 61.0661 10.4739 61.036L10.6123 61.2316L7.50415 63.4401L7.88929 63.9817L11.5451 61.385H11.5481Z" fill="#E1505F"/>
  <path d="M10.6003 60.6961C10.6876 60.6269 10.7688 60.5156 10.8681 60.4945C10.8861 60.4915 10.9012 60.4945 10.9162 60.4915L10.498 59.9048L9.95038 60.2929L10.4649 61.015C10.3987 60.9157 10.4709 60.8014 10.6033 60.6961H10.6003Z" fill="#E1505F"/>
  <path d="M8.69568 58.283C8.71072 58.2469 8.71674 58.2048 8.7378 58.1747C8.75887 58.1476 8.77692 58.1265 8.79497 58.1055C8.61444 58.1115 8.43992 58.1596 8.27444 58.2649L5.31671 60.0763L5.68079 60.669L8.12098 59.1736C8.19019 58.7493 8.42488 58.5056 8.69568 58.286V58.283Z" fill="#E1505F"/>
  <path d="M6.41796 61.8754L9.37569 60.064C9.62843 59.9106 9.7879 59.6909 9.86012 59.4081C9.92932 59.1253 9.89021 58.8575 9.73374 58.6077C9.70065 58.5536 9.66153 58.5054 9.62242 58.4573C9.5833 58.5445 9.52312 58.6438 9.43286 58.7642C9.33056 58.8274 9.22524 58.8875 9.11993 58.9417C9.13197 58.9567 9.14701 58.9658 9.15604 58.9808C9.2102 59.0711 9.22524 59.1674 9.20117 59.2727C9.1771 59.375 9.11993 59.4562 9.02666 59.5104L6.07495 61.3187L6.41495 61.8754H6.41796Z" fill="#E1505F"/>
  <path d="M8.85816 57.2237L7.98859 55.5417L7.38381 55.8516L7.94948 56.9469L6.86026 57.5065L6.44805 56.7092L5.84627 57.0221L6.25849 57.8195L5.16927 58.3821L4.60661 57.2899L4.00183 57.6028L4.8714 59.2848L8.85816 57.2237Z" fill="#E1505F"/>
  <path d="M7.53119 54.5369L5.69879 55.3223C5.72587 55.3854 5.74392 55.4396 5.75595 55.4697C5.75896 55.7315 5.71383 55.8789 5.59047 55.9932C5.5002 56.0775 5.17524 56.0353 5.1632 55.93C5.14816 55.7946 5.15719 55.6683 5.18427 55.5449L4.88639 55.6713L5.23843 55.3643C5.28055 55.259 5.33471 55.1597 5.41294 55.0665C5.42498 55.0544 5.49719 55.0695 5.54834 55.0966L7.16411 53.6975L6.88127 53.0415L2.7561 54.8107L3.01788 55.4215L5.78905 54.233L3.36691 56.2339L3.66178 56.9199L7.78694 55.1507L7.52517 54.5399L7.53119 54.5369Z" fill="#E1505F"/>
  <path d="M3.4181 53.6311L5.73493 52.8428C6.01476 52.7465 6.22237 52.569 6.35175 52.3072C6.48414 52.0455 6.5022 51.7746 6.40892 51.4978C6.31565 51.224 6.13812 51.0224 5.87635 50.893C5.84325 50.878 5.81016 50.869 5.77706 50.8569C5.80715 50.8991 5.83423 50.9412 5.84626 50.9893C5.89741 51.1669 5.76502 51.3715 5.63263 51.3083C5.25652 51.1338 4.88643 51.1488 4.51634 51.1999L4.68484 51.6994L5.27157 51.5008C5.37387 51.4677 5.47015 51.4738 5.56644 51.5189C5.66272 51.5671 5.72591 51.6393 5.75901 51.7386C5.7921 51.8378 5.78608 51.9371 5.73794 52.0304C5.6898 52.1237 5.61458 52.1899 5.51529 52.223L3.18942 53.0113C3.08712 53.0444 2.98783 53.0414 2.89155 52.9932C2.79526 52.9481 2.72907 52.8759 2.69597 52.7736C2.66287 52.6743 2.66889 52.575 2.71703 52.4787C2.76517 52.3824 2.8404 52.3192 2.9427 52.2831L3.44217 52.1147L3.21951 51.4617L2.73508 51.6272C2.45526 51.7235 2.24765 51.901 2.11526 52.1628C1.98287 52.4246 1.9618 52.6924 2.05809 52.9722C2.15136 53.249 2.3319 53.4506 2.59367 53.58C2.85845 53.7094 3.13226 53.7244 3.41509 53.6281L3.4181 53.6311Z" fill="#E1505F"/>
  <path d="M5.86731 50.0114L5.3889 48.176L5.07297 48.2572C5.082 48.2933 5.09403 48.3325 5.10306 48.3686C5.03987 48.3956 4.97067 48.4528 4.91651 48.4438C4.8443 48.4317 4.81722 48.3746 4.83828 48.3174L4.72996 48.3445L5.03987 49.536L3.85438 49.8459L3.62871 48.9764L2.96977 49.1479L3.19543 50.0175L2.00993 50.3273L1.70002 49.1358L1.04108 49.3073L1.51949 51.1428L5.8613 50.0084L5.86731 50.0114Z" fill="#E1505F"/>
  <path d="M4.05294 46.792C4.34481 46.7469 4.5795 46.6085 4.75401 46.3738C4.93154 46.1391 4.99472 45.8773 4.94959 45.5885C4.90446 45.2996 4.76304 45.071 4.52534 44.8995C4.28764 44.728 4.01985 44.6648 3.72498 44.7099L1.30584 45.086C1.01398 45.1311 0.779287 45.2726 0.604772 45.5073C0.430257 45.742 0.364062 46.0067 0.409195 46.2956C0.454328 46.5814 0.595745 46.8101 0.833446 46.9816C1.07115 47.1531 1.33894 47.2163 1.63381 47.1711L4.05294 46.795V46.792ZM1.23363 46.455C1.14938 46.3918 1.09823 46.3076 1.08017 46.2053C1.06513 46.1 1.08619 46.0067 1.14938 45.9225C1.21256 45.8382 1.29681 45.7871 1.40212 45.772L3.82728 45.3959C3.93259 45.3809 4.02887 45.4019 4.11613 45.4651C4.20038 45.5253 4.25153 45.6095 4.26958 45.7149C4.28463 45.8202 4.26357 45.9134 4.20038 46.0007C4.13719 46.0849 4.05294 46.1391 3.94763 46.1541L1.52248 46.5303C1.41717 46.5453 1.32088 46.5242 1.23363 46.4611V46.455Z" fill="#E1505F"/>
  <path d="M4.5434 42.3358L4.49526 41.7009L0.0210571 42.0439L0.072208 42.7089L3.07808 42.4802L0.138403 43.5905L0.195572 44.3367L4.66977 43.9937L4.61862 43.3287L4.40499 43.3438C4.37791 43.437 4.33579 43.5123 4.26959 43.5724C4.17932 43.6567 3.85437 43.6146 3.84233 43.5093C3.83631 43.4671 3.84233 43.428 3.84233 43.3859L1.75718 43.5454L4.408 42.4712C4.41703 42.4471 4.42906 42.4261 4.4411 42.414C4.47419 42.3809 4.5103 42.3569 4.54641 42.3358H4.5434Z" fill="#E1505F"/>
  <path d="M0.893636 39.2488C1.07116 39.2126 1.2216 39.2698 1.28178 39.4383L4.48323 39.5196L4.50128 38.8546L0.0180531 38.7402L0 39.4052L0.658944 39.4233C0.734166 39.3541 0.806379 39.2668 0.893636 39.2488Z" fill="#E1505F"/>
  <path d="M0.770281 37.2871L4.56447 37.588L4.61562 36.9231L0.82444 36.6222L0.8786 35.9211L0.201603 35.8669L0.0391235 37.9401L0.716121 37.9942L0.770281 37.2871Z" fill="#E1505F"/>
  <path d="M4.15827 34.8468C4.02588 34.9371 3.82729 34.9762 3.56552 34.9642L3.51437 35.599C3.75207 35.6201 3.96871 35.605 4.16429 35.5509C4.35986 35.4967 4.52234 35.4064 4.64872 35.2801C4.73296 35.1988 4.79916 35.0965 4.85031 34.9822C4.82925 35.0123 4.80518 35.0424 4.7781 35.0695C4.68783 35.1537 4.36287 35.1116 4.35084 35.0063C4.31172 34.6843 4.39597 34.3925 4.60358 34.1427C4.61863 34.1247 4.76305 34.1638 4.79314 34.2119C4.87137 34.3413 4.91952 34.4918 4.9466 34.5489C4.9466 34.6001 4.9466 34.6422 4.94058 34.6813C4.94058 34.6783 4.94058 34.6753 4.94058 34.6723C4.96164 34.5339 4.96465 34.4075 4.9466 34.2992C4.91651 34.0946 4.83226 33.9291 4.69987 33.7997C4.50429 33.6042 4.25455 33.4838 3.94464 33.4417C3.81827 33.4236 3.67384 33.4356 3.50534 33.4747C3.43614 33.4898 3.36393 33.5139 3.27968 33.544C3.10516 33.6072 2.92463 33.7095 2.73507 33.8449C2.67489 33.887 2.56958 33.9743 2.41613 34.1066C2.28675 34.221 2.17843 34.3022 2.08816 34.3564C1.85347 34.4948 1.63382 34.552 1.42922 34.5189C1.29984 34.4978 1.19453 34.4557 1.1163 34.3925C1.017 34.3142 0.977888 34.2119 0.995941 34.0916C1.01399 33.9772 1.06214 33.896 1.14638 33.8479C1.26072 33.7787 1.41117 33.7516 1.59471 33.7606L1.57365 33.1107C1.37807 33.0987 1.20054 33.1197 1.03807 33.1769C0.878595 33.234 0.746205 33.3213 0.643903 33.4386C0.511513 33.5891 0.427263 33.7817 0.394166 34.0164C0.358059 34.2601 0.388149 34.4737 0.487441 34.6573C0.655939 34.9551 0.938773 35.1357 1.34196 35.1989C1.56763 35.232 1.78126 35.2169 1.98887 35.1477C2.17241 35.0815 2.38905 34.9581 2.63578 34.7716C2.92463 34.5489 3.14428 34.3834 3.2887 34.2721C3.49632 34.1337 3.69189 34.0796 3.87544 34.1097C4.00181 34.1277 4.09809 34.1668 4.15827 34.221C4.28464 34.3293 4.3388 34.4527 4.32075 34.6001C4.30871 34.7024 4.25455 34.7866 4.15526 34.8528L4.15827 34.8468Z" fill="#E1505F"/>
  <path d="M4.99175 32.56C5.01582 32.557 5.03989 32.554 5.06396 32.551C5.1783 32.4487 5.25352 32.3795 5.31971 32.3404L5.40998 31.9793L3.56554 31.5249L3.75811 30.7456L5.60255 31.2L5.76202 30.5531L1.40818 29.4819L1.24871 30.1288L3.09616 30.5832L2.90359 31.3625L1.05614 30.9081L0.896667 31.555L4.99175 32.563V32.56Z" fill="#E1505F"/>
  <path d="M1.84904 28.0275L1.65363 28.6631L5.9389 29.9806L6.13431 29.345L1.84904 28.0275Z" fill="#E1505F"/>
  <path d="M3.1142 27.5232C3.32783 27.6014 3.54146 27.6285 3.7581 27.6044C3.95067 27.5774 4.18837 27.4991 4.46819 27.3667C4.79616 27.2073 5.04289 27.0899 5.20838 27.0087C5.44006 26.9154 5.64165 26.9033 5.81617 26.9665C5.93652 27.0117 6.02077 27.0658 6.07192 27.132C6.17422 27.2614 6.20131 27.3968 6.15617 27.5352C6.12608 27.6345 6.05387 27.7037 5.94254 27.7489C5.79511 27.809 5.59351 27.806 5.33776 27.7428L5.16023 28.3537C5.38891 28.4229 5.60555 28.4529 5.80714 28.4379C6.00874 28.4228 6.18626 28.3687 6.3367 28.2724C6.52025 28.1581 6.65564 27.9775 6.74591 27.7338C6.79405 27.6014 6.82113 27.4811 6.82715 27.3697C6.83618 27.1621 6.79105 26.9816 6.68874 26.8281C6.5383 26.5965 6.31564 26.428 6.02077 26.3257C5.90042 26.2836 5.75599 26.2655 5.58449 26.2685C5.51528 26.2685 5.43705 26.2775 5.34979 26.2895C5.16625 26.3166 4.96767 26.3798 4.75404 26.4731C4.68784 26.5002 4.56448 26.5664 4.38996 26.6656C4.24253 26.7499 4.11615 26.8101 4.01987 26.8432C3.76111 26.9335 3.53544 26.9425 3.34287 26.8703C3.21951 26.8251 3.12623 26.7619 3.06004 26.6837C2.9788 26.5844 2.96075 26.4791 3.00287 26.3648C3.04199 26.2564 3.10818 26.1872 3.19845 26.1541C3.32482 26.112 3.47526 26.112 3.6558 26.1572L3.76712 25.5193C3.57756 25.4651 3.40004 25.4531 3.22854 25.4772C3.06004 25.5012 2.9126 25.5614 2.78924 25.6547C2.62977 25.775 2.50941 25.9466 2.42517 26.1692C2.34092 26.4009 2.32587 26.6175 2.38605 26.8161C2.48835 27.1441 2.73207 27.3758 3.1142 27.5202V27.5232Z" fill="#E1505F"/>
  <path d="M4.07101 24.081L4.53739 24.2946C4.54641 24.2796 4.55544 24.2646 4.56447 24.2555C4.85332 23.9787 5.23845 24.1141 5.57545 24.0449C5.57545 24.0449 5.57846 24.0449 5.58147 24.0389L4.34783 23.4762L4.63969 22.8353L4.01986 22.5525L3.15631 24.4451L3.77614 24.7279L4.07101 24.084V24.081Z" fill="#E1505F"/>
  <path d="M6.2705 24.6437C5.87032 24.4571 5.47917 24.4872 5.08801 24.5444L7.51016 25.6516C7.50414 25.5553 7.53724 25.4711 7.63954 25.42C7.63954 25.42 7.64255 25.42 7.64556 25.42L7.81105 25.0559L6.49316 24.4541C6.4721 24.5835 6.3728 24.6888 6.2705 24.6437Z" fill="#E1505F"/>
  <path d="M5.25649 22.357L7.40482 23.5304C7.66359 23.6719 7.93439 23.7049 8.21722 23.6237C8.50006 23.5455 8.71068 23.377 8.85209 23.1182C8.9905 22.8625 9.02059 22.5947 8.93634 22.3118C8.85209 22.029 8.68059 21.8184 8.41882 21.674L6.27048 20.5005C6.01171 20.3591 5.74092 20.329 5.45808 20.4072C5.17525 20.4885 4.96463 20.6569 4.82321 20.9127C4.6848 21.1654 4.65772 21.4332 4.74197 21.7161C4.82622 21.9989 4.99772 22.2095 5.2595 22.354L5.25649 22.357ZM5.40091 21.2557C5.45206 21.1624 5.52729 21.1023 5.62959 21.0722C5.73189 21.0421 5.82817 21.0541 5.92446 21.1053L8.07881 22.2818C8.17209 22.3329 8.23527 22.4081 8.26536 22.5104C8.29545 22.6127 8.28643 22.709 8.23527 22.8023C8.18412 22.8956 8.1089 22.9557 8.0066 22.9858C7.9043 23.0159 7.80801 23.0039 7.71173 22.9527L5.55737 21.7762C5.50923 21.7672 5.48215 21.7401 5.47313 21.707C5.42799 21.6619 5.39189 21.6108 5.37383 21.5476C5.34374 21.4453 5.35277 21.349 5.40392 21.2557H5.40091Z" fill="#E1505F"/>
  <path d="M6.4119 18.358L5.84021 19.2366L9.5983 21.6828L9.96237 21.1232L8.54519 20.2024L8.75581 19.8805C8.76785 19.8625 8.77687 19.8474 8.78891 19.8293L10.4257 20.4131L10.8199 19.8083L8.9905 19.1824C8.98749 19.3118 8.90625 19.4623 8.7528 19.6699C8.35563 19.9166 7.94341 20.1212 7.43191 20.1092C7.46199 19.9016 7.5312 19.7391 7.62447 19.5977L6.785 19.0531L7.00465 18.7161C7.14305 18.5024 7.32058 18.4694 7.54023 18.6108L8.08784 18.9688C8.08784 18.9688 8.1089 18.9899 8.12094 19.0019C8.38572 18.683 8.56926 18.6318 8.77687 18.8154C8.7859 18.8244 8.79192 18.8304 8.80094 18.8364C8.7167 18.6679 8.59634 18.5265 8.42784 18.4182L7.88324 18.0631C7.61244 17.8856 7.35668 17.8134 7.12199 17.8405C6.8542 17.8736 6.6165 18.0451 6.41491 18.355L6.4119 18.358Z" fill="#E1505F"/>
  <path d="M8.02465 17.1938C8.00057 17.0765 8.02765 16.9712 8.14801 16.911C8.28642 16.914 8.36465 17.0012 8.39775 17.1186C8.42182 17.1998 8.40677 17.2721 8.35863 17.3262L9.93227 17.8437L11.4307 18.9751L11.8309 18.4425L10.3325 17.3112L8.7889 15.0244L8.34359 15.6111L9.33351 16.9742L7.75084 16.3965L7.30853 16.9802L8.02465 17.2149C8.02465 17.2149 8.01863 17.1968 8.01562 17.1878L8.02465 17.1938Z" fill="#E1505F"/>
  <path d="M27.2695 37.1695C27.2424 37.1545 27.2243 37.1365 27.2063 37.1184H25.9576V37.6269H27.2664V37.1695H27.2695Z" fill="#E1505F"/>
  <path d="M29.6766 37.7985C29.6766 38.301 29.8962 38.7222 30.4168 38.8155C30.4589 38.7283 30.507 38.641 30.5732 38.5628C30.5883 38.5447 30.7327 38.5838 30.7628 38.632C30.8019 38.6952 30.832 38.7614 30.8561 38.8215C31.4007 38.7373 31.6323 38.313 31.6323 37.7985C31.6323 37.4134 31.4969 37.1065 31.169 36.947C31.4277 36.7755 31.5601 36.4807 31.5601 36.1406C31.5601 35.596 31.2532 35.1477 30.6545 35.1477C30.0557 35.1477 29.7488 35.596 29.7488 36.1406C29.7488 36.4776 29.8782 36.7755 30.1339 36.947C29.812 37.1065 29.6766 37.4134 29.6766 37.7985ZM30.6545 35.5298C30.9463 35.5298 31.1389 35.7645 31.1389 36.1496C31.1389 36.5348 30.9463 36.7695 30.6545 36.7695C30.3626 36.7695 30.176 36.5348 30.176 36.1496C30.176 35.7645 30.3626 35.5298 30.6545 35.5298ZM30.6545 37.1456C31.0065 37.1456 31.1961 37.3953 31.1961 37.8015C31.1961 38.2077 31.0095 38.4605 30.6545 38.4605C30.2994 38.4605 30.1129 38.2047 30.1129 37.8015C30.1129 37.3983 30.2994 37.1456 30.6545 37.1456Z" fill="#E1505F"/>
  <path d="M32.5229 36.3031C32.5229 36.944 32.8088 37.4525 33.4106 37.4525C33.6693 37.4525 33.883 37.3292 34.0394 37.1185C34.0304 37.94 33.9341 38.4605 33.5189 38.4605C33.203 38.4605 33.0465 38.1746 33.0465 37.6812H32.6162C32.6162 38.3401 32.875 38.8396 33.5008 38.8396C34.1267 38.8396 34.4787 38.3762 34.4787 36.8899C34.4787 36.276 34.3945 35.8578 34.241 35.584C34.1628 35.593 34.0876 35.6051 34.0063 35.602C34.0184 35.5118 34.0424 35.4365 34.0695 35.3613C33.907 35.2109 33.6994 35.1477 33.4557 35.1477C32.9201 35.1477 32.526 35.59 32.526 36.3001L32.5229 36.3031ZM34.0063 36.3031C34.0063 36.7304 33.8408 37.0764 33.4828 37.0764C33.1247 37.0764 32.9622 36.7274 32.9622 36.3031C32.9622 35.8789 33.1247 35.5298 33.4828 35.5298C33.8408 35.5298 34.0063 35.8789 34.0063 36.3031Z" fill="#E1505F"/>
  <path d="M35.4446 36.1406C35.4446 36.4776 35.574 36.7755 35.8297 36.947C35.5078 37.1065 35.3724 37.4134 35.3724 37.7985C35.3724 38.3702 35.6582 38.8366 36.3503 38.8366C37.0423 38.8366 37.3281 38.3702 37.3281 37.7985C37.3281 37.4134 37.1927 37.1065 36.8648 36.947C37.1235 36.7755 37.2529 36.4807 37.2529 36.1406C37.2529 35.596 36.946 35.1477 36.3472 35.1477C35.7485 35.1477 35.4416 35.596 35.4416 36.1406H35.4446ZM36.8888 37.7985C36.8888 38.2047 36.7023 38.4575 36.3472 38.4575C35.9922 38.4575 35.8057 38.2017 35.8057 37.7985C35.8057 37.3953 35.9922 37.1426 36.3472 37.1426C36.7023 37.1426 36.8888 37.3923 36.8888 37.7985ZM36.8317 36.1466C36.8317 36.5318 36.6391 36.7665 36.3472 36.7665C36.0554 36.7665 35.8688 36.5318 35.8688 36.1466C35.8688 35.7615 36.0554 35.5268 36.3472 35.5268C36.6391 35.5268 36.8317 35.7615 36.8317 36.1466Z" fill="#E1505F"/>
  <path d="M40.1745 37.7985C40.1745 37.4134 40.0391 37.1065 39.7112 36.947C39.9699 36.7755 40.1023 36.4807 40.1023 36.1406C40.1023 35.596 39.7954 35.1477 39.1966 35.1477C38.5979 35.1477 38.291 35.596 38.291 36.1406C38.291 36.4776 38.4203 36.7755 38.6761 36.947C38.3542 37.1065 38.2188 37.4134 38.2188 37.7985C38.2188 38.3702 38.5046 38.8366 39.1966 38.8366C39.8887 38.8366 40.1745 38.3702 40.1745 37.7985ZM39.1966 35.5298C39.4885 35.5298 39.6811 35.7645 39.6811 36.1496C39.6811 36.5348 39.4885 36.7695 39.1966 36.7695C38.9048 36.7695 38.7182 36.5348 38.7182 36.1496C38.7182 35.7645 38.9048 35.5298 39.1966 35.5298ZM39.1966 38.4605C38.8446 38.4605 38.655 38.2047 38.655 37.8015C38.655 37.3983 38.8416 37.1456 39.1966 37.1456C39.5517 37.1456 39.7382 37.3953 39.7382 37.8015C39.7382 38.2077 39.5517 38.4605 39.1966 38.4605Z" fill="#E1505F"/>
  <path d="M42.5846 37.1185C42.5756 37.94 42.4793 38.4605 42.0641 38.4605C41.7482 38.4605 41.5917 38.1746 41.5917 37.6812H41.1614C41.1614 38.3401 41.4202 38.8396 42.046 38.8396C42.6719 38.8396 43.0239 38.3762 43.0239 36.8899C43.0239 35.569 42.6388 35.1477 42.0009 35.1477C41.4653 35.1477 41.0712 35.59 41.0712 36.3001C41.0712 36.941 41.357 37.4495 41.9588 37.4495C42.0641 37.4495 42.1604 37.4254 42.2506 37.3863C42.2567 37.3773 42.2597 37.3682 42.2687 37.3592C42.3138 37.3111 42.3891 37.293 42.4522 37.2599C42.4522 37.2599 42.4522 37.2599 42.4522 37.263C42.5004 37.2208 42.5455 37.1727 42.5876 37.1185H42.5846ZM42.025 37.0764C41.6669 37.0764 41.5044 36.7274 41.5044 36.3031C41.5044 35.8789 41.6669 35.5298 42.025 35.5298C42.383 35.5298 42.5485 35.8789 42.5485 36.3031C42.5485 36.7274 42.383 37.0764 42.025 37.0764Z" fill="#E1505F"/>
  <path d="M45.8703 36.9951C45.8703 36.1526 45.747 35.6682 45.5213 35.4094C45.5153 35.4154 45.5123 35.4215 45.5093 35.4275C45.3949 35.4997 45.2746 35.5628 45.1542 35.626C45.3679 35.8126 45.431 36.2549 45.431 36.8146V37.1786C45.431 37.9218 45.3167 38.4634 44.8894 38.4634C44.4622 38.4634 44.3479 37.9218 44.3479 37.1786V36.8146C44.3479 36.4144 44.384 36.0743 44.4802 35.8457C44.384 35.8607 44.2847 35.8728 44.1824 35.8698C44.2185 35.602 44.3268 35.4094 44.4622 35.2439C44.1101 35.4304 43.9116 35.9239 43.9116 36.9951C43.9116 38.4454 44.2756 38.8395 44.8894 38.8395C45.5033 38.8395 45.8673 38.4454 45.8673 36.9951H45.8703Z" fill="#E1505F"/>
  <path d="M49.15 38.8396C49.6946 38.8396 50.0135 38.5236 50.0135 37.9309V35.2139H49.5562V37.958C49.5562 38.2588 49.4118 38.4213 49.15 38.4213C48.8882 38.4213 48.7438 38.2619 48.7438 37.958V37.6992H48.2864V37.9339C48.2864 38.5267 48.6024 38.8426 49.15 38.8426V38.8396Z" fill="#E1505F"/>
  <path d="M53.4587 35.8217C53.3233 35.4456 52.9863 35.2109 52.4628 35.2109H51.19V38.7764H51.6474V37.7775C51.5872 37.8076 51.527 37.8557 51.4728 37.8467C51.3796 37.8317 51.3585 37.7444 51.4247 37.6752C51.4698 37.6271 51.545 37.609 51.6082 37.5759C51.6203 37.6241 51.6353 37.6722 51.6474 37.7204V37.3021H52.4628C53.1217 37.3021 53.5279 36.8749 53.5279 36.246C53.5279 36.2189 53.5219 36.1918 53.5219 36.1648C53.4617 36.1708 53.4075 36.1798 53.3444 36.1798C53.3624 36.0384 53.4045 35.924 53.4557 35.8157L53.4587 35.8217ZM52.4477 36.8899H51.6474V35.6262H52.4477C52.8389 35.6262 53.0495 35.8639 53.0495 36.249C53.0495 36.6342 52.8118 36.8869 52.4477 36.8869V36.8899Z" fill="#E1505F"/>
  <path d="M25.7018 47.5594V46.2355H26.2494V45.6638H25.7018V42.8927H25.3889C25.2866 43.3079 25.2174 43.5907 25.0609 43.9728V45.6638H23.5896C23.8874 45.2336 24.7329 43.5335 25.0308 42.0923H24.3809C24.068 43.3139 23.5505 44.6288 22.9878 45.6548V46.2355H25.0639V47.5594H25.7048H25.7018Z" fill="#E1505F"/>
  <path d="M30.3776 46.088C30.3776 45.5073 30.173 45.0469 29.6796 44.8032C30.0707 44.5444 30.2663 44.0991 30.2663 43.5906C30.2663 42.7692 29.8029 42.0952 28.9033 42.0952C28.0036 42.0952 27.5403 42.7692 27.5403 43.5906C27.5403 44.0991 27.7358 44.5444 28.121 44.8032C27.6365 45.0469 27.4319 45.5073 27.4319 46.088C27.4319 46.9485 27.8622 47.6526 28.9033 47.6526C29.9444 47.6526 30.3746 46.9485 30.3746 46.088H30.3776ZM28.9063 42.6669C29.3456 42.6669 29.6344 43.0189 29.6344 43.5997C29.6344 44.1804 29.3456 44.5324 28.9063 44.5324C28.467 44.5324 28.1872 44.1804 28.1872 43.5997C28.1872 43.0189 28.47 42.6669 28.9063 42.6669ZM28.0909 46.088C28.0909 45.4772 28.3737 45.1011 28.9063 45.1011C29.4389 45.1011 29.7217 45.4772 29.7217 46.088C29.7217 46.6988 29.4389 47.0809 28.9063 47.0809C28.3737 47.0809 28.0909 46.6988 28.0909 46.088Z" fill="#E1505F"/>
  <path d="M34.6683 44.7189C34.6683 43.5815 34.4787 42.8895 34.1357 42.5013C33.898 42.6096 33.6422 42.6849 33.3594 42.6909C33.7656 42.8022 33.9582 43.2716 33.9582 43.8313C33.9582 44.4722 33.7084 44.9987 33.1668 44.9987C32.6252 44.9987 32.3845 44.4752 32.3845 43.8313C32.3845 43.1874 32.6283 42.6638 33.1668 42.6638C33.206 42.6638 33.2391 42.6729 33.2721 42.6759C33.3052 42.4502 33.3895 42.2757 33.4978 42.1282C33.3805 42.1042 33.2571 42.0891 33.1277 42.0891C32.3213 42.0891 31.7256 42.7541 31.7256 43.8283C31.7256 44.7911 32.1559 45.5584 33.0645 45.5584C33.4557 45.5584 33.7776 45.3718 34.0123 45.0559C33.9973 46.2925 33.8559 47.0748 33.23 47.0748C32.7516 47.0748 32.5169 46.6446 32.5169 45.9014H31.867C31.867 46.0849 31.8851 46.2564 31.9121 46.4189C31.9723 46.461 32.0415 46.5242 32.1408 46.6175C32.204 46.7108 32.2943 46.798 32.3244 46.9033C32.3605 47.0237 32.3093 47.1561 32.2311 47.2072C32.4477 47.481 32.7606 47.6495 33.1969 47.6495C34.1207 47.6495 34.6683 46.9515 34.6683 44.7129V44.7189Z" fill="#E1505F"/>
  <path d="M38.9589 44.8754C38.9589 42.691 38.4023 42.0952 37.4876 42.0952C36.5729 42.0952 36.0162 42.691 36.0162 44.8754C36.0162 47.0599 36.5639 47.6556 37.4876 47.6556C38.4113 47.6556 38.9589 47.0599 38.9589 44.8754ZM38.3 45.1492C38.3 46.2685 38.1285 47.084 37.4846 47.084C36.8407 47.084 36.6692 46.2685 36.6692 45.1492V44.6016C36.6692 43.4823 36.8407 42.6669 37.4846 42.6669C38.1285 42.6669 38.3 43.4823 38.3 44.6016V45.1492Z" fill="#E1505F"/>
  <path d="M40.2979 47.46V47.5623H43.2195V46.9033H41.0892C41.1193 46.8161 41.1674 46.7228 41.2306 46.6295C41.369 46.4189 41.5465 46.2113 41.7361 46.0006C41.709 45.9645 41.709 45.9134 41.7541 45.8683C41.7993 45.8201 41.8745 45.8021 41.9377 45.769C41.9377 45.769 41.9377 45.775 41.9377 45.778C42.5395 45.1281 43.1924 44.424 43.1924 43.4913C43.1924 42.5043 42.5665 42.0981 41.7903 42.0981C41.014 42.0981 40.343 42.5766 40.343 43.726C40.343 43.9125 40.3671 44.0389 40.3671 44.0389H41.032V43.7169C41.032 43.1603 41.2276 42.6909 41.7842 42.6909C42.3409 42.6909 42.5124 43.1212 42.5124 43.4822C42.5124 44.5775 41.3149 45.3538 40.674 46.2925C40.4302 46.6446 40.2979 47.0357 40.2979 47.46Z" fill="#E1505F"/>
  <path d="M47.447 46.7168C47.3838 46.7168 47.3236 46.7077 47.2725 46.6867C47.0107 46.5754 47.0829 46.4068 47.2664 46.2624C47.3537 46.1932 47.4349 46.0819 47.5342 46.0608C47.5342 46.0608 47.5342 46.0608 47.5372 46.0608C47.5312 45.4952 47.3266 45.0438 46.8422 44.8061C47.2333 44.5474 47.4289 44.102 47.4289 43.5935C47.4289 42.7721 46.9656 42.0981 46.0659 42.0981C45.407 42.0981 44.9857 42.4592 44.8052 42.9767C44.8774 42.9828 44.9466 43.0159 45.0218 43.079C45.3107 43.3348 45.3047 43.5183 44.9947 43.9366C44.9225 43.9817 44.8473 44.0238 44.7721 44.0629C44.8563 44.3699 45.0218 44.6316 45.2806 44.8061C44.7962 45.0499 44.5916 45.5102 44.5916 46.0909C44.5916 46.9515 45.0218 47.6555 46.0629 47.6555C46.8332 47.6555 47.2695 47.2674 47.444 46.7198L47.447 46.7168ZM46.0689 42.6668C46.5082 42.6668 46.7971 43.0189 46.7971 43.5996C46.7971 44.1803 46.5082 44.5323 46.0689 44.5323C45.6296 44.5323 45.3498 44.1803 45.3498 43.5996C45.3498 43.0189 45.6326 42.6668 46.0689 42.6668ZM46.0689 47.0839C45.5363 47.0839 45.2535 46.7017 45.2535 46.0909C45.2535 45.4801 45.5363 45.104 46.0689 45.104C46.6015 45.104 46.8843 45.4801 46.8843 46.0909C46.8843 46.7017 46.6015 47.0839 46.0689 47.0839Z" fill="#E1505F"/>
  <path d="M48.8882 46.088C48.8882 46.9485 49.3185 47.6526 50.3595 47.6526C51.4006 47.6526 51.8309 46.9485 51.8309 46.088C51.8309 45.5073 51.6263 45.0469 51.1328 44.8032C51.524 44.5444 51.7196 44.0991 51.7196 43.5906C51.7196 42.7692 51.2562 42.0952 50.3565 42.0952C49.4569 42.0952 48.9935 42.7692 48.9935 43.5906C48.9935 44.0991 49.1891 44.5444 49.5742 44.8032C49.0898 45.0469 48.8852 45.5073 48.8852 46.088H48.8882ZM50.3595 42.6669C50.7988 42.6669 51.0877 43.0189 51.0877 43.5997C51.0877 44.1804 50.7988 44.5324 50.3595 44.5324C49.9202 44.5324 49.6404 44.1804 49.6404 43.5997C49.6404 43.0189 49.9233 42.6669 50.3595 42.6669ZM50.3595 45.1011C50.8921 45.1011 51.1749 45.4772 51.1749 46.088C51.1749 46.6988 50.8921 47.0809 50.3595 47.0809C49.827 47.0809 49.5441 46.6988 49.5441 46.088C49.5441 45.4772 49.827 45.1011 50.3595 45.1011Z" fill="#E1505F"/>
  <path d="M55.0956 47.5593H55.7364V46.2353H56.2841V45.6637H55.7364V42.8925H55.4235C55.3453 43.2114 55.2851 43.4521 55.1918 43.7199C55.2249 43.738 55.255 43.759 55.2881 43.7891C55.577 44.0449 55.571 44.2284 55.261 44.6467C55.2069 44.6798 55.1497 44.7099 55.0925 44.743V45.6667H53.6212C53.6994 45.5523 53.8168 45.3477 53.9522 45.086C53.9462 45.086 53.9432 45.086 53.9371 45.086C53.9793 44.7731 54.1147 44.5594 54.2862 44.3819C54.5901 43.6989 54.903 42.8624 55.0594 42.0981H54.909C54.9421 42.2185 54.9 42.3298 54.7736 42.3599C54.6292 42.396 54.56 42.2877 54.5359 42.1673C54.5299 42.1433 54.5299 42.1192 54.5299 42.0981H54.4095C54.0966 43.3197 53.5791 44.6346 53.0164 45.6606V46.2414H55.0925V47.5653L55.0956 47.5593Z" fill="#E1505F"/>
  <path d="M32.9683 31.9611H32.5952V31.0825H32.2883V33.1556H32.5952V32.277H32.9683V33.1556H33.2752V31.0825H32.9683V31.9611Z" fill="#E1505F"/>
  <path d="M33.9251 31.0825H33.6182V33.1556H33.9251V31.0825Z" fill="#E1505F"/>
  <path d="M34.6382 32.8339C34.587 32.7797 34.5569 32.6925 34.5449 32.5721L34.2531 32.5932C34.2591 32.7045 34.2831 32.8008 34.3223 32.8881C34.3614 32.9723 34.4125 33.0415 34.4787 33.0897C34.5569 33.1498 34.6593 33.1799 34.7796 33.1799C34.8458 33.1799 34.903 33.1709 34.9511 33.1559C35.0414 33.1258 35.1136 33.0776 35.1617 33.0084C35.237 32.9061 35.2761 32.7828 35.2731 32.6383C35.2731 32.5812 35.258 32.515 35.2279 32.4397C35.2159 32.4097 35.2008 32.3766 35.1798 32.3435C35.1377 32.2682 35.0805 32.193 35.0053 32.1148C34.9812 32.0907 34.9361 32.0486 34.8639 31.9884C34.8037 31.9373 34.7585 31.8951 34.7285 31.856C34.6472 31.7567 34.6081 31.6604 34.6081 31.5672C34.6081 31.507 34.6201 31.4558 34.6442 31.4137C34.6743 31.3626 34.7164 31.3385 34.7736 31.3385C34.8277 31.3385 34.8669 31.3565 34.897 31.3896C34.9361 31.4378 34.9601 31.504 34.9692 31.5882L35.264 31.5341C35.255 31.4438 35.2339 31.3625 35.1978 31.2933C35.1587 31.2241 35.1106 31.17 35.0504 31.1309C34.9722 31.0797 34.8789 31.0557 34.7676 31.0557C34.6562 31.0557 34.5569 31.0857 34.4817 31.1429C34.3554 31.2392 34.2952 31.3836 34.2952 31.5732C34.2952 31.6785 34.3192 31.7748 34.3644 31.865C34.4065 31.9433 34.4787 32.0335 34.581 32.1358C34.7014 32.2532 34.7946 32.3404 34.8548 32.4006C34.8729 32.4217 34.8819 32.4397 34.897 32.4608C34.9421 32.4969 34.9752 32.5511 34.9932 32.6142C35.0293 32.7346 34.9872 32.8489 34.8578 32.882C34.8458 32.885 34.8368 32.882 34.8277 32.882C34.8127 32.8881 34.7977 32.8971 34.7796 32.8971C34.7315 32.8971 34.6893 32.879 34.6532 32.8399L34.6382 32.8339Z" fill="#E1505F"/>
  <path d="M35.5469 31.3955H35.8748V33.1556H36.1817V31.3955H36.5097V31.0825H35.5469V31.3955Z" fill="#E1505F"/>
  <path d="M36.7865 31.5521V32.6834C36.7865 32.8188 36.8346 32.9362 36.9279 33.0355C37.0212 33.1318 37.1385 33.1799 37.2739 33.1799C37.4093 33.1799 37.5237 33.1318 37.62 33.0355C37.7162 32.9392 37.7644 32.8218 37.7644 32.6834V31.5521C37.7644 31.4167 37.7162 31.2994 37.623 31.2001C37.5267 31.1038 37.4123 31.0557 37.2769 31.0557C37.1415 31.0557 37.0302 31.1038 36.9339 31.2001C36.8377 31.2964 36.7895 31.4137 36.7895 31.5521H36.7865ZM37.0874 31.5461C37.0874 31.495 37.1054 31.4528 37.1385 31.4197C37.1746 31.3836 37.2138 31.3686 37.2649 31.3686C37.3161 31.3686 37.3552 31.3866 37.3883 31.4197C37.4214 31.4558 37.4394 31.498 37.4394 31.5461V32.6805C37.4394 32.7316 37.4214 32.7737 37.3883 32.8068C37.3552 32.8429 37.3131 32.858 37.2649 32.858C37.2168 32.858 37.1746 32.8399 37.1385 32.8068C37.1024 32.7707 37.0874 32.7286 37.0874 32.6805V31.5461Z" fill="#E1505F"/>
  <path d="M38.1014 31.0826V33.1557H38.4083V32.3734H38.6129L38.7994 33.1557H39.1334L38.9047 32.25C39.0131 32.1477 39.0702 32.0244 39.0702 31.8769V31.5761C39.0702 31.4256 39.0341 31.3083 38.9649 31.224C38.8837 31.1277 38.7573 31.0796 38.5858 31.0796H38.1014V31.0826ZM38.7724 31.5821V31.886C38.7724 31.9341 38.7543 31.9792 38.7212 32.0123C38.6881 32.0484 38.646 32.0665 38.5978 32.0665H38.4113V31.4016H38.5978C38.7152 31.4016 38.7754 31.4617 38.7754 31.5821H38.7724Z" fill="#E1505F"/>
  <path d="M39.2779 31.0796L39.6901 32.2862V33.1557H39.997V32.2862L40.4122 31.0796H40.0692L39.8436 31.8258L39.6149 31.0796H39.2779Z" fill="#E1505F"/>
  <path d="M40.7372 31.2271H40.9267L40.9749 30.7517H40.689L40.7372 31.2271Z" fill="#E1505F"/>
  <path d="M41.6819 31.7988C41.7602 31.9282 41.8083 32.0787 41.8354 32.1358C41.8354 32.2291 41.8294 32.3043 41.8173 32.3705C41.8264 32.3796 41.8384 32.3916 41.8474 32.3976C41.9257 32.4819 41.9618 32.5691 41.9618 32.6534C41.9618 32.7135 41.9527 32.7587 41.9317 32.7918C41.8926 32.858 41.8384 32.8911 41.7692 32.8941C41.7211 32.8941 41.6789 32.876 41.6428 32.8369C41.6127 32.8038 41.5917 32.7557 41.5736 32.6985C41.4623 32.7166 41.3058 32.6865 41.2577 32.6263C41.2667 32.7226 41.2848 32.8098 41.3209 32.8881C41.36 32.9723 41.4111 33.0415 41.4773 33.0897C41.5556 33.1498 41.6579 33.1799 41.7782 33.1799C41.8444 33.1799 41.9016 33.1709 41.9497 33.1559C42.04 33.1258 42.1122 33.0776 42.1604 33.0084C42.2356 32.9061 42.2747 32.7828 42.2717 32.6383C42.2717 32.5812 42.2566 32.515 42.2265 32.4397C42.2145 32.4097 42.1995 32.3766 42.1784 32.3435C42.1363 32.2682 42.0791 32.193 42.0009 32.1148C41.9768 32.0907 41.9317 32.0486 41.8595 31.9884C41.7993 31.9373 41.7542 31.8951 41.7211 31.856C41.6398 31.7567 41.6007 31.6604 41.6007 31.5672C41.6007 31.507 41.6127 31.4558 41.6368 31.4137C41.6669 31.3626 41.709 31.3385 41.7662 31.3385C41.8204 31.3385 41.8595 31.3565 41.8896 31.3896C41.9287 31.4378 41.9527 31.504 41.9618 31.5882L42.2566 31.5341C42.2506 31.4438 42.2266 31.3625 42.1904 31.2933C42.1513 31.2241 42.1032 31.17 42.043 31.1309C41.9648 31.0797 41.8715 31.0557 41.7602 31.0557C41.6488 31.0557 41.5496 31.0857 41.4743 31.1429C41.348 31.2392 41.2878 31.3836 41.2878 31.5732C41.2878 31.6785 41.3088 31.7748 41.357 31.865C41.363 31.8771 41.375 31.8891 41.3811 31.9011C41.4142 31.844 41.4503 31.7868 41.4954 31.7327C41.5104 31.7146 41.6549 31.7537 41.685 31.8019L41.6819 31.7988Z" fill="#E1505F"/>
  <path d="M43.5053 32.6864V31.0857H43.2044V32.6924C43.2044 32.7436 43.1864 32.7827 43.1533 32.8158C43.1202 32.8489 43.0781 32.867 43.0269 32.87C42.9998 32.87 42.9758 32.87 42.9607 32.87C42.9366 32.87 42.9066 32.867 42.8705 32.8609L42.8253 33.1528C42.8735 33.1678 42.9366 33.1768 43.0149 33.1768C43.1503 33.1768 43.2646 33.1287 43.3579 33.0324C43.4542 32.9361 43.4993 32.8218 43.4993 32.6834L43.5053 32.6864Z" fill="#E1505F"/>
  <path d="M44.1041 33.1557L44.1793 32.6803H44.5012L44.5735 33.1557H44.8984L44.8924 33.1196C44.8352 33.0865 44.8021 33.0203 44.7871 32.9451C44.769 32.8639 44.7811 32.7856 44.8292 32.7284L44.5584 31.0796H44.1342L43.7881 33.1527H44.1101L44.1041 33.1557ZM44.3418 31.558L44.4561 32.3764H44.2274L44.3418 31.558Z" fill="#E1505F"/>
  <path d="M46.1923 31.8769V31.5761C46.1923 31.4346 46.1502 31.3173 46.0689 31.224C45.9787 31.1277 45.8613 31.0796 45.7109 31.0796H45.2264V33.1527H45.5333V32.3704H45.7109C45.8433 32.3704 45.9576 32.3223 46.0509 32.226C46.1441 32.1297 46.1923 32.0123 46.1923 31.8739V31.8769ZM45.8944 31.886C45.8944 31.9341 45.8764 31.9792 45.8433 32.0123C45.8102 32.0484 45.768 32.0665 45.7199 32.0665H45.5333V31.4016H45.7199C45.7741 31.4016 45.8162 31.4196 45.8493 31.4527C45.8824 31.4858 45.8974 31.5279 45.8974 31.5821V31.886H45.8944Z" fill="#E1505F"/>
  <path d="M46.7038 32.6773H47.0257L47.098 33.1527H47.4229L47.0799 31.0796H46.6557L46.3096 33.1527H46.6316L46.7068 32.6773H46.7038ZM46.8663 31.558L46.9806 32.3764H46.7519L46.8663 31.558Z" fill="#E1505F"/>
  <path d="M48.81 33.1557V31.0796H48.5001V32.4757L48.0909 31.0796H47.7449V33.1557H48.0548V31.8258L48.479 33.1557H48.81Z" fill="#E1505F"/>
</svg>