<svg xmlns="http://www.w3.org/2000/svg" width="80" height="51" viewBox="0 0 80 51" fill="none">
  <path d="M48.8823 33.7493H47.678V34.2183H48.8823V33.7493Z" fill="#E0DC51"/>
  <path d="M51.2395 31.9941V35.2772H53.0006V34.8929H51.6631V31.9941H51.2395Z" fill="#E0DC51"/>
  <path d="M55.3394 34.5451H56.6405L56.8644 35.2773H57.3183L56.2744 31.9973H55.7327L54.6888 35.2773H55.1094L55.3333 34.5451H55.3394ZM55.9022 32.7024C55.9355 32.5965 55.9779 32.3392 55.9779 32.3392H55.996C55.996 32.3392 56.0383 32.5934 56.0716 32.7024L56.5165 34.1608H55.4514L55.9022 32.7024Z" fill="#E0DC51"/>
  <path d="M58.5378 34.7598H58.0597V35.2772H58.5378V34.7598Z" fill="#E0DC51"/>
  <path d="M62.2262 31.9942H62.0719C61.7663 32.1758 61.3155 32.315 61.0492 32.3422V32.5904H61.8329V34.9233H61.0522V35.2712H62.9403V34.9233H62.2232V31.9912L62.2262 31.9942Z" fill="#E0DC51"/>
  <path d="M64.5349 31.937C64.0599 31.937 63.6514 32.2275 63.6514 32.9325C63.6514 33.0475 63.6665 33.1231 63.6665 33.1231H64.072V32.9265C64.072 32.5876 64.193 32.3001 64.5319 32.3001C64.8708 32.3001 64.9767 32.5633 64.9767 32.7842C64.9767 33.4529 64.2444 33.928 63.8541 34.4999C63.7058 34.7147 63.6241 34.9538 63.6241 35.214V35.2775H65.4094V34.8751H64.1083C64.1264 34.8236 64.1567 34.7662 64.193 34.7087C64.5622 34.1429 65.3943 33.6133 65.3943 32.7903C65.3943 32.1881 65.013 31.94 64.538 31.94L64.5349 31.937Z" fill="#E0DC51"/>
  <path d="M69.0919 31.9941H67.9209V35.2742H68.3415V33.9216H69.0919C69.7001 33.9216 70.0723 33.5282 70.0723 32.9503C70.0723 32.3724 69.7364 31.9941 69.0919 31.9941ZM69.0798 33.5403H68.3445V32.3784H69.0798C69.4399 32.3784 69.6335 32.5993 69.6335 32.9533C69.6335 33.3074 69.4127 33.5403 69.0798 33.5403Z" fill="#E0DC51"/>
  <path d="M73.1919 35.2773H73.6125V31.9973H72.9771L72.3931 34.1487C72.3295 34.3786 72.2872 34.884 72.2872 34.884H72.269C72.269 34.884 72.2206 34.3877 72.1601 34.1487L71.5821 31.9973H70.9407V35.2773H71.3189V32.896C71.3189 32.7992 71.2917 32.3877 71.2917 32.3877H71.3099C71.3099 32.3877 71.3855 32.8052 71.4097 32.896L72.0663 35.2773H72.4445L73.1011 32.896C73.1344 32.781 73.21 32.3877 73.21 32.3877H73.2282C73.2282 32.3877 73.1949 32.781 73.1949 32.896V35.2773H73.1919Z" fill="#E0DC51"/>
  <path d="M44.628 37.7856C43.7778 37.7856 43.2725 38.3333 43.2725 40.3455C43.2725 42.3577 43.7778 42.9054 44.628 42.9054C45.4783 42.9054 45.9836 42.3577 45.9836 40.3455C45.9836 38.3333 45.4722 37.7856 44.628 37.7856ZM45.3784 40.5967C45.3784 41.6285 45.2211 42.3758 44.628 42.3758C44.035 42.3758 43.8776 41.6254 43.8776 40.5967V40.0913C43.8776 39.0595 44.035 38.3121 44.628 38.3121C45.2211 38.3121 45.3784 39.0625 45.3784 40.0913V40.5967Z" fill="#E0DC51"/>
  <path d="M48.5102 37.7856C47.7689 37.7856 47.2212 38.3969 47.2212 39.3863C47.2212 40.2729 47.6176 40.9779 48.4527 40.9779C48.8128 40.9779 49.1093 40.8054 49.3242 40.518C49.309 41.6557 49.1789 42.3789 48.604 42.3789C48.1653 42.3789 47.9474 41.9825 47.9474 41.2986H47.3483C47.3483 42.2155 47.7084 42.9054 48.5738 42.9054C49.4392 42.9054 49.9293 42.2639 49.9293 40.2033C49.9293 38.3727 49.3968 37.7887 48.5102 37.7887V37.7856ZM48.5465 40.4605C48.0503 40.4605 47.8264 39.9764 47.8264 39.3863C47.8264 38.7963 48.0503 38.3121 48.5465 38.3121C49.0427 38.3121 49.2757 38.7963 49.2757 39.3863C49.2757 39.9764 49.0458 40.4605 48.5465 40.4605Z" fill="#E0DC51"/>
  <path d="M53.2365 40.2821C53.5966 40.0431 53.7782 39.6346 53.7782 39.1656C53.7782 38.4091 53.3515 37.7888 52.5255 37.7888C51.6994 37.7888 51.2697 38.4091 51.2697 39.1656C51.2697 39.6346 51.4513 40.0461 51.8023 40.2821C51.3545 40.506 51.1669 40.9296 51.1669 41.4652C51.1669 42.258 51.5632 42.9055 52.5224 42.9055C53.4816 42.9055 53.878 42.258 53.878 41.4652C53.878 40.9327 53.6904 40.506 53.2365 40.2821ZM52.5255 38.3123C52.9279 38.3123 53.1942 38.6361 53.1942 39.1686C53.1942 39.7012 52.9279 40.0249 52.5255 40.0249C52.123 40.0249 51.8628 39.7012 51.8628 39.1686C51.8628 38.6361 52.123 38.3123 52.5255 38.3123ZM52.5255 42.379C52.0353 42.379 51.7751 42.025 51.7751 41.4622C51.7751 40.8994 52.0353 40.5544 52.5255 40.5544C53.0157 40.5544 53.2759 40.8994 53.2759 41.4622C53.2759 42.025 53.0157 42.379 52.5255 42.379Z" fill="#E0DC51"/>
  <path d="M55.0671 38.4787H57.1368C56.4953 39.5105 55.6874 41.1172 55.6874 42.8177H56.3561C56.3501 42.6453 56.3501 42.5878 56.3501 42.4486C56.3501 40.8479 57.2004 39.2775 57.8781 38.2548V37.8735H55.0671V38.4787Z" fill="#E0DC51"/>
  <path d="M61.7361 40.8359C61.6151 40.1823 61.2277 39.7132 60.5439 39.7132C60.1838 39.7132 59.8812 39.8918 59.6725 40.1823C59.6785 39.0355 59.8237 38.3153 60.4229 38.3153C60.8404 38.3153 61.0492 38.7117 61.0492 39.3956H61.6483C61.6483 38.4787 61.2943 37.7888 60.4531 37.7888C59.612 37.7888 59.0703 38.4303 59.0703 40.4909C59.0703 42.3215 59.6029 42.9055 60.4894 42.9055C61.2308 42.9055 61.7785 42.2943 61.7785 41.3048C61.7785 41.2564 61.7785 41.211 61.7754 41.1657C61.7542 41.1505 61.73 41.1384 61.7088 41.1233C61.7028 41.0144 61.7119 40.9206 61.7391 40.8359H61.7361ZM60.4501 42.379C59.9539 42.379 59.7209 41.8949 59.7209 41.3048C59.7209 40.7148 59.9508 40.2307 60.4501 40.2307C60.9494 40.2307 61.1703 40.7148 61.1703 41.3048C61.1703 41.8949 60.9463 42.379 60.4501 42.379Z" fill="#E0DC51"/>
  <path d="M64.4926 39.7101C64.1325 39.7101 63.83 39.8886 63.6212 40.1791C63.6272 39.0323 63.7725 38.3121 64.3716 38.3121C64.7891 38.3121 64.9979 38.7085 64.9979 39.3924H65.5971C65.5971 38.4756 65.243 37.7856 64.4018 37.7856C63.5607 37.7856 63.019 38.4271 63.019 40.4877C63.019 42.3184 63.5516 42.9023 64.4381 42.9023C65.1795 42.9023 65.7271 42.2911 65.7271 41.3017C65.7271 40.4151 65.3308 39.7101 64.4957 39.7101H64.4926ZM64.3988 42.3789C63.9026 42.3789 63.6696 41.8947 63.6696 41.3047C63.6696 40.7147 63.8995 40.2305 64.3988 40.2305C64.8981 40.2305 65.119 40.7147 65.119 41.3047C65.119 41.8947 64.895 42.3789 64.3988 42.3789Z" fill="#E0DC51"/>
  <path d="M69.3188 38.5211H69.0313C68.9375 38.9023 68.874 39.1625 68.7288 39.5166V41.0749H67.3732C67.6485 40.6785 68.4262 39.1141 68.6985 37.7888H68.0994C67.8119 38.9144 67.3338 40.1248 66.8164 41.0688V41.6014H68.7257V41.7799C68.7469 41.7799 68.7681 41.7799 68.7832 41.7829C68.8316 41.8041 68.8468 41.904 68.877 41.9705C68.8256 42.0068 68.7741 42.0704 68.7257 42.0795V42.8208H69.3157V41.6014H69.8211V41.0749H69.3157V38.5241L69.3188 38.5211Z" fill="#E0DC51"/>
  <path d="M72.8923 40.282V40.2517C73.2584 40.0429 73.5337 39.7252 73.5337 39.1412C73.5337 38.2607 73.0163 37.7856 72.2447 37.7856C71.4731 37.7856 70.9618 38.3182 70.9618 39.1412V39.2713H71.567V39.2078C71.567 38.5966 71.8544 38.3152 72.2508 38.3152C72.6109 38.3152 72.9286 38.5663 72.9286 39.1805C72.9286 39.7948 72.5957 40.0459 72.2145 40.0459H71.7878V40.5725H72.1993C72.6169 40.5725 73.0133 40.754 73.0133 41.453C73.0133 42.1005 72.6895 42.3819 72.2205 42.3819C71.7515 42.3819 71.4792 42.0581 71.4792 41.4439V41.3652H70.874V41.4227C70.874 42.3244 71.3642 42.9084 72.2659 42.9084C73.0587 42.9084 73.6215 42.3758 73.6215 41.4953C73.6215 40.8387 73.3129 40.4423 72.8923 40.285V40.282Z" fill="#E0DC51"/>
  <path d="M68.1478 0.825195C68.166 0.885712 68.1721 0.955316 68.169 1.02491C68.169 0.952291 68.166 0.885712 68.1478 0.825195Z" fill="#E0DC51"/>
  <path d="M71.0708 0.825195H68.5049C68.3929 0.940177 68.2779 1.02795 68.1599 1.11267C68.0812 1.1278 67.9995 1.16109 67.9209 1.15504C67.582 1.12175 67.5093 1.05214 67.6455 0.828224H60.5015C60.4168 1.0249 60.3472 1.22462 60.3169 1.44248C60.3109 1.48786 60.1899 1.53022 60.1142 1.55443C60.0174 1.58469 59.9448 1.53626 59.9296 1.42733C59.9054 1.26091 59.8933 1.09149 59.8752 0.922043C59.8752 0.888758 59.8752 0.858479 59.8752 0.825195H36.0165C36.1345 0.940177 36.2162 1.09754 36.1799 1.22765C36.1224 1.44249 35.9469 1.59076 35.7109 1.5726C35.3992 1.55142 35.487 1.2791 35.4416 1.1157C35.4446 1.0098 35.4416 0.906893 35.4718 0.825195H29.8286C29.6138 1.13383 29.2053 1.37589 28.7787 1.35169C28.6213 1.34261 28.4579 1.10357 28.5396 0.973458C28.5699 0.925045 28.5971 0.873609 28.6244 0.825195H14.7691C14.7479 0.840324 14.7237 0.852432 14.7025 0.867561C14.6965 0.852432 14.6904 0.840324 14.6844 0.825195H8.92924C7.97307 0.825195 7.0532 0.976503 6.18781 1.25791C6.23623 1.30329 6.26346 1.36684 6.26043 1.45459C6.25135 1.63009 6.12125 1.7481 5.9276 1.76323C5.75815 1.71482 5.6704 1.60285 5.66738 1.44551C2.44184 2.71636 0.127091 5.81177 0.00605758 9.45488C0.114988 9.60919 0.214831 9.76956 0.299554 9.94506C0.314684 9.97834 0.293494 10.0268 0.290468 10.0691C0.232977 10.1206 0.18458 10.2053 0.118012 10.2235C0.0786761 10.2325 0.0393358 10.2386 0 10.2446V41.7556C0 42.6271 0.12707 43.4713 0.363085 44.2671C0.441757 44.2671 0.520437 44.2671 0.599109 44.2671C0.544644 44.4063 0.487172 44.4698 0.429682 44.488C1.58555 48.0827 4.95935 50.6909 8.93226 50.6909H29.7379C29.8922 50.5729 30.1191 50.5669 30.2674 50.6909H32.9664C32.9664 50.6909 32.9664 50.6849 32.9664 50.6819C32.9816 50.6304 33.1056 50.5729 33.1692 50.582C33.26 50.5971 33.3356 50.6334 33.384 50.6909H42.8307C42.7096 50.6395 42.6067 50.5578 42.5371 50.4277C42.401 50.1735 42.4343 49.9103 42.643 49.7317C42.8639 49.5411 43.1272 49.3929 43.3904 49.2628C43.6809 49.1205 44.0017 49.3323 44.038 49.6531C44.0864 50.1009 43.7656 50.5427 43.336 50.6909H52.3984C52.471 50.4156 52.7826 50.2522 53.0792 50.2885C53.1942 50.34 53.3031 50.4035 53.2789 50.5548C53.2698 50.6032 53.2577 50.6455 53.2395 50.6879H71.0677C75.9938 50.6879 80 46.6817 80 41.7556V9.76049C80 4.83443 75.9938 0.828224 71.0677 0.828224L71.0708 0.825195ZM0.40848 43.6892C0.535565 43.7618 0.605149 43.8646 0.586994 44.0159C0.459909 43.9433 0.399403 43.8374 0.40848 43.6892ZM74.8652 2.09304C75.0558 2.11725 75.1435 2.26853 75.1587 2.46521C75.1405 2.69215 74.962 2.71334 74.7895 2.70123C74.5928 2.68913 74.4778 2.56205 74.502 2.36234C74.5263 2.16264 74.6806 2.0658 74.8652 2.09001V2.09304ZM49.3604 0.900841C50.253 0.785859 50.7251 0.882692 50.5647 1.13384C50.2651 1.60889 49.787 1.3154 49.3937 1.37592C49.2363 1.40012 49.0699 1.33959 48.9065 1.31538C48.9459 1.00069 49.1365 0.931099 49.3604 0.900841ZM32.9029 1.95386C33.0391 1.99017 33.0935 2.08093 33.033 2.20196C33.0118 2.24433 32.8878 2.27459 32.8424 2.25039C32.7849 2.22013 32.7365 2.12936 32.7334 2.06279C32.7334 2.02648 32.8424 1.99017 32.8999 1.95386H32.9029ZM31.2084 1.35774C31.269 1.16712 31.3446 0.946242 31.6139 0.952294C31.7985 0.952294 31.9861 1.20648 31.9558 1.42131C31.8983 1.66338 31.6805 1.67244 31.4717 1.66941C31.2811 1.66941 31.1449 1.56048 31.2115 1.35774H31.2084ZM11.6858 1.28513C11.7554 1.15804 11.8885 1.14595 12.0125 1.18529C12.1366 1.22462 12.2274 1.3033 12.1941 1.45762C12.0943 1.62404 11.9429 1.66033 11.7795 1.58771C11.6585 1.53325 11.6192 1.40616 11.6858 1.28513ZM1.0439 38.9658C0.995484 38.9386 0.953125 38.8266 0.971281 38.7722C1.00759 38.6481 1.12257 38.6027 1.23453 38.6663C1.28294 38.6935 1.289 38.7934 1.31623 38.8599C1.25571 38.9779 1.15585 39.0294 1.0439 38.9658ZM15.2139 49.2295C14.9204 49.5442 14.5573 49.4988 14.1881 49.4352C14.2517 49.3596 14.3122 49.2839 14.3757 49.2083C14.6571 49.2143 14.9355 49.2234 15.2169 49.2295H15.2139ZM25.2596 49.8014C24.9419 49.7166 24.6969 49.526 24.4851 49.2809C24.5183 49.2385 24.5516 49.1962 24.5849 49.1538C24.8996 49.2476 25.1507 49.4322 25.3565 49.6833C25.3232 49.7227 25.2899 49.762 25.2596 49.8044V49.8014ZM78.4265 32.9414C78.8017 33.0655 79.0832 33.5345 79.062 33.9278C79.0075 34.0458 78.9349 34.1517 78.7897 34.1306C78.6353 34.1094 78.4992 34.061 78.3812 33.9914V39.2473C78.4599 39.1988 78.5415 39.1716 78.6172 39.1837C78.8653 39.2291 79.1437 39.7193 79.071 39.9855C79.0045 40.2306 78.6051 40.4697 78.3812 40.3819V41.7526C78.3812 43.1869 77.9636 44.5243 77.2465 45.6559C77.3403 45.6499 77.425 45.7165 77.4341 45.8314C77.4462 45.9736 77.3464 46.0432 77.2102 46.0614C77.1345 46.0644 77.0528 46.0523 77.0044 46.013C75.6761 47.8588 73.5126 49.063 71.0708 49.063H62.4622C62.438 49.2174 62.3685 49.3596 62.196 49.4624C62.196 49.3293 62.199 49.1962 62.199 49.063H38.0196C37.9288 49.1417 37.8108 49.1962 37.6958 49.2052C37.5354 49.2052 37.4174 49.1599 37.3478 49.063H8.92924C8.39064 49.063 7.86412 49.0025 7.35881 48.8906C7.35881 48.9057 7.35581 48.9208 7.34976 48.9359C7.34068 48.9723 7.30132 49.0358 7.28316 49.0328C7.18028 49.0146 7.14098 48.942 7.19847 48.8543C4.00016 48.0766 1.61881 45.19 1.61881 41.7556V9.76049C1.61881 8.46543 1.95769 7.24904 2.55076 6.19302C2.50839 6.21723 2.45394 6.24147 2.41461 6.26567C2.23003 6.24147 2.10294 6.14766 2.109 5.95703C2.109 5.9177 2.23609 5.85114 2.30871 5.85114C2.47816 5.85114 2.61129 5.92374 2.60524 6.09924C3.44945 4.64684 4.7778 3.51215 6.36939 2.91606C6.23323 2.86159 6.12731 2.71031 6.20296 2.62256C6.27255 2.54389 6.40873 2.49243 6.51766 2.48637C6.65079 2.4773 6.74156 2.57414 6.73854 2.72543C6.73248 2.75266 6.72039 2.77687 6.70828 2.80107C7.40725 2.57716 8.15462 2.45612 8.92621 2.45612H13.1109C13.12 2.3835 13.1321 2.3109 13.1533 2.2413C13.2441 1.92056 13.7282 1.49091 13.9461 1.49999C14.1669 1.50906 14.2396 2.02343 14.0701 2.45915H17.3864C17.2654 2.38048 17.1353 2.30787 17.0536 2.20196C16.9931 2.12329 16.99 1.93568 17.0445 1.85399C17.0959 1.77834 17.2745 1.72994 17.3683 1.75718C17.8131 1.89031 18.1671 2.18078 18.5272 2.45915H38.5068C38.5521 2.41377 38.6036 2.37442 38.658 2.34114C38.8093 2.24431 38.9697 2.22619 39.1028 2.3684C39.127 2.39261 39.1422 2.42587 39.1573 2.45915H49.7568C49.7568 2.45915 49.778 2.45309 49.7901 2.45309C49.8143 2.45309 49.8385 2.4531 49.8657 2.45915H64.1779C64.2747 2.32904 64.4049 2.22313 64.5773 2.26549C64.6832 2.29273 64.8073 2.36838 64.8617 2.45915H71.0708C73.1707 2.45915 75.0649 3.35178 76.3992 4.77392C76.4446 4.76787 76.493 4.76483 76.5384 4.75878C76.7139 4.83745 76.8864 4.9131 77.0619 4.99177C77.0286 5.03413 76.9984 5.07651 76.9651 5.11584C76.8561 5.09466 76.7472 5.07651 76.6444 5.04323C77.7246 6.3171 78.3812 7.96617 78.3812 9.76352V16.844C78.4387 16.8167 78.5022 16.8046 78.5658 16.8107C78.6172 16.8167 78.6565 16.9106 78.7049 16.968C78.6505 17.1556 78.5809 17.3372 78.3842 17.3947V20.9228C78.4689 20.9803 78.5385 21.0529 78.5839 21.1588C78.8986 21.3918 79.1497 21.6671 79.1558 22.0877C79.1588 22.3056 79.1074 22.5174 78.9198 22.6415C78.7443 22.7565 78.5567 22.7232 78.3842 22.6294V32.9414C78.3993 32.9414 78.4175 32.9414 78.4326 32.9444L78.4265 32.9414Z" fill="#E0DC51"/>
  <path d="M8.70841 16.5655C8.86576 16.5474 9.13505 16.4687 9.53446 16.3205C9.78258 16.2267 10.0458 16.1117 10.3181 15.9755C10.5935 15.8394 10.8688 15.6639 11.1533 15.443C11.4347 15.2251 11.6888 14.983 11.9128 14.7198C11.9793 14.6411 12.0429 14.5534 12.1034 14.4656C11.9642 14.4324 11.8764 14.3083 11.9006 14.1449C11.9249 13.9543 12.061 13.8514 12.2517 13.8816C12.3031 13.8907 12.3485 13.9119 12.3878 13.9422C12.415 13.8847 12.4392 13.8241 12.4634 13.7636C12.6057 13.3884 12.6753 12.989 12.6753 12.5654C12.6753 12.514 12.6722 12.4656 12.6692 12.4171C12.5331 12.3657 12.4604 12.2326 12.4302 12.0692C12.4029 11.9239 12.4998 11.8664 12.6057 11.8422C12.5149 11.3793 12.3333 10.998 12.055 10.7015C11.6556 10.2779 11.1533 10.0691 10.5481 10.0691C10.0791 10.0691 9.67363 10.1871 9.33171 10.4201C9.16227 10.5351 9.01704 10.6743 8.88996 10.8407C8.7659 11.0041 8.66908 11.1947 8.59949 11.4156C8.52989 11.6365 8.49658 11.8997 8.49658 12.2023C8.49658 12.5049 8.56923 12.7984 8.71144 13.0738C8.85366 13.3491 9.06242 13.5669 9.33474 13.7213C9.60707 13.8786 9.90058 13.9573 10.2122 13.9573C10.5239 13.9573 10.7962 13.924 11.0262 13.8574C11.2592 13.7909 11.4286 13.7243 11.5406 13.6547C11.6525 13.5881 11.7131 13.5549 11.7282 13.5549C11.7403 13.5549 11.7373 13.5942 11.713 13.6638C11.5133 14.2296 11.1896 14.7016 10.7508 15.0829C10.5572 15.2523 10.3575 15.4036 10.1457 15.5368C9.93387 15.6699 9.73418 15.7788 9.54657 15.8636C9.35595 15.9453 9.18648 16.0148 9.03216 16.0723C8.88087 16.1298 8.75682 16.1722 8.66908 16.2025C8.5783 16.2327 8.53289 16.2569 8.53289 16.269C8.53289 16.3174 8.54499 16.3779 8.5692 16.4566C8.58735 16.5202 8.61159 16.5504 8.63277 16.5625C8.66 16.5625 8.68421 16.5625 8.70841 16.5625V16.5655ZM11.4014 13.4247C11.1805 13.5216 10.9021 13.57 10.5693 13.57C10.2364 13.57 9.95506 13.4641 9.73115 13.2492C9.62827 13.1494 9.53749 13.0314 9.46487 12.9013C9.38922 12.7681 9.33475 12.6289 9.29844 12.4807C9.26213 12.3324 9.24399 12.163 9.24399 11.9724C9.24399 11.7817 9.27119 11.5941 9.32566 11.4035C9.51326 10.762 9.93386 10.4413 10.5844 10.4413C10.9445 10.4413 11.238 10.5865 11.4619 10.874C11.5648 11.0041 11.6495 11.1554 11.7221 11.3309C11.7917 11.5064 11.8432 11.6879 11.8765 11.8785C11.9067 12.0692 11.9249 12.2901 11.9249 12.5412C11.9249 12.7924 11.9037 12.9618 11.8613 13.0495C11.7766 13.2038 11.6253 13.3279 11.4044 13.4278L11.4014 13.4247Z" fill="#E0DC51"/>
  <path d="M16.2608 12.3202C16.2608 12.3202 16.2669 12.3051 16.2699 12.2991C16.1368 12.4141 15.9733 12.5109 15.7888 12.5956C15.6012 12.6803 15.4408 12.7408 15.3046 12.7802C15.1685 12.8195 15.0928 12.8407 15.0717 12.8468C15.0535 12.8528 15.0323 12.8619 15.0112 12.8679C14.99 12.874 14.9658 12.8891 14.9325 12.9103C14.9204 12.9194 14.9083 12.9284 14.9022 12.9345C14.8962 12.9436 14.8901 12.9526 14.881 12.9647C14.8719 12.9768 14.8689 12.9889 14.8659 13.0041C14.8659 13.0162 14.8629 13.0344 14.8629 13.0586C14.8629 13.0828 14.8659 13.1039 14.875 13.1312C14.8841 13.1554 14.8901 13.1826 14.8992 13.2068C14.9295 13.3127 14.9839 13.3642 15.0626 13.3642L15.6163 13.3309C16.1549 13.3309 16.5483 13.4368 16.7964 13.6426C17.0415 13.8513 17.1655 14.1932 17.1655 14.6713C17.1655 14.9315 17.102 15.1827 16.9779 15.4187C16.8539 15.6547 16.6905 15.8454 16.4908 15.9876C16.2911 16.1298 16.0944 16.1994 15.8977 16.1994C15.7011 16.1994 15.5437 16.1661 15.4287 16.0965C15.3864 16.0723 15.3349 16.036 15.2714 15.9906C15.2078 15.9452 15.1231 15.8938 15.0202 15.8302C14.9143 15.7667 14.7933 15.7364 14.6571 15.7364C14.5603 15.7364 14.4665 15.7606 14.3788 15.806C14.291 15.8514 14.2456 15.9089 14.2456 15.9755C14.2456 16.1358 14.4846 16.2841 14.9658 16.4142C15.226 16.4838 15.4953 16.5201 15.7737 16.5201C16.3123 16.5201 16.7934 16.3386 17.2231 15.9724C17.4228 15.803 17.5831 15.5942 17.7072 15.3431C17.8312 15.0919 17.8917 14.8257 17.8917 14.5412C17.8917 13.4822 17.3683 12.9103 16.3213 12.8256H16.2911C16.1186 12.8256 16.0309 12.8074 16.0309 12.7771C16.0309 12.756 16.1489 12.6985 16.3758 12.6047C16.2911 12.5321 16.2427 12.4261 16.2669 12.3202H16.2608Z" fill="#E0DC51"/>
  <path d="M14.403 10.7499C14.403 10.7801 14.4332 10.8225 14.4937 10.88C14.5543 10.9375 14.5936 10.9647 14.6087 10.9647C14.6239 10.9647 14.6541 10.9466 14.6904 10.9072C15.0172 10.5895 15.3894 10.4291 15.8039 10.4291C16.0551 10.4291 16.2608 10.526 16.4212 10.7196C16.5816 10.9133 16.6632 11.1705 16.6632 11.4882C16.6632 11.7393 16.5785 11.9572 16.4182 12.1478C16.4515 12.1387 16.4878 12.1357 16.5271 12.1418C16.6602 12.166 16.7601 12.2446 16.8085 12.3596C17.1777 12.0903 17.3622 11.7333 17.3622 11.2885C17.3622 10.8891 17.2321 10.5714 16.9719 10.3293C16.7117 10.0903 16.3788 9.96924 15.9794 9.96924C15.58 9.96924 15.2048 10.0842 14.8659 10.3142C14.7328 10.405 14.6208 10.4927 14.5331 10.5774C14.4453 10.6622 14.403 10.7166 14.403 10.7469V10.7499Z" fill="#E0DC51"/>
  <path d="M20.0643 11.582C20.0643 11.6879 20.0703 11.7757 20.0855 11.8453H19.4561L19.2806 12.3052H20.1581C20.3215 12.9376 20.6483 13.4429 21.1354 13.8242C21.6589 14.2296 22.2489 14.4324 22.9116 14.4324C23.5743 14.4324 24.1703 14.2114 24.7241 13.7697V13.1857C24.5788 13.331 24.4275 13.458 24.2732 13.567C24.1492 13.6517 24.0281 13.7213 23.9071 13.7757C23.7861 13.8302 23.6348 13.8786 23.4502 13.9179C23.2656 13.9603 23.072 13.9815 22.8662 13.9815C22.6604 13.9815 22.4517 13.9482 22.2368 13.8786C21.4864 13.6396 20.9539 13.1161 20.6392 12.3082H23.7891L23.9888 11.8483H20.5666L20.5424 11.5972C20.5424 11.5064 20.5514 11.4216 20.5666 11.343H24.1976L24.3761 10.8921H22.612C22.6211 10.9163 22.6302 10.9375 22.6362 10.9647C22.6362 11.1069 22.5576 11.1917 22.4275 11.2007C22.2822 11.2129 22.1975 11.11 22.2036 10.9829C22.2036 10.9557 22.2096 10.9254 22.2157 10.8921H20.6271C20.7814 10.3747 21.0265 9.97833 21.3654 9.70298C21.5167 9.58194 21.6801 9.4821 21.8647 9.40645C22.0462 9.3308 22.2187 9.27936 22.3821 9.25213C22.5455 9.2249 22.7179 9.20976 22.9025 9.20976C23.0871 9.20976 23.2687 9.23093 23.4502 9.27027C23.9827 9.39433 24.4063 9.66364 24.721 10.0782C24.8058 9.92991 24.8784 9.77255 24.9419 9.60613C24.6242 9.3096 24.3005 9.09476 23.9737 8.96465C23.6469 8.83454 23.2717 8.771 22.8481 8.771C22.7754 8.771 22.6998 8.77403 22.6272 8.78008C22.6211 8.78613 22.6151 8.7922 22.606 8.79523C22.3185 8.97072 21.8132 9.12504 21.4532 9.17043C21.3503 9.23094 21.2504 9.29749 21.1506 9.37313C20.6513 9.75439 20.3215 10.2597 20.1581 10.8921H19.4258L19.2473 11.343H20.0855C20.0703 11.3974 20.0643 11.4791 20.0643 11.585V11.582Z" fill="#E0DC51"/>
  <path d="M67.3551 8.11742L67.34 7.38818L66.0691 7.41843L66.0873 8.16278C66.3172 8.13252 66.5502 8.11136 66.7892 8.1053C66.9799 8.10228 67.1705 8.10532 67.3581 8.12045L67.3551 8.11742Z" fill="#E0DC51"/>
  <path d="M66.9283 8.64097C66.886 8.64097 66.8406 8.64097 66.7983 8.64097C66.6258 8.64399 66.4563 8.65912 66.2869 8.67728L67.2642 8.65608C67.1523 8.65002 67.0403 8.63794 66.9283 8.63794V8.64097Z" fill="#E0DC51"/>
  <path d="M66.9254 20.4568C66.7589 20.4568 66.5955 20.4478 66.4352 20.4326L66.4473 21.0348L67.7182 21.0106L67.7061 20.4084C67.4973 20.4357 67.2855 20.4508 67.0706 20.4568C67.0222 20.4568 66.9738 20.4568 66.9254 20.4568Z" fill="#E0DC51"/>
  <path d="M66.42 19.7638V19.8879C66.6318 19.906 66.8436 19.9181 67.0554 19.9121C67.2703 19.906 67.4821 19.8879 67.6909 19.8576V19.7366L66.417 19.7608L66.42 19.7638Z" fill="#E0DC51"/>
  <path d="M69.7243 19.1677L68.7863 19.195L68.8982 19.552C69.1857 19.4461 69.464 19.319 69.7243 19.1708V19.1677Z" fill="#E0DC51"/>
  <path d="M69.1796 20.4567L69.7576 20.4416L69.7394 19.7759C69.5185 19.8878 69.2916 19.9877 69.0586 20.0754L69.1796 20.4597V20.4567Z" fill="#E0DC51"/>
  <path d="M70.2538 18.8228C70.5473 18.608 70.8166 18.3659 71.0647 18.0996L70.2386 18.1177L70.2538 18.8228Z" fill="#E0DC51"/>
  <path d="M70.399 19.3856L71.5337 19.3584L71.5125 18.4053C71.4701 18.4507 71.4338 18.4991 71.3915 18.5444C71.0859 18.8622 70.753 19.1405 70.396 19.3856H70.399Z" fill="#E0DC51"/>
  <path d="M72.8409 17.7306L72.8046 16.4597H72.7078C72.5353 16.9166 72.3054 17.3493 72.03 17.7548L72.844 17.7306H72.8409Z" fill="#E0DC51"/>
  <path d="M71.564 17.4702C71.7788 17.1616 71.9634 16.8288 72.1116 16.4778L71.5367 16.4959L71.564 17.4702Z" fill="#E0DC51"/>
  <path d="M73.5096 15.7577L73.4763 14.4868L73.095 14.4959C73.0799 14.9316 73.0224 15.3583 72.9196 15.7728L73.5096 15.7577Z" fill="#E0DC51"/>
  <path d="M72.2387 15.7941H72.3567C72.4717 15.3826 72.5353 14.9529 72.5534 14.5142L72.2054 14.5232L72.2387 15.7941Z" fill="#E0DC51"/>
  <path d="M73.4551 13.682L73.4309 12.4111L72.8197 12.4232C72.9468 12.8287 73.0345 13.2523 73.0769 13.6911L73.4581 13.685L73.4551 13.682Z" fill="#E0DC51"/>
  <path d="M72.1842 13.7062L72.5292 13.7001C72.4838 13.2614 72.39 12.8377 72.2508 12.4353H72.16L72.1842 13.7092V13.7062Z" fill="#E0DC51"/>
  <path d="M72.7016 11.7394L72.6714 10.4685L71.803 10.4897C72.1025 10.874 72.3567 11.2946 72.5594 11.7424H72.6986L72.7016 11.7394Z" fill="#E0DC51"/>
  <path d="M71.9604 11.7545C71.803 11.4429 71.6215 11.1494 71.4097 10.874L71.4308 11.7666L71.9604 11.7545Z" fill="#E0DC51"/>
  <path d="M71.3219 9.93911L71.2977 8.9043L70.0269 8.93455C70.5019 9.21292 70.9376 9.5518 71.3219 9.94214V9.93911Z" fill="#E0DC51"/>
  <path d="M70.7924 10.1842C70.5594 9.96328 70.3083 9.76056 70.042 9.58203L70.0571 10.2023L70.7954 10.1842H70.7924Z" fill="#E0DC51"/>
  <path d="M69.4701 7.90259L68.1992 7.93284L68.2053 8.23542C68.6501 8.32922 69.0797 8.47144 69.4852 8.65602L69.467 7.90562L69.4701 7.90259Z" fill="#E0DC51"/>
  <path d="M69.3098 9.17642C68.9648 9.01303 68.5987 8.88594 68.2205 8.79517L68.2295 9.20062L69.3098 9.17642Z" fill="#E0DC51"/>
  <path d="M65.1129 19.6094L65.2279 19.2766L64.3534 19.2917C64.5985 19.4188 64.8527 19.5217 65.1129 19.6094Z" fill="#E0DC51"/>
  <path d="M64.3474 19.8879L64.3595 20.5627L64.7892 20.5567L64.9374 20.124C64.7377 20.0544 64.5411 19.9787 64.3474 19.8879Z" fill="#E0DC51"/>
  <path d="M62.5137 18.5898L62.5379 19.6035L63.7603 19.5763C63.37 19.3403 62.9978 19.0679 62.6619 18.7442C62.6105 18.6958 62.5651 18.6413 62.5137 18.5898Z" fill="#E0DC51"/>
  <path d="M63.0039 18.3236C63.0039 18.3236 63.0221 18.3448 63.0342 18.3538C63.2702 18.5808 63.5274 18.7775 63.7936 18.956L63.7785 18.3054L63.0069 18.3236H63.0039Z" fill="#E0DC51"/>
  <path d="M61.8691 16.7531C62.0235 17.0708 62.2081 17.3734 62.4229 17.6578L62.4077 16.7471L61.8691 16.7562V16.7531Z" fill="#E0DC51"/>
  <path d="M61.1369 16.7652L61.1581 18.0361L62.0205 18.021C61.7209 17.6276 61.4637 17.21 61.267 16.7622H61.1339L61.1369 16.7652Z" fill="#E0DC51"/>
  <path d="M60.3774 14.8257L60.4016 16.0966L61.0219 16.0845C60.8979 15.676 60.8162 15.2524 60.7799 14.8167L60.3774 14.8257Z" fill="#E0DC51"/>
  <path d="M61.6483 14.8015L61.3215 14.8076C61.3609 15.2433 61.4486 15.6669 61.5848 16.0723H61.6725L61.6483 14.8015Z" fill="#E0DC51"/>
  <path d="M60.326 12.7501L60.3593 14.0209L60.7588 14.0088C60.7769 13.5701 60.8434 13.1434 60.9494 12.7319L60.326 12.747V12.7501Z" fill="#E0DC51"/>
  <path d="M61.5968 12.7136H61.5121C61.3941 13.1251 61.3276 13.5518 61.3033 13.9935L61.6301 13.9845L61.5968 12.7136Z" fill="#E0DC51"/>
  <path d="M60.9948 10.7742L61.025 12.0451H61.1703C61.3488 11.5852 61.5818 11.1525 61.8571 10.7561L60.9948 10.7742Z" fill="#E0DC51"/>
  <path d="M62.2747 11.1101C62.078 11.3976 61.9086 11.7032 61.7664 12.0269L62.2928 12.0149L62.2717 11.1101H62.2747Z" fill="#E0DC51"/>
  <path d="M63.5819 9.74854C63.3156 9.94521 63.0645 10.1631 62.8375 10.4052L63.597 10.387L63.5819 9.74854Z" fill="#E0DC51"/>
  <path d="M63.5364 9.11914L62.2988 9.14636L62.323 10.1691C62.6801 9.76969 63.0886 9.41567 63.5364 9.11914Z" fill="#E0DC51"/>
  <path d="M65.3671 8.86802C64.9707 8.983 64.5925 9.13733 64.2355 9.33098L65.3762 9.30372L65.3671 8.86499V8.86802Z" fill="#E0DC51"/>
  <path d="M65.349 8.03589L64.0781 8.06614L64.0932 8.79235C64.4896 8.58659 64.9132 8.4232 65.352 8.30822L65.3459 8.03892L65.349 8.03589Z" fill="#E0DC51"/>
  <path d="M66.9253 20.4569C66.9738 20.4569 67.0222 20.4569 67.0706 20.4569C67.2854 20.4508 67.4973 20.4357 67.706 20.4085C67.9027 20.3843 68.0964 20.351 68.284 20.3086L68.1206 19.7852C67.9814 19.8154 67.8392 19.8396 67.6939 19.8608C67.4851 19.888 67.2733 19.9092 67.0585 19.9153C66.8467 19.9213 66.6349 19.9092 66.4231 19.8911C66.2476 19.8759 66.0721 19.8517 65.8996 19.8215L65.7211 20.3419C65.9541 20.3873 66.1931 20.4176 66.4322 20.4357C66.5956 20.4478 66.759 20.4599 66.9224 20.4599L66.9253 20.4569Z" fill="#E0DC51"/>
  <path d="M65.1128 19.6094C64.8526 19.5217 64.5984 19.4188 64.3533 19.2917C64.1597 19.1919 63.9751 19.0799 63.7936 18.9589C63.5273 18.7803 63.2701 18.5806 63.0341 18.3567C63.025 18.3477 63.0159 18.3356 63.0038 18.3265C62.789 18.1177 62.5984 17.8938 62.4199 17.6608C62.205 17.3764 62.0204 17.0738 61.8661 16.7561C61.7572 16.5352 61.6604 16.3113 61.5817 16.0783C61.4455 15.6728 61.3608 15.2462 61.3185 14.8135C61.3064 14.6804 61.2943 14.5472 61.2882 14.411C61.2852 14.2718 61.2942 14.1357 61.3003 13.9995C61.3215 13.5608 61.3911 13.1311 61.5091 12.7226C61.5787 12.4836 61.6664 12.2566 61.7663 12.0327C61.9085 11.712 62.0779 11.4034 62.2746 11.1159C62.444 10.8678 62.6317 10.6288 62.8374 10.4109C63.0644 10.1688 63.3155 9.95096 63.5818 9.75428C63.7906 9.59996 64.0084 9.46077 64.2354 9.33671C64.5894 9.14306 64.9706 8.98877 65.367 8.87379C65.6636 8.78906 65.9722 8.7225 66.2869 8.68619C66.4563 8.66803 66.6258 8.6529 66.7982 8.64988C66.8406 8.64988 66.886 8.64988 66.9283 8.64988C67.0433 8.64988 67.1523 8.65893 67.2642 8.66801C67.591 8.68617 67.9087 8.73457 68.2173 8.80719C68.5956 8.89796 68.9617 9.02505 69.3067 9.18845C69.5608 9.30645 69.8089 9.43962 70.0389 9.59394C70.3082 9.77246 70.5563 9.97519 70.7893 10.1961C71.0132 10.4079 71.219 10.6408 71.4066 10.8859C71.6154 11.1613 71.7999 11.4548 71.9573 11.7665C72.0662 11.9843 72.1661 12.2113 72.2478 12.4442C72.387 12.8467 72.4807 13.2703 72.5261 13.7091C72.5412 13.8573 72.5564 14.0086 72.5594 14.1599C72.5594 14.2809 72.5534 14.402 72.5503 14.523C72.5322 14.9617 72.4686 15.3914 72.3537 15.7999C72.2871 16.0359 72.2024 16.2659 72.1086 16.4898C71.9603 16.8408 71.7757 17.1706 71.5609 17.4823C71.4096 17.7032 71.2432 17.9149 71.0586 18.1116C70.8135 18.3779 70.5412 18.62 70.2477 18.8348C70.0782 18.9589 69.9027 19.0769 69.7182 19.1828C69.4549 19.3341 69.1765 19.4581 68.8921 19.564L69.0555 20.0845C69.2885 19.9998 69.5154 19.8999 69.7363 19.7849C69.9632 19.6699 70.1841 19.5428 70.396 19.3976C70.753 19.1555 71.0858 18.8772 71.3914 18.5565C71.4338 18.5111 71.4701 18.4626 71.5125 18.4172C71.7001 18.2085 71.8726 17.9906 72.0269 17.7637C72.3053 17.3582 72.5352 16.9285 72.7047 16.4716C72.7894 16.2477 72.8559 16.0178 72.9165 15.7848C73.0193 15.3702 73.0768 14.9436 73.0919 14.5079C73.095 14.3869 73.1041 14.2688 73.101 14.1478C73.098 13.9965 73.0859 13.8482 73.0738 13.7C73.0314 13.2612 72.9467 12.8376 72.8166 12.4322C72.744 12.1992 72.6593 11.9722 72.5594 11.7514C72.3567 11.3005 72.1025 10.8829 71.803 10.4987C71.6517 10.305 71.4913 10.1234 71.3188 9.95096C70.9345 9.56063 70.4988 9.22175 70.0238 8.9464C69.8483 8.84352 69.6698 8.75274 69.4852 8.66801C69.0797 8.48344 68.6501 8.34122 68.2053 8.24742C67.9269 8.18993 67.6455 8.14756 67.355 8.12941C67.1674 8.1173 66.9767 8.11127 66.7861 8.1143C66.5501 8.12035 66.3141 8.13849 66.0841 8.17177C65.836 8.20506 65.5909 8.25649 65.3519 8.31701C64.9101 8.43199 64.4895 8.59541 64.0931 8.80117C63.8995 8.90102 63.7149 9.00994 63.5334 9.13097C63.0825 9.42751 62.677 9.78152 62.32 10.1809C62.1536 10.3655 61.9992 10.5622 61.857 10.7649C61.5787 11.1613 61.3487 11.594 61.1702 12.0509C61.0824 12.2748 61.0098 12.5078 60.9463 12.7438C60.8404 13.1553 60.7738 13.582 60.7557 14.0207C60.7496 14.1569 60.7466 14.2931 60.7496 14.4322C60.7526 14.5654 60.7677 14.6985 60.7768 14.8316C60.8131 15.2643 60.8948 15.688 61.0189 16.0995C61.0885 16.3294 61.1671 16.5564 61.264 16.7773C61.4607 17.2251 61.7148 17.6456 62.0174 18.036C62.1687 18.2327 62.3321 18.4233 62.5106 18.6048C62.559 18.6563 62.6044 18.7107 62.6589 18.7592C62.9978 19.0829 63.3669 19.3552 63.7573 19.5913C63.9479 19.7062 64.1446 19.8091 64.3443 19.9029C64.5379 19.9907 64.7316 20.0694 64.9343 20.139L65.1098 19.6245L65.1128 19.6094Z" fill="#E0DC51"/>
  <path d="M67.11 13.8696L67.0948 13.8181L67.0767 13.8696C67.0767 13.8696 67.0979 13.8696 67.1069 13.8696H67.11Z" fill="#E0DC51"/>
  <path d="M64.4472 22.4025C64.4684 22.4116 64.4865 22.4207 64.5077 22.4267H65.007L65.7211 20.3389L65.8996 19.8185L67.0615 16.4205L68.1176 19.7852L68.281 20.3087L68.9466 22.4267H69.7969L69.1766 20.4569L69.0556 20.0727L68.8921 19.5522L68.7802 19.1952L67.9511 16.5566C67.8967 16.6141 67.8513 16.7049 67.7877 16.7231C67.6304 16.7684 67.4125 16.4598 67.4791 16.2783C67.5003 16.2238 67.6243 16.1693 67.6879 16.1814C67.7635 16.1965 67.8241 16.2389 67.8694 16.2934L67.467 15.0135C67.3641 15.0891 67.2401 15.1345 67.1039 15.1375C66.9435 15.1405 66.8013 15.0831 66.6863 14.9893L65.2218 19.2708L65.1069 19.6037L64.9313 20.118L64.7831 20.5507L64.1416 22.4237H64.426C64.426 22.4237 64.4351 22.4056 64.4381 22.3995L64.4472 22.4025ZM68.9829 20.3692C68.8891 20.3631 68.8619 20.3147 68.9194 20.2542C68.9376 20.2361 68.989 20.23 69.0162 20.2421C69.0374 20.2512 69.0465 20.2935 69.0616 20.3208C69.0344 20.3389 69.0071 20.3722 68.9799 20.3722L68.9829 20.3692ZM66.762 15.6156C66.7801 15.5974 66.8316 15.5914 66.8588 15.6035C66.883 15.6126 66.8921 15.655 66.9072 15.6822C66.88 15.7003 66.8527 15.7366 66.8255 15.7336C66.7287 15.7275 66.7015 15.6791 66.762 15.6156Z" fill="#E0DC51"/>
  <path d="M67.7332 14.4899C67.7241 14.148 67.4488 13.8787 67.1129 13.8696C67.1039 13.8696 67.0917 13.8696 67.0826 13.8696C66.7317 13.8787 66.4533 14.1692 66.4624 14.5232C66.4654 14.7168 66.5592 14.8863 66.6954 14.9983C66.8104 15.0921 66.9556 15.1495 67.1129 15.1465C67.2491 15.1435 67.3731 15.0981 67.476 15.0225C67.6364 14.9044 67.7423 14.7108 67.7362 14.496L67.7332 14.4899Z" fill="#E0DC51"/>
  <path d="M70.7863 22.7625C70.7863 22.5779 70.635 22.4297 70.4534 22.4297H64.5077C64.5621 22.4539 64.6136 22.4751 64.668 22.4993C64.6378 22.5719 64.6045 22.6445 64.5743 22.7172C64.5016 22.6869 64.3866 22.6718 64.3655 22.6173C64.3473 22.5719 64.4018 22.4963 64.435 22.4297H63.6846C63.5001 22.4297 63.3518 22.581 63.3518 22.7625C63.3518 22.9441 63.5031 23.0954 63.6846 23.0954H70.4534C70.638 23.0954 70.7863 22.9441 70.7863 22.7625Z" fill="#E0DC51"/>
  <path d="M20.3458 36.86C20.3458 34.9235 18.8843 33.3258 17.0083 33.0989C16.9266 33.3924 16.6603 33.6103 16.3396 33.6103H13.9673V34.1519H16.5544C18.0461 34.1519 19.2625 35.3652 19.2625 36.86V39.8949C19.2625 41.3866 18.0491 42.603 16.5544 42.603H13.9673V42.8179H12.524V42.603H9.93689C8.44515 42.603 7.22878 41.3896 7.22878 39.8949V36.86C7.22878 35.3683 8.44212 34.1519 9.93689 34.1519H12.524V33.6103H10.1517C9.83403 33.6103 9.56471 33.3924 9.48301 33.0989C7.60699 33.3228 6.14551 34.9235 6.14551 36.86V39.8949C6.14551 41.9857 7.84603 43.6832 9.93386 43.6832H16.5544C18.6452 43.6832 20.3427 41.9827 20.3427 39.8949V36.86H20.3458ZM9.43159 42.7634C9.57683 42.7543 9.67968 42.8179 9.7402 42.948C9.59193 42.9631 9.49211 42.8965 9.43159 42.7634Z" fill="#E0DC51"/>
  <path d="M12.527 34.1549V36.4787C12.6783 36.5302 12.7842 36.624 12.7418 36.8237C12.7176 36.9326 12.6299 36.984 12.527 37.0022V42.8178H13.9703V37.4319C13.9128 37.4803 13.8402 37.5045 13.7494 37.5015C13.5709 37.4984 13.4256 37.3804 13.4317 37.1959C13.4378 37.0173 13.5799 36.8812 13.7524 36.8872C13.8402 36.8902 13.9158 36.9296 13.9703 36.9931V33.6133H12.527V34.1549ZM13.0777 35.8766C13.0474 35.8705 12.999 35.813 13.005 35.7888C13.0444 35.6164 13.1563 35.5195 13.3379 35.5104C13.3742 35.5619 13.4559 35.6315 13.4438 35.6617C13.3833 35.8191 13.2622 35.9129 13.0807 35.8766H13.0777Z" fill="#E0DC51"/>
  <path d="M10.1547 33.6131H16.3425C16.6602 33.6131 16.9295 33.3952 17.0112 33.1017C17.0263 33.0412 17.0384 32.9807 17.0384 32.9171C17.0384 32.5329 16.7238 32.2212 16.3425 32.2212H10.1547C9.77038 32.2212 9.45874 32.5329 9.45874 32.9171C9.45874 32.9807 9.47083 33.0412 9.48596 33.1017C9.56766 33.3952 9.83392 33.6131 10.1547 33.6131Z" fill="#E0DC51"/>
</svg>