<svg xmlns="http://www.w3.org/2000/svg" width="80" height="37" viewBox="0 0 80 37" fill="none">
  <path d="M56.6261 9.04189C56.6831 9.0153 56.7382 8.98871 56.7951 8.96213C57.0211 8.79882 57.1388 8.44562 56.8882 8.22724C55.0747 6.65303 52.8738 5.63142 50.5514 5.15479C50.5211 5.21935 50.4774 5.28962 50.4147 5.37507C50.2248 5.4928 50.0292 5.59154 49.8147 5.6523C49.6457 5.79282 49.4804 5.93525 49.3171 6.08146C51.8237 6.41947 54.243 7.4183 56.3052 8.97163C56.4096 9.04949 56.5217 9.06657 56.6261 9.04189ZM54.9342 7.20942C54.8639 7.19802 54.8468 7.13157 54.8981 7.0803C54.9323 7.04422 54.9911 7.03093 55.0367 7.00624C55.05 7.05561 55.0633 7.10499 55.0766 7.15246C55.0291 7.17335 54.9779 7.21701 54.9342 7.20942Z" fill="#51B1E0"/>
  <path d="M45.6351 4.95912C43.7855 5.18699 42.029 5.77376 40.4054 6.67195C40.4092 6.68525 40.413 6.70043 40.4168 6.71373C40.3693 6.73461 40.3181 6.7783 40.2744 6.7707C40.2649 6.7707 40.2573 6.765 40.2497 6.7612C40.1339 6.82766 40.0161 6.89034 39.9003 6.9606C38.1286 8.02969 36.543 9.37412 34.7998 10.485C32.9464 11.668 30.9374 12.4808 28.7042 12.3668C27.0313 12.2814 25.4267 11.7326 23.9094 11.0376C23.8183 11.0528 23.7214 11.0566 23.6455 11.0243C23.5353 10.9787 23.5049 10.918 23.522 10.8572C23.3663 10.7831 23.2106 10.7091 23.0587 10.6331C19.728 8.97156 16.5549 6.67385 12.8785 5.83642C12.9032 5.96555 12.8083 6.10228 12.7133 6.0567C12.3013 5.86491 11.9025 5.97315 11.4961 6.03202C11.4638 6.03771 11.3993 5.96176 11.3841 5.91428C11.3708 5.86871 11.3879 5.79274 11.4202 5.76046C11.5094 5.67501 11.612 5.64274 11.7183 5.62944C11.5208 5.60286 11.3252 5.57818 11.1277 5.56109C11.1239 5.56488 11.122 5.56867 11.1182 5.57057C11.0556 5.62943 10.8429 5.60476 10.803 5.5402C6.83425 5.29334 2.85979 6.89602 0.170902 9.84696C0.214578 9.90583 0.265852 9.96281 0.28674 10.0293C0.326618 10.1641 0.225973 10.3179 0.12533 10.2704C0.0835536 10.2514 0.0417764 10.2362 0 10.2229C0.0493722 10.4109 0.281042 10.5458 0.451946 10.3635C1.35963 9.39311 2.41924 8.57468 3.57758 7.92905C3.5396 7.92715 3.50163 7.92145 3.46935 7.90626C3.26996 7.82081 3.32692 7.69359 3.46555 7.58345C3.53201 7.53028 3.59277 7.44482 3.66683 7.42963C3.82444 7.39734 3.95927 7.45241 3.98015 7.6385C3.98395 7.66699 3.98016 7.69358 3.97826 7.71827C6.3861 6.48586 9.16993 5.99593 11.8569 6.47446C12.5101 6.59029 13.1444 6.76121 13.7672 6.9663C13.866 6.91503 13.9552 6.934 14.0502 7.01755C14.0768 7.04034 14.0996 7.06314 14.1204 7.08593C17.0942 8.14364 19.766 10.0426 22.5536 11.4763C23.8316 12.1333 25.1513 12.6783 26.4958 13.0182C26.5015 12.9897 26.5148 12.9612 26.5318 12.9441C26.7521 12.7333 27.0408 12.8378 27.2971 12.7846C27.4845 12.615 27.6674 12.6137 27.8459 12.7808C27.8934 12.853 27.9636 12.9175 27.9864 12.9973C28.0263 13.1321 27.9257 13.2859 27.825 13.2384C27.5649 13.1188 27.3104 13.1169 27.056 13.1473C28.9777 13.5442 30.9469 13.491 32.9198 12.6897C36.6512 11.1743 39.361 7.88157 43.2215 6.61688C44.9458 6.0529 46.7289 5.85922 48.4854 5.99215C48.85 5.64464 49.2316 5.31233 49.6247 4.99331C48.3069 4.80911 46.9624 4.79391 45.6351 4.95722V4.95912ZM39.2243 8.45695C39.1559 8.52152 38.9091 8.48733 38.8996 8.40758C38.8711 8.16452 38.9338 7.94233 39.0914 7.75243C39.1028 7.73724 39.2129 7.76953 39.2338 7.80371C39.2927 7.90245 39.3306 8.01451 39.3496 8.05818C39.3534 8.25757 39.3173 8.3677 39.2243 8.45505V8.45695Z" fill="#51B1E0"/>
  <path d="M41.4555 12.8797C41.0073 13.1512 40.5706 13.4398 40.1395 13.7361C40.1775 13.7665 40.2212 13.8063 40.2781 13.8614C40.3256 13.9336 40.3959 13.9981 40.4187 14.0779C40.4585 14.2127 40.3579 14.3665 40.2573 14.3191C39.98 14.1899 39.7066 14.1975 39.435 14.2355C38.4153 14.9685 37.4146 15.73 36.355 16.4041C34.5016 17.5871 32.4925 18.3999 30.2594 18.2859C28.2693 18.1834 26.3761 17.4314 24.6139 16.5522C22.7814 15.6369 20.9945 14.5317 19.1469 13.5804C19.1696 13.6316 19.1848 13.6772 19.1962 13.7019C19.2 13.9013 19.1639 14.0114 19.0709 14.0988C19.0025 14.1633 18.7557 14.1292 18.7462 14.0494C18.7196 13.8291 18.7728 13.6297 18.8981 13.4531C17.227 12.61 15.5009 11.9036 13.64 11.596C9.89908 10.9788 6.02715 12.0764 3.11989 14.4501C3.12559 14.4691 3.13509 14.4824 3.13699 14.5051C3.15218 14.6343 3.09331 14.7425 2.96608 14.771C2.88633 14.7881 2.79518 14.8014 2.71353 14.7919C2.32804 15.1337 1.95965 15.4945 1.61594 15.8819C1.37858 16.1477 1.76026 16.5446 2.00712 16.2806C4.86881 13.2177 9.25913 11.6549 13.4121 12.3954C16.3004 12.9101 18.8449 14.4064 21.3724 15.8724C21.3895 15.8591 21.4028 15.8439 21.4199 15.8306C21.4313 15.804 21.4351 15.7717 21.4522 15.749C21.6819 15.4489 21.83 15.3957 22.001 15.5458C22.2193 15.7375 22.2155 15.88 21.982 16.1952C21.9744 16.2009 21.9649 16.2047 21.9573 16.2104C22.6713 16.6225 23.3872 17.025 24.1107 17.3972C27.3806 19.0797 30.924 20.0538 34.4769 18.6106C37.9634 17.1959 40.5573 14.2279 44.0323 12.8132C44.1975 12.3518 44.3798 11.8998 44.583 11.4574C43.4949 11.8068 42.4486 12.2796 41.4574 12.8778L41.4555 12.8797ZM26.5014 18.0315C26.4312 18.0201 26.4141 17.9536 26.4653 17.9023C26.4995 17.8663 26.5584 17.8511 26.604 17.8283C26.6172 17.8776 26.6305 17.927 26.6438 17.9745C26.5964 17.9954 26.5451 18.039 26.5014 18.0315Z" fill="#51B1E0"/>
  <path d="M49.112 11.8751C49.1956 11.7023 49.3228 11.5751 49.4652 11.4592C49.4766 11.4326 49.4804 11.4004 49.4975 11.3776C49.7273 11.0775 49.8754 11.0244 50.0463 11.1744C50.2647 11.3662 50.2609 11.5086 50.0273 11.8238C49.9817 11.8523 49.9361 11.877 49.8906 11.9017C50.7926 11.9605 51.6889 12.1067 52.5643 12.3346C52.813 12.0061 53.0808 11.6909 53.3656 11.3928C51.3793 10.8003 49.262 10.6256 47.1903 10.8801C46.5769 10.956 45.975 11.0756 45.3825 11.2276C45.1717 11.6529 44.978 12.0897 44.8033 12.5321C46.2161 12.0726 47.6688 11.8618 49.112 11.8751Z" fill="#51B1E0"/>
  <path d="M58.4414 14.1482C57.1388 13.0183 55.6348 12.1714 54.0302 11.6074C53.7397 11.8942 53.4662 12.198 53.2118 12.5151C54.8696 13.0259 56.4457 13.8292 57.8566 14.8907C58.2857 15.2135 58.8478 14.5014 58.4414 14.1482Z" fill="#51B1E0"/>
  <path d="M49.5374 17.2072C49.5374 17.2072 49.5374 17.2053 49.5374 17.2034C49.5184 17.1161 49.5393 17.0344 49.6304 16.9908C49.7348 16.9927 49.7937 17.0591 49.8203 17.1484C49.8279 17.1731 49.8298 17.1959 49.8279 17.2168C50.0634 17.2319 50.2988 17.2566 50.5324 17.2832C50.5799 16.9091 50.6463 16.5426 50.7337 16.1818C49.5431 16.047 48.3334 16.0489 47.1371 16.1951C45.9579 16.3394 44.8166 16.6357 43.7228 17.0591C43.6868 17.4598 43.664 17.8643 43.6564 18.2706C44.0039 18.1187 44.3552 17.9744 44.7217 17.8548C46.2978 17.3383 47.9252 17.137 49.5355 17.2053L49.5374 17.2072ZM47.0422 16.2825C47.0536 16.2673 47.1637 16.2996 47.1846 16.3337C47.2435 16.4325 47.2814 16.5445 47.3004 16.5882C47.3042 16.7876 47.2681 16.8977 47.1751 16.9851C47.1067 17.0496 46.8599 17.0155 46.8504 16.9357C46.8219 16.6927 46.8846 16.4705 47.0422 16.2806V16.2825Z" fill="#51B1E0"/>
  <path d="M56.4665 18.96C56.4779 18.9334 56.4817 18.9011 56.4988 18.8784C56.7286 18.5783 56.8767 18.5251 57.0476 18.6752C57.266 18.8689 57.2622 19.0094 57.0286 19.3246C56.9355 19.3816 56.8406 19.4347 56.7438 19.4822C57.1065 19.7101 57.4635 19.9494 57.8091 20.2076C58.2382 20.5304 58.8003 19.8183 58.3939 19.4651C57.1577 18.3922 55.7411 17.5776 54.2296 17.0155C54.2125 17.1048 54.1783 17.1712 54.1194 17.2263C54.0511 17.2908 53.8042 17.2567 53.7947 17.1769C53.7814 17.0668 53.7909 16.9623 53.8156 16.8636C53.0181 16.594 52.1939 16.3965 51.3584 16.2673C51.2691 16.6281 51.2008 16.9965 51.1533 17.3706C52.9345 17.6535 54.6625 18.2669 56.2443 19.1784C56.3108 19.0986 56.3868 19.0265 56.4684 18.96H56.4665Z" fill="#51B1E0"/>
  <path d="M41.4043 18.1966C39.6326 19.2657 38.047 20.6102 36.3038 21.721C34.4504 22.9041 32.4413 23.7168 30.2082 23.6029C29.7562 23.5801 29.3081 23.5193 28.8656 23.4358C28.7118 23.4889 28.5504 23.5231 28.37 23.5193C28.3795 23.4529 28.3985 23.3959 28.4175 23.3389C27.0769 23.0256 25.7875 22.4825 24.5608 21.8692C21.8472 20.5152 19.2381 18.7416 16.3764 17.6763C16.3479 17.7086 16.3118 17.7333 16.2625 17.7447C16.1523 17.7693 16.0194 17.7864 15.9225 17.7447C15.7611 17.6763 15.7687 17.5795 15.8504 17.4883C15.1155 17.2415 14.3635 17.0421 13.5869 16.9148C11.9082 16.6376 10.2011 16.7059 8.56799 17.08C8.64585 17.1066 8.70282 17.1655 8.71611 17.2794C8.7313 17.4086 8.67243 17.5168 8.54521 17.5453C8.43507 17.57 8.30214 17.5871 8.2053 17.5453C8.00591 17.4598 8.06288 17.3326 8.2015 17.2225C8.22619 17.2016 8.25087 17.1769 8.27746 17.1541C5.7139 17.8016 3.34404 19.1974 1.56284 21.2007C1.32548 21.4666 1.70716 21.8635 1.95402 21.5995C4.45301 18.9239 8.11985 17.3934 11.7772 17.5434C11.7715 17.5187 11.7772 17.4902 11.8038 17.4636C11.8379 17.4275 11.8968 17.4124 11.9424 17.3896C11.9557 17.4389 11.969 17.4883 11.9823 17.5358C11.9709 17.5415 11.9576 17.5472 11.9462 17.5548C12.419 17.5814 12.89 17.6307 13.359 17.7143C15.2826 18.0561 17.0543 18.8366 18.7709 19.7518C18.7766 19.7196 18.7899 19.6854 18.807 19.6683C19.0273 19.4575 19.3159 19.5619 19.5723 19.5088C19.7597 19.3391 19.9426 19.3379 20.1211 19.505C20.1686 19.5771 20.2388 19.6417 20.2616 19.7215C20.3015 19.8563 20.2008 20.0101 20.1002 19.9626C19.7508 19.8012 19.409 19.8544 19.0653 19.9094C20.7477 20.8247 22.3789 21.854 24.0538 22.7142C27.3237 24.3947 30.8671 25.3708 34.42 23.9276C36.4576 23.0997 38.1913 21.7438 39.9725 20.4753C39.963 20.4772 39.9535 20.4791 39.944 20.4772C39.8737 20.4658 39.8567 20.3994 39.9079 20.3481C39.9421 20.312 40.001 20.2968 40.0465 20.274C40.0579 20.3158 40.0693 20.3576 40.0807 20.3994C41.0264 19.7291 41.991 19.091 43.0241 18.5707C43.0241 18.153 43.045 17.7409 43.0734 17.3288C42.5019 17.5833 41.9436 17.87 41.4024 18.1966H41.4043ZM21.2244 20.9121C21.1142 20.9406 21.0629 20.857 21.044 20.7659C21.025 20.6785 21.0459 20.5969 21.137 20.5532C21.2414 20.5551 21.3003 20.6216 21.3269 20.7108C21.3535 20.802 21.3212 20.8893 21.2244 20.914V20.9121ZM31.1767 24.5846C31.0665 24.6093 30.9336 24.6264 30.8367 24.5846C30.6373 24.4992 30.6943 24.3719 30.8329 24.2618C30.8994 24.2086 30.9602 24.1232 31.0342 24.108C31.1918 24.0757 31.3267 24.1308 31.3475 24.3169C31.3627 24.446 31.3039 24.5542 31.1767 24.5827V24.5846ZM42.3689 18.884C42.067 19.0701 41.7556 19.2258 41.3663 19.2182C41.4138 18.8802 41.5961 18.6922 41.8069 18.5194C41.8182 18.4929 41.822 18.4606 41.8391 18.4378C42.0689 18.1377 42.217 18.0846 42.3879 18.2346C42.6063 18.4264 42.6025 18.5688 42.3689 18.884Z" fill="#51B1E0"/>
  <path d="M42.1943 25.4562C41.1195 26.1057 40.113 26.8557 39.0971 27.5925C39.1996 27.5925 39.3022 27.5925 39.4009 27.5735C39.5883 27.4039 39.7712 27.4026 39.9497 27.5697C39.9972 27.6419 40.0675 27.7064 40.0902 27.7862C40.1301 27.921 40.0295 28.0748 39.9288 28.0274C39.5168 27.8356 39.118 27.9438 38.7116 28.0027C38.6888 28.0065 38.6509 27.9704 38.6243 27.9324C38.1229 28.2932 37.6159 28.6464 37.0937 28.9787C35.2404 30.1618 33.2313 30.9745 30.9982 30.8606C30.1323 30.8169 29.2853 30.6441 28.4574 30.3953C28.2637 30.4808 28.0586 30.5397 27.8232 30.534C27.8403 30.4124 27.8782 30.3156 27.9257 30.2263C27.0408 29.9225 26.1806 29.5408 25.3507 29.125C23.5107 28.2059 21.7181 27.095 19.8647 26.1436C19.8685 26.1512 19.8723 26.1588 19.8742 26.1664C19.9141 26.3013 19.8135 26.4551 19.7128 26.4076C19.3008 26.2158 18.902 26.324 18.4956 26.3829C18.4633 26.3867 18.3988 26.3126 18.3836 26.2652C18.3703 26.2196 18.3874 26.1436 18.4197 26.1114C18.6399 25.9006 18.9286 26.005 19.1849 25.9518C19.2286 25.9139 19.2628 25.8816 19.2951 25.855C17.7303 25.0878 16.1125 24.4555 14.3787 24.1688C10.1289 23.468 5.71012 24.9777 2.7307 28.0578C2.88642 28.0274 3.01744 28.0824 3.04023 28.2666C3.05542 28.3958 2.99656 28.504 2.86933 28.5325C2.75919 28.5572 2.62626 28.5743 2.52942 28.5325C2.44397 28.4964 2.40788 28.4508 2.40219 28.4033C2.387 28.4204 2.36991 28.4375 2.35471 28.4546C2.11735 28.7205 2.49903 29.1173 2.74589 28.8534C4.77395 26.6829 7.56917 25.272 10.503 24.8922C10.5106 24.8713 10.5182 24.8524 10.5315 24.841C10.7518 24.6302 11.0404 24.7346 11.2968 24.6815C11.4841 24.5118 11.6671 24.5105 11.8456 24.6777C11.8703 24.7156 11.9025 24.7517 11.9291 24.7897C12.6716 24.7802 13.4141 24.8353 14.1509 24.9663C16.7429 25.4277 19.0596 26.681 21.3326 27.9932C21.3402 27.94 21.3668 27.8925 21.4295 27.8622C21.5339 27.8641 21.5928 27.9305 21.6194 28.0198C21.6326 28.0692 21.6289 28.1147 21.6099 28.1527C22.6885 28.7774 23.7594 29.4079 24.8475 29.9681C28.1175 31.6486 31.6609 32.6247 35.2138 31.1815C38.6072 29.8029 41.1593 26.9583 44.4996 25.5037C44.3514 25.1695 44.2166 24.8296 44.0875 24.4859C43.4381 24.7612 42.8057 25.0821 42.1962 25.4505L42.1943 25.4562ZM30.5671 31.51C30.457 31.5347 30.3241 31.5518 30.2272 31.51C30.0278 31.4246 30.0848 31.2973 30.2234 31.1872C30.2899 31.134 30.3506 31.0486 30.4247 31.0334C30.5823 31.0011 30.7171 31.0562 30.738 31.2423C30.7532 31.3714 30.6943 31.4796 30.5671 31.5081V31.51Z" fill="#51B1E0"/>
  <path d="M52.5035 24.727C52.2035 24.3245 51.9338 23.901 51.6945 23.4586C50.4489 23.3028 49.1823 23.3009 47.9309 23.4567C46.8067 23.5953 45.7186 23.8687 44.6704 24.2618C44.7976 24.6055 44.9325 24.9435 45.0806 25.2758C45.2249 25.2208 45.3692 25.1657 45.5154 25.1163C47.8074 24.3662 50.2077 24.2694 52.5035 24.727ZM49.243 23.4377C49.3475 23.4396 49.4063 23.506 49.4329 23.5953C49.4595 23.6864 49.4272 23.7738 49.3304 23.7985C49.2202 23.8269 49.169 23.7434 49.15 23.6523C49.131 23.5649 49.1519 23.4832 49.243 23.4396V23.4377Z" fill="#51B1E0"/>
  <path d="M56.9185 25.7049C56.9299 25.6783 56.9337 25.6461 56.9508 25.6233C57.0761 25.4581 57.1787 25.3707 57.2736 25.3479C55.8 24.4725 54.1726 23.8801 52.4845 23.5781C52.7807 24.0661 53.1168 24.5295 53.4928 24.9605C54.5448 25.2473 55.5703 25.6499 56.5425 26.1645C56.6242 25.967 56.7647 25.8302 56.9185 25.7049Z" fill="#51B1E0"/>
  <path d="M57.4787 26.0694C57.287 26.1872 57.0895 26.2878 56.8749 26.3467C57.4711 26.6809 58.0484 27.0512 58.5991 27.4651C58.7434 27.5734 58.901 27.5639 59.034 27.4917C59.0017 27.4879 58.9713 27.4822 58.9447 27.4708C58.7453 27.3854 58.8023 27.2582 58.9409 27.148C59.0074 27.0948 59.0681 27.0094 59.1422 26.9942C59.2106 26.9809 59.2713 26.9866 59.3245 27.0094C59.3207 26.9069 59.2808 26.8043 59.1859 26.7227C58.6941 26.2954 58.1719 25.9137 57.6288 25.5681C57.7009 25.701 57.6534 25.8378 57.4825 26.0694H57.4787Z" fill="#51B1E0"/>
  <path d="M56.0469 1.9038C56.0944 1.97596 56.1647 2.04052 56.1875 2.12028C56.1989 2.15636 56.1989 2.19243 56.1913 2.22661C57.8737 1.72149 59.6606 1.44995 61.514 1.44995C64.4839 1.44995 67.2848 2.15255 69.7515 3.38685C69.8351 3.22164 69.9585 3.09821 70.0971 2.98428C70.1085 2.95769 70.1123 2.92542 70.1294 2.90264C70.1351 2.89504 70.1408 2.88935 70.1446 2.88365C67.5659 1.57149 64.6301 0.825195 61.514 0.825195C59.258 0.825195 57.0952 1.21639 55.0956 1.93039C55.2304 1.92279 55.369 1.93608 55.5001 1.9095C55.6874 1.73986 55.8703 1.73859 56.0488 1.9057L56.0469 1.9038Z" fill="#51B1E0"/>
  <path d="M45.0786 25.2758C44.9305 24.9435 44.7957 24.6036 44.6685 24.2618C44.0114 22.4806 43.6506 20.5665 43.6506 18.5726C43.6506 18.472 43.6563 18.3732 43.6582 18.2726C43.6658 17.8643 43.6867 17.4599 43.7247 17.0611C43.869 15.4812 44.2374 13.962 44.8014 12.534C44.9761 12.0897 45.1698 11.6548 45.3806 11.2295C46.349 9.28307 47.6916 7.54176 49.3151 6.08338C49.4784 5.93716 49.6437 5.79474 49.8127 5.65422C49.6854 5.6884 49.5544 5.71497 49.412 5.71117C49.4595 5.37316 49.6418 5.18518 49.8525 5.01238C49.8639 4.9858 49.8677 4.9535 49.8848 4.93072C50.1146 4.63069 50.2627 4.57753 50.4336 4.72754C50.557 4.83578 50.6064 4.92883 50.5874 5.04277C51.7021 4.21294 52.9212 3.50843 54.2239 2.94824C54.2505 2.90267 54.2789 2.85708 54.3131 2.81531C54.3245 2.80201 54.4043 2.82481 54.4404 2.8533C54.9189 2.65391 55.4088 2.4773 55.9082 2.31969C55.5379 2.19436 55.1752 2.28553 54.8069 2.3387C54.7746 2.34249 54.71 2.26841 54.6948 2.22094C54.6815 2.17537 54.6986 2.09942 54.7309 2.06714C52.8604 2.77734 51.1362 3.77049 49.6209 4.9953C49.2278 5.31432 48.8461 5.64663 48.4815 5.99414C46.8465 7.55506 45.5173 9.40649 44.5773 11.4592C44.3741 11.9017 44.1918 12.3555 44.0266 12.8151C43.9962 12.9005 43.9659 12.986 43.9355 13.0714C43.945 13.0638 43.9526 13.0562 43.9621 13.0486C44.0285 12.9955 44.0893 12.91 44.1633 12.8948C44.321 12.8626 44.4558 12.9176 44.4767 13.1037C44.4919 13.2328 44.433 13.3411 44.3058 13.3696C44.1956 13.3943 44.0627 13.4113 43.9659 13.3696C43.9108 13.3468 43.8766 13.3183 43.8576 13.2898C43.438 14.5792 43.174 15.9312 43.0715 17.3269C43.0411 17.7371 43.0221 18.1511 43.0221 18.5688C43.0221 20.6444 43.3981 22.6363 44.0836 24.4897C44.2108 24.8334 44.3456 25.1733 44.4957 25.5075C45.0444 26.7437 45.7376 27.9059 46.5503 28.9788C46.7516 28.8136 47.0042 28.8781 47.2358 28.8477C46.3737 27.7502 45.6464 26.5519 45.0767 25.2739L45.0786 25.2758ZM47.9555 6.83915C47.9897 6.80307 48.0486 6.78788 48.0941 6.76509C48.1074 6.81446 48.1207 6.86384 48.134 6.91131C48.0865 6.9322 48.0353 6.97586 47.9916 6.96826C47.9213 6.95687 47.9042 6.89042 47.9555 6.83915Z" fill="#51B1E0"/>
  <path d="M70.6554 3.35067C70.4959 3.44942 70.3345 3.53675 70.1598 3.59752C70.8776 3.9792 71.565 4.40458 72.2163 4.87552C72.2391 4.84134 72.2714 4.80715 72.3113 4.77487C72.3777 4.7217 72.4385 4.63624 72.5126 4.62104C72.6702 4.58876 72.805 4.64385 72.8259 4.82995C72.8411 4.95907 72.7822 5.06729 72.655 5.09578C72.617 5.10337 72.5771 5.11099 72.5354 5.11478C73.3899 5.75852 74.1798 6.4744 74.8976 7.25486C74.9109 7.23587 74.9223 7.21499 74.9375 7.196C74.9489 7.18081 75.059 7.2131 75.0799 7.24728C75.1388 7.34602 75.1768 7.45805 75.1958 7.50173C75.1958 7.53211 75.1958 7.55681 75.192 7.58149C75.8813 8.36955 76.4984 9.21837 77.032 10.1185C77.1118 9.90578 77.2561 9.76335 77.4194 9.63232C77.4251 9.61523 77.4308 9.59624 77.4384 9.57915C76.9276 8.74931 76.3503 7.96128 75.7104 7.22449C75.5641 7.24158 75.4198 7.27006 75.2717 7.29095C75.2394 7.29475 75.1749 7.22069 75.1597 7.17322C75.1464 7.12764 75.1635 7.05168 75.1958 7.01939C75.2641 6.95483 75.3401 6.92065 75.4179 6.90166C74.0849 5.43948 72.5069 4.1881 70.7447 3.20825C70.7181 3.25193 70.6877 3.2975 70.6497 3.34877L70.6554 3.35067Z" fill="#51B1E0"/>
  <path d="M77.1554 10.3162C78.5682 12.7658 79.3752 15.58 79.3752 18.5708C79.3752 18.5898 79.3752 18.6088 79.3752 18.6297C79.4094 18.6658 79.436 18.7095 79.4436 18.7797C79.455 18.8709 79.4265 18.9506 79.3638 19C79.2252 24.3626 76.506 29.1194 72.3492 32.1691C72.3758 32.2033 72.3967 32.245 72.4043 32.3039C72.4195 32.433 72.3606 32.5413 72.2334 32.5697C72.1232 32.5944 71.9903 32.6115 71.8935 32.5697C71.8669 32.5584 71.846 32.5469 71.8289 32.5337C70.7959 33.2363 69.685 33.8401 68.5058 34.3225C68.5096 34.33 68.5134 34.3376 68.5153 34.3452C68.5551 34.4801 68.4545 34.6339 68.3538 34.5864C68.2532 34.5389 68.1526 34.5105 68.0538 34.4953C66.0277 35.2624 63.823 35.6897 61.5139 35.6897C55.857 35.6897 50.8096 33.1527 47.534 29.2067C47.2738 29.1612 47.0175 29.2048 46.7573 29.2466C47.608 30.329 48.586 31.3126 49.6684 32.1824C49.7918 32.0912 49.8963 32.0969 50.0083 32.1976C50.1469 32.3191 50.1963 32.4197 50.1545 32.5564C53.2915 34.9092 57.2318 36.3163 61.512 36.3163C71.7055 36.3163 80 28.356 80 18.5708C80 15.5136 79.191 12.6348 77.7668 10.1206C77.5788 10.2212 77.3776 10.2915 77.1554 10.3162ZM54.5107 34.6833C54.4404 34.6719 54.4233 34.6054 54.4746 34.5541C54.5088 34.518 54.5676 34.5028 54.6132 34.4801C54.6265 34.5294 54.6398 34.5788 54.6531 34.6263C54.6056 34.6472 54.5543 34.6908 54.5107 34.6833ZM69.3033 34.4687C69.1932 34.4972 69.1419 34.4136 69.1229 34.3225C69.1039 34.2351 69.1248 34.1534 69.216 34.1098C69.3204 34.1117 69.3793 34.1781 69.4059 34.2674C69.4324 34.3585 69.4002 34.4459 69.3033 34.4706V34.4687Z" fill="#51B1E0"/>
  <path d="M55.0177 9.97608C55.0064 10.1071 54.9703 10.1926 54.8962 10.2628C54.8468 10.3103 54.6987 10.3046 54.6209 10.2666C54.1727 10.6103 53.7512 10.9863 53.3638 11.3908C53.0789 11.6889 52.8112 12.0041 52.5624 12.3326C52.2605 12.7314 51.9852 13.1511 51.7421 13.5897C51.7421 13.5897 51.744 13.5878 51.7459 13.5859C51.8124 13.5328 51.8731 13.4473 51.9472 13.4321C52.1048 13.3998 52.2396 13.4549 52.2605 13.641C52.2757 13.7701 52.2168 13.8784 52.0896 13.9069C51.9795 13.9315 51.8465 13.9486 51.7497 13.9069C51.6775 13.8765 51.6415 13.8404 51.6263 13.8024C51.2351 14.5487 50.9312 15.3462 50.7319 16.1799C50.6445 16.5407 50.578 16.9072 50.5306 17.2813C50.4774 17.7047 50.447 18.1339 50.447 18.5687C50.447 20.3309 50.899 21.9906 51.6908 23.4547C51.9301 23.8971 52.2016 24.3206 52.4998 24.7231C54.5069 27.4253 57.7959 29.1932 61.5102 29.1932C67.6114 29.1932 72.5753 24.4269 72.5753 18.5668C72.5753 12.7067 67.6114 7.94043 61.5102 7.94043C59.8239 7.94043 58.225 8.30692 56.7932 8.95635C56.7363 8.98294 56.6812 9.00951 56.6242 9.03609C56.0584 9.30384 55.521 9.61907 55.0158 9.97228L55.0177 9.97608ZM67.6342 10.1926C67.6684 10.1565 67.7273 10.1413 67.7729 10.1185C67.7861 10.1679 67.7994 10.2172 67.8127 10.2647C67.7653 10.2856 67.714 10.3293 67.6703 10.3217C67.6001 10.3103 67.583 10.2438 67.6342 10.1926ZM71.9505 18.5118C71.9619 18.5023 71.9714 18.4909 71.9847 18.4814C72.0511 18.4282 72.1119 18.3428 72.186 18.3276C72.3436 18.2953 72.4784 18.3503 72.4993 18.5364C72.5145 18.6656 72.4556 18.7738 72.3284 18.8023C72.2182 18.827 72.0853 18.8441 71.9885 18.8023C71.9714 18.7947 71.96 18.7871 71.9467 18.7795C71.829 24.1953 67.1956 28.5685 61.514 28.5685C58.2934 28.5685 55.4089 27.1633 53.4929 24.9586C53.1169 24.5276 52.7808 24.0642 52.4846 23.5762C51.9757 22.7369 51.5902 21.8216 51.3528 20.8512C51.3395 20.8569 51.3281 20.8645 51.3129 20.8683C51.2028 20.893 51.0699 20.9101 50.973 20.8683C50.7736 20.7829 50.8306 20.6556 50.9692 20.5455C51.0357 20.4923 51.0965 20.4069 51.1705 20.3917C51.199 20.386 51.2256 20.386 51.2522 20.386C51.1382 19.7954 51.0756 19.1878 51.0756 18.5668C51.0756 18.1605 51.1041 17.7598 51.1534 17.3648C51.2009 16.9907 51.2693 16.6223 51.3585 16.2615C51.7003 14.8791 52.3422 13.6068 53.2138 12.5111C53.4682 12.1921 53.7417 11.8902 54.0322 11.6034C55.9292 9.733 58.582 8.56706 61.514 8.56706C67.2488 8.56706 71.9182 13.0219 71.9505 18.508V18.5118Z" fill="#51B1E0"/>
</svg>