<svg xmlns="http://www.w3.org/2000/svg" width="80" height="91" viewBox="0 0 80 91" fill="none">
  <path d="M41.3983 89.5559C41.7164 89.1417 42.0543 88.7375 42.4287 88.2769C41.6269 88.3332 40.8184 88.3663 40.0033 88.3663C31.2425 88.3663 23.1577 85.0198 16.6965 79.4001C16.67 79.4333 16.6468 79.4697 16.6136 79.5029C16.5043 79.7182 16.395 79.9336 16.2856 80.149C16.1166 80.3842 15.9543 80.6195 15.8085 80.8647C18.2637 82.9687 20.9377 84.7613 23.7906 86.1894C23.8502 85.709 24.1252 85.4141 24.6488 85.371C25.0232 85.3412 25.4075 85.3312 25.7786 85.371C26.4049 85.4373 26.8787 85.9011 26.9881 86.4976C27.0742 86.9747 27.0742 87.3326 26.9649 87.6009C28.7508 88.2968 30.5898 88.8501 32.4785 89.2577C32.4818 89.2577 32.4851 89.2577 32.4917 89.2577C32.495 89.2577 32.5016 89.2643 32.505 89.2676C34.9337 89.7878 37.4387 90.0628 40.0033 90.0628C40.5036 90.0628 41.004 90.0496 41.501 90.0264C41.4877 90.0164 41.4745 90.0098 41.4645 89.9933C41.3552 89.864 41.2956 89.6917 41.4016 89.5559H41.3983Z" fill="#51B1E0"/>
  <path d="M2.25646 30.1094C2.27303 30.1524 2.2896 30.1988 2.30948 30.2386C2.27303 30.3347 2.26309 30.4639 2.1935 30.5202C2.17031 30.5401 2.14049 30.5534 2.11398 30.5699C1.88536 31.3254 1.67661 32.0908 1.48443 32.8628C1.59046 32.8131 1.71306 32.7933 1.8224 32.8297C2.08085 32.9092 2.29954 33.0683 2.29954 33.3698C2.27634 33.6349 1.99138 33.8569 1.72631 33.8138C1.55732 33.7873 1.41153 33.721 1.3055 33.6084C0.453944 37.2565 0 41.0835 0 45.0265C0 52.9622 1.83565 60.4208 5.0497 66.9019C5.12922 66.8423 5.21206 66.7826 5.30152 66.7296C5.50364 66.607 5.99404 66.7959 6.1564 67.0378C6.28894 67.2366 6.28894 67.452 6.16634 67.6475C6.03712 67.8529 5.87475 68.0153 5.69583 68.1577C7.389 71.3254 9.41684 74.2445 11.7263 76.8456C12.2399 76.5905 12.3028 76.6667 12.7038 77.3493C12.8264 77.558 12.9423 77.7402 13.1644 77.5679C13.5487 77.2697 13.9596 77.2134 14.3804 77.2134C6.91849 69.6024 2.10736 58.731 1.723 46.6004C1.6733 46.5805 1.62691 46.554 1.58715 46.5209C1.46124 46.4082 1.46786 46.2392 1.62359 46.1233C1.6501 46.1034 1.67992 46.0901 1.70643 46.0769C1.6998 45.729 1.69318 45.3777 1.69318 45.0265C1.69318 40.4374 2.32936 36.0139 3.50232 31.8589C3.21736 31.8589 2.99205 31.6435 2.96554 31.3486C2.93904 31.0471 3.21405 30.5931 3.43274 30.5832C3.54871 30.5766 3.6945 30.6561 3.82373 30.772C5.97084 23.8237 9.63552 17.6806 14.3704 12.8496C14.271 12.8164 14.1783 12.7734 14.0921 12.7071C13.8038 12.4818 13.5421 12.2167 13.3002 11.9417C13.2273 11.8589 13.1776 11.7694 13.1544 11.6799C8.27369 16.6634 4.49304 22.9788 2.25978 30.1127L2.25646 30.1094ZM4.57256 64.6322C4.60901 64.6488 4.64546 64.6653 4.68191 64.6819C4.62889 64.7217 4.57919 64.7614 4.52618 64.8012C4.5063 64.7681 4.46653 64.725 4.47316 64.7018C4.4831 64.672 4.53612 64.6554 4.56925 64.6322H4.57256ZM3.1014 61.1034C3.17098 61.0272 3.24055 60.941 3.33002 60.9013C3.48575 60.8317 3.58847 60.9477 3.60172 61.2127C3.60172 61.2392 3.60503 61.2956 3.60172 61.3486C3.58847 61.5043 3.56859 61.6634 3.38967 61.7164C3.23393 61.7628 3.02187 61.4712 3.04838 61.2492C3.05501 61.1995 3.06495 61.1365 3.09808 61.1001L3.1014 61.1034ZM2.55136 58.4824C2.6342 58.5255 2.77667 58.552 2.79324 58.615C2.86282 58.8635 2.70378 58.9762 2.48509 58.9927C2.40225 58.9993 2.2432 58.9364 2.23326 58.8834C2.18688 58.6448 2.34924 58.5421 2.55136 58.4824ZM11.7661 15.3413C11.7031 15.4308 11.6435 15.6097 11.5209 15.676C11.3121 15.7886 11.1133 15.6793 10.9742 15.4904C10.9443 15.4473 10.9112 15.4043 10.8913 15.3546C10.772 15.0497 10.6793 14.7382 10.9178 14.4533C10.9609 14.4003 11.1199 14.397 11.2028 14.4268C11.5971 14.5726 11.8025 14.8542 11.7661 15.3413Z" fill="#51B1E0"/>
  <path d="M15.0398 12.1803C17.9623 9.33731 21.2625 6.98144 24.8476 5.22863C24.7449 5.14911 24.6223 4.99337 24.6455 4.91054C24.6853 4.76474 24.8774 4.75149 25.0265 4.80119C25.1458 4.84427 25.222 4.92048 25.2386 5.03645C27.1902 4.11199 29.2214 3.36315 31.3221 2.80981C31.4712 2.41551 32.0279 1.92843 32.2896 1.93837C32.4619 1.945 32.558 2.19351 32.5613 2.5116C34.9669 1.97482 37.4553 1.68986 39.9967 1.68986C61.1233 1.68986 78.3102 21.1299 78.3102 45.0265C78.3102 57.3757 73.7177 68.5388 66.3652 76.438C66.4911 76.5176 66.6269 76.6004 66.7429 76.7064C66.8059 76.7628 66.8357 76.9119 66.8059 76.9914C66.7761 77.0676 66.6568 77.1372 66.5673 77.1571C66.3519 77.2034 66.1465 77.1571 65.9908 76.9848C65.9676 76.9583 65.9477 76.9284 65.9311 76.8986C61.9947 81.0007 57.3029 84.1816 52.1173 86.1431C52.1472 86.2094 52.1704 86.279 52.167 86.342C52.1538 86.4911 52.1207 86.6667 52.0246 86.7694C51.8622 86.945 51.6236 86.9417 51.448 86.786C51.3486 86.6998 51.2525 86.5938 51.1763 86.4844C48.4162 87.4387 45.5236 88.0484 42.5381 88.2704C42.7171 89.0391 42.558 89.6057 41.955 90.0066C42.7535 89.9636 43.5454 89.8907 44.3307 89.7946C44.3208 89.5858 44.3837 89.3638 44.5229 89.1948C44.5825 89.1186 44.7151 89.0192 44.7747 89.0391C45.2055 89.1849 45.6263 89.3572 46.0471 89.5328C46.0504 89.5328 46.0537 89.5394 46.057 89.5461C49.3506 88.9795 52.5116 87.9622 55.4937 86.5474C55.6064 86.2591 55.9112 86.0139 56.1763 86.004C56.2558 86.0007 56.3387 86.0371 56.4116 86.0967C57.1538 85.719 57.8827 85.3148 58.5984 84.8907C58.6515 84.778 58.7012 84.662 58.7608 84.5527C58.8602 84.3671 59.0822 84.3605 59.2545 84.493C71.6104 76.8224 80 62.0113 80 45.0331C80 29.8376 73.2771 16.3751 63.0053 8.21736C62.7668 8.29357 62.5315 8.36978 62.2963 8.44599C62.0975 8.51226 61.8854 8.64811 61.6998 8.47913C61.458 8.26044 61.554 7.96554 61.67 7.7336C61.7429 7.58781 61.8224 7.47184 61.9053 7.37575C58.5985 4.93042 54.9536 3.01856 51.0637 1.75613C50.9874 1.76276 50.9146 1.7727 50.8383 1.76607C50.7489 1.75944 50.6561 1.69317 50.5931 1.60702C47.2167 0.559973 43.6614 0 39.9934 0C37.8529 0 35.7489 0.19218 33.6979 0.559974C33.7144 0.559974 33.7277 0.559974 33.7442 0.559974C33.8735 0.583168 33.9298 0.699139 33.8536 0.758781C33.6614 0.907886 33.446 1.02386 33.2307 1.15971C33.1677 1.00729 33.0849 0.904572 33.1114 0.858184C33.1677 0.752154 33.2439 0.679258 33.3301 0.626243C27.737 1.68655 22.5348 4.05567 17.9821 7.44864C18.0716 7.50497 18.1246 7.60106 18.1048 7.75017C18.0981 7.81312 17.9523 7.8562 17.8695 7.90921C17.7369 7.89264 17.6342 7.84294 17.568 7.76011C16.6004 8.49901 15.6627 9.28761 14.7582 10.1193C14.7582 10.1425 14.7582 10.1624 14.7449 10.169C14.725 10.1822 14.6985 10.1922 14.672 10.1955C14.3771 10.4705 14.0822 10.7455 13.7939 11.0305C13.8602 11.0404 13.9298 11.0636 13.9994 11.1034C14.45 11.3685 14.778 11.7462 15.0332 12.1836L15.0398 12.1803ZM63.9629 79.6852C63.9033 79.6587 63.8503 79.5129 63.8702 79.4433C63.8867 79.3837 64.0126 79.3539 64.0888 79.3108C64.1452 79.3771 64.2512 79.4433 64.2512 79.5096C64.2512 79.6885 64.1153 79.7581 63.9662 79.6885L63.9629 79.6852ZM69.957 74.7018C69.8774 74.7515 69.7549 74.7316 69.6521 74.7415C69.4235 74.7084 69.1816 74.3406 69.2545 74.1186C69.397 73.6879 69.6786 73.3698 70.0829 73.1743C70.2254 73.1047 70.4242 73.1246 70.4838 73.3101C70.6627 73.8535 70.4573 74.3969 69.957 74.7018ZM68.5222 15.1557C68.5852 15.0928 68.6846 15.0663 68.7674 15.0232C68.7906 15.1093 68.8138 15.1955 68.837 15.2816C68.7542 15.3181 68.6614 15.3943 68.5852 15.381C68.4626 15.3612 68.4295 15.2452 68.5189 15.1524L68.5222 15.1557ZM59.6521 6.26243C59.6786 6.20278 59.8277 6.14977 59.8973 6.16965C59.9603 6.18622 59.9901 6.31213 60.0365 6.39165C59.9702 6.44798 59.904 6.55401 59.8377 6.55401C59.6621 6.55401 59.5826 6.41816 59.6521 6.26243ZM29.4633 1.68323C29.5527 1.52419 29.7184 1.51093 29.8708 1.55732C30.0265 1.60371 30.1392 1.70643 30.0994 1.89861C29.9768 2.10404 29.7847 2.15374 29.5792 2.06097C29.4301 1.99138 29.3804 1.83234 29.4633 1.68323Z" fill="#51B1E0"/>
  <path d="M12.2764 34.7151C12.3725 34.6256 12.4951 34.5991 12.6243 34.6024L13.5024 32.4355L16.1929 33.5223L15.9477 34.1286C15.888 34.2777 15.8781 34.397 15.9179 34.4898C15.9576 34.5793 16.0603 34.6588 16.2293 34.725C16.395 34.7913 16.5242 34.8079 16.617 34.7714C16.7098 34.735 16.786 34.6422 16.8456 34.4931L17.6839 32.4255C17.7436 32.2764 17.7535 32.1571 17.7137 32.0643C17.674 31.9749 17.5713 31.8954 17.4023 31.8291C17.2366 31.7628 17.1074 31.7463 17.0146 31.7827C16.9218 31.8191 16.8456 31.9119 16.786 32.061L16.5938 32.5349L10.5633 30.0962L10.7555 29.6223C10.8151 29.4732 10.8251 29.3539 10.7853 29.2612C10.7456 29.1717 10.6429 29.0922 10.4739 29.0226C10.3082 28.9563 10.1756 28.9398 10.0862 28.9762C9.99341 29.0127 9.9172 29.1054 9.85756 29.2545L9.01925 31.3221C8.95961 31.4712 8.94967 31.5905 8.98943 31.6833C9.02919 31.7728 9.13191 31.8523 9.3009 31.9186C9.46657 31.9848 9.59579 32.0014 9.68857 31.9649C9.78134 31.9285 9.85755 31.8357 9.9172 31.6866L10.1624 31.0802L12.6077 32.0677L11.4016 35.0465C11.6965 35.0696 11.9881 34.9835 12.2797 34.7085L12.2764 34.7151Z" fill="#51B1E0"/>
  <path d="M13.2472 37.3028L14.4632 37.7932L14.271 38.267C14.2114 38.4161 14.2014 38.5354 14.2412 38.6282C14.281 38.7176 14.3837 38.7972 14.5527 38.8668C14.7183 38.933 14.8476 38.9496 14.9403 38.9131C15.0331 38.8767 15.1093 38.7839 15.169 38.6348L16.0073 36.5672C16.0669 36.4181 16.0769 36.2988 16.0371 36.206C15.9973 36.1166 15.8946 36.0371 15.7256 35.9708C15.56 35.9045 15.4307 35.888 15.338 35.9244C15.2452 35.9609 15.169 36.0536 15.1093 36.2027L14.8641 36.8091L12.3824 35.8051C12.0079 35.9377 11.6004 35.9045 11.1895 35.6892C10.8714 35.5202 10.5865 35.2882 10.2916 35.0762C10.2684 35.0596 10.2684 35 10.2783 34.9536L8.83697 34.3704L9.08216 33.764C9.1418 33.6149 9.15174 33.4956 9.11198 33.4029C9.07222 33.3134 8.9695 33.2339 8.80051 33.1676C8.63484 33.1013 8.50562 33.0848 8.41285 33.1212C8.32007 33.1577 8.24386 33.2504 8.18422 33.3996L7.34591 35.4671C7.28627 35.6163 7.27633 35.7355 7.31609 35.8283C7.32935 35.8614 7.35585 35.888 7.38567 35.9178C7.47845 35.8416 7.60105 35.8084 7.74684 35.8449C7.886 35.878 7.97878 35.9708 8.02185 36.1066C8.11131 36.0669 8.18421 35.9774 8.24386 35.8316L8.43603 35.3578L12.6209 37.051C12.6905 37.0079 12.7733 36.9781 12.8727 36.9715C13.0881 36.9516 13.277 37.0775 13.2505 37.3061L13.2472 37.3028Z" fill="#51B1E0"/>
  <path d="M12.886 25.1159C13.0285 25.2286 13.1478 25.2783 13.2439 25.2683C13.3433 25.2584 13.4427 25.1921 13.5421 25.0629L14.672 23.6381L19.7681 27.6772L18.5487 29.2146C18.4493 29.3406 18.4062 29.4532 18.4195 29.5526C18.4327 29.652 18.5089 29.7547 18.6514 29.8674C18.7939 29.9801 18.9132 30.0298 19.0093 30.0198C19.1087 30.0099 19.2081 29.9436 19.3075 29.8144L22.2167 26.1464C21.8688 26.2789 21.5242 26.4148 21.1763 26.5473C20.9841 26.7428 20.7455 26.8687 20.4838 26.7859C20.4838 26.7859 20.4838 26.7859 20.4804 26.7859L20.4341 26.8422L20.2883 26.7262C19.6687 26.5407 19.0424 26.3584 18.552 25.8846C18.2107 25.6262 18.1875 25.3777 18.277 25.1325L15.3347 22.7998L16.4645 21.375C16.5639 21.2491 16.607 21.1364 16.5938 21.037C16.5805 20.9376 16.5043 20.8349 16.3618 20.7223C16.2193 20.6096 16.1001 20.5599 16.004 20.5698C15.9046 20.5798 15.8052 20.6461 15.7058 20.7753L12.7833 24.4632C12.6839 24.5891 12.6408 24.7017 12.6541 24.8011C12.6673 24.9005 12.7435 25.0032 12.886 25.1159Z" fill="#51B1E0"/>
  <path d="M21.9484 25.1027C21.8721 25.1093 21.7959 25.1524 21.7197 25.2319C21.8721 25.2186 22.0213 25.1988 22.1704 25.1656C22.0875 25.1192 22.0146 25.096 21.9484 25.1027Z" fill="#51B1E0"/>
  <path d="M20.961 16.574C20.8682 16.8788 20.845 17.1936 20.8947 17.5183C20.9411 17.8431 21.067 18.1578 21.2691 18.466C21.405 18.6781 21.5541 18.847 21.7098 18.9763C21.8655 19.1055 22.0279 19.2049 22.1969 19.2678C22.3659 19.3341 22.5415 19.3706 22.7237 19.3805C22.906 19.3904 23.0915 19.3805 23.2804 19.3474C23.5421 19.3076 23.8072 19.238 24.0789 19.1419C24.3506 19.0458 24.619 18.9431 24.8841 18.8371C25.1525 18.7311 25.4109 18.6283 25.6661 18.5356C25.9212 18.4395 26.1631 18.3699 26.395 18.3268C26.68 18.2771 26.9384 18.2871 27.1737 18.3533C27.4089 18.4229 27.6111 18.5853 27.78 18.847C27.8927 19.0227 27.9656 19.2049 27.9921 19.3938C28.0186 19.5859 28.0021 19.7748 27.9424 19.967C27.8795 20.1592 27.7701 20.348 27.6111 20.5336C27.452 20.7225 27.2433 20.9014 26.9815 21.0704C26.7728 21.2062 26.564 21.3089 26.3553 21.3885C26.3884 21.4348 26.4182 21.4812 26.448 21.5276C26.5739 21.7165 26.6303 21.965 26.4812 22.1274C26.3519 22.2698 26.1167 22.3129 26.0272 22.3527C25.57 22.3262 25.2552 22.2765 25.0995 21.9219C25.0332 21.7728 25.0199 21.6403 25.0365 21.5111C24.6621 21.4348 24.3042 21.2659 23.9596 21.0008C23.7906 20.8716 23.6217 20.8649 23.4527 20.9776C23.287 21.0869 23.1909 21.193 23.1611 21.2924C23.1346 21.3951 23.1677 21.5144 23.2572 21.6535L24.4235 23.4395C24.513 23.5786 24.6124 23.6549 24.7151 23.6714C24.8211 23.688 24.9537 23.6416 25.1227 23.5323C25.2916 23.4229 25.3877 23.3169 25.4142 23.2142C25.4407 23.1115 25.4076 22.9922 25.3181 22.853L25.0166 22.3891C25.4507 22.5084 25.8848 22.5283 26.3155 22.4488C26.7496 22.3692 27.1637 22.2003 27.558 21.9418C27.9656 21.6767 28.2936 21.3885 28.5421 21.0836C28.7907 20.7788 28.9596 20.464 29.0524 20.1426C29.1452 19.8212 29.1618 19.4965 29.1054 19.1718C29.0491 18.8437 28.9199 18.5289 28.7211 18.2241C28.5488 17.959 28.3632 17.747 28.1677 17.5879C27.9722 17.4289 27.7668 17.3129 27.558 17.24C27.3493 17.1638 27.1306 17.1274 26.9086 17.124C26.6866 17.124 26.4646 17.1439 26.236 17.187C25.9576 17.2433 25.6793 17.3262 25.3977 17.4322C25.1193 17.5382 24.8476 17.6443 24.5826 17.7503C24.3175 17.8563 24.0657 17.9557 23.8205 18.0485C23.5786 18.138 23.35 18.1976 23.1379 18.2208C22.9424 18.2407 22.7635 18.2241 22.6077 18.1744C22.4487 18.1214 22.3128 18.012 22.2035 17.8397C22.0411 17.5912 21.9682 17.3361 21.9848 17.071C21.8125 17.081 21.6634 17.0147 21.5971 16.8325C21.501 16.5707 21.7628 16.1598 22.0511 16.1399C22.1704 16.13 22.2698 16.1698 22.346 16.2526C22.4785 16.1002 22.6442 15.9577 22.8529 15.8219C23.2903 15.5369 23.7409 15.3745 24.2048 15.3348C24.672 15.295 25.1193 15.3944 25.5567 15.6363C25.6793 15.7026 25.8152 15.686 25.9676 15.5899C26.1333 15.4806 26.2327 15.3745 26.2592 15.2751C26.2857 15.1724 26.2525 15.0531 26.1631 14.914L26.0935 14.8079C25.9742 14.8079 25.8549 14.8079 25.7356 14.7947C25.6528 14.7847 25.5501 14.6986 25.5103 14.6191C25.4275 14.4567 25.517 14.3175 25.6495 14.2248C25.6627 14.2148 25.6793 14.2082 25.6959 14.1983L25.2718 13.5455C25.1823 13.4063 25.0829 13.3301 24.9802 13.3136C24.8742 13.297 24.7416 13.3434 24.5726 13.4527C24.4069 13.5621 24.3075 13.6681 24.281 13.7708C24.2545 13.8735 24.2877 13.9928 24.3771 14.132L24.6124 14.4965C24.238 14.417 23.847 14.4136 23.4361 14.4865C23.0252 14.5594 22.6409 14.7118 22.2797 14.9504C21.9417 15.1691 21.6601 15.4176 21.4381 15.6959C21.2128 15.971 21.057 16.2625 20.9643 16.5707L20.961 16.574Z" fill="#51B1E0"/>
  <path d="M30.7555 14.1583C30.7886 14.3207 30.8549 14.4267 30.9443 14.4797C31.0371 14.5327 31.1796 14.5394 31.3718 14.4963C31.5673 14.4532 31.6932 14.3903 31.7561 14.3041C31.8191 14.218 31.8323 14.0954 31.7959 13.933L31.3353 11.7859L33.1909 11.3883L34.5527 17.7468L32.9125 18.098C32.7535 18.1311 32.6508 18.1908 32.5977 18.2736C32.5447 18.3565 32.5381 18.489 32.5745 18.6646C32.611 18.8402 32.6706 18.9562 32.7535 19.0125C32.8363 19.0689 32.9556 19.0788 33.1113 19.0457L37.4354 18.1212C37.5911 18.0881 37.6971 18.0284 37.7502 17.9456C37.8032 17.8628 37.8098 17.7302 37.7734 17.5546C37.7369 17.379 37.6773 17.263 37.5944 17.2067C37.5116 17.1504 37.3923 17.1404 37.2366 17.1736L35.5964 17.5248L35.1988 15.6693C35.1856 15.6361 35.1789 15.603 35.1789 15.5698L34.2346 11.1663L36.0901 10.7687L36.5507 12.9158C36.5838 13.0781 36.6501 13.1842 36.7396 13.2372C36.8323 13.2902 36.9748 13.2968 37.167 13.2537C37.1836 13.2504 37.1968 13.2471 37.2101 13.2438C37.2034 13.1941 37.2068 13.1411 37.22 13.0848C37.2598 12.886 37.3857 12.7137 37.5944 12.7203C37.5944 12.7103 37.5944 12.7037 37.5944 12.6938L37.0345 10.0728C36.998 9.89722 36.9384 9.78125 36.8555 9.72492C36.7727 9.66859 36.6534 9.65865 36.4977 9.69178L30.5335 10.9675C30.3777 11.0006 30.2717 11.0602 30.2187 11.1431C30.1657 11.2259 30.159 11.3585 30.1955 11.5341L30.7555 14.155V14.1583ZM32.5248 10.8449C32.6872 10.6924 32.8893 10.6229 33.1047 10.6958C33.1909 10.7256 33.2538 10.8184 33.3333 10.8879C33.3632 11.2259 33.0815 11.3121 32.8595 11.4347C32.717 11.5142 32.548 11.5175 32.4321 11.3883C32.2498 11.1828 32.3592 11.0006 32.5215 10.8449H32.5248Z" fill="#51B1E0"/>
  <path d="M43.1246 11.0737C42.78 11.2858 42.1803 11.4713 41.733 11.5343C41.6535 11.6502 41.5806 11.7762 41.511 11.9054C41.2393 12.4057 41.0504 12.9789 40.9344 13.6284C40.8218 14.2778 40.8052 14.8809 40.8914 15.4441C40.9775 16.0041 41.1465 16.5011 41.4016 16.9352C41.6568 17.3659 41.9947 17.7271 42.4122 18.0088C42.8297 18.2937 43.3135 18.4826 43.8635 18.5787C44.4136 18.6748 44.9338 18.6615 45.4242 18.5356C45.9112 18.4097 46.3519 18.1877 46.7396 17.8663C47.1273 17.5482 47.4553 17.1373 47.727 16.6403C47.9987 16.14 48.1876 15.5667 48.3036 14.9173C48.4162 14.2679 48.4328 13.6648 48.3466 13.1015C48.2605 12.5416 48.0915 12.0445 47.8364 11.6072C47.5812 11.1698 47.2432 10.8119 46.8258 10.527C46.4083 10.242 45.9245 10.0532 45.3745 9.95707C44.8244 9.86098 44.3042 9.87423 43.8138 10.0035C43.6515 10.0465 43.4957 10.1029 43.3433 10.1658C43.4228 10.242 43.4792 10.3282 43.4891 10.4176C43.5222 10.7125 43.3632 10.9312 43.1246 11.077V11.0737ZM44.0955 11.0373C44.4401 10.9412 44.8046 10.9279 45.1922 10.9942C45.5799 11.0604 45.9179 11.1996 46.2094 11.4084C46.501 11.6171 46.733 11.8822 46.9086 12.2036C47.0842 12.5283 47.1969 12.9027 47.2499 13.3268C47.3029 13.751 47.2863 14.2182 47.1969 14.7218C47.1206 15.1559 47.0047 15.5402 46.849 15.8848C46.9185 15.855 46.9981 15.8384 47.0842 15.8384C47.2764 15.855 47.389 15.9577 47.3924 16.13C47.399 16.4117 47.1869 16.4514 46.9682 16.4481C46.8125 16.4481 46.6998 16.362 46.6766 16.2195C46.501 16.5243 46.2989 16.7861 46.067 16.9915C45.792 17.2334 45.4838 17.4057 45.1425 17.5018C44.7979 17.5979 44.4334 17.6111 44.0458 17.5449C43.6581 17.4786 43.3201 17.3394 43.0285 17.134C42.737 16.9253 42.505 16.6635 42.3294 16.3421C42.1538 16.0207 42.0411 15.6463 41.9881 15.2221C41.9351 14.798 41.9517 14.3308 42.0411 13.8272C42.1306 13.3235 42.2698 12.8795 42.4652 12.4985C42.6607 12.1174 42.8927 11.8027 43.1677 11.5575C43.4427 11.3123 43.7509 11.14 44.0955 11.0439V11.0373Z" fill="#51B1E0"/>
  <path d="M49.1054 19.7449L51.5507 21.2227C51.6899 21.3055 51.8058 21.3353 51.9019 21.3088C51.998 21.2823 52.0908 21.1928 52.1836 21.0404C52.2764 20.8847 52.3128 20.7621 52.2896 20.666C52.2664 20.5699 52.1869 20.4805 52.051 20.3976L51.2591 19.9205L52.6541 17.6143L53.0318 17.8429C53.2174 17.9556 53.3797 18.0683 53.5156 18.1809C53.6514 18.2936 53.7707 18.4162 53.8668 18.5487C53.9662 18.6812 54.0424 18.8237 54.0988 18.9795C54.1551 19.1352 54.1982 19.3141 54.2214 19.5096C54.2412 19.672 54.2512 19.841 54.2545 20.0166C54.2578 20.1922 54.2545 20.3744 54.2479 20.56C54.2412 20.7455 54.2313 20.9344 54.2247 21.1233C54.2147 21.3121 54.2114 21.4977 54.2114 21.6799C54.2147 22.114 54.2644 22.4453 54.3638 22.674C54.4599 22.9026 54.5991 23.0683 54.7714 23.1743L55.1988 23.4327C55.338 23.5156 55.454 23.5454 55.5501 23.5189C55.6461 23.4924 55.7389 23.4029 55.8317 23.2505C55.9245 23.0981 55.9609 22.9722 55.9377 22.8761C55.9145 22.78 55.835 22.6905 55.6991 22.6077L55.5832 22.5381C55.4573 22.4619 55.3744 22.3459 55.3314 22.1869C55.2883 22.0278 55.2684 21.839 55.2684 21.617C55.2684 21.4612 55.2717 21.2956 55.2783 21.1166C55.285 20.9377 55.2916 20.7588 55.2949 20.5732C55.2982 20.3877 55.2949 20.2021 55.285 20.0133C55.275 19.8244 55.2518 19.6421 55.222 19.4665C55.1955 19.3274 55.1591 19.1948 55.1127 19.0689C55.0663 18.943 55.0066 18.8237 54.9304 18.7111C55.222 18.8072 55.5037 18.8635 55.7787 18.8801C56.0537 18.8933 56.3121 18.8701 56.5507 18.8038C56.7893 18.7376 57.008 18.6282 57.2068 18.4791C57.4056 18.3267 57.5779 18.1345 57.7204 17.8993C57.9026 17.5944 58.0186 17.283 58.0683 16.9682C58.1147 16.6501 58.0915 16.342 57.9954 16.0404C57.8993 15.7389 57.7303 15.4473 57.4917 15.1657C57.2499 14.884 56.9384 14.6256 56.5474 14.3903L53.4692 12.5282C53.33 12.4453 53.2141 12.4155 53.118 12.442C53.0219 12.4685 52.9291 12.558 52.833 12.7104C52.7402 12.8661 52.7038 12.9887 52.727 13.0848C52.7502 13.1809 52.8297 13.2704 52.9655 13.3532L53.7078 13.8005L51.5938 17.2962C51.6998 17.3989 51.7561 17.5414 51.7462 17.7237V17.7336H51.7495C51.9682 17.9755 51.9483 18.3234 51.6667 18.3433C51.4215 18.3598 51.1663 18.3996 50.9145 18.4195L50.3413 19.3671L49.5991 18.9198C49.4599 18.837 49.344 18.8072 49.2479 18.8337C49.1518 18.8602 49.059 18.9496 48.9662 19.1021C48.8734 19.2578 48.837 19.3804 48.8602 19.4765C48.8834 19.5726 48.9629 19.662 49.0988 19.7449H49.1054ZM54.6223 14.3539L55.9178 15.1359C56.4248 15.4407 56.7528 15.7853 56.8986 16.1597C57.0444 16.5374 56.998 16.9218 56.7595 17.3128C56.6302 17.5282 56.4778 17.6905 56.3088 17.7966C56.1398 17.9026 55.9543 17.9622 55.7522 17.9755C55.55 17.9854 55.3347 17.9523 55.106 17.8761C54.8774 17.7999 54.6355 17.6839 54.3837 17.5315L53.1478 16.786L54.619 14.3539H54.6223Z" fill="#51B1E0"/>
  <path d="M57.4288 24.4666C57.3294 24.46 57.2134 24.513 57.0743 24.629C56.9351 24.7449 56.8622 24.851 56.8523 24.9504C56.8423 25.0498 56.8887 25.1591 56.9914 25.2817L60.2055 29.0988C60.3082 29.2214 60.4109 29.2877 60.5103 29.2943C60.6097 29.3009 60.7257 29.2479 60.8649 29.1319C61.004 29.016 61.0769 28.9099 61.0868 28.8105C61.0968 28.7111 61.0504 28.6018 60.9477 28.4792L59.6853 26.9782L64.6621 22.79L65.835 24.1816C65.9377 24.3042 66.0405 24.3705 66.1399 24.3771C66.2393 24.3838 66.3552 24.3308 66.4944 24.2148C66.6336 24.0988 66.7065 23.9928 66.7164 23.8934C66.7263 23.794 66.68 23.6846 66.5772 23.562L63.5454 19.9636C63.4427 19.841 63.34 19.7748 63.2406 19.7681C63.1412 19.7615 63.0252 19.8145 62.8861 19.9305C62.7469 20.0465 62.674 20.1525 62.6641 20.2519C62.6541 20.3513 62.7005 20.4606 62.8032 20.5832L63.9762 21.9749L58.9994 26.1631L57.737 24.6621C57.6342 24.5395 57.5315 24.4732 57.4321 24.4666H57.4288Z" fill="#51B1E0"/>
  <path d="M67.452 29.334C66.8887 29.387 66.3055 29.5427 65.6992 29.8078C65.0961 30.0696 64.5825 30.391 64.1584 30.7621C63.7343 31.1365 63.4096 31.5441 63.1876 31.9881C62.9656 32.4321 62.8496 32.9026 62.8363 33.3996C62.8264 33.8966 62.9324 34.4036 63.1577 34.9172C63.3764 35.4175 63.6581 35.8714 64.006 36.2856C64.3539 36.6965 64.7614 37.0477 65.2286 37.336C65.3612 37.4122 65.4871 37.4354 65.6031 37.4056C65.7223 37.3757 65.8383 37.2796 65.9477 37.1239C66.067 36.9582 66.1067 36.8224 66.0703 36.713C66.0338 36.6037 65.9609 36.5242 65.8549 36.4645C65.4738 36.2591 65.1392 35.9874 64.8443 35.6527C64.7151 35.5036 64.5958 35.3446 64.4864 35.1756C64.4467 35.2021 64.4036 35.222 64.3539 35.2319C64.1617 35.275 63.9264 35.3048 63.7541 35.2319C63.4029 35.0828 63.5023 34.8575 63.7475 34.662C63.8602 34.5726 63.9629 34.4367 64.0855 34.4003C63.9596 34.0822 63.9033 33.7641 63.9165 33.446C63.9331 33.0948 64.0259 32.7634 64.2015 32.4453C64.3771 32.1272 64.6289 31.8323 64.9536 31.5573C65.2817 31.2823 65.6793 31.0437 66.1498 30.8383C66.6203 30.6329 67.0676 30.507 67.495 30.4606C67.9225 30.4142 68.3135 30.4374 68.6713 30.5335C69.0292 30.6295 69.3406 30.7919 69.6123 31.0272C69.8807 31.2624 70.0928 31.554 70.2485 31.9052C70.3844 32.2167 70.4606 32.5083 70.4738 32.7767C70.4871 33.0451 70.454 33.2869 70.3711 33.499C70.2883 33.7144 70.1657 33.8999 70 34.0557C69.8343 34.2114 69.6455 34.3373 69.4334 34.4301C69.281 34.4963 69.1882 34.5792 69.1551 34.6786C69.122 34.778 69.1451 34.9205 69.2247 35.1027C69.3042 35.285 69.3937 35.3976 69.4898 35.4407C69.5858 35.4838 69.7118 35.4738 69.8609 35.4075L72.0113 34.4698C72.1637 34.4036 72.2565 34.3207 72.2896 34.2213C72.3227 34.1219 72.2996 33.9794 72.22 33.7972C72.1405 33.615 72.051 33.5023 71.9549 33.4592C71.8588 33.4162 71.7329 33.4261 71.5838 33.4924L71.2061 33.658C71.3652 33.3366 71.448 32.9854 71.4513 32.611C71.4579 32.2366 71.3652 31.839 71.1829 31.4182C70.9675 30.9244 70.6726 30.5103 70.3015 30.1822C69.9304 29.8542 69.503 29.6156 69.0225 29.4732C68.5421 29.3274 68.0186 29.2843 67.4553 29.334H67.452Z" fill="#51B1E0"/>
  <path d="M16.4778 70.2617C16.5805 70.2783 16.7098 70.2352 16.8655 70.1292C17.0212 70.0232 17.1107 69.9205 17.1306 69.8177C17.1505 69.715 17.1173 69.5957 17.0212 69.4566L16.0239 67.9755L17.8562 66.7395L18.8337 68.1875C18.8635 68.2306 18.89 68.267 18.9198 68.3068C19.0921 68.1908 19.2843 68.1246 19.5229 68.1941C20.0232 68.3333 20.3413 68.6945 20.4672 69.1882C20.5003 69.324 20.5103 69.4632 20.5136 69.6057C20.5964 69.6355 20.6826 69.662 20.7687 69.6819C21.12 69.768 21.4778 69.7713 21.839 69.6951C22.2035 69.6156 22.558 69.4632 22.9026 69.2279C23.2505 68.9927 23.5288 68.721 23.7376 68.4128C23.9463 68.1047 24.0789 67.77 24.1319 67.4089C24.1882 67.0477 24.1617 66.67 24.059 66.269C23.9563 65.8681 23.7608 65.4639 23.4825 65.0464L21.2061 61.6733C21.11 61.5341 21.0139 61.4546 20.9112 61.438C20.8085 61.4214 20.6793 61.4645 20.5235 61.5705C20.3678 61.6766 20.2784 61.7793 20.2585 61.882C20.2386 61.9847 20.2717 62.104 20.3678 62.2432L21.0404 63.2405L15.3976 67.0477L14.725 66.0503C14.6289 65.9112 14.5328 65.8316 14.4301 65.8151C14.3274 65.7985 14.1982 65.8416 14.0424 65.9476C13.8867 66.0537 13.7972 66.1564 13.7774 66.2591C13.7575 66.3618 13.7939 66.4811 13.8867 66.6203L16.1829 70.0232C16.2757 70.1623 16.3751 70.2419 16.4778 70.2584V70.2617ZM21.6667 64.1716L22.558 65.4904C22.949 66.0702 23.1113 66.5971 23.0451 67.0709C22.9788 67.5447 22.7137 67.9423 22.2432 68.2571C21.7827 68.5686 21.3221 68.6647 20.8615 68.5421C20.4009 68.4228 19.9735 68.0715 19.5825 67.4917L18.6912 66.1729L21.6634 64.1683L21.6667 64.1716Z" fill="#51B1E0"/>
  <path d="M30.1789 71.6832C29.9138 71.2259 29.5427 70.8283 29.0689 70.487C28.5917 70.1457 28.0947 69.9271 27.5778 69.8243C27.0609 69.7216 26.544 69.7349 26.0338 69.8641C25.5202 69.9933 25.0265 70.2286 24.546 70.5798C24.0656 70.9277 23.6249 71.3817 23.2239 71.9449C22.823 72.5049 22.5347 73.0715 22.3624 73.6381C22.1901 74.2047 22.1239 74.7514 22.1703 75.275C22.2167 75.7985 22.3724 76.2889 22.6375 76.7461C22.9025 77.2034 23.2737 77.601 23.7475 77.9423C24.2246 78.2836 24.7216 78.5023 25.2385 78.605C25.7554 78.7077 26.2723 78.6945 26.7826 78.5685C27.2929 78.4426 27.7899 78.2041 28.2703 77.8561C28.7508 77.5082 29.1915 77.0543 29.5924 76.491C29.9933 75.931 30.2816 75.3677 30.4539 74.7978C30.6262 74.2312 30.6925 73.6845 30.6461 73.1577C30.603 72.6308 30.4473 72.1404 30.1822 71.6832H30.1789ZM25.6593 70.1358C25.7024 70.1557 25.7753 70.1656 25.7819 70.1954C25.8084 70.3015 25.7389 70.3578 25.6063 70.3313C25.5765 70.3247 25.5334 70.2451 25.5467 70.2153C25.5599 70.1789 25.6196 70.159 25.6627 70.1325L25.6593 70.1358ZM29.3108 74.5162C29.1683 74.9403 28.943 75.3711 28.6315 75.8084C28.32 76.2458 27.9854 76.597 27.6308 76.8721C27.273 77.1438 26.9118 77.3326 26.544 77.4387C26.1762 77.5447 25.8084 77.5646 25.4406 77.4983C25.0729 77.432 24.7216 77.2796 24.387 77.041C24.0523 76.8025 23.7939 76.5175 23.6149 76.1928C23.4327 75.8648 23.3333 75.5102 23.3134 75.1292C23.2935 74.7481 23.3565 74.3439 23.499 73.9165C23.6414 73.4923 23.8668 73.0616 24.1782 72.6242C24.4897 72.1868 24.8243 71.8356 25.1789 71.5606C25.5367 71.2889 25.8979 71.0967 26.269 70.9907C26.6401 70.8846 27.0079 70.8614 27.3757 70.9277C27.7435 70.994 28.0947 71.1464 28.4294 71.385C28.764 71.6235 29.0225 71.9085 29.2014 72.2365C29.3803 72.5646 29.4797 72.9191 29.4996 73.3035C29.5162 73.6878 29.4532 74.0921 29.3108 74.5195V74.5162Z" fill="#51B1E0"/>
  <path d="M33.2041 79.9967C33.4559 79.4069 33.6249 79.2346 34.0689 79.1948L35 74.6488L36.7627 75.0099C36.9284 75.0431 37.0543 75.0298 37.1372 74.9735C37.2233 74.9139 37.283 74.7946 37.3227 74.609C37.3592 74.4235 37.3525 74.2876 37.2962 74.2015C37.2399 74.1153 37.1305 74.0524 36.9649 74.0192L32.9258 73.1942C32.7601 73.161 32.6342 73.1743 32.5513 73.2306C32.4652 73.2903 32.4056 73.4096 32.3658 73.5951C32.3293 73.7807 32.336 73.9165 32.3923 74.0027C32.4486 74.0888 32.558 74.1518 32.7236 74.1849L33.9032 74.4268L32.6176 80.719C32.886 80.5633 33.0616 80.328 33.2008 80L33.2041 79.9967Z" fill="#51B1E0"/>
  <path d="M38.3797 79.2943C38.1743 79.2512 38.0252 79.2612 37.9324 79.3175C37.8363 79.3738 37.7733 79.4865 37.7369 79.6588L37.2465 82.0577L34.324 81.4613C33.6149 81.4712 32.9026 81.4282 32.2067 81.6502C32.1603 81.6634 32.0344 81.5309 31.998 81.4447C31.9615 81.3553 31.945 81.2128 31.9914 81.1432C32.0212 81.0968 32.0609 81.0504 32.1007 81.0073L31.3618 80.8549C31.1961 80.8218 31.0702 80.835 30.9874 80.8914C30.9012 80.951 30.8416 81.0703 30.8018 81.2559C30.7654 81.4414 30.772 81.5773 30.8283 81.6634C30.8847 81.7496 30.994 81.8125 31.1597 81.8456L34.7349 82.5779C34.8211 82.462 34.9072 82.346 35.0199 82.2698C35.3512 82.0411 35.7455 82.061 36.1 82.2035C36.4214 82.3327 36.4248 82.6376 36.4281 82.9258L37.6772 83.181C37.8429 83.2141 37.9688 83.2009 38.0517 83.1445C38.1378 83.0849 38.1975 82.9656 38.2372 82.78L38.8303 79.8874C38.8668 79.7184 38.8502 79.5892 38.7839 79.4997C38.7177 79.4103 38.5851 79.344 38.3797 79.3042V79.2943Z" fill="#51B1E0"/>
  <path d="M49.5693 80.5667C49.5925 80.5236 49.6124 80.4805 49.6356 80.4375L45.3645 73.9828C45.2651 73.8271 45.1492 73.731 45.0133 73.6846C44.8775 73.6416 44.7151 73.6449 44.5196 73.6913L41.8688 74.3407C41.7065 74.3805 41.5971 74.4467 41.5441 74.5362C41.4911 74.6257 41.4878 74.7615 41.5342 74.9437C41.5806 75.126 41.6468 75.2453 41.733 75.3016C41.8191 75.3579 41.945 75.3646 42.1107 75.3248L43.4626 74.9935L42.6939 82.1903L42.2896 82.2897C42.1273 82.3294 42.0179 82.3957 41.9649 82.4852C41.9119 82.5746 41.9086 82.7105 41.955 82.8927C42.0014 83.075 42.0676 83.1942 42.1538 83.2506C42.2399 83.3069 42.3659 83.3135 42.5315 83.2738L44.9437 82.6807C45.1061 82.6409 45.2154 82.5746 45.2684 82.4852C45.3215 82.3957 45.3248 82.2599 45.2784 82.0776C45.232 81.8954 45.1657 81.7761 45.0796 81.7198C44.9934 81.6634 44.8675 81.6568 44.7018 81.6966L43.8271 81.9119L44.006 80.0465L45.6263 79.6488C45.5667 79.6091 45.5103 79.5594 45.4573 79.5031C45.2452 79.2744 45.0431 79.0392 44.8476 78.7973L44.1054 78.9795L44.4964 74.7383L44.6323 74.7052L46.9351 78.2837L46.3619 78.4262C46.4282 78.456 46.4944 78.4891 46.564 78.5223C46.6634 78.572 46.7429 78.8072 46.723 78.9365C46.6899 79.1386 46.5938 79.3043 46.458 79.4434L47.5083 79.185L48.5223 80.7589L47.5481 80.9974C47.3857 81.0372 47.2764 81.1035 47.2234 81.1929C47.1704 81.2824 47.167 81.4182 47.2134 81.6005C47.2565 81.7827 47.3261 81.902 47.4122 81.9583C47.4984 82.0147 47.6243 82.0213 47.79 81.9815L50.1359 81.405C50.0299 81.3818 49.9272 81.3553 49.8311 81.3089C49.5097 81.1565 49.3937 80.908 49.5726 80.5667H49.5693Z" fill="#51B1E0"/>
  <path d="M56.3253 71.1465L55.5633 70.1524C55.5169 70.1591 55.4738 70.1657 55.4274 70.1657C55.0431 70.1756 54.7249 69.7581 54.7481 69.2677C54.7481 69.2147 54.7581 69.165 54.7713 69.1153L54.7382 69.0689L54.7978 69.0225C54.8774 68.7773 55.0563 68.5885 55.2915 68.499C55.3015 68.3963 55.2518 68.2704 55.1358 68.1246C55.0199 67.9755 54.9138 67.8927 54.8111 67.8761C54.7084 67.8595 54.5891 67.9059 54.4566 68.0086L52.5447 69.4765C52.4122 69.5792 52.3393 69.6819 52.326 69.7846C52.3128 69.8874 52.3658 70.0133 52.4817 70.1624C52.5977 70.3115 52.7037 70.3943 52.8065 70.4109C52.9092 70.4274 53.0285 70.3811 53.161 70.2783L53.8502 69.7482L57.2001 74.1153L50.5632 71.2558C50.4175 71.1929 50.2617 71.226 50.0994 71.3486L48.7773 72.3625C48.6448 72.4652 48.5719 72.5679 48.5586 72.6707C48.5487 72.7734 48.5984 72.8993 48.7143 73.0484C48.8303 73.1975 48.9363 73.2803 49.0391 73.2969C49.1418 73.3135 49.2611 73.2671 49.3936 73.1644L49.8475 72.8164L53.9894 78.2174L53.5951 78.5222C53.4625 78.6249 53.3896 78.7276 53.3764 78.8304C53.3631 78.9331 53.4161 79.059 53.5321 79.2081C53.6481 79.3572 53.7541 79.44 53.8568 79.4566C53.9595 79.4732 54.0788 79.4268 54.2114 79.3241L56.3021 77.7204C56.4347 77.6176 56.5076 77.5149 56.5208 77.4122C56.5341 77.3095 56.4811 77.1836 56.3651 77.0345C56.2491 76.8854 56.1431 76.8025 56.0404 76.786C55.9377 76.7694 55.8184 76.8158 55.6859 76.9185L54.8774 77.5381L51.1464 72.674L58.4062 75.7952C58.5454 75.8516 58.6746 75.8781 58.7972 75.8748C58.9198 75.8714 59.0391 75.8251 59.1517 75.7389C59.3041 75.6196 59.3936 75.5037 59.4135 75.3844C59.4334 75.2651 59.4069 75.1557 59.3273 75.053L56.7727 71.7197C56.6799 71.6899 56.5871 71.6435 56.5076 71.5607C56.3817 71.4347 56.332 71.2923 56.3287 71.1432L56.3253 71.1465ZM51.2359 73.3168C51.2558 73.4758 51.1199 73.6117 50.8847 73.6216C50.8085 73.5653 50.656 73.499 50.5864 73.383C50.4837 73.2174 50.7223 72.9722 50.941 73.0053C51.11 73.0318 51.216 73.1412 51.2392 73.3135L51.2359 73.3168ZM58.1511 74.7018C58.3565 74.672 58.5255 74.8642 58.542 75.1127C58.5155 75.3148 58.499 75.5368 58.2173 75.5666C57.9622 75.5964 57.6739 75.3347 57.7104 75.0928C57.7468 74.8542 57.9257 74.7316 58.1477 74.7018H58.1511Z" fill="#51B1E0"/>
  <path d="M64.4864 64.2479C64.1252 63.7973 63.6547 63.3864 63.0748 63.0186C62.4917 62.6508 61.9218 62.399 61.3585 62.2665C60.7952 62.1339 60.265 62.1108 59.7614 62.1969C59.2577 62.2831 58.7906 62.4752 58.3631 62.7734C57.9324 63.0717 57.5613 63.466 57.2498 63.9597L55.3744 66.9186C55.2849 67.061 55.2518 67.1836 55.275 67.2831C55.2982 67.3825 55.391 67.4852 55.55 67.5846C55.7091 67.684 55.8383 67.7271 55.941 67.7039C56.0437 67.684 56.1365 67.6011 56.2293 67.4587L56.6766 66.7562L59.4135 68.4925C59.4135 68.4925 59.4466 68.466 59.4632 68.4494C59.7846 68.1412 60.1292 68.2307 60.4009 68.6051C60.5898 68.8702 60.656 69.0491 60.5898 69.238L62.0344 70.1525C62.1471 70.0034 62.2697 69.8675 62.5016 69.8907C62.5811 69.8974 62.6607 70.0034 62.7269 70.0763C62.7568 70.1094 62.7501 70.1757 62.7568 70.2188C62.7601 70.464 62.6574 70.6296 62.4354 70.7125C62.3558 70.7423 62.2763 70.7589 62.1968 70.7655L61.9781 71.1068C61.8886 71.2493 61.8555 71.3719 61.8787 71.4713C61.9019 71.5707 61.9947 71.6734 62.1537 71.7728C62.3128 71.8722 62.442 71.9153 62.5447 71.8921C62.6474 71.8722 62.7435 71.7893 62.833 71.6469L64.7084 68.688C65.0232 68.1943 65.222 67.6906 65.3114 67.177C65.4009 66.6634 65.3744 66.1598 65.2385 65.6694C65.1027 65.1757 64.8542 64.7052 64.493 64.2546L64.4864 64.2479ZM63.7276 69.0756L63.5719 69.0889H63.4161C63.3532 69.0922 63.2935 69.1055 63.2306 69.1154L63.0152 69.4567L57.2664 65.8119L58.0086 64.6422C58.2438 64.2711 58.5189 63.9729 58.8336 63.7476C59.1484 63.5256 59.4963 63.3831 59.8741 63.3235C60.2518 63.2638 60.6593 63.2903 61.0901 63.3997C61.5242 63.509 61.9748 63.7145 62.442 64.0094C62.9125 64.3076 63.2869 64.629 63.5719 64.9703C63.8568 65.3149 64.049 65.6694 64.155 66.0372C64.2611 66.405 64.2809 66.7761 64.2114 67.1571C64.155 67.4752 64.0357 67.7867 63.8634 68.1015C63.9231 68.1114 63.9827 68.1247 64.0457 68.1479C64.5228 68.7509 64.4764 68.8868 63.7243 69.0756H63.7276Z" fill="#51B1E0"/>
  <path d="M9.70837 44.8442C9.70837 44.8442 9.74152 44.8608 9.75808 44.8708C10.1524 45.1524 10.2717 45.6262 9.99665 45.9841C9.9105 46.0934 9.81109 46.1928 9.70837 46.2889V47.3393C9.88067 47.3658 10.0298 47.442 10.1358 47.6242C10.4672 47.8529 10.434 48.0616 10.106 48.2538C9.97345 48.3234 9.84091 48.3466 9.70837 48.3366V52.6673H10.5467V41.5706H9.70837V44.8409V44.8442Z" fill="#51B1E0"/>
  <path d="M70.2949 41.574H69.4565V52.6707H70.2949V41.574Z" fill="#51B1E0"/>
  <path d="M29.556 40.7323C29.4798 40.8582 29.3804 40.994 29.2644 41.1299C29.1452 41.269 29.006 41.4215 28.8403 41.5905L26.3685 44.0987C26.3122 44.1617 26.2856 44.2644 26.2856 44.4036C26.2856 44.5427 26.3122 44.6455 26.3685 44.7018C26.4215 44.7581 26.5143 44.7846 26.6402 44.7846H30.5401C30.666 44.7846 30.7588 44.7581 30.8118 44.7018C30.8648 44.6455 30.8946 44.5461 30.8946 44.4036V43.2008C30.8946 43.0683 30.8648 42.9755 30.8019 42.9192C30.7389 42.8628 30.6296 42.8363 30.4738 42.8363C30.3181 42.8363 30.2055 42.8628 30.1458 42.9192C30.0862 42.9755 30.053 43.0683 30.053 43.2008V44.0225H27.6143L29.503 42.1074C29.6819 41.9251 29.8443 41.7462 29.9901 41.5772C30.1359 41.4082 30.2585 41.2359 30.3579 41.0669C30.4606 40.8979 30.5368 40.719 30.5898 40.5401C30.6428 40.3579 30.6727 40.1657 30.6727 39.9636C30.6727 39.6521 30.6196 39.3738 30.5169 39.1319C30.4142 38.89 30.2651 38.6812 30.0762 38.5123C29.884 38.3433 29.6554 38.214 29.387 38.1279C29.1186 38.0384 28.8204 37.9954 28.4957 37.9954C28.1478 37.9954 27.8165 38.0517 27.5017 38.1643C27.1869 38.277 26.8953 38.4294 26.6236 38.6249C26.5375 38.6846 26.4944 38.7873 26.4944 38.9331V39.7581C26.4944 39.8907 26.5242 39.9834 26.5872 40.0398C26.6501 40.0961 26.7595 40.1226 26.9152 40.1226C27.0709 40.1226 27.1836 40.0961 27.2432 40.0398C27.3029 39.9834 27.336 39.8907 27.336 39.7581V39.1385C27.4984 39.0457 27.674 38.9695 27.8662 38.9099C28.0583 38.8502 28.2704 38.8237 28.499 38.8237C28.9198 38.8237 29.2379 38.9264 29.4533 39.1319C29.672 39.3373 29.778 39.6123 29.778 39.9569C29.778 40.0994 29.7614 40.2319 29.725 40.3545C29.6886 40.4771 29.6322 40.603 29.556 40.7323Z" fill="#51B1E0"/>
  <path d="M34.4268 38.1976C34.3672 38.2539 34.3374 38.3467 34.3274 38.4792L34.2148 41.289C34.2081 41.4216 34.2346 41.5143 34.3009 41.5707C34.3672 41.627 34.4765 41.6535 34.6356 41.6535C34.7615 41.6535 34.8576 41.6336 34.9172 41.5972C35.0995 41.4713 35.2916 41.3719 35.4905 41.3023C35.6893 41.2327 35.9245 41.1996 36.1929 41.1996C36.405 41.1996 36.5971 41.2327 36.7661 41.3023C36.9351 41.3719 37.0776 41.468 37.1969 41.5939C37.3162 41.7198 37.4056 41.8689 37.4686 42.0445C37.5315 42.2201 37.5647 42.409 37.5647 42.6144C37.5647 42.8364 37.5315 43.0352 37.462 43.2141C37.3957 43.3931 37.2963 43.5455 37.1704 43.6747C37.0411 43.8039 36.8887 43.9033 36.7032 43.9729C36.5209 44.0425 36.3122 44.0756 36.0802 44.0756C35.7887 44.0756 35.5004 44.0226 35.2187 43.9199C34.9371 43.8172 34.6753 43.6813 34.4401 43.5124C34.3539 43.4494 34.2645 43.4295 34.175 43.4494C34.0856 43.4726 33.9994 43.5488 33.9232 43.6813C33.8437 43.8139 33.8172 43.9232 33.8404 44.0094C33.8635 44.0988 33.9199 44.1717 34.0093 44.238C34.3009 44.4401 34.629 44.6025 34.9901 44.7251C35.3513 44.8477 35.7158 44.9073 36.0836 44.9073C36.4513 44.9073 36.7761 44.8477 37.0677 44.7317C37.3592 44.6157 37.6077 44.4567 37.8165 44.2513C38.0219 44.0458 38.181 43.8039 38.2903 43.5256C38.3997 43.2473 38.456 42.9424 38.456 42.6111C38.456 42.5448 38.4461 42.4819 38.4394 42.4189C38.4162 42.4189 38.393 42.4189 38.3698 42.4189C37.515 42.2864 37.4156 42.134 37.7138 41.4448C37.7535 41.2923 37.8463 41.1896 37.9921 41.1499C37.9523 41.1002 37.9192 41.0438 37.8761 40.9974C37.6873 40.7986 37.4586 40.6429 37.1869 40.5303C36.9152 40.4209 36.6104 40.3646 36.2691 40.3646C36.0438 40.3646 35.8317 40.3911 35.6296 40.4474C35.4308 40.5004 35.2386 40.58 35.0597 40.6794L35.1326 38.8768H37.7502C37.8761 38.8768 37.9689 38.8503 38.0219 38.794C38.0749 38.7377 38.1048 38.6383 38.1048 38.4958C38.1048 38.3533 38.0783 38.2539 38.0219 38.1976C37.9689 38.1413 37.8761 38.1147 37.7502 38.1147H34.7482C34.5892 38.1147 34.4832 38.1413 34.4235 38.1976H34.4268Z" fill="#51B1E0"/>
  <path d="M43.4824 41.8952H45.9178C46.0437 41.8952 46.1365 41.8686 46.1895 41.8123C46.2425 41.756 46.2723 41.6566 46.2723 41.5141C46.2723 41.3716 46.2458 41.2722 46.1895 41.2159C46.1332 41.1596 46.0437 41.1331 45.9178 41.1331H43.3035C43.5752 41.3882 43.6249 41.6433 43.4824 41.8985V41.8952Z" fill="#51B1E0"/>
  <path d="M49.5825 38.5851C49.3803 38.7739 49.2279 38.9959 49.1153 39.2544C49.0059 39.5128 48.9496 39.7945 48.9496 40.096C48.9496 40.4174 49.0059 40.709 49.1153 40.9707C49.2246 41.2325 49.377 41.4545 49.5725 41.6401C49.768 41.8256 49.9966 41.9681 50.265 42.0708C50.5301 42.1735 50.8184 42.2232 51.1298 42.2232C51.4413 42.2232 51.7561 42.1536 52.0377 42.0178C52.3194 41.8819 52.5612 41.6831 52.76 41.4247C52.707 41.8057 52.6043 42.1536 52.4552 42.4684C52.3028 42.7832 52.094 43.0549 51.829 43.2835C51.5639 43.5122 51.2392 43.6977 50.8548 43.8336C50.4704 43.9694 50.0198 44.0522 49.5029 44.0788C49.4267 44.0821 49.3704 44.1152 49.3339 44.1815C49.2975 44.2444 49.2842 44.3637 49.3008 44.5327C49.3141 44.6884 49.3538 44.7912 49.4101 44.8409C49.4665 44.8906 49.5394 44.9137 49.6222 44.9104C49.8276 44.9005 50.0165 44.8773 50.2054 44.8508C50.1855 44.6917 50.3147 44.4963 50.4705 44.4631C50.7455 44.4068 50.9642 44.4863 51.1597 44.6155C51.4579 44.5095 51.7362 44.3869 51.9748 44.2345C52.273 44.0456 52.5281 43.8269 52.7402 43.5784C52.9522 43.3299 53.1245 43.0648 53.2604 42.7799C53.3962 42.4982 53.4923 42.2033 53.5553 41.8985C53.6182 41.5937 53.648 41.2921 53.648 40.9906C53.648 40.5831 53.6116 40.2219 53.5387 39.9137C53.4658 39.6056 53.3565 39.3273 53.214 39.0854C53.1046 38.9031 52.9821 38.7408 52.8396 38.6049C52.7004 38.4691 52.5447 38.3531 52.3757 38.2636C52.2067 38.1709 52.0278 38.1046 51.8389 38.0582C51.65 38.0118 51.4546 37.9919 51.2557 37.9919C50.9078 37.9919 50.5931 38.045 50.3081 38.1477C50.0265 38.2537 49.7846 38.3995 49.5825 38.5851ZM51.2524 38.8203C51.4711 38.8203 51.6666 38.8534 51.8422 38.923C52.0178 38.9893 52.1669 39.0854 52.2929 39.2047C52.4155 39.324 52.5115 39.4664 52.5811 39.6354C52.6474 39.8011 52.6838 39.9833 52.6838 40.1821C52.6838 40.3611 52.6474 40.5267 52.5778 40.6725C52.5082 40.8216 52.4088 40.9475 52.2829 41.0536C52.157 41.1596 52.0079 41.2424 51.829 41.3021C51.6534 41.3617 51.4612 41.3882 51.2557 41.3882C51.0337 41.3882 50.8383 41.3584 50.6626 41.2955C50.487 41.2325 50.3412 41.1464 50.2186 41.0337C50.096 40.921 50.0033 40.7852 49.937 40.6261C49.8707 40.4671 49.8376 40.2915 49.8376 40.096C49.8376 39.9005 49.8707 39.7315 49.9403 39.5725C50.0066 39.4134 50.1027 39.2809 50.2286 39.1682C50.3512 39.0556 50.5003 38.9694 50.6759 38.9098C50.8515 38.8501 51.0437 38.8203 51.2591 38.8203H51.2524Z" fill="#51B1E0"/>
  <path d="M31.0603 54.2214C31.0603 54.0789 31.0338 53.9795 30.9774 53.9232C30.9244 53.8668 30.8316 53.8403 30.7057 53.8403H30.2286C30.2617 54.1153 30.1822 54.3639 30.0762 54.6024H30.7057C30.8316 54.6024 30.9244 54.5759 30.9774 54.5196C31.0304 54.4633 31.0603 54.3639 31.0603 54.2214Z" fill="#51B1E0"/>
  <path d="M29.0391 51.2062C28.9728 51.0041 29.059 50.8086 29.271 50.749V48.1612C29.271 48.0187 29.2313 47.916 29.1484 47.8497C29.0656 47.7834 28.9662 47.7735 28.8436 47.8132L26.7926 48.5488C26.7031 48.5786 26.6401 48.6317 26.607 48.7112C26.5739 48.7907 26.5805 48.9001 26.6236 49.0359C26.67 49.1751 26.7263 49.2612 26.7992 49.2977C26.8721 49.3341 26.9483 49.3374 27.0311 49.3076L28.4261 48.8007V52.9093C28.4592 52.8828 28.4891 52.853 28.5222 52.8132C28.9132 52.3394 29.2545 51.8755 29.0358 51.2062H29.0391Z" fill="#51B1E0"/>
  <path d="M27.4354 53.8369H27.4288C27.389 53.8535 27.3459 53.87 27.2962 53.8866C27.2465 53.8734 27.2001 53.8535 27.1538 53.8369H26.9185C26.7926 53.8369 26.6998 53.8634 26.6468 53.9198C26.5938 53.9761 26.564 54.0755 26.564 54.218C26.564 54.3604 26.5905 54.4598 26.6468 54.5162C26.6998 54.5725 26.7926 54.599 26.9185 54.599H28.6614C28.2505 54.2875 27.7104 54.1915 27.2962 53.8866C27.3526 53.8734 27.3989 53.8568 27.4387 53.8369H27.4354Z" fill="#51B1E0"/>
  <path d="M34.4764 54.7184C34.4764 54.7184 34.5063 54.725 34.5261 54.725C35.0165 54.7018 35.4572 54.6322 35.8482 54.5129C36.2392 54.3936 36.5805 54.2412 36.8787 54.0524C37.1769 53.8635 37.432 53.6448 37.6441 53.3963C37.8562 53.1478 38.0284 52.8827 38.1643 52.5978C38.3002 52.3161 38.3962 52.0212 38.4592 51.7164C38.5222 51.4115 38.552 51.11 38.552 50.8085C38.552 50.4009 38.5155 50.0398 38.4426 49.7316C38.3697 49.4235 38.2604 49.1451 38.1212 48.9033C38.0119 48.721 37.8893 48.5587 37.7468 48.4228C37.6076 48.287 37.4519 48.171 37.2829 48.0815C37.1139 47.9887 36.935 47.9225 36.7461 47.8761C36.5573 47.8297 36.3618 47.8098 36.163 47.8098C35.8151 47.8098 35.5003 47.8628 35.2153 47.9689C34.9337 48.0749 34.6918 48.2207 34.4897 48.4062C34.2909 48.5951 34.1351 48.8171 34.0225 49.0756C33.9131 49.334 33.8568 49.6156 33.8568 49.9172C33.8568 50.2386 33.9131 50.5302 34.0225 50.7919C34.1318 51.0537 34.2842 51.2757 34.4797 51.4612C34.6752 51.6468 34.9039 51.7893 35.1723 51.892C35.4373 51.9947 35.7256 52.0444 36.0371 52.0444C36.3485 52.0444 36.66 51.9748 36.945 51.839C37.2266 51.7031 37.4685 51.5043 37.6673 51.2459C37.6143 51.6269 37.5116 51.9748 37.3625 52.2896C37.21 52.6044 37.0013 52.8761 36.7362 53.1047C36.4711 53.3333 36.1464 53.5189 35.762 53.6547C35.381 53.7906 34.9337 53.8701 34.4201 53.8966C34.5063 54.0093 34.5858 54.1253 34.6587 54.2479C34.7813 54.4599 34.6852 54.6554 34.4797 54.725L34.4764 54.7184ZM37.4817 50.4904C37.4088 50.6395 37.3127 50.7654 37.1868 50.8714C37.0609 50.9775 36.9118 51.0603 36.7329 51.12C36.5573 51.1796 36.3651 51.2061 36.1597 51.2061C35.9377 51.2061 35.7422 51.1763 35.5666 51.1133C35.3909 51.0504 35.2452 50.9642 35.1226 50.8516C35 50.7389 34.9072 50.6031 34.8409 50.444C34.7746 50.285 34.7415 50.1094 34.7415 49.9139C34.7415 49.7184 34.7746 49.5494 34.8442 49.3903C34.9105 49.2346 35.0066 49.0987 35.1325 48.9861C35.2551 48.8734 35.4042 48.7873 35.5798 48.7276C35.7554 48.668 35.9476 48.6382 36.163 48.6382C36.3784 48.6382 36.5772 48.6713 36.7528 48.7409C36.9284 48.8072 37.0775 48.9033 37.2034 49.0225C37.326 49.1418 37.4221 49.2843 37.4917 49.4533C37.5579 49.619 37.5944 49.8012 37.5944 50C37.5944 50.1789 37.5579 50.3446 37.4884 50.4904H37.4817Z" fill="#51B1E0"/>
  <path d="M43.4725 54.6851C43.5686 54.6453 43.6381 54.5724 43.6812 54.4664L46.0768 48.5353C46.0835 48.5121 46.0901 48.4823 46.1 48.4425C46.1067 48.4028 46.11 48.3597 46.11 48.31C46.11 48.1675 46.0835 48.0681 46.0271 48.0118C45.9741 47.9555 45.8813 47.929 45.7554 47.929H43.6315C43.6315 47.929 43.6282 47.9488 43.6282 47.9588C43.6183 48.1576 43.6978 48.373 43.7773 48.5651C43.7939 48.6082 43.8137 48.648 43.8303 48.6911H45.1226L42.8363 54.2842C42.7866 54.4001 42.7932 54.4962 42.8529 54.5691C42.9125 54.642 43.0053 54.6884 43.1345 54.7116C43.267 54.7348 43.3797 54.7248 43.4758 54.6851H43.4725Z" fill="#51B1E0"/>
  <path d="M41.6104 48.6877V49.5128C41.6104 49.6453 41.6402 49.7381 41.7031 49.7944C41.7661 49.8508 41.8754 49.8773 42.0312 49.8773C42.1869 49.8773 42.2995 49.8508 42.3592 49.7944C42.4221 49.7381 42.452 49.6453 42.452 49.5128V49.2212C42.0676 49.2179 41.8257 48.9727 41.6104 48.6877Z" fill="#51B1E0"/>
  <path d="M49.3672 49.6918L49.3108 51.1067C49.3042 51.2392 49.3307 51.332 49.397 51.3883C49.4633 51.4446 49.5726 51.4711 49.7316 51.4711C49.8576 51.4711 49.9537 51.4513 50.0133 51.4148C50.1955 51.2889 50.3877 51.1895 50.5865 51.1199C50.7853 51.0503 51.0206 51.0172 51.289 51.0172C51.501 51.0172 51.6932 51.0503 51.8622 51.1199C52.0312 51.1895 52.1737 51.2856 52.2929 51.4115C52.4122 51.5374 52.5017 51.6865 52.5647 51.8621C52.6276 52.0377 52.6607 52.2266 52.6607 52.432C52.6607 52.654 52.6276 52.8528 52.558 53.0318C52.4918 53.2107 52.3923 53.3631 52.2664 53.4923C52.1405 53.6216 51.9848 53.721 51.7992 53.7906C51.617 53.8601 51.4083 53.8933 51.1763 53.8933C50.8847 53.8933 50.5965 53.8403 50.3148 53.7375C50.0332 53.6348 49.7714 53.499 49.5362 53.33C49.45 53.267 49.3605 53.2471 49.2711 53.267C49.1816 53.2902 49.0955 53.3664 49.0193 53.499C48.9397 53.6315 48.9132 53.7409 48.9364 53.827C48.9596 53.9165 49.0159 53.9894 49.1054 54.0556C49.397 54.2578 49.725 54.4201 50.0862 54.5427C50.4473 54.6653 50.8118 54.7249 51.1796 54.7249C51.5474 54.7249 51.8721 54.6653 52.1637 54.5493C52.4553 54.4334 52.7038 54.2743 52.9126 54.0689C53.118 53.8634 53.277 53.6216 53.3864 53.3432C53.4957 53.0649 53.5521 52.7601 53.5521 52.4287C53.5521 52.0974 53.5024 51.8025 53.4029 51.5275C53.3035 51.2524 53.1611 51.0139 52.9722 50.8151C52.7833 50.6163 52.5547 50.4605 52.283 50.3479C52.0113 50.2385 51.7032 50.1822 51.3652 50.1822C51.1399 50.1822 50.9278 50.2087 50.729 50.265C50.5269 50.3181 50.338 50.3976 50.1591 50.497L50.2187 49.0623C50.0398 49.377 49.7449 49.5957 49.3738 49.6885L49.3672 49.6918Z" fill="#51B1E0"/>
  <path d="M52.4619 47.929H49.841C49.735 47.929 49.6588 47.9455 49.5991 47.972C49.8443 47.9389 50.063 48.0781 50.2154 48.2802C50.3082 48.4028 50.3513 48.5453 50.3413 48.6944H52.8463C52.9291 48.6944 52.9888 48.6778 53.0418 48.6546C53.0319 48.648 53.0186 48.638 53.0087 48.6314C52.6475 48.5088 52.4255 48.2669 52.4653 47.929H52.4619Z" fill="#51B1E0"/>
  <path d="M31.3022 36.1697C31.2558 36.1697 31.226 36.1796 31.2061 36.1995C31.1862 36.2194 31.1763 36.2558 31.1763 36.3055C31.1763 36.3552 31.1862 36.3917 31.2061 36.4115C31.226 36.4314 31.2591 36.4414 31.3022 36.4414H32.6541C32.7005 36.4414 32.7303 36.4314 32.7502 36.4115C32.77 36.3917 32.78 36.3552 32.78 36.3055C32.78 36.2558 32.77 36.2194 32.7502 36.1995C32.7303 36.1796 32.6971 36.1697 32.6541 36.1697H32.1438V34.1451C32.1438 34.0954 32.1305 34.059 32.1007 34.0325C32.0709 34.0093 32.0345 34.006 31.9914 34.0192L31.2591 34.281C31.226 34.2909 31.2061 34.3108 31.1928 34.3406C31.1796 34.3671 31.1829 34.4069 31.1995 34.4566C31.216 34.5063 31.2359 34.5361 31.2624 34.5494C31.2889 34.5626 31.3154 34.5626 31.3453 34.5494L31.8423 34.3705V36.1663H31.3022V36.1697Z" fill="#51B1E0"/>
  <path d="M33.6846 35.5832C33.6846 35.6329 33.6945 35.6694 33.7144 35.6893C33.7343 35.7091 33.7674 35.7191 33.8105 35.7191H34.7681V36.1664H34.4732C34.4268 36.1664 34.3937 36.1763 34.3771 36.1962C34.3572 36.2161 34.3473 36.2526 34.3473 36.3023C34.3473 36.352 34.3572 36.3884 34.3771 36.4083C34.397 36.4282 34.4301 36.4381 34.4732 36.4381H35.3347C35.3811 36.4381 35.4142 36.4282 35.4308 36.4083C35.4507 36.3884 35.4606 36.352 35.4606 36.3023C35.4606 36.2526 35.4507 36.2161 35.4308 36.1962C35.4109 36.1763 35.3778 36.1664 35.3347 36.1664H35.0696V35.7191H35.3943C35.4407 35.7191 35.4705 35.7091 35.4904 35.6893C35.5103 35.6694 35.5202 35.6329 35.5202 35.5832C35.5202 35.5335 35.5103 35.4971 35.4904 35.4772C35.4705 35.4573 35.4374 35.4474 35.3943 35.4474H35.0696V34.175C35.0696 34.1286 35.0564 34.0922 35.0299 34.0624C35.0033 34.0325 34.957 34.0193 34.894 34.0193C34.841 34.0193 34.7979 34.0292 34.7648 34.0491C34.7316 34.069 34.7018 34.0988 34.672 34.1419L33.7012 35.4905C33.6879 35.5103 33.6813 35.5402 33.6813 35.5832H33.6846ZM34.7847 34.4533L34.7681 35.4474H34.0822L34.7847 34.4533Z" fill="#51B1E0"/>
  <path d="M38.7906 34.6223C38.7707 34.6422 38.7607 34.6786 38.7607 34.7283C38.7607 34.778 38.7707 34.8145 38.7906 34.8344C38.8104 34.8543 38.8436 34.8642 38.8867 34.8642H39.0523V36.1697H38.8867C38.8403 36.1697 38.8071 36.1796 38.7906 36.1995C38.7707 36.2194 38.7607 36.2558 38.7607 36.3055C38.7607 36.3553 38.7707 36.3917 38.7906 36.4116C38.8104 36.4315 38.8436 36.4414 38.8867 36.4414H39.4566C39.503 36.4414 39.5328 36.4315 39.5527 36.4116C39.5725 36.3917 39.5825 36.3553 39.5825 36.3055C39.5825 36.2558 39.5725 36.2194 39.5527 36.1995C39.5328 36.1796 39.4996 36.1697 39.4566 36.1697H39.3538V35.5269C39.3538 35.4242 39.3638 35.3314 39.3804 35.2486C39.4002 35.1657 39.4234 35.0928 39.4566 35.0332C39.4864 34.9735 39.5261 34.9272 39.5659 34.894C39.609 34.8609 39.6521 34.8443 39.7018 34.8443C39.7713 34.8443 39.8177 34.8675 39.8476 34.9172C39.8774 34.9636 39.8906 35.0332 39.8906 35.1226V36.3089C39.8906 36.3586 39.9006 36.395 39.9205 36.4149C39.9403 36.4348 39.9735 36.4447 40.0165 36.4447H40.3048C40.3512 36.4447 40.381 36.4348 40.4009 36.4149C40.4208 36.395 40.4307 36.3586 40.4307 36.3089C40.4307 36.2592 40.4208 36.2227 40.4009 36.2028C40.381 36.183 40.3479 36.173 40.3048 36.173H40.1888V35.5302C40.1888 35.4275 40.1988 35.3347 40.2153 35.2519C40.2352 35.169 40.2584 35.0961 40.2916 35.0365C40.3214 34.9769 40.3611 34.9305 40.4009 34.8973C40.444 34.8642 40.487 34.8476 40.5367 34.8476C40.6063 34.8476 40.6527 34.8708 40.6825 34.9205C40.7124 34.9669 40.7256 35.0365 40.7256 35.126V36.3122C40.7256 36.3619 40.7356 36.3983 40.7554 36.4182C40.7753 36.4381 40.8085 36.448 40.8515 36.448H41.1497C41.1961 36.448 41.226 36.4381 41.2458 36.4182C41.2657 36.3983 41.2757 36.3619 41.2757 36.3122C41.2757 36.2625 41.2657 36.226 41.2458 36.2061C41.226 36.1863 41.1928 36.1763 41.1497 36.1763H41.0238V35.0895C41.0238 34.9967 41.0139 34.9172 40.9907 34.8509C40.9675 34.7847 40.9377 34.7283 40.9012 34.6853C40.8648 34.6422 40.8184 34.6091 40.7687 34.5859C40.719 34.566 40.666 34.5527 40.6063 34.5527C40.5136 34.5527 40.4307 34.5826 40.3512 34.6422C40.275 34.7018 40.2054 34.7913 40.1458 34.9172C40.1325 34.8576 40.1159 34.8012 40.0894 34.7582C40.0662 34.7118 40.0364 34.6753 40.0033 34.6455C39.9702 34.6157 39.9337 34.5925 39.8939 34.5792C39.8542 34.566 39.8111 34.556 39.768 34.556C39.6752 34.556 39.5891 34.5859 39.5096 34.6488C39.4301 34.7118 39.3605 34.8046 39.3008 34.9338V34.735C39.3008 34.6853 39.2909 34.6488 39.271 34.6289C39.2511 34.6091 39.218 34.5991 39.1749 34.5991H38.8767C38.8303 34.5991 38.7972 34.6091 38.7806 34.6289L38.7906 34.6223Z" fill="#51B1E0"/>
  <path d="M45.7157 36.0472C45.6693 36.0935 45.6163 36.13 45.55 36.1532C45.4837 36.1764 45.4108 36.1896 45.328 36.1896C45.2253 36.1896 45.1226 36.1698 45.0198 36.1333C44.9204 36.0969 44.8277 36.0472 44.7415 35.9875C44.7117 35.9643 44.6786 35.9577 44.6487 35.9643C44.6156 35.9709 44.5858 36.0008 44.5593 36.0472C44.5328 36.0935 44.5228 36.1333 44.5295 36.1631C44.5361 36.1929 44.556 36.2228 44.5891 36.2426C44.6918 36.3155 44.8111 36.3719 44.937 36.4149C45.0662 36.458 45.1954 36.4812 45.328 36.4812C45.4605 36.4812 45.5732 36.4613 45.6792 36.4183C45.7853 36.3752 45.8714 36.3189 45.9443 36.246C46.0172 36.1731 46.0735 36.0869 46.1133 35.9875C46.153 35.8881 46.1729 35.7788 46.1729 35.6628C46.1729 35.5468 46.1564 35.4408 46.1199 35.3414C46.0835 35.242 46.0338 35.1592 45.9675 35.0863C45.9012 35.0134 45.8184 34.9603 45.7223 34.9206C45.6262 34.8808 45.5169 34.8609 45.3943 34.8609C45.3147 34.8609 45.2385 34.8709 45.1656 34.8908C45.0927 34.9106 45.0265 34.9371 44.9635 34.9736L44.99 34.3308H45.9244C45.9708 34.3308 46.0039 34.3208 46.0205 34.301C46.0404 34.2811 46.0503 34.2446 46.0503 34.1949C46.0503 34.1452 46.0404 34.1088 46.0205 34.0889C46.0006 34.069 45.9675 34.0591 45.9244 34.0591H44.8542C44.7978 34.0591 44.7581 34.069 44.7382 34.0889C44.7183 34.1088 44.7051 34.1419 44.7017 34.1883L44.662 35.189C44.662 35.2354 44.6686 35.2685 44.6918 35.2884C44.715 35.3083 44.7548 35.3182 44.8111 35.3182C44.8575 35.3182 44.8906 35.3116 44.9105 35.2983C44.9768 35.2519 45.043 35.2188 45.1159 35.1923C45.1855 35.1691 45.2717 35.1558 45.3678 35.1558C45.444 35.1558 45.5135 35.1691 45.5732 35.1923C45.6328 35.2155 45.6858 35.2519 45.7256 35.295C45.7687 35.3381 45.7985 35.3944 45.8217 35.454C45.8449 35.517 45.8548 35.5833 45.8548 35.6562C45.8548 35.7357 45.8416 35.8053 45.8184 35.8682C45.7952 35.9312 45.7587 35.9875 45.7157 36.0339V36.0472Z" fill="#51B1E0"/>
  <path d="M47.2763 35.0927C47.2531 35.2021 47.2432 35.3081 47.2432 35.4174C47.2432 35.5632 47.2564 35.6924 47.2829 35.8018C47.3094 35.9111 47.3459 36.0105 47.3989 36.0967C47.4353 36.163 47.4817 36.2193 47.5314 36.269C47.5811 36.3187 47.6375 36.3584 47.6971 36.3916C47.7567 36.4247 47.8197 36.4479 47.8893 36.4645C47.9556 36.481 48.0251 36.4877 48.098 36.4877C48.2239 36.4877 48.3333 36.4678 48.436 36.4313C48.5354 36.3949 48.6216 36.3419 48.6944 36.2756C48.7673 36.2093 48.8204 36.1298 48.8601 36.037C48.8999 35.9443 48.9198 35.8449 48.9198 35.7355C48.9198 35.6262 48.8999 35.5168 48.8601 35.4241C48.8204 35.3313 48.7673 35.2518 48.6978 35.1855C48.6282 35.1192 48.5453 35.0695 48.4526 35.0331C48.3565 34.9966 48.2538 34.98 48.1444 34.98C48.0351 34.98 47.9224 35.0032 47.8197 35.0529C47.7203 35.1026 47.6341 35.1722 47.5613 35.265C47.5778 35.1292 47.6143 35.0066 47.6706 34.8939C47.7269 34.7812 47.7998 34.6852 47.8959 34.6023C47.992 34.5195 48.108 34.4565 48.2438 34.4068C48.3797 34.3571 48.542 34.3306 48.7243 34.3207C48.7508 34.3207 48.7707 34.3074 48.7839 34.2842C48.7972 34.261 48.8005 34.218 48.7972 34.1583C48.7905 34.102 48.7773 34.0655 48.7574 34.049C48.7375 34.0324 48.711 34.0225 48.6812 34.0225C48.5056 34.0291 48.3499 34.0556 48.2107 34.0987C48.0715 34.1417 47.9489 34.1948 47.8429 34.2643C47.7369 34.3306 47.6474 34.4101 47.5712 34.4996C47.495 34.5891 47.4353 34.6818 47.3856 34.7846C47.3393 34.884 47.3028 34.99 47.2796 35.0993L47.2763 35.0927ZM47.6242 35.5301C47.6507 35.4771 47.6838 35.4307 47.7302 35.3942C47.7766 35.3578 47.8296 35.328 47.8893 35.3048C47.9522 35.2849 48.0185 35.2749 48.0947 35.2749C48.1742 35.2749 48.2438 35.2849 48.3068 35.3081C48.3697 35.3313 48.4227 35.3611 48.4658 35.4009C48.5089 35.4406 48.542 35.4903 48.5652 35.5467C48.5884 35.603 48.6017 35.6659 48.6017 35.7355C48.6017 35.8051 48.5884 35.8647 48.5652 35.9211C48.542 35.9774 48.5056 36.0238 48.4625 36.0669C48.4194 36.1066 48.3664 36.1364 48.3035 36.1596C48.2405 36.1795 48.1709 36.1928 48.0947 36.1928C48.0185 36.1928 47.9489 36.1795 47.886 36.1563C47.823 36.1331 47.77 36.1 47.7269 36.0569C47.6839 36.0138 47.6474 35.9641 47.6242 35.9045C47.601 35.8449 47.5878 35.7786 47.5878 35.709C47.5878 35.6461 47.601 35.5864 47.6242 35.5334V35.5301Z" fill="#51B1E0"/>
  <path d="M30.8383 61.0603V61.0901C30.8383 61.1763 30.8482 61.2558 30.8648 61.3287C30.8747 61.2359 30.8979 61.1465 30.9244 61.0603H30.835H30.8383Z" fill="#51B1E0"/>
  <path d="M31.3254 60.3579V60.4374C31.3519 60.4109 31.3751 60.3844 31.4016 60.3579H31.3254Z" fill="#51B1E0"/>
  <path d="M31.9284 59.4267C31.9284 59.3638 31.9218 59.3008 31.9184 59.2379C31.819 59.1849 31.6998 59.155 31.5672 59.155C31.1663 59.155 30.8846 59.44 30.8846 59.8774V59.9469H31.206V59.9138C31.206 59.5858 31.3585 59.4367 31.5705 59.4367C31.6964 59.4367 31.8091 59.5029 31.8754 59.6355C31.8986 59.5692 31.9184 59.4996 31.9317 59.4267H31.9284Z" fill="#51B1E0"/>
  <path d="M34.4335 60.9775C34.4335 60.3977 34.1551 60.126 33.8105 60.126C33.5852 60.126 33.4295 60.2453 33.3467 60.3281L33.3964 59.5262H34.3241V59.2048H33.1246L33.0981 59.6455C33.3003 59.9437 33.1744 60.3413 33.2009 60.6926L33.3367 60.7158C33.4129 60.5335 33.5587 60.4109 33.7277 60.4109C33.9497 60.4109 34.1087 60.6131 34.1087 60.9808C34.1087 60.9875 34.1087 60.9908 34.1087 60.9941C34.1121 61.004 34.1187 61.0107 34.1253 61.0206C34.2512 61.289 34.1253 61.5077 33.8834 61.6568C33.7907 61.7562 33.6879 61.8291 33.5852 61.8755C33.625 61.8821 33.6614 61.8854 33.7045 61.8854C34.1584 61.8854 34.4401 61.5574 34.4401 60.9775H34.4335Z" fill="#51B1E0"/>
  <path d="M35.8317 59.2114C35.8582 59.1948 35.8814 59.1815 35.9079 59.165C35.8748 59.1617 35.8416 59.155 35.8052 59.155C35.3413 59.155 35.0663 59.4963 35.0663 60.5964C35.0663 61.5738 35.3512 61.8853 35.8218 61.8853C36.2194 61.8853 36.5109 61.5573 36.5109 61.0304C36.5109 60.5566 36.2989 60.1822 35.8549 60.1822C35.6627 60.1822 35.5003 60.2783 35.391 60.4307C35.391 59.937 35.4473 59.5957 35.6362 59.4797C35.6461 59.3737 35.7223 59.2776 35.835 59.2114H35.8317ZM35.8052 60.4572C36.0703 60.4572 36.1895 60.7157 36.1895 61.0304C36.1895 61.3452 36.0703 61.6037 35.8052 61.6037C35.5401 61.6037 35.4175 61.3452 35.4175 61.0304C35.4175 60.7157 35.5401 60.4572 35.8052 60.4572Z" fill="#51B1E0"/>
  <path d="M36.12 59.9107C36.12 59.9438 36.1233 59.9769 36.1233 60.0134H36.4414C36.4414 59.9538 36.4414 59.8941 36.4315 59.8345C36.3354 59.8742 36.2393 59.9007 36.1498 59.9107C36.1399 59.9107 36.1299 59.9107 36.12 59.9107Z" fill="#51B1E0"/>
  <path d="M38.5652 59.8874C38.5652 59.4832 38.3399 59.1519 37.8959 59.1519C37.4519 59.1519 37.2266 59.4832 37.2266 59.8874C37.2266 60.136 37.3227 60.358 37.5116 60.4839C37.273 60.6031 37.1736 60.8285 37.1736 61.1134C37.1736 61.5375 37.3856 61.8821 37.8959 61.8821C38.4062 61.8821 38.6182 61.5375 38.6182 61.1134C38.6182 60.8285 38.5188 60.6031 38.277 60.4839C38.4691 60.358 38.5652 60.1393 38.5652 59.8874ZM37.8959 59.4335C38.1113 59.4335 38.2538 59.6058 38.2538 59.8908C38.2538 60.1757 38.1113 60.348 37.8959 60.348C37.6805 60.348 37.5414 60.1757 37.5414 59.8908C37.5414 59.6058 37.6805 59.4335 37.8959 59.4335ZM38.2968 61.1134C38.2968 61.4116 38.1577 61.6005 37.8959 61.6005C37.6342 61.6005 37.495 61.4116 37.495 61.1134C37.495 60.8152 37.6342 60.6297 37.8959 60.6297C38.1577 60.6297 38.2968 60.8152 38.2968 61.1134Z" fill="#51B1E0"/>
  <path d="M40.3811 60.4839C40.5733 60.358 40.6694 60.1393 40.6694 59.8874C40.6694 59.4832 40.444 59.1519 40 59.1519C39.556 59.1519 39.3307 59.4832 39.3307 59.8874C39.3307 60.136 39.4268 60.358 39.6157 60.4839C39.3771 60.6031 39.2777 60.8285 39.2777 61.1134C39.2777 61.5375 39.4898 61.8821 40 61.8821C40.5103 61.8821 40.7224 61.5375 40.7224 61.1134C40.7224 60.8285 40.623 60.6031 40.3811 60.4839ZM40 59.4335C40.2154 59.4335 40.3579 59.6058 40.3579 59.8908C40.3579 60.1757 40.2154 60.348 40 60.348C39.7847 60.348 39.6455 60.1757 39.6455 59.8908C39.6455 59.6058 39.7847 59.4335 40 59.4335ZM40 61.6038C39.7383 61.6038 39.5991 61.4149 39.5991 61.1167C39.5991 60.8185 39.7383 60.633 40 60.633C40.2618 60.633 40.401 60.8185 40.401 61.1167C40.401 61.4149 40.2618 61.6038 40 61.6038Z" fill="#51B1E0"/>
  <path d="M41.839 61.3784C42.1339 60.9244 42.8032 60.497 42.8032 59.8376C42.8032 59.3538 42.4951 59.155 42.114 59.155C41.733 59.155 41.4016 59.3903 41.4016 59.9536C41.4016 60.0463 41.4116 60.106 41.4116 60.106H41.7396V59.9469C41.7396 59.6752 41.8357 59.4433 42.1074 59.4433C42.3791 59.4433 42.4653 59.6554 42.4653 59.831C42.4653 60.3678 41.8755 60.7488 41.5607 61.2094C41.4414 61.3817 41.3751 61.5738 41.3751 61.7826V61.8323H42.8099V61.5109H41.7628C41.7794 61.4678 41.8026 61.4214 41.8324 61.375L41.839 61.3784Z" fill="#51B1E0"/>
  <path d="M44.8343 61.3419C44.8972 61.1232 44.9337 60.8316 44.9337 60.444C44.9337 59.4665 44.6487 59.155 44.1782 59.155C43.7806 59.155 43.489 59.4831 43.489 60.0099C43.489 60.4837 43.7011 60.8581 44.1451 60.8581C44.3373 60.8581 44.493 60.7654 44.609 60.6129C44.6023 61.2193 44.5328 61.6037 44.2246 61.6037C43.9893 61.6037 43.8734 61.3916 43.8734 61.0271H43.5553C43.5553 61.4347 43.6911 61.7594 44.0092 61.8522C44.2246 61.6136 44.5294 61.4678 44.8343 61.3419ZM44.1981 60.5798C43.933 60.5798 43.8137 60.3214 43.8137 60.0066C43.8137 59.6918 43.933 59.4334 44.1981 59.4334C44.4632 59.4334 44.5858 59.6918 44.5858 60.0066C44.5858 60.3214 44.4632 60.5798 44.1981 60.5798Z" fill="#51B1E0"/>
  <path d="M47.0245 61.8356V61.5142H45.9774C45.994 61.4711 46.0172 61.4247 46.047 61.3784C46.3419 60.9244 47.0112 60.497 47.0112 59.8376C47.0112 59.3538 46.7031 59.155 46.322 59.155C45.941 59.155 45.6096 59.3903 45.6096 59.9536C45.6096 60.0463 45.6196 60.106 45.6196 60.106H45.9476V59.9469C45.9476 59.6752 46.0437 59.4433 46.3154 59.4433C46.5871 59.4433 46.6732 59.6554 46.6732 59.831C46.6732 60.3678 46.0834 60.7488 45.7687 61.2094C45.6925 61.3187 45.6428 61.4347 45.6129 61.5606C45.8117 61.6235 45.9907 61.7163 46.153 61.8323H47.0178L47.0245 61.8356Z" fill="#51B1E0"/>
  <path d="M49.1451 60.4408C49.1451 59.4633 48.8602 59.1519 48.3896 59.1519C47.9953 59.1519 47.7004 59.4799 47.7004 60.0067C47.7004 60.4806 47.9125 60.855 48.3565 60.855C48.5487 60.855 48.7077 60.7622 48.8204 60.6098C48.8138 61.2161 48.7442 61.6005 48.436 61.6005C48.2008 61.6005 48.0848 61.3884 48.0848 61.024H47.7667C47.7667 61.511 47.9589 61.8821 48.4195 61.8821C48.88 61.8821 49.1418 61.5409 49.1418 60.4408H49.1451ZM48.4095 60.58C48.1444 60.58 48.0252 60.3215 48.0252 60.0067C48.0252 59.6919 48.1444 59.4335 48.4095 59.4335C48.6746 59.4335 48.7972 59.6919 48.7972 60.0067C48.7972 60.3215 48.6746 60.58 48.4095 60.58Z" fill="#51B1E0"/>
</svg>