<svg xmlns="http://www.w3.org/2000/svg" width="80" height="91" viewBox="0 0 80 91" fill="none">
  <path d="M34.2587 88.8037C34.1026 88.6576 34.2454 88.2692 34.4545 88.2161C34.5275 88.1962 34.5972 88.1829 34.6636 88.1729C30.607 87.5322 26.7463 86.1778 23.1943 84.2192C22.9121 84.6276 22.6897 85.079 22.4673 85.5272C26.1355 87.5522 30.1191 88.9597 34.3118 89.6336C34.4944 89.5971 34.75 89.5572 35.1384 89.4975C34.7699 89.2053 34.4977 89.0228 34.262 88.8003L34.2587 88.8037ZM31.4934 88.6842C31.105 88.7373 30.7631 88.4518 30.7365 88.0501C30.7166 87.7746 30.9224 87.6086 31.3108 87.592C31.7922 87.5688 32.0611 87.7148 32.0743 88.0069C32.0909 88.329 31.8254 88.6377 31.4934 88.6842Z" fill="#E1505F"/>
  <path d="M79.4456 46.2923C79.2232 46.2458 79.1502 46.0699 79.1236 45.8806C79.0307 45.2499 79.1402 44.6557 79.5286 44.1412C79.5983 44.0482 79.7743 43.9619 79.8772 43.9851C79.917 43.9918 79.9569 44.0183 79.9967 44.0482C79.9768 43.039 79.927 42.0398 79.8473 41.0473C79.6913 41.1369 79.5021 41.1834 79.2863 41.1634C78.7352 41.117 78.4265 40.6589 78.629 40.1476C78.7352 39.8854 78.8945 39.643 79.0605 39.4107C79.1402 39.3011 79.2797 39.2214 79.3494 39.2447C79.4755 39.2679 79.5884 39.321 79.6913 39.3874C79.5419 38.0496 79.3361 36.7317 79.0871 35.4304C79.0041 35.5035 78.9178 35.5732 78.8182 35.6329C78.5294 35.8122 78.4962 35.9483 78.4265 36.2504C78.3037 36.7616 78.0813 37.2463 77.9651 37.7608C78.3203 40.131 78.5062 42.561 78.5062 45.0441C78.5062 48.626 78.1178 52.105 77.3941 55.4346C77.5634 55.4711 77.6298 55.6371 77.6298 55.8097C77.6298 56.2114 77.3841 56.6363 77.0488 56.9284C72.4644 75.1798 57.5891 88.5878 40.0017 88.5878C38.4713 88.5878 36.9642 88.4849 35.4836 88.2857C35.8621 88.4816 36.1177 88.8733 36.1476 89.4011C36.1575 89.5605 36.1675 89.7198 36.1708 89.8792C36.9443 89.9622 37.7277 90.0186 38.5145 90.0518C38.6174 89.6534 38.8929 89.5306 39.4008 89.6601C39.6763 89.7298 39.9552 89.8128 40.2175 89.9256C40.3668 89.992 40.5162 90.0451 40.6623 90.075C40.8581 90.0717 41.054 90.0684 41.2499 90.0617C41.3162 90.0418 41.3826 90.0219 41.4523 89.9887C41.7312 89.8592 41.9602 89.8891 42.1528 90.0219C62.9039 88.7804 79.512 69.6493 80 46.1097C79.8539 46.2591 79.6747 46.3354 79.4489 46.289L79.4456 46.2923ZM72.5175 71.2029C72.2254 71.5348 71.5017 71.5979 71.2195 71.3091C71.1631 71.2527 71.1631 71.1365 71.1365 71.0502C71.1897 70.5323 71.5582 70.2966 72.0362 70.5024C72.2055 70.5755 72.3715 70.685 72.501 70.8145C72.6005 70.9141 72.6238 71.0767 72.5142 71.2029H72.5175Z" fill="#E1505F"/>
  <path d="M18.8423 7.61199C18.9186 7.59539 19.0514 7.61863 19.0879 7.67506C19.2306 7.88752 19.1975 8.12985 19.1311 8.36223C19.1012 8.46181 19.0514 8.53153 18.9916 8.57468C19.9643 7.85432 20.9701 7.18375 22.0026 6.5663C21.7768 6.64929 21.5345 6.58622 21.3154 6.45675C21.0564 6.30073 20.9502 6.0418 20.8473 5.77291C20.8207 5.70319 20.7975 5.63016 20.7743 5.55713C19.6854 6.23102 18.6265 6.96134 17.6007 7.74477C17.8331 7.74809 18.0621 7.76801 18.2945 7.78129C18.4771 7.72485 18.653 7.65182 18.8389 7.61199H18.8423Z" fill="#E1505F"/>
  <path d="M15.34 11.6352C16.4952 10.5431 17.7102 9.52395 18.975 8.58781C18.8654 8.65753 18.7194 8.65753 18.5667 8.63429C18.3144 8.65089 18.1285 8.54798 18.0156 8.31892H18.009C17.7766 8.3322 17.5542 8.30896 17.3916 8.12638C17.355 8.08655 17.3285 8.02347 17.3185 7.96704C16.3392 8.72724 15.3931 9.53391 14.4802 10.3871C14.8487 10.7223 15.1309 11.1439 15.34 11.6352Z" fill="#E1505F"/>
  <path d="M55.7533 4.86656C55.6969 5.01262 55.6438 5.12881 55.5873 5.23504C65.8317 10.3838 73.7325 20.4423 76.9426 32.7549C77.4439 32.5324 77.9551 32.4295 78.4497 32.5822C76.3019 24.2035 72.0494 16.8206 66.3795 11.2104C66.094 11.4062 65.7388 11.4826 65.377 11.3897C65.2409 11.3531 65.1081 11.2901 64.9753 11.2403C64.4939 11.0577 64.3645 10.8685 64.4176 10.2311C64.4375 10.1647 64.4906 9.93233 64.5802 9.71655C64.6002 9.66676 64.6234 9.62692 64.6467 9.58377C63.0167 8.14304 61.2839 6.84506 59.4614 5.69979C59.4116 5.94876 59.2854 6.16786 59.1228 6.36703C59.0697 6.43011 58.9601 6.4799 58.8771 6.4799C58.502 6.4799 57.9509 6.12138 57.8514 5.8027C57.7385 5.43754 57.8846 5.13545 58.097 4.87652C57.6688 4.63086 57.2372 4.39517 56.8023 4.16943C56.5799 4.30222 56.3077 4.28562 56.0455 4.28894C55.8131 4.41509 55.7633 4.62754 55.7566 4.86656H55.7533Z" fill="#E1505F"/>
  <path d="M16.8671 81.4441C17.1692 81.6433 17.312 81.8956 17.3783 82.1778C18.0987 82.7355 18.839 83.2699 19.5926 83.7778C20.0009 83.5953 20.2631 83.2201 20.5254 82.8218C20.5586 82.772 20.5984 82.7222 20.6349 82.6724C19.4099 81.8624 18.2282 80.9794 17.0929 80.03C17.0929 80.0366 17.0929 80.0432 17.0929 80.0499C17.0298 80.4316 16.7576 80.7337 16.3957 80.8433C16.0073 80.9595 15.8214 80.664 15.7152 80.3287C15.5957 79.6748 15.672 79.3295 16.0704 79.1337C14.6529 77.8556 13.3151 76.4713 12.0669 74.9841C12.0005 75.0239 11.9342 75.0737 11.8777 75.0638C11.5126 75.004 11.33 74.7086 11.1441 74.4297C10.925 74.1011 10.8685 73.7492 10.9747 73.623C6.68909 68.0593 3.6284 61.2607 2.27398 53.765C2.1412 53.8114 2.00176 53.765 1.86898 53.5724H1.86567C1.75281 53.4894 1.63661 53.4064 1.52374 53.3235C1.21833 53.1873 0.912927 53.0546 0.61084 52.9185C1.5171 58.6847 3.39933 64.0724 6.06168 68.866C6.30734 68.5274 6.55631 68.1888 6.81192 67.8602C6.85176 67.8104 7.00779 67.7938 7.06754 67.8303C7.11734 67.8602 7.15052 68.0162 7.11733 68.0726C6.83184 68.5805 6.6393 69.115 6.51647 69.6694C9.12239 74.1476 12.4155 78.078 16.2298 81.2615C16.4455 81.2416 16.6646 81.318 16.8704 81.4541L16.8671 81.4441Z" fill="#E1505F"/>
  <path d="M22.1984 6.44674C25.9961 4.19602 30.1656 2.64243 34.5741 1.93867C34.3384 1.72621 33.9699 1.56687 34.0462 1.18179C34.1093 0.873065 34.4545 0.790074 34.7168 0.73364C35.1351 0.64069 35.4405 0.836549 35.5766 1.25814C35.5898 1.3013 35.5899 1.35109 35.5965 1.39757C35.7459 1.44736 35.8355 1.55027 35.8588 1.70629V1.70961C35.8787 1.71957 35.8953 1.73285 35.9152 1.74613C37.2596 1.58347 38.6273 1.50048 40.0083 1.50048C42.4848 1.50048 44.9081 1.76937 47.2584 2.27727C47.587 2.28391 47.919 2.27395 48.241 2.32707C48.4435 2.36026 48.5895 2.46649 48.6858 2.61588C48.9381 2.68227 49.1871 2.75198 49.4394 2.82501C49.4693 2.7719 49.5025 2.71879 49.5357 2.66899C49.778 2.29055 50.173 2.27063 50.4817 2.62915C50.6046 2.7719 50.7606 2.92792 50.7872 3.09722C50.7938 3.14702 50.7971 3.19681 50.8071 3.24329C51.6071 3.50886 52.3972 3.79767 53.174 4.11967V4.11303C53.164 3.68812 53.1541 3.26321 53.1873 2.84161C53.1972 2.7221 53.2172 2.62583 53.2404 2.53289C49.0975 0.892983 44.6458 0 40.0116 0C33.4952 0 27.3405 1.76273 21.8997 4.88651C22.0258 5.17532 22.1984 5.44753 22.3113 5.74298C22.4042 5.99527 22.4142 6.26084 22.2084 6.44342L22.1984 6.44674Z" fill="#E1505F"/>
  <path d="M0.912901 51.6934C1.20503 51.8594 1.41749 52.105 1.59675 52.3839C1.69302 52.4835 1.78928 52.5864 1.88555 52.686C1.88555 52.686 1.88555 52.6859 1.88555 52.6826C1.95859 52.6926 2.0316 52.7059 2.09799 52.7258C1.70296 50.2327 1.49714 47.6666 1.49714 45.0475C1.49714 37.9434 3.0109 31.2311 5.68985 25.3022C5.67657 25.2126 5.68985 25.113 5.72968 25.0134C5.78943 24.8607 5.87244 24.7545 5.96871 24.7014C8.23934 19.8647 11.2901 15.5691 14.9317 12.027C14.8255 11.9473 14.7226 11.8577 14.6263 11.7382C14.3508 11.4062 13.9159 11.2867 13.4412 11.4261C13.4279 11.4295 13.4147 11.4328 13.4014 11.4361C11.4826 13.3648 9.72654 15.4993 8.16631 17.8065C8.21942 17.9658 8.22273 18.1418 8.19949 18.3244C8.1497 18.726 7.84429 19.0846 7.53224 19.1509C7.46253 19.1343 7.37956 19.131 7.3198 19.1045C2.71214 26.4442 0 35.3973 0 45.0475C0 47.3181 0.152689 49.5489 0.441498 51.7299C0.580922 51.6237 0.750222 51.5938 0.916204 51.6901L0.912901 51.6934ZM6.91147 20.273C6.93803 20.2663 6.97788 20.3294 7.01108 20.3626C6.97124 20.4356 6.93471 20.5087 6.89488 20.5817C6.86168 20.5485 6.81521 20.5253 6.79862 20.4854C6.75878 20.3792 6.7986 20.2962 6.91147 20.273Z" fill="#E1505F"/>
  <path d="M13.0562 24.7845C13.0661 25.1031 13.1458 25.4119 13.2918 25.704C13.4379 25.9961 13.657 26.2584 13.9492 26.4874C14.145 26.6435 14.3409 26.7596 14.5301 26.8327C14.7193 26.9057 14.9052 26.9489 15.0878 26.9555C15.2704 26.9621 15.4496 26.9422 15.6256 26.8957C15.7683 26.8559 15.9077 26.7995 16.0472 26.7331C16.0571 26.6235 16.1567 26.4974 16.2463 26.4111C16.2961 26.3613 16.4322 26.348 16.5053 26.3812C16.5318 26.3945 16.5517 26.4111 16.5783 26.4244C16.6679 26.3646 16.7542 26.3049 16.8405 26.2351C17.0663 26.0559 17.2887 25.8733 17.5111 25.6874C17.7302 25.5015 17.946 25.3222 18.1584 25.1496C18.3709 24.977 18.58 24.8343 18.7859 24.7181C19.0415 24.5786 19.2904 24.5056 19.5328 24.4956C19.7751 24.4857 20.0207 24.5786 20.2664 24.7712C20.4291 24.9006 20.5552 25.0533 20.6448 25.2226C20.7312 25.3953 20.7776 25.5812 20.7776 25.7837C20.7776 25.787 20.7776 25.7936 20.7776 25.7969C20.8474 25.7969 20.9171 25.8036 20.9967 25.8301C21.2822 25.9331 21.4913 26.2351 21.425 26.4708C21.3453 26.7563 21.103 26.7729 20.9934 26.7796C20.8175 26.7796 20.771 26.7862 20.7245 26.7796C20.6482 26.7696 20.5652 26.7663 20.4855 26.753C20.4125 26.8791 20.3228 27.0086 20.2199 27.1381C19.8315 27.6294 19.39 27.9514 18.8954 28.0975C18.4008 28.2468 17.8796 28.2269 17.3252 28.0377C17.126 27.9713 16.9601 28.0145 16.8339 28.1771C16.7111 28.3332 16.6513 28.4659 16.658 28.5722C16.6646 28.6784 16.7343 28.7813 16.8638 28.8842L18.5402 30.2121C18.6697 30.315 18.7892 30.3581 18.8921 30.3415C18.995 30.3249 19.1112 30.2386 19.234 30.0793C19.3568 29.9233 19.4166 29.7905 19.4099 29.6876C19.4033 29.5813 19.3336 29.4784 19.2041 29.3755L18.7692 29.0303C19.2207 29.0037 19.639 28.8875 20.0241 28.6751C20.4092 28.4626 20.7511 28.1705 21.0465 27.7987C21.3486 27.4136 21.571 27.0385 21.7072 26.67C21.8433 26.3015 21.9063 25.9496 21.893 25.6144C21.8798 25.2791 21.7934 24.967 21.6341 24.6716C21.4747 24.3795 21.2524 24.1205 20.9636 23.8915C20.7146 23.6923 20.4722 23.5529 20.2332 23.4632C19.9975 23.3769 19.7652 23.3305 19.5427 23.3271C19.3203 23.3238 19.1012 23.3537 18.8888 23.4234C18.6763 23.4931 18.4705 23.5827 18.2713 23.6989C18.0256 23.8417 17.7867 24.0077 17.5543 24.1969C17.3219 24.3861 17.0995 24.5753 16.8804 24.7612C16.6646 24.9471 16.4555 25.1231 16.253 25.2857C16.0505 25.4484 15.8546 25.5779 15.6621 25.6675C15.4828 25.7505 15.3102 25.7903 15.1409 25.7903C14.9749 25.7903 14.8089 25.7272 14.6496 25.6011C14.3375 25.3521 14.1716 25.0434 14.1516 24.6683C14.1317 24.2932 14.2877 23.8981 14.6197 23.4798C14.945 23.0715 15.3201 22.7728 15.7517 22.5835C16.1799 22.3976 16.6414 22.3478 17.1327 22.4408C17.2721 22.464 17.3949 22.4076 17.5078 22.2649C17.6306 22.1088 17.6904 21.976 17.6838 21.8731C17.6771 21.7669 17.6074 21.664 17.4779 21.5611L16.1932 20.5453C16.0638 20.4424 15.9442 20.3992 15.8413 20.4158C15.7384 20.4324 15.6222 20.5187 15.4994 20.6747C15.3766 20.8308 15.3168 20.9635 15.3235 21.0698C15.3301 21.176 15.3998 21.2789 15.5293 21.3818L15.8712 21.6507C15.4894 21.6939 15.1176 21.8167 14.7492 22.0159C14.3807 22.2151 14.0653 22.4839 13.7964 22.8259C13.5441 23.1412 13.3582 23.4666 13.2321 23.8018C13.106 24.1371 13.0495 24.4625 13.0595 24.7845H13.0562Z" fill="#E1505F"/>
  <path d="M20.1668 16.8836C20.0306 16.9235 19.8912 16.9434 19.8248 16.9567C19.7086 16.96 19.6024 16.9567 19.5061 16.9434C19.4962 16.9633 19.4862 16.9866 19.4829 17.0098C19.463 17.1061 19.5028 17.2322 19.6024 17.3816C19.702 17.5343 19.7982 17.6206 19.8945 17.6405C19.9908 17.6638 20.107 17.6306 20.2431 17.5409L20.6614 17.2687L24.9039 19.2572L25.0533 19.4862C25.0732 19.4663 25.0997 19.453 25.113 19.4564C25.3022 19.4995 25.4184 19.619 25.425 19.8215C25.3952 19.8448 25.3586 19.878 25.3254 19.9045L26.2881 21.3784L24.9404 22.2581C24.8043 22.3478 24.7279 22.4407 24.708 22.537C24.6881 22.6333 24.7279 22.7594 24.8275 22.9088C24.9271 23.0615 25.0234 23.1478 25.1196 23.1677C25.2159 23.191 25.3321 23.1578 25.4682 23.0681L29.06 20.7245C29.1961 20.6348 29.2725 20.5419 29.2924 20.4456C29.3124 20.3493 29.2725 20.2232 29.1729 20.0738C29.0733 19.9211 28.9771 19.8348 28.8808 19.8149C28.7845 19.7916 28.6683 19.8248 28.5322 19.9145L27.1845 20.7942L25.7968 18.6696L25.7537 16.7143C25.4981 16.6778 25.186 16.6745 25.1329 16.3591C25.0599 15.9409 25.4583 15.8512 25.7338 15.7317L25.6972 13.979L26.1023 13.7134C26.2384 13.6238 26.3147 13.5308 26.3346 13.4345C26.3545 13.3383 26.3147 13.2121 26.2151 13.0627C26.1155 12.91 26.0193 12.8237 25.923 12.8038C25.8267 12.7806 25.7105 12.8138 25.5744 12.9034L23.7619 14.0885C23.6258 14.1781 23.5495 14.2711 23.5295 14.3674C23.5096 14.4636 23.5495 14.5898 23.649 14.7392C23.7486 14.8919 23.8449 14.9782 23.9412 14.9981C24.0374 15.0213 24.1536 14.9881 24.2897 14.8985L24.6781 14.6462L24.7678 18.0688L24.1802 17.7899C24.2067 17.8165 24.2366 17.843 24.2632 17.8729C24.4159 18.0455 24.6416 18.2148 24.4889 18.4837C24.386 18.6663 24.1769 18.6696 23.981 18.6563C23.7055 18.6397 23.5362 18.497 23.493 18.2281C23.4698 18.0887 23.4764 17.9426 23.4698 17.8165C23.503 17.7102 23.5063 17.5907 23.5694 17.5376C23.5827 17.5277 23.5959 17.5243 23.6092 17.5177L21.6805 16.6015L22.2349 16.2396C22.371 16.15 22.4473 16.0571 22.4672 15.9608C22.4872 15.8645 22.4473 15.7384 22.3477 15.589C22.2481 15.4396 22.1519 15.35 22.0556 15.3301C21.9593 15.3068 21.8432 15.34 21.7071 15.4296L20.5551 16.1799C20.6282 16.4687 20.4622 16.794 20.1701 16.8803L20.1668 16.8836Z" fill="#E1505F"/>
  <path d="M30.056 11.8842C30.139 11.9407 30.2586 11.9506 30.4179 11.9174L31.198 11.7515L32.5624 18.1285L31.7823 18.2945C31.6229 18.3277 31.52 18.3874 31.4669 18.4704C31.4138 18.5534 31.4072 18.6862 31.4437 18.8621C31.4802 19.0381 31.54 19.1543 31.623 19.2107C31.7059 19.2671 31.8254 19.2771 31.9848 19.2439L35.2679 18.5401C35.8156 18.4239 36.297 18.2214 36.7053 17.936C37.1169 17.6505 37.4423 17.2986 37.6879 16.8737C37.9336 16.4488 38.0896 15.9641 38.156 15.413C38.2224 14.8653 38.1892 14.2678 38.0498 13.6204C37.9103 12.9764 37.7012 12.4154 37.4124 11.9407C37.1269 11.466 36.785 11.0875 36.3899 10.802C35.9949 10.5166 35.5501 10.324 35.0588 10.2311C34.5675 10.1381 34.0463 10.1481 33.4985 10.2676L30.2154 10.9713C30.0561 11.0045 29.9532 11.0643 29.9 11.1473C29.8469 11.2303 29.8403 11.3631 29.8768 11.539C29.9133 11.7149 29.9731 11.8311 30.056 11.8876V11.8842ZM32.4827 13.8229C32.579 13.8296 32.6786 13.8528 32.7516 13.9026L32.2437 11.5257L33.5384 11.2469C33.9533 11.1572 34.3417 11.1473 34.7035 11.2137C35.0687 11.2801 35.3974 11.4228 35.6928 11.6386C35.9883 11.8577 36.2405 12.1498 36.4563 12.5216C36.6721 12.8901 36.8348 13.3349 36.9443 13.8561C37.0572 14.3773 37.0904 14.8487 37.0439 15.2736C36.9974 15.6985 36.8879 16.0703 36.7053 16.389C36.526 16.7077 36.2837 16.9699 35.9783 17.1791C35.6729 17.3882 35.3144 17.5376 34.8994 17.6239L33.6048 17.9028L32.828 14.2777C32.7483 14.4835 32.5027 14.6396 32.2437 14.623C32.0412 14.6097 31.8918 14.4935 31.8752 14.2644C31.8752 13.9789 32.1142 13.793 32.4761 13.8229H32.4827Z" fill="#E1505F"/>
  <path d="M42.913 10.8519C43.1188 10.9581 43.2748 11.0975 43.2981 11.3299V11.3199L45.8044 18.4638C45.8542 18.5966 45.9173 18.7061 46.0002 18.7924C46.0832 18.8754 46.1895 18.9319 46.3256 18.9551C46.5081 18.9883 46.6476 18.9717 46.7472 18.9086C46.8434 18.8456 46.9032 18.7526 46.9264 18.6331L47.1688 17.2455C47.1256 17.126 47.0858 17.0065 47.0459 16.8803C46.7903 16.0869 46.8966 15.6952 47.4609 15.5757L47.6335 14.5831C47.3182 14.4736 47.1522 14.2279 47.1223 13.7997C47.0924 13.3316 47.0692 12.8669 47.4377 12.4719C47.6568 12.2362 47.8593 12.1432 48.0485 12.1963L48.168 11.5191L48.5696 11.5888C48.729 11.6154 48.8485 11.6021 48.9282 11.5424C49.0079 11.4826 49.0643 11.3664 49.0942 11.1872C49.1241 11.0079 49.1141 10.8784 49.0577 10.7988C49.0012 10.7158 48.895 10.6627 48.7356 10.6328L46.4617 10.2344C46.3023 10.2079 46.1828 10.2211 46.1032 10.2809C46.0235 10.3406 45.9671 10.4568 45.9372 10.6361C45.9073 10.8154 45.9173 10.9448 45.9737 11.0245C46.0301 11.1075 46.1364 11.1606 46.2957 11.1905L47.1156 11.3332L46.2061 16.5285L45.8442 15.4994C45.406 15.5824 45.1372 15.4396 44.8517 14.9483C44.8085 14.872 44.8185 14.7624 44.8019 14.6695C44.8019 14.4769 44.8019 14.2877 44.8019 14.0952C44.8683 13.6636 44.938 13.3947 45.0475 13.2254L43.9188 9.99872C43.8657 9.85598 43.7462 9.76635 43.5537 9.73315L41.9802 9.45762C41.8208 9.43107 41.7013 9.44434 41.6217 9.5041C41.542 9.56385 41.4856 9.68004 41.4557 9.8593C41.4258 10.0386 41.4358 10.168 41.4922 10.2477C41.5486 10.3307 41.6548 10.3838 41.8142 10.4137L42.3553 10.5066L42.3254 10.6826C42.5379 10.6726 42.7238 10.7622 42.913 10.8585V10.8519Z" fill="#E1505F"/>
  <path d="M42.8267 12.9002C42.8931 12.9898 42.9428 13.0596 42.986 13.1226L43.2648 11.5259C43.1686 11.6819 42.9096 11.7848 42.5146 11.7782C42.4648 11.7682 42.3055 11.7516 42.1494 11.6985L41.9337 12.9234C42.1262 12.6446 42.3387 12.6579 42.8267 12.8969V12.9002Z" fill="#E1505F"/>
  <path d="M40.5959 17.7967L43.0823 18.2316C43.2417 18.2582 43.3611 18.2449 43.4408 18.1851C43.5205 18.1254 43.5769 18.0092 43.6068 17.8299C43.6367 17.6507 43.6267 17.5212 43.5703 17.4415C43.5139 17.3585 43.4076 17.3054 43.2483 17.2755L43.0889 17.249C43.0723 17.6142 42.747 17.976 42.4184 17.9627C42.1628 17.9528 41.864 17.6108 41.8009 17.2523C41.7511 16.9701 42.0632 16.595 42.3918 16.5087L42.8798 13.7202C42.8532 13.7501 42.83 13.78 42.8001 13.8165C42.6474 14.0157 42.4449 14.1119 42.196 14.0455C42.0001 13.9924 41.864 13.8928 41.7843 13.7667L41.2333 16.927L40.7618 16.844C40.6025 16.8174 40.483 16.8307 40.4033 16.8905C40.3237 16.9502 40.2672 17.0664 40.2374 17.2457C40.2075 17.4249 40.2174 17.5544 40.2739 17.6341C40.3303 17.7171 40.4365 17.7702 40.5959 17.8001V17.7967Z" fill="#E1505F"/>
  <path d="M53.8114 18.9153C53.7748 19.0082 53.7649 19.0879 53.7881 19.1609C53.818 19.2639 53.9176 19.3634 54.0902 19.4697C54.2595 19.5726 54.3989 19.6157 54.5018 19.5925C54.6047 19.5726 54.701 19.4896 54.7873 19.3502L55.9592 17.4115C56.0455 17.2687 56.072 17.1459 56.0421 17.0463C56.0123 16.9434 55.9127 16.8438 55.7401 16.7376C55.5707 16.6347 55.4313 16.5915 55.3284 16.6148C55.2255 16.6347 55.1292 16.7177 55.0429 16.8571L54.8637 17.1526C54.7907 17.5708 54.6247 17.9659 54.4421 18.3476C54.3093 18.6198 54.0902 18.819 53.8114 18.9153Z" fill="#E1505F"/>
  <path d="M56.2447 20.4391C56.2048 20.406 56.1584 20.3694 56.1019 20.3362C55.9326 20.2333 55.7932 20.1902 55.6903 20.2134C55.594 20.2333 55.5044 20.3064 55.4214 20.4325C55.6903 20.396 55.9758 20.4557 56.2447 20.4391Z" fill="#E1505F"/>
  <path d="M54.5516 14.228L57.8148 16.2032L57.1277 17.3385C57.0414 17.4812 57.0148 17.6041 57.0447 17.7037C57.0746 17.8066 57.1742 17.9062 57.3468 18.0124C57.5161 18.1153 57.6555 18.1584 57.7584 18.1385C57.8613 18.1186 57.9576 18.0356 58.0439 17.8929L58.98 16.3459C59.073 16.1899 59.1095 16.0671 59.0863 15.9708C59.063 15.8745 58.9834 15.7849 58.8473 15.7019L55.9625 13.9558C55.8397 14.0255 55.7135 14.0653 55.6073 14.0653C55.2222 14.062 54.7442 13.6139 54.6413 13.1591C54.6413 13.1591 54.6413 13.1591 54.6413 13.1557L53.5226 12.4785C53.3831 12.3955 53.2669 12.3657 53.1707 12.3922C53.0744 12.4188 52.9814 12.5084 52.8852 12.6611C52.7922 12.8171 52.7557 12.94 52.779 13.0362C52.8022 13.1325 52.8819 13.2221 53.018 13.3051L53.6387 13.6802L52.8918 14.9152C53.2603 14.9417 53.6387 15.0446 53.9641 15.204L54.5516 14.2313V14.228Z" fill="#E1505F"/>
  <path d="M53.735 22.1585C53.7251 22.2647 53.7284 22.3742 53.7217 22.4805L54.3956 22.8888C54.2064 22.5369 54.1666 22.1087 54.2795 21.6871L54.0371 21.541C54.0272 21.7634 53.9541 21.9759 53.735 22.1618V22.1585Z" fill="#E1505F"/>
  <path d="M50.9465 18.1187L50.2593 19.2506L49.6386 18.8755C49.4991 18.7925 49.3829 18.7627 49.2867 18.7892C49.1904 18.8158 49.0974 18.9054 49.0012 19.0581C48.9082 19.2141 48.8717 19.337 48.8949 19.4332C48.9182 19.5295 48.9979 19.6191 49.134 19.7021L51.9092 21.3819C51.9656 21.3653 52.022 21.352 52.0884 21.3487C52.5034 21.3221 52.8453 21.2225 53.1308 20.9901L51.1722 19.805L51.7631 18.8257C51.6668 18.7693 51.5739 18.6996 51.4975 18.6066C51.3183 18.3942 51.1589 18.1784 50.9432 18.1187H50.9465Z" fill="#E1505F"/>
  <path d="M59.5643 25.8799C59.4979 25.8899 59.4282 25.8932 59.3618 25.8965L59.0597 26.1488L58.8174 25.86C58.3161 25.7471 58.0273 25.3952 58.0339 24.9272L58.024 24.9139C57.9211 24.7911 57.8182 24.7247 57.7186 24.718C57.619 24.7114 57.5028 24.7645 57.3634 24.8807C57.2239 24.9969 57.1509 25.1031 57.141 25.2027C57.131 25.3023 57.1775 25.4118 57.2804 25.5347L60.0423 28.8178C60.1452 28.9406 60.2481 29.007 60.3477 29.0136C60.4473 29.0203 60.5635 28.9672 60.7029 28.851C60.8424 28.7348 60.9154 28.6286 60.9254 28.529C60.9353 28.4294 60.8888 28.3198 60.7859 28.197L59.7502 26.9654L61.6922 25.3322L66.3364 24.6682L66.6484 25.04C66.7513 25.1629 66.8542 25.2292 66.9538 25.2359C67.0534 25.2425 67.1696 25.1894 67.309 25.0732C67.4485 24.957 67.5215 24.8508 67.5314 24.7512C67.5414 24.6516 67.4949 24.5421 67.392 24.4193L65.9977 22.7594C65.8948 22.6366 65.792 22.5702 65.6924 22.5636C65.5928 22.5569 65.4766 22.6101 65.3371 22.7262C65.1977 22.8424 65.1247 22.9487 65.1147 23.0482C65.1048 23.1478 65.1512 23.2574 65.2541 23.3802L65.5529 23.7354L62.1669 24.2367L62.7976 22.3578C62.5055 22.0524 62.2267 21.7337 62.0408 21.3718L61.0084 24.5155L60.0655 25.3089C60.0622 25.3521 60.0556 25.3952 60.049 25.4384C60.0025 25.704 59.8299 25.8467 59.5709 25.8799H59.5643Z" fill="#E1505F"/>
  <path d="M63.206 20.0075C63.3122 20.3328 63.362 20.6349 63.7603 20.7444C64.1853 20.8606 64.3446 21.1461 64.3844 21.4947C64.4873 21.3984 64.5471 21.3054 64.5537 21.2224C64.5637 21.1229 64.5172 21.0133 64.4143 20.8905L62.8839 19.068C62.781 18.9452 62.6782 18.8788 62.5786 18.8721C62.479 18.8655 62.3628 18.9186 62.2233 19.0348C62.0839 19.151 62.0109 19.2572 62.001 19.3568C61.991 19.4464 62.0308 19.546 62.1138 19.6556C62.1636 19.629 62.2167 19.6091 62.2864 19.5958C62.7545 19.5095 63.0798 19.6224 63.206 20.0108V20.0075Z" fill="#E1505F"/>
  <path d="M20.595 64.2251C20.5485 64.2251 20.4888 64.2384 20.4589 64.2152C20.2763 64.0691 20.0937 63.923 19.9078 63.777L17.9459 65.8916L16.6512 63.4716L19.058 63.0865C18.8853 62.9438 18.7127 62.8043 18.5434 62.6583C18.3409 62.4823 18.2911 62.3462 18.4007 62.2068L15.4993 62.6284C15.8877 63.1728 15.7981 63.3952 15.1143 63.6508C14.925 63.6508 14.7358 63.6475 14.5466 63.6442C14.3574 63.5778 14.2445 63.4517 14.2146 63.2458C14.1914 63.0931 14.2047 62.9471 14.2544 62.811L13.3913 62.9371L13.2055 62.5919C13.1291 62.4524 13.0461 62.3695 12.9532 62.3429C12.8602 62.3163 12.7341 62.3429 12.5781 62.4292C12.422 62.5122 12.3291 62.6018 12.2992 62.6948C12.2693 62.7877 12.2926 62.9039 12.3656 63.0433L13.471 65.1048C13.5474 65.2443 13.6304 65.3273 13.7233 65.3538C13.8163 65.3804 13.9424 65.3538 14.0984 65.2675C14.2545 65.1845 14.3474 65.0949 14.3773 65.0019C14.4071 64.909 14.3839 64.7928 14.3109 64.6534L13.9125 63.9064L15.6553 63.6309L17.2587 66.6252L16.0604 67.9166L15.6155 67.0833C15.5391 66.9439 15.4562 66.8609 15.3632 66.8344C15.2703 66.8078 15.1441 66.8344 14.9881 66.9207C14.8321 67.0037 14.7391 67.0933 14.7092 67.1862C14.6794 67.2792 14.7026 67.3954 14.7757 67.5348L15.9442 69.7191C16.0205 69.8586 16.1035 69.9415 16.1964 69.9681C16.2894 69.9947 16.4155 69.9681 16.5715 69.8818C16.7276 69.7988 16.8206 69.7092 16.8504 69.6162C16.8803 69.5233 16.857 69.4071 16.784 69.2677L16.5815 68.8925L20.7775 64.255C20.7178 64.2484 20.658 64.2384 20.595 64.2251Z" fill="#E1505F"/>
  <path d="M20.0207 61.7354L20.1369 61.9544L20.0207 61.971C20.0207 62.1503 20.0207 62.3296 20.0207 62.5088C20.117 62.6848 20.2697 62.781 20.4324 62.8673L20.615 62.8375L20.678 62.9537L20.6548 62.9802C20.6548 62.9802 20.6581 62.9802 20.6614 62.9802C20.8573 63.0831 21.083 63.1396 21.1992 63.3587C21.2889 63.4184 21.3619 63.4881 21.4084 63.5678L21.5113 63.4516C21.6274 63.3255 21.6905 63.196 21.7005 63.0599C21.7105 62.9238 21.6673 62.7777 21.581 62.6117L20.3693 60.3477C20.293 60.2083 20.21 60.1253 20.117 60.0988C20.0672 60.0855 20.0075 60.0888 19.9377 60.1054C20.0041 60.3212 20.034 60.5502 20.034 60.7859C20.034 61.1013 20.034 61.4167 20.034 61.732L20.0207 61.7354Z" fill="#E1505F"/>
  <path d="M27.3505 71.1763C27.4667 71.2859 27.5729 71.339 27.6692 71.3357C27.7655 71.3323 27.875 71.266 27.9978 71.1365C28.1207 71.007 28.1804 70.8942 28.1804 70.7979C28.1804 70.7016 28.1207 70.5954 28.0078 70.4858L24.655 67.2857C24.5388 67.1762 24.4325 67.123 24.3363 67.1264C24.24 67.1297 24.1304 67.1961 24.0076 67.3255C23.8848 67.455 23.8251 67.5679 23.8251 67.6641C23.8251 67.7604 23.8848 67.8666 23.9976 67.9762L25.2956 69.2144L20.8706 73.8486L19.473 72.5141C19.3568 72.4046 19.2506 72.3515 19.1543 72.3548C19.058 72.3581 18.9485 72.4245 18.8257 72.554C18.7028 72.6834 18.6431 72.7963 18.6431 72.8926C18.6431 72.9888 18.7028 73.0918 18.8157 73.2046L22.3711 76.5973C22.4706 76.6936 22.5636 76.7434 22.6532 76.7533C22.63 76.7201 22.6068 76.6869 22.5835 76.6504C22.298 76.4014 22.3677 76.1558 22.6266 75.9533C22.7262 75.8769 22.8258 75.8271 22.9221 75.8039L21.6341 74.5723L26.0592 69.9381L27.3571 71.1763H27.3505Z" fill="#E1505F"/>
  <path d="M34.1193 73.8985C33.8437 73.6595 33.4985 73.457 33.0835 73.2844L29.8104 71.93C29.6643 71.8702 29.5448 71.857 29.4552 71.8968C29.3655 71.9366 29.2859 72.0362 29.2195 72.2022C29.1531 72.3649 29.1365 72.4943 29.1697 72.584C29.2029 72.6736 29.2958 72.7499 29.4419 72.8097L30.232 73.135L27.7821 79.0539L26.992 78.7286C26.8459 78.6689 26.7264 78.6556 26.6368 78.6954C26.5472 78.7352 26.4675 78.8348 26.4011 79.0008C26.3347 79.1635 26.3181 79.293 26.3513 79.3826C26.3878 79.4722 26.4774 79.5486 26.6235 79.6083L29.2228 80.6839C29.3689 80.7436 29.4884 80.7569 29.578 80.7171C29.6676 80.6772 29.7473 80.5777 29.8137 80.4117C29.8801 80.249 29.8967 80.1195 29.8635 80.0299C29.827 79.9403 29.7373 79.8639 29.5913 79.8042L28.7514 79.4556L29.7672 77.0024L30.1689 77.1684C30.3681 77.2514 30.5407 77.3377 30.6901 77.4273C30.8394 77.5169 30.9723 77.6199 31.0884 77.7327C31.2046 77.8456 31.3009 77.9751 31.3806 78.1178C31.4602 78.2605 31.5266 78.4265 31.5797 78.6157C31.6229 78.7684 31.6594 78.9311 31.6893 79.1037C31.7192 79.2764 31.7457 79.4523 31.7656 79.6349C31.7855 79.8175 31.8055 80 31.8254 80.1859C31.8453 80.3718 31.8685 80.5511 31.8951 80.7304C31.9615 81.1519 32.0611 81.4673 32.1905 81.6731C32.32 81.8823 32.4761 82.0217 32.662 82.098L33.1134 82.2873C33.2595 82.347 33.379 82.3603 33.4686 82.3205C33.5582 82.2806 33.6379 82.181 33.7043 82.0151C33.7707 81.8524 33.7873 81.7229 33.7508 81.6333C33.7142 81.5437 33.6246 81.4673 33.4786 81.4076L33.3557 81.3578C33.223 81.3013 33.1234 81.2017 33.057 81.0524C33.0503 81.0391 33.047 81.0192 33.0404 81.0059C32.9972 80.9528 32.974 80.8864 32.9707 80.8067C32.9474 80.7138 32.9242 80.6142 32.9109 80.5079C32.8877 80.3586 32.8677 80.1926 32.8478 80.02C32.8279 79.844 32.808 79.6681 32.7848 79.4888C32.7615 79.3095 32.7283 79.1303 32.6918 78.9477C32.6553 78.7651 32.6055 78.5925 32.5491 78.4265C32.5026 78.2971 32.4461 78.1709 32.3831 78.0547C32.32 77.9385 32.2437 77.829 32.154 77.7327C32.4495 77.7858 32.735 77.7991 33.0072 77.7726C33.2794 77.746 33.525 77.6829 33.7474 77.5833C33.9699 77.4837 34.169 77.3443 34.3383 77.1684C34.511 76.9924 34.6471 76.78 34.75 76.5277C34.8828 76.2024 34.9492 75.8837 34.9492 75.5683C34.9492 75.2529 34.8795 74.9542 34.74 74.6753C34.6006 74.3965 34.3948 74.1375 34.1193 73.8985ZM33.7275 76.1061C33.6313 76.3352 33.5118 76.5144 33.3624 76.6439C33.213 76.7733 33.0404 76.8597 32.8478 76.8995C32.6553 76.9393 32.4395 76.9393 32.2038 76.8995C31.9681 76.8563 31.7158 76.78 31.4503 76.6704L30.1357 76.126L31.2079 73.54L32.5856 74.111C33.1233 74.3334 33.4919 74.6189 33.691 74.9641C33.8902 75.3094 33.9002 75.6911 33.7275 76.1094V76.1061Z" fill="#E1505F"/>
  <path d="M43.0955 75.3028C42.8399 75.0737 42.5246 74.9011 42.1561 74.7783C41.7876 74.6554 41.366 74.6023 40.8946 74.6089L37.0638 74.682C36.9044 74.682 36.7916 74.7218 36.7252 74.7948C36.6588 74.8679 36.6289 74.9907 36.6322 75.1667C36.6355 75.3426 36.672 75.4654 36.7417 75.5351C36.8115 75.6048 36.9243 75.638 37.0837 75.6347L38.219 75.6115L38.2455 76.8962C38.2721 76.9028 38.2987 76.9095 38.3219 76.9161C38.624 77.0024 38.8033 77.2016 38.7966 77.507C38.7601 77.7958 38.6074 77.9585 38.3584 78.0249C38.3285 78.0315 38.2987 78.0381 38.2688 78.0448L38.3452 82.0151L37.2098 82.0383C37.0505 82.0383 36.9376 82.0781 36.8712 82.1512C36.8048 82.2209 36.7749 82.347 36.7783 82.523C36.7816 82.6989 36.8181 82.8251 36.8878 82.8914C36.9575 82.9612 37.0704 82.9944 37.2298 82.991L41.0938 82.9147C41.2531 82.9147 41.366 82.8749 41.4324 82.8018C41.4988 82.7321 41.5287 82.606 41.5254 82.43C41.522 82.2541 41.4855 82.1313 41.4158 82.0615C41.3461 81.9918 41.2332 81.9586 41.0739 81.962L39.3941 81.9951L39.3543 79.9171L41.0009 79.8839C41.4723 79.8739 41.8905 79.8042 42.2524 79.6714C42.6175 79.5386 42.9229 79.356 43.1686 79.1203C43.4175 78.888 43.6034 78.6058 43.7263 78.2805C43.8491 77.9551 43.9089 77.5933 43.9022 77.2016C43.8956 76.8066 43.8225 76.4447 43.6864 76.1227C43.5503 75.8007 43.3511 75.5252 43.0955 75.2961V75.3028ZM42.3154 78.4664C41.9835 78.7685 41.4922 78.9278 40.8316 78.9411L39.3344 78.971L39.268 75.5982L40.7651 75.5683C41.4224 75.555 41.9237 75.6978 42.2656 75.9899C42.6075 76.2854 42.7835 76.697 42.7934 77.2281C42.8034 77.7493 42.6441 78.1643 42.3121 78.4664H42.3154Z" fill="#E1505F"/>
  <path d="M49.8377 80.946C50.3357 80.946 50.8336 80.8298 51.3349 80.6008C51.8362 80.3717 52.2478 80.0696 52.5764 79.6945C52.9018 79.3194 53.1341 78.8945 53.2702 78.4165C53.4063 77.9418 53.4462 77.4239 53.3864 76.8695C53.3267 76.3151 53.164 75.7408 52.8918 75.1499C52.6196 74.559 52.2943 74.0611 51.9125 73.6528C51.5308 73.2445 51.1158 72.9357 50.6643 72.7266C50.2129 72.5175 49.7415 72.4146 49.2435 72.4146C48.7456 72.4146 48.2476 72.5307 47.7464 72.7598C47.2451 72.9889 46.8335 73.2909 46.5048 73.6661C46.1795 74.0412 45.9471 74.4694 45.811 74.9441C45.6749 75.4188 45.6384 75.94 45.6981 76.4944C45.7579 77.0488 45.9239 77.6231 46.1928 78.214C46.4617 78.8049 46.7903 79.3028 47.1721 79.7111C47.1787 79.7178 47.182 79.7211 47.1887 79.7277C47.348 79.5817 47.5206 79.4953 47.7231 79.5916C47.9887 79.7211 48.1281 79.98 48.0816 80.2788C48.0717 80.3319 48.0551 80.3784 48.0318 80.4215C48.158 80.5012 48.2875 80.5742 48.4203 80.634C48.8684 80.8431 49.3431 80.946 49.8411 80.9427L49.8377 80.946ZM47.9356 78.9177C47.6534 78.6024 47.4111 78.214 47.1986 77.7559C46.9895 77.2977 46.8567 76.8596 46.8003 76.4413C46.7438 76.023 46.7604 75.6379 46.8434 75.286C46.9297 74.9342 47.0824 74.6221 47.3082 74.3532C47.5007 74.1208 47.743 73.9316 48.0285 73.7822C48.0252 73.6461 48.1115 73.5134 48.2343 73.4171C48.3837 73.3042 48.5364 73.1913 48.6991 73.1017C49.0111 72.9324 49.3298 73.1283 49.3663 73.4835C49.6684 73.5067 49.9606 73.5864 50.2394 73.7291C50.5614 73.8951 50.8635 74.1341 51.1423 74.4495C51.4245 74.7649 51.6669 75.1533 51.8793 75.6114C52.0885 76.0695 52.2212 76.5077 52.2777 76.9259C52.3341 77.3442 52.3175 77.7293 52.2312 78.0779C52.1449 78.4264 51.9888 78.7385 51.7631 79.0074C51.7565 79.0173 51.7465 79.024 51.7399 79.0306C51.8461 79.0804 51.9291 79.1567 51.949 79.3061C51.9822 79.5418 51.793 79.7842 51.5639 79.7642C51.3913 79.7476 51.2519 79.668 51.2021 79.4887C51.1058 79.5485 51.0062 79.6049 50.8967 79.6547C50.5448 79.8173 50.1929 79.8937 49.8411 79.8871C49.4892 79.8804 49.1539 79.7974 48.8319 79.6348C48.5099 79.4721 48.2111 79.2331 47.929 78.9177H47.9356Z" fill="#E1505F"/>
  <path d="M62.3727 70.6983C62.2765 70.6983 62.1702 70.7547 62.0607 70.8676L61.9677 70.9639C61.8648 71.0668 61.7354 71.1199 61.5727 71.1265C61.41 71.1299 61.2241 71.1066 61.0117 71.0568C60.8623 71.0203 60.7029 70.9805 60.5336 70.9307C60.3643 70.8842 60.1917 70.8377 60.0191 70.7913C59.8431 70.7448 59.6639 70.7083 59.4813 70.6751C59.2987 70.6419 59.1195 70.622 58.9435 70.612C58.8041 70.6054 58.668 70.612 58.5385 70.6253C58.4058 70.6386 58.2796 70.6718 58.1534 70.7182C58.3128 70.4626 58.4323 70.2037 58.5087 69.9414C58.585 69.6792 58.6215 69.4269 58.6116 69.1846C58.6016 68.9389 58.5485 68.7065 58.4489 68.4808C58.3493 68.2551 58.2033 68.0492 58.0107 67.86C57.7618 67.6144 57.4895 67.4318 57.1974 67.3156C56.9053 67.1994 56.6032 67.1496 56.2911 67.1762C55.9791 67.1994 55.6604 67.2957 55.3384 67.4617C55.0131 67.6276 54.6944 67.87 54.3823 68.1887L51.8993 70.7149C51.7864 70.8278 51.7333 70.934 51.7366 71.0303C51.7399 71.1265 51.803 71.2394 51.9291 71.3622C52.0553 71.4851 52.1681 71.5481 52.2644 71.5515C52.3607 71.5515 52.4669 71.495 52.5765 71.3822L53.174 70.7747L57.7418 75.2661L57.1443 75.8769C57.0314 75.9898 56.9783 76.096 56.9816 76.1923C56.985 76.2886 57.048 76.4015 57.1742 76.5243C57.3003 76.6471 57.4132 76.7102 57.5095 76.7135C57.6057 76.7135 57.7119 76.6571 57.8215 76.5442L59.7934 74.5358C59.9062 74.4229 59.9593 74.3167 59.956 74.2204C59.956 74.1242 59.8897 74.0113 59.7635 73.8885C59.6374 73.7657 59.5245 73.7026 59.4282 73.6993C59.3319 73.6993 59.2257 73.7557 59.1161 73.8686L58.4788 74.5192L56.5866 72.6602L56.892 72.3515C57.0414 72.1988 57.1874 72.0693 57.3269 71.9631C57.4663 71.8569 57.609 71.7739 57.7584 71.7108C57.9078 71.6477 58.0605 71.6046 58.2265 71.5847C58.3892 71.5647 58.5684 71.5647 58.7643 71.5847C58.9236 71.6013 59.0863 71.6311 59.2589 71.6676C59.4282 71.7042 59.6041 71.7473 59.7801 71.7971C59.956 71.8469 60.1353 71.8967 60.3145 71.9498C60.4938 72.0029 60.6697 72.0461 60.8457 72.0892C61.2639 72.1855 61.5926 72.2121 61.8316 72.1689C62.074 72.1258 62.2632 72.0361 62.4026 71.8934L62.7479 71.5448C62.8574 71.432 62.9138 71.3257 62.9105 71.2295C62.9105 71.1332 62.8441 71.0203 62.718 70.8975C62.5918 70.7747 62.4789 70.7116 62.3827 70.7083L62.3727 70.6983ZM57.6389 69.7622C57.6057 69.958 57.5227 70.1572 57.3966 70.3597C57.2705 70.5622 57.1044 70.768 56.9019 70.9738L55.906 71.9863L53.9077 70.0211L54.9533 68.9588C55.3616 68.5439 55.7633 68.3082 56.1583 68.2517C56.5534 68.1986 56.9119 68.3281 57.2339 68.6468C57.4098 68.8194 57.5294 69.002 57.5958 69.1879C57.6588 69.3771 57.6754 69.5663 57.6389 69.7622Z" fill="#E1505F"/>
  <path d="M67.0467 62.9471C66.8874 62.8674 66.7613 62.8442 66.6683 62.8707C66.5754 62.9006 66.4924 62.9869 66.4227 63.1263L66.2168 63.5413C66.2401 63.6342 66.1803 63.7438 66.1073 63.8235C66.0874 63.8434 66.0641 63.8633 66.0442 63.8832L65.6824 64.6036L65.4069 64.4641C65.3637 64.4874 65.3172 64.504 65.2608 64.5106H65.2541V64.5139C65.118 64.7463 64.8989 64.8293 64.6632 64.743C64.2748 64.6002 63.8433 64.5604 63.5279 64.2484C62.9337 63.9363 62.6814 63.5977 62.698 63.1064L59.956 61.7321L60.7926 60.059L60.8257 60.0756C61.1776 59.6274 61.9644 59.6307 62.2897 60.0822C62.313 60.1154 62.3163 60.1685 62.3262 60.2117C62.3262 60.2582 62.3362 60.3146 62.3163 60.3511C62.2399 60.4939 62.1403 60.6001 62.0175 60.6698L62.7279 61.025C62.874 61.098 62.9968 61.1146 63.093 61.0781C63.1893 61.0416 63.2823 60.9354 63.3719 60.7594C63.4582 60.5835 63.4881 60.4474 63.4615 60.3445C63.435 60.2416 63.3454 60.1586 63.1993 60.0855L60.839 58.9037C60.6797 58.8241 60.5535 58.8008 60.4606 58.8274C60.3676 58.8573 60.2847 58.9436 60.2149 59.083L57.526 64.4542C57.4563 64.5969 57.4364 64.7131 57.4663 64.8061C57.4995 64.899 57.5957 64.982 57.7518 65.0617L60.112 66.2435C60.2581 66.3165 60.3809 66.3331 60.4772 66.2966C60.5734 66.2601 60.6664 66.1538 60.756 65.9779C60.8424 65.802 60.8722 65.6659 60.8456 65.5629C60.8191 65.4634 60.7295 65.377 60.5834 65.304L58.648 64.3347L59.4846 62.6616L65.2143 65.5297L64.474 67.007C64.4043 67.1497 64.3844 67.2659 64.4176 67.3589C64.4508 67.4518 64.547 67.5381 64.7031 67.6145C64.8624 67.6942 64.9886 67.7174 65.0815 67.6908C65.1745 67.661 65.2574 67.5746 65.3272 67.4352L67.2758 63.5413C67.3455 63.3985 67.3654 63.2824 67.3356 63.1894C67.3024 63.0965 67.2061 63.0135 67.0501 62.9338L67.0467 62.9471Z" fill="#E1505F"/>
  <path d="M32.2005 31.8122C32.154 31.8122 32.1241 31.8222 32.1042 31.8421C32.0843 31.862 32.0743 31.8985 32.0743 31.9483C32.0743 31.9981 32.0843 32.0346 32.1042 32.0546C32.1241 32.0745 32.1573 32.0844 32.2005 32.0844H33.2329C33.2794 32.0844 33.3093 32.0745 33.3292 32.0546C33.3491 32.0346 33.359 31.9981 33.359 31.9483C33.359 31.8985 33.3491 31.862 33.3292 31.8421C33.3093 31.8222 33.276 31.8122 33.2329 31.8122H32.7681V31.0321H33.2694V31.2147C33.2694 31.2612 33.2794 31.2944 33.3026 31.3143C33.3258 31.3342 33.3623 31.3442 33.4188 31.3442C33.4752 31.3442 33.5151 31.3342 33.535 31.3143C33.5582 31.2944 33.5682 31.2612 33.5682 31.2147V30.5773C33.5682 30.5308 33.5582 30.4976 33.535 30.4777C33.5118 30.4578 33.4752 30.4478 33.4188 30.4478C33.3623 30.4478 33.3225 30.4578 33.3026 30.4777C33.2794 30.4976 33.2694 30.5308 33.2694 30.5773V30.7599H32.7681V29.9731H33.8437V30.3682C33.8437 30.4147 33.8536 30.4478 33.8769 30.4678C33.9001 30.4877 33.9367 30.4976 33.9931 30.4976C34.0495 30.4976 34.0894 30.4877 34.1093 30.4678C34.1325 30.4478 34.1425 30.4147 34.1425 30.3682V29.837C34.1425 29.7872 34.1325 29.7507 34.1126 29.7308C34.0927 29.7109 34.0595 29.7009 34.0163 29.7009H32.2005C32.154 29.7009 32.1241 29.7109 32.1042 29.7308C32.0843 29.7507 32.0743 29.7872 32.0743 29.837C32.0743 29.8868 32.0843 29.9233 32.1042 29.9433C32.1241 29.9632 32.1573 29.9731 32.2005 29.9731H32.466V31.8122H32.2005Z" fill="#E1505F"/>
  <path d="M36.1542 30.6403C36.1276 30.6868 36.0911 30.7332 36.0513 30.783C36.0082 30.8328 35.9584 30.8859 35.8986 30.949L35.0156 31.8453C34.9957 31.8686 34.9857 31.9051 34.9857 31.9549C34.9857 32.0047 34.9957 32.0412 35.0156 32.0611C35.0355 32.081 35.0687 32.091 35.1119 32.091H36.5061C36.5526 32.091 36.5825 32.081 36.6024 32.0611C36.6223 32.0412 36.6322 32.0047 36.6322 31.9549V31.5266C36.6322 31.4801 36.6223 31.447 36.5991 31.427C36.5758 31.4071 36.5393 31.3972 36.4829 31.3972C36.4264 31.3972 36.3866 31.4071 36.3667 31.427C36.3434 31.447 36.3335 31.4801 36.3335 31.5266V31.8188H35.4604L36.1343 31.1349C36.1974 31.0685 36.2571 31.0054 36.3069 30.9457C36.3567 30.8859 36.4032 30.8229 36.4397 30.7631C36.4762 30.7034 36.5028 30.6403 36.5227 30.5739C36.5426 30.5075 36.5526 30.4411 36.5526 30.3681C36.5526 30.2552 36.5326 30.1589 36.4961 30.0693C36.4596 29.983 36.4065 29.91 36.3368 29.8469C36.2671 29.7871 36.1874 29.7407 36.0911 29.7108C35.9949 29.6809 35.8887 29.6643 35.7725 29.6643C35.6496 29.6643 35.5301 29.6842 35.4172 29.7241C35.3044 29.7639 35.2015 29.8203 35.1052 29.89C35.0753 29.91 35.0587 29.9498 35.0587 29.9996V30.295C35.0587 30.3415 35.0687 30.3747 35.0919 30.3946C35.1152 30.4145 35.1517 30.4245 35.2081 30.4245C35.2645 30.4245 35.3044 30.4145 35.3243 30.3946C35.3475 30.3747 35.3575 30.3415 35.3575 30.295V30.0726C35.4139 30.0394 35.477 30.0129 35.5467 29.993C35.6164 29.973 35.6895 29.9631 35.7725 29.9631C35.9219 29.9631 36.0347 29.9996 36.1144 30.0726C36.1907 30.1457 36.2306 30.2452 36.2306 30.3681C36.2306 30.4179 36.2239 30.4677 36.2106 30.5108C36.1974 30.554 36.1775 30.6004 36.1509 30.6469L36.1542 30.6403Z" fill="#E1505F"/>
  <path d="M41.5884 29.7473C41.4822 29.6876 41.366 29.6577 41.2332 29.6577C41.1004 29.6577 40.9843 29.6876 40.878 29.7473C40.7718 29.8071 40.6822 29.8901 40.6091 29.9996C40.5361 30.1092 40.4763 30.2387 40.4365 30.3914C40.3967 30.5441 40.3768 30.7134 40.3768 30.8993C40.3768 31.0852 40.3967 31.2545 40.4365 31.4072C40.4763 31.5599 40.5328 31.6893 40.6091 31.7956C40.6822 31.9018 40.7718 31.9881 40.878 32.0445C40.9843 32.101 41.1004 32.1342 41.2332 32.1342C41.366 32.1342 41.4822 32.1043 41.5884 32.0445C41.6947 31.9848 41.7843 31.9018 41.8573 31.7956C41.9303 31.6893 41.9901 31.5565 42.0299 31.4072C42.0698 31.2545 42.0897 31.0852 42.0897 30.8993C42.0897 30.7134 42.0698 30.5441 42.0299 30.3914C41.9901 30.2387 41.9337 30.1092 41.8573 29.9996C41.7843 29.8901 41.6947 29.8071 41.5884 29.7473ZM41.7345 31.2943C41.7079 31.4105 41.6714 31.5101 41.6216 31.5897C41.5752 31.6694 41.5187 31.7292 41.4523 31.7723C41.3859 31.8155 41.3129 31.8354 41.2365 31.8354C41.1602 31.8354 41.0838 31.8155 41.0208 31.7723C40.9544 31.7325 40.8979 31.6694 40.8515 31.5897C40.805 31.5101 40.7652 31.4105 40.7386 31.2943C40.712 31.1781 40.6988 31.0453 40.6988 30.8959C40.6988 30.7466 40.712 30.6138 40.7386 30.4976C40.7652 30.3814 40.8017 30.2818 40.8515 30.2021C40.8979 30.1225 40.9544 30.0627 41.0208 30.0196C41.0872 29.9797 41.1602 29.9565 41.2365 29.9565C41.3129 29.9565 41.3893 29.9764 41.4523 30.0196C41.5187 30.0627 41.5752 30.1225 41.6216 30.2021C41.6681 30.2818 41.7046 30.3814 41.7345 30.4976C41.761 30.6138 41.7743 30.7466 41.7743 30.8959C41.7743 31.0453 41.761 31.1781 41.7345 31.2943Z" fill="#E1505F"/>
  <path d="M43.3014 31.8121C43.2549 31.8121 43.2251 31.8221 43.2051 31.842C43.1852 31.8619 43.1752 31.8984 43.1752 31.9482C43.1752 31.998 43.1852 32.0345 43.2051 32.0544C43.2251 32.0744 43.2582 32.0843 43.3014 32.0843H44.6558C44.7023 32.0843 44.7321 32.0744 44.7521 32.0544C44.772 32.0345 44.782 31.998 44.782 31.9482C44.782 31.8984 44.772 31.8619 44.7521 31.842C44.7321 31.8221 44.699 31.8121 44.6558 31.8121H44.1446V29.7838C44.1446 29.734 44.1313 29.6975 44.1014 29.6709C44.0715 29.6477 44.035 29.6444 43.9919 29.6577L43.2582 29.9199C43.225 29.9299 43.2051 29.9498 43.1918 29.9797C43.1786 30.0062 43.1819 30.0461 43.1985 30.0959C43.2151 30.1457 43.235 30.1755 43.2615 30.1888C43.2881 30.2021 43.3147 30.2021 43.3445 30.1888L43.8425 30.0095V31.8088H43.3014V31.8121Z" fill="#E1505F"/>
  <path d="M46.8102 31.5498C46.714 31.6328 46.5978 31.6959 46.4617 31.7457C46.3256 31.7955 46.1629 31.822 45.9803 31.832C45.9538 31.832 45.9338 31.8453 45.9206 31.8685C45.9073 31.8917 45.904 31.9349 45.9073 31.9946C45.9139 32.0511 45.9272 32.0876 45.9471 32.1042C45.967 32.1208 45.9936 32.1307 46.0235 32.1307C46.1994 32.1241 46.3554 32.0976 46.4949 32.0544C46.6343 32.0112 46.7571 31.9581 46.8633 31.8884C46.9696 31.822 47.0592 31.7424 47.1356 31.6527C47.2119 31.5631 47.2717 31.4701 47.3214 31.3672C47.3712 31.2676 47.4045 31.1614 47.4277 31.0519C47.4509 30.9423 47.4609 30.8361 47.4609 30.7265C47.4609 30.5805 47.4476 30.451 47.4211 30.3415C47.3945 30.2319 47.358 30.1323 47.3049 30.046C47.265 29.9796 47.2219 29.9232 47.1721 29.8734C47.1223 29.8236 47.0658 29.7838 47.0061 29.7506C46.9463 29.7174 46.8833 29.6941 46.8136 29.6775C46.7472 29.6609 46.6775 29.6543 46.6044 29.6543C46.4783 29.6543 46.3687 29.6742 46.2658 29.7107C46.1662 29.7472 46.0799 29.8004 46.0069 29.8668C45.9338 29.9331 45.8807 30.0128 45.8409 30.1058C45.8011 30.1987 45.7811 30.2983 45.7811 30.4079C45.7811 30.524 45.8011 30.627 45.8409 30.7199C45.8807 30.8129 45.9338 30.8925 46.0036 30.9589C46.0733 31.0253 46.1563 31.0751 46.2492 31.1116C46.3455 31.1481 46.4484 31.1647 46.558 31.1647C46.6675 31.1647 46.7804 31.1415 46.8833 31.0917C46.9829 31.0419 47.0692 30.9722 47.1422 30.8792C47.1223 31.0154 47.0858 31.1415 47.0326 31.251C46.9795 31.3639 46.9032 31.4602 46.8102 31.5432V31.5498ZM47.0758 30.617C47.0492 30.6701 47.0161 30.7166 46.9696 30.7531C46.9231 30.7896 46.87 30.8195 46.8069 30.8427C46.7439 30.8626 46.6741 30.8726 46.6011 30.8726C46.5214 30.8726 46.4517 30.8626 46.3886 30.8394C46.3256 30.8162 46.2725 30.7863 46.2293 30.7465C46.1862 30.7066 46.1529 30.6568 46.1297 30.6004C46.1065 30.544 46.0932 30.4809 46.0932 30.4112C46.0932 30.3415 46.1065 30.2817 46.1297 30.2253C46.1529 30.1688 46.1895 30.119 46.2326 30.0792C46.2758 30.0394 46.3289 30.0095 46.392 29.9863C46.455 29.9663 46.5248 29.9531 46.6011 29.9531C46.6775 29.9531 46.7505 29.9663 46.8102 29.9896C46.8733 30.0128 46.9264 30.046 46.9696 30.0892C47.0127 30.1323 47.0492 30.1821 47.0725 30.2419C47.0957 30.3016 47.109 30.368 47.109 30.4377C47.109 30.5008 47.0957 30.5606 47.0725 30.6137L47.0758 30.617Z" fill="#E1505F"/>
  <path d="M29.5049 60.318C29.4585 60.318 29.4252 60.3279 29.4086 60.3479C29.3887 60.3678 29.3788 60.4043 29.3788 60.4541C29.3788 60.5039 29.3887 60.5404 29.4086 60.5603C29.4286 60.5802 29.4618 60.5902 29.5049 60.5902H30.451C30.6104 60.5902 30.7531 60.5636 30.8826 60.5105C31.0121 60.4574 31.1249 60.3777 31.2146 60.2748C31.3075 60.1719 31.3772 60.0491 31.4303 59.8997C31.4801 59.7536 31.5066 59.5877 31.5066 59.3984C31.5066 59.2092 31.4801 59.0466 31.4303 58.8972C31.3805 58.7511 31.3075 58.625 31.2146 58.5221C31.1216 58.4191 31.0121 58.3428 30.8826 58.2864C30.7531 58.2299 30.6104 58.2034 30.451 58.2034H29.5049C29.4585 58.2034 29.4252 58.2133 29.4086 58.2332C29.3987 58.2432 29.3921 58.2598 29.3854 58.2797C29.4219 58.3395 29.4518 58.4059 29.475 58.4723C29.485 58.4723 29.4917 58.4756 29.5049 58.4756H29.7306V60.3147H29.5049V60.318ZM30.0294 58.4789H30.4045C30.524 58.4789 30.6303 58.4988 30.7265 58.5387C30.8228 58.5785 30.9058 58.6382 30.9722 58.7146C31.0419 58.7909 31.095 58.8872 31.1316 59.0034C31.1681 59.1163 31.188 59.2491 31.188 59.3984C31.188 59.5478 31.1681 59.6806 31.1316 59.7935C31.095 59.9063 31.0419 60.0026 30.9722 60.079C30.9025 60.1553 30.8228 60.2151 30.7265 60.2549C30.6303 60.2947 30.5207 60.3147 30.4045 60.3147H30.0294V58.4756V58.4789Z" fill="#E1505F"/>
  <path d="M32.6652 59.3652C32.788 59.3785 32.881 59.4283 32.9606 59.498H33.2096V59.6806C33.2096 59.727 33.2196 59.7602 33.2428 59.7801C33.2661 59.8001 33.3026 59.81 33.359 59.81C33.4154 59.81 33.4553 59.8001 33.4752 59.7801C33.4984 59.7602 33.5084 59.727 33.5084 59.6806V59.0432C33.5084 58.9967 33.4984 58.9635 33.4752 58.9436C33.452 58.9237 33.4154 58.9137 33.359 58.9137C33.3026 58.9137 33.2628 58.9237 33.2428 58.9436C33.2196 58.9635 33.2096 58.9967 33.2096 59.0432V59.2258H32.7084V58.4822H33.7839V58.8573C33.7839 58.9038 33.7939 58.937 33.8171 58.9569C33.8171 58.9569 33.8238 58.9569 33.8238 58.9602C33.847 58.9436 33.8669 58.927 33.8935 58.9137C33.9532 58.8838 34.0196 58.8639 34.086 58.844V58.3461C34.086 58.2963 34.076 58.2598 34.0561 58.2398C34.0362 58.2199 34.003 58.21 33.9598 58.21H32.2038C32.1573 58.21 32.1274 58.2199 32.1075 58.2398C32.0876 58.2598 32.0776 58.2963 32.0776 58.3461C32.0776 58.3959 32.0876 58.4324 32.1075 58.4523C32.1274 58.4722 32.1606 58.4822 32.2038 58.4822H32.4096V59.2092C32.4959 59.2623 32.5822 59.322 32.6685 59.3685L32.6652 59.3652Z" fill="#E1505F"/>
  <path d="M35.2214 60.0822V60.3146H35.0322C34.9724 60.4009 34.916 60.4905 34.8662 60.5835C34.8762 60.5835 34.8828 60.5868 34.8961 60.5868H36.0048C36.0513 60.5868 36.0812 60.5768 36.1011 60.5569C36.121 60.537 36.131 60.5005 36.131 60.4507C36.131 60.4009 36.121 60.3644 36.1011 60.3445C36.0812 60.3245 36.048 60.3146 36.0048 60.3146H35.5235V59.7834C35.4173 59.8764 35.3143 59.976 35.2214 60.0789V60.0822Z" fill="#E1505F"/>
  <path d="M36.3069 58.293C36.5924 58.3793 36.7517 58.771 36.5525 58.9702C36.5426 58.9801 36.5326 58.9868 36.5227 58.9967C36.516 59.1328 36.4695 59.2424 36.3799 59.322C36.287 59.405 36.1475 59.4482 35.965 59.4482C35.9417 59.4648 35.9185 59.4847 35.8953 59.5013C35.7924 59.571 35.6961 59.6474 35.6031 59.7237H35.9948C36.1309 59.7237 36.2505 59.7071 36.3567 59.6706C36.4629 59.6341 36.5492 59.5843 36.6222 59.5179C36.6953 59.4515 36.7484 59.3718 36.7882 59.2789C36.8247 59.1859 36.8447 59.083 36.8447 58.9702C36.8447 58.8573 36.8247 58.7544 36.7882 58.6614C36.7517 58.5685 36.6953 58.4888 36.6222 58.4224C36.5492 58.356 36.4629 58.3029 36.3567 58.2664C36.2505 58.2299 36.1309 58.21 35.9948 58.21H34.896C34.8496 58.21 34.8197 58.2199 34.7998 58.2398C34.7798 58.2598 34.7699 58.2963 34.7699 58.3461C34.7699 58.3959 34.7798 58.4324 34.7998 58.4523C34.8197 58.4722 34.8529 58.4822 34.896 58.4822H35.145C35.301 58.4257 35.4538 58.366 35.6098 58.3129C35.8355 58.2332 36.0679 58.2266 36.3036 58.2963L36.3069 58.293Z" fill="#E1505F"/>
  <path d="M38.8165 60.3478C38.7966 60.3677 38.7867 60.4042 38.7867 60.454C38.7867 60.5038 38.7966 60.5403 38.8165 60.5603C38.8364 60.5802 38.8697 60.5901 38.9128 60.5901H39.6232C39.6697 60.5901 39.6996 60.5802 39.7195 60.5603C39.7394 60.5403 39.7494 60.5038 39.7494 60.454C39.7494 60.4042 39.7394 60.3677 39.7195 60.3478C39.6996 60.3279 39.6664 60.3179 39.6232 60.3179H39.5004L38.79 58.3394C38.7734 58.293 38.7502 58.2598 38.717 58.2398C38.6838 58.2199 38.6406 58.21 38.5875 58.21H37.8505C37.8041 58.21 37.7742 58.2199 37.7543 58.2398C37.7343 58.2598 37.7244 58.2963 37.7244 58.3461C37.7244 58.3959 37.7343 58.4324 37.7543 58.4523C37.7742 58.4722 37.8074 58.4822 37.8505 58.4822H38.2257L37.5617 60.3213H37.4488C37.4024 60.3213 37.3725 60.3312 37.3526 60.3511C37.3327 60.371 37.3227 60.4076 37.3227 60.4574C37.3227 60.5072 37.3327 60.5437 37.3526 60.5636C37.3725 60.5835 37.4057 60.5935 37.4488 60.5935H38.1194C38.1659 60.5935 38.1958 60.5835 38.2157 60.5636C38.2356 60.5437 38.2456 60.5072 38.2456 60.4574C38.2456 60.4076 38.2356 60.371 38.2157 60.3511C38.1958 60.3312 38.1626 60.3213 38.1194 60.3213H37.8771L38.0431 59.8432H39.0157L39.1817 60.3213H38.9095C38.863 60.3213 38.8331 60.3312 38.8132 60.3511L38.8165 60.3478ZM38.1427 59.5644L38.5178 58.4789H38.5543L38.9294 59.5644H38.1427Z" fill="#E1505F"/>
  <path d="M40.961 59.5544C41.0241 59.5544 41.0772 59.5577 41.127 59.5643C41.1768 59.571 41.2233 59.5842 41.2664 59.6008C41.3096 59.6174 41.3494 59.6407 41.3859 59.6705C41.4224 59.7004 41.459 59.7369 41.4922 59.7801C41.5187 59.8166 41.5486 59.8565 41.5752 59.8963C41.6017 59.9394 41.6283 59.9826 41.6548 60.0291C41.6814 60.0755 41.7046 60.122 41.7312 60.1685C41.7577 60.215 41.781 60.2614 41.8108 60.3046C41.8739 60.4075 41.937 60.4805 41.9934 60.5237C42.0499 60.5635 42.1063 60.5835 42.1661 60.5835H42.3055C42.3519 60.5835 42.3818 60.5735 42.4017 60.5536C42.4217 60.5337 42.4316 60.4971 42.4316 60.4473C42.4316 60.3976 42.4217 60.361 42.4017 60.3411C42.3818 60.3212 42.3486 60.3112 42.3055 60.3112H42.269C42.2291 60.3112 42.1893 60.2946 42.1561 60.2648C42.1229 60.2316 42.0897 60.1884 42.0565 60.1353C42.0333 60.0988 42.01 60.0556 41.9868 60.0125C41.9636 59.9693 41.937 59.9228 41.9104 59.8797C41.8839 59.8365 41.8573 59.7901 41.8275 59.7469C41.7976 59.7037 41.7644 59.6606 41.7312 59.6241C41.7046 59.5942 41.6747 59.5676 41.6482 59.5444C41.6183 59.5212 41.5851 59.5012 41.5519 59.4847C41.6349 59.4647 41.7113 59.4382 41.781 59.4017C41.8507 59.3651 41.9071 59.322 41.9569 59.2689C42.0067 59.2191 42.0432 59.1593 42.0698 59.0929C42.0963 59.0265 42.1096 58.9568 42.1096 58.8772C42.1096 58.7776 42.093 58.6846 42.0565 58.6016C42.02 58.5186 41.9702 58.4456 41.9038 58.3892C41.8374 58.3294 41.7544 58.2829 41.6548 58.2497C41.5552 58.2165 41.4424 58.2 41.3129 58.2H40.2971C40.2506 58.2 40.2207 58.2099 40.2008 58.2298C40.1809 58.2497 40.171 58.2863 40.171 58.3361C40.171 58.3859 40.1809 58.4224 40.2008 58.4423C40.2207 58.4622 40.254 58.4722 40.2971 58.4722H40.5428V60.3112H40.2971C40.2506 60.3112 40.2207 60.3212 40.2008 60.3411C40.1809 60.361 40.171 60.3976 40.171 60.4473C40.171 60.4971 40.1809 60.5337 40.2008 60.5536C40.2207 60.5735 40.254 60.5835 40.2971 60.5835H41.1038C41.1502 60.5835 41.1834 60.5735 41.2 60.5536C41.22 60.5337 41.2299 60.4971 41.2299 60.4473C41.2299 60.3976 41.22 60.361 41.2 60.3411C41.1801 60.3212 41.1469 60.3112 41.1038 60.3112H40.8415V59.551H40.9644L40.961 59.5544ZM40.8349 58.4788H41.2631C41.4291 58.4788 41.5586 58.5153 41.6482 58.5817C41.7378 58.6514 41.7843 58.751 41.7843 58.8805C41.7843 58.9502 41.771 59.0133 41.7478 59.0631C41.7212 59.1128 41.6847 59.156 41.6382 59.1859C41.5917 59.2191 41.5353 59.2423 41.4689 59.2556C41.4025 59.2689 41.3262 59.2788 41.2432 59.2788H40.8349V58.4755V58.4788Z" fill="#E1505F"/>
  <path d="M44.6525 59.1991C44.6757 59.219 44.7122 59.229 44.7687 59.229C44.8251 59.229 44.8649 59.219 44.8849 59.1991C44.9081 59.1792 44.918 59.146 44.918 59.0995V58.3426C44.918 58.2928 44.9081 58.2563 44.8882 58.2364C44.8683 58.2165 44.835 58.2065 44.7919 58.2065H43.069C43.0225 58.2065 42.9893 58.2165 42.9727 58.2364C42.9528 58.2563 42.9429 58.2928 42.9429 58.3426V59.0995C42.9429 59.146 42.9528 59.1792 42.9761 59.1991C42.9993 59.219 43.0358 59.229 43.0922 59.229C43.1487 59.229 43.1885 59.219 43.2084 59.1991C43.2317 59.1792 43.2416 59.146 43.2416 59.0995V58.4788H43.7794V60.3178H43.3047C43.2582 60.3178 43.2283 60.3278 43.2084 60.3477C43.1885 60.3676 43.1786 60.4041 43.1786 60.4539C43.1786 60.5037 43.1885 60.5402 43.2084 60.5602C43.2283 60.5801 43.2615 60.59 43.3047 60.59H44.5529C44.5994 60.59 44.6293 60.5801 44.6492 60.5602C44.6691 60.5402 44.679 60.5037 44.679 60.4539C44.679 60.4041 44.6691 60.3676 44.6492 60.3477C44.6293 60.3278 44.596 60.3178 44.5529 60.3178H44.0782V58.4788H44.616V59.0995C44.616 59.146 44.6259 59.1792 44.6492 59.1991H44.6525Z" fill="#E1505F"/>
  <path d="M45.6816 60.3178C45.6351 60.3178 45.6052 60.3278 45.5853 60.3477C45.5654 60.3676 45.5554 60.4041 45.5554 60.4539C45.5554 60.5037 45.5654 60.5402 45.5853 60.5602C45.6052 60.5801 45.6384 60.59 45.6816 60.59H47.4775C47.524 60.59 47.5538 60.5801 47.5737 60.5602C47.5937 60.5402 47.6037 60.5037 47.6037 60.4539V59.8564C47.6037 59.8099 47.5937 59.7767 47.5704 59.7568C47.5472 59.7369 47.5107 59.7269 47.4542 59.7269C47.3978 59.7269 47.358 59.7369 47.3381 59.7568C47.3148 59.7767 47.3049 59.8099 47.3049 59.8564V60.3145H46.1895V59.4946H46.6908V59.6771C46.6908 59.7236 46.7007 59.7568 46.7239 59.7767C46.7472 59.7966 46.7837 59.8066 46.8401 59.8066C46.8966 59.8066 46.9364 59.7966 46.9563 59.7767C46.9795 59.7568 46.9895 59.7236 46.9895 59.6771V59.0398C46.9895 58.9933 46.9795 58.9601 46.9563 58.9402C46.9331 58.9203 46.8966 58.9103 46.8401 58.9103C46.7837 58.9103 46.7439 58.9203 46.7239 58.9402C46.7007 58.9601 46.6908 58.9933 46.6908 59.0398V59.2224H46.1895V58.4788H47.265V58.5817C47.3447 58.5385 47.4443 58.5153 47.5671 58.5086V58.3426C47.5671 58.2928 47.5572 58.2563 47.5372 58.2364C47.5173 58.2165 47.4841 58.2065 47.441 58.2065H45.6849C45.6384 58.2065 45.6085 58.2165 45.5886 58.2364C45.5687 58.2563 45.5587 58.2928 45.5587 58.3426C45.5587 58.3924 45.5687 58.429 45.5886 58.4489C45.6085 58.4688 45.6417 58.4788 45.6849 58.4788H45.8907V60.3178H45.6849H45.6816Z" fill="#E1505F"/>
  <path d="M49.7581 60.5105C49.8875 60.4574 50.0004 60.3777 50.09 60.2748C50.183 60.1719 50.2527 60.0491 50.3058 59.8997C50.3556 59.7536 50.3822 59.5877 50.3822 59.3984C50.3822 59.2092 50.3556 59.0466 50.3058 58.8972C50.256 58.7478 50.183 58.625 50.09 58.5221C49.9971 58.4191 49.8875 58.3428 49.7581 58.2864C49.6286 58.2299 49.4859 58.2034 49.3265 58.2034H48.3804C48.3339 58.2034 48.3041 58.2133 48.2841 58.2332C48.2642 58.2532 48.2543 58.2897 48.2543 58.3395C48.2543 58.3893 48.2642 58.4258 48.2841 58.4457C48.3041 58.4656 48.3373 58.4756 48.3804 58.4756H48.6061V60.3147H48.3804C48.3339 60.3147 48.3041 60.3246 48.2841 60.3445C48.2642 60.3645 48.2543 60.401 48.2543 60.4508C48.2543 60.5006 48.2642 60.5371 48.2841 60.557C48.3041 60.5769 48.3373 60.5869 48.3804 60.5869H49.3265C49.4859 60.5869 49.6286 60.5603 49.7581 60.5072V60.5105ZM48.9049 60.318V58.4789H49.28C49.3995 58.4789 49.5058 58.4988 49.602 58.5387C49.6983 58.5785 49.7813 58.6382 49.8477 58.7146C49.9174 58.7909 49.9705 58.8872 50.0071 59.0034C50.0436 59.1163 50.0635 59.2491 50.0635 59.3984C50.0635 59.5478 50.0436 59.6806 50.0071 59.7935C49.9705 59.9063 49.9174 60.0026 49.8477 60.079C49.778 60.1553 49.6983 60.2151 49.602 60.2549C49.5058 60.2947 49.3962 60.3147 49.28 60.3147H48.9049V60.318Z" fill="#E1505F"/>
  <path d="M32.9541 56.1319C32.7018 56.1319 32.5059 55.8862 32.5059 55.4912H32.1508C32.1508 56.0755 32.4695 56.4307 32.9541 56.4307C33.4388 56.4307 33.7541 56.0755 33.7541 55.4447C33.7541 54.814 33.4521 54.5152 33.0769 54.5152C32.8313 54.5152 32.662 54.6447 32.5724 54.7376L32.6255 53.8646H33.6346V53.5127H32.33L32.2337 55.1028L32.5591 55.1559C32.6421 54.9601 32.8014 54.824 32.984 54.824C33.2263 54.824 33.3989 55.0464 33.3989 55.4447C33.3989 55.9095 33.2097 56.1319 32.9541 56.1319Z" fill="#E1505F"/>
  <path d="M35.228 53.7683C35.4703 53.7683 35.5932 53.9974 35.5932 54.3957H35.9417C35.9417 53.8646 35.7359 53.4629 35.2479 53.4629C34.7599 53.4629 34.4446 53.8347 34.4446 55.0298C34.4446 56.092 34.7533 56.4306 35.2678 56.4306C35.6994 56.4306 36.0181 56.0754 36.0181 55.5011C36.0181 54.9866 35.789 54.5783 35.3044 54.5783C35.0952 54.5783 34.9193 54.6812 34.7998 54.8505C34.8031 54.1866 34.8861 53.7683 35.2347 53.7683H35.228ZM35.2446 54.8804C35.5334 54.8804 35.6629 55.1592 35.6629 55.5045C35.6629 55.8497 35.5334 56.1286 35.2446 56.1286C34.9558 56.1286 34.823 55.8497 34.823 55.5045C34.823 55.1592 34.9558 54.8804 35.2446 54.8804Z" fill="#E1505F"/>
  <path d="M36.7053 53.8646H37.907C37.5352 54.4621 37.0671 55.3949 37.0671 56.3809H37.4555C37.4522 56.2813 37.4522 56.2481 37.4522 56.1684C37.4522 55.2389 37.9468 54.3293 38.3385 53.7351V53.5127H36.7086V53.8646H36.7053Z" fill="#E1505F"/>
  <path d="M40.224 54.9103C40.3303 54.8405 40.4067 54.7443 40.4598 54.6314C40.4531 54.5783 40.4498 54.5252 40.4598 54.4721C40.1942 54.2463 40.1975 53.9276 40.1643 53.6189C40.1245 53.5791 40.0813 53.5392 40.0415 53.4994C39.9718 53.4795 39.8954 53.4629 39.8091 53.4629C39.3277 53.4629 39.0821 53.8214 39.0821 54.2629C39.0821 54.5351 39.185 54.7741 39.3908 54.9103C39.1319 55.0397 39.0223 55.2854 39.0223 55.5974C39.0223 56.0589 39.2514 56.434 39.8091 56.434C40.3668 56.434 40.5958 56.0589 40.5958 55.5974C40.5958 55.5111 40.5859 55.4314 40.5693 55.3584C40.5295 55.2987 40.5029 55.2323 40.4896 55.1592C40.4299 55.0563 40.3436 54.97 40.224 54.9103ZM39.8091 53.7683C40.0448 53.7683 40.1975 53.9575 40.1975 54.2662C40.1975 54.575 40.0415 54.7642 39.8091 54.7642C39.5767 54.7642 39.424 54.575 39.424 54.2662C39.424 53.9575 39.5734 53.7683 39.8091 53.7683ZM39.8091 56.1252C39.5236 56.1252 39.3742 55.9194 39.3742 55.5941C39.3742 55.2688 39.5236 55.0663 39.8091 55.0663C40.0946 55.0663 40.244 55.2655 40.244 55.5941C40.244 55.9227 40.0946 56.1252 39.8091 56.1252Z" fill="#E1505F"/>
  <path d="M42.8864 54.9468C42.8864 53.7816 42.591 53.4629 42.0997 53.4629C41.7246 53.4629 41.4656 53.6488 41.3627 54.253C41.3627 54.316 41.3627 54.3791 41.3627 54.4422C41.4623 54.6115 41.5652 54.7775 41.6648 54.9468V54.8007C41.6648 54.2032 41.7578 53.7683 42.0997 53.7683C42.4416 53.7683 42.5346 54.2032 42.5346 54.8007V55.0928C42.5346 55.6904 42.4416 56.1252 42.0997 56.1252C42.0366 56.1252 41.9835 56.1053 41.9337 56.0754C41.7943 56.1518 41.6449 56.1418 41.4988 56.0854C41.635 56.341 41.8374 56.4306 42.0997 56.4306C42.5877 56.4306 42.8864 56.112 42.8864 54.9468Z" fill="#E1505F"/>
  <path d="M45.2068 55.4447C45.2068 54.814 44.9048 54.5152 44.5296 54.5152C44.284 54.5152 44.1147 54.6447 44.0251 54.7376L44.0782 53.8646H45.0873V53.5127H43.7827L43.6864 55.1028L44.0118 55.1559C44.0948 54.9601 44.2541 54.824 44.4367 54.824C44.679 54.824 44.8516 55.0464 44.8516 55.4447C44.8516 55.9095 44.6624 56.1319 44.4068 56.1319C44.1512 56.1319 43.9586 55.8862 43.9586 55.4912H43.6035C43.6035 56.0755 43.9222 56.4307 44.4068 56.4307C44.8915 56.4307 45.2068 56.0755 45.2068 55.4447Z" fill="#E1505F"/>
  <path d="M46.9198 56.2214V56.3808H47.1621C47.0625 56.3509 46.9796 56.2945 46.9198 56.2214Z" fill="#E1505F"/>
  <path d="M46.5579 53.4629C46.3919 54.1169 46.1131 54.8173 45.8143 55.365V55.6738H46.9231V55.687C47.026 55.4912 47.1422 55.2987 47.265 55.1161V53.8878H47.099C47.0459 54.1102 47.0061 54.2596 46.9231 54.4654V55.3684H46.1363C46.2957 55.1393 46.7471 54.2297 46.9065 53.4629H46.5579Z" fill="#E1505F"/>
  <path d="M40.2141 37.6016C40.2141 37.5651 40.2141 37.5286 40.2141 37.4954H36.5957V37.6447H40.224C40.224 37.6447 40.2141 37.6182 40.2141 37.6016Z" fill="#E1505F"/>
  <path d="M43.0955 36.5758C43.0989 36.5293 43.1155 36.4894 43.1221 36.4463H36.5957V36.5957H43.0922C43.0922 36.5957 43.0922 36.5824 43.0922 36.5758H43.0955Z" fill="#E1505F"/>
  <path d="M29.8602 47.368V40.6457C29.8602 39.4241 30.5938 38.3718 31.6428 37.9037V36.6223C29.9166 37.1468 28.6584 38.7502 28.6584 40.6424V47.3647C28.6584 49.2569 29.9166 50.8636 31.6428 51.3848V50.1034C30.5938 49.6353 29.8602 48.583 29.8602 47.3613V47.368Z" fill="#E1505F"/>
  <path d="M40.8647 37.4954C40.8647 37.4954 40.8747 37.5153 40.878 37.5286C40.8847 37.5717 40.878 37.6082 40.8747 37.6447H43.6665V37.502C43.6665 37.502 43.6532 37.4954 43.6466 37.4954H40.8681H40.8647Z" fill="#E1505F"/>
  <path d="M43.6665 50.3689H36.5957V51.5706H43.6665V50.3689Z" fill="#E1505F"/>
  <path d="M49.8477 39.3511C49.9738 39.1884 50.1996 39.1054 50.4519 39.1685C50.8071 39.2581 51.0428 39.5237 51.0594 39.849C51.066 40.1411 50.9598 40.4001 50.8005 40.6358C50.671 40.825 50.3523 40.825 50.193 40.649C50.173 40.6291 50.1598 40.6059 50.1432 40.586C50.1432 40.6059 50.1432 40.6291 50.1432 40.649V47.3713C50.1432 48.6261 49.3697 49.7017 48.2742 50.1498V51.3648C48.3671 51.3184 48.4634 51.3084 48.5531 51.325C50.1764 50.7441 51.3415 49.1938 51.3415 47.3713V40.649C51.3415 38.7236 50.0402 37.1003 48.2709 36.6057V37.8705C48.9614 38.1527 49.5191 38.6838 49.8411 39.3544L49.8477 39.3511Z" fill="#E1505F"/>
  <path d="M34.7766 35.0755V35.4639C34.8297 35.2746 34.9757 35.1618 35.218 35.1817C35.4504 35.2016 35.5035 35.3742 35.54 35.5568C35.4869 35.8157 35.3508 35.9718 35.0687 35.9485C34.9027 35.9352 34.8131 35.8423 34.7766 35.7261V36.1444C34.7766 36.2473 34.7898 36.3469 34.8131 36.4432H35.7957C35.7226 36.3635 35.6795 36.2573 35.6795 36.1444V35.0755C35.6795 34.8265 35.882 34.624 36.1309 34.624H43.879C44.0616 34.624 44.2209 34.7335 44.2906 34.8929C44.3504 34.8331 44.4101 34.7734 44.4666 34.7136C44.533 34.6373 44.7587 34.7236 44.7687 34.8862C44.7919 35.2547 44.7819 35.6298 44.7852 35.9983C44.8118 36.1477 44.8384 36.2971 44.8649 36.4432H45.1969C45.2201 36.3469 45.2334 36.2473 45.2334 36.1444V35.0755C45.2334 34.3319 44.6259 33.7244 43.8823 33.7244H36.1343C35.3907 33.7244 34.7832 34.3319 34.7832 35.0755H34.7766Z" fill="#E1505F"/>
  <path d="M40.483 37.2231C40.6689 37.243 40.8216 37.3227 40.8648 37.4953H43.6433C43.6433 37.4953 43.6201 37.4854 43.6101 37.482C43.0358 37.2762 43.0125 37.2397 43.0922 36.5957H36.5957V37.4953H40.2141C40.2274 37.3526 40.2938 37.2364 40.483 37.2231Z" fill="#E1505F"/>
  <path d="M36.5957 37.6448V36.4431H31.6428V51.5707H36.5957V37.6448ZM32.8611 50.369H32.8445V37.6448H32.8611H35.394V38.0598C35.4438 38.0432 35.5003 38.0365 35.5633 38.0365C36.1509 38.0598 36.37 38.239 36.4331 38.7669C36.4563 38.9627 36.4331 39.1752 36.2671 39.2847C36.0878 39.4009 35.882 39.3146 35.7559 39.1652C35.6264 39.0158 35.5069 38.8565 35.394 38.6938V50.3657H32.8611V50.369Z" fill="#E1505F"/>
  <path d="M44.8715 36.516C45.23 36.9974 45.7247 37.3094 46.2027 37.6447H47.0758V50.3689H44.8649V37.9434C44.4765 37.7675 44.0582 37.658 43.6632 37.5019V51.5706H48.0717C48.0916 51.5208 48.1181 51.4743 48.148 51.4477C48.1912 51.4079 48.231 51.3813 48.2742 51.3614V36.4463H44.8549C44.8583 36.4695 44.8649 36.4928 44.8682 36.516H44.8715Z" fill="#E1505F"/>
</svg>