<svg xmlns="http://www.w3.org/2000/svg" width="80" height="91" viewBox="0 0 80 91" fill="none">
  <path d="M36.2058 89.3175C35.9864 88.8951 36.0861 88.4496 36.3787 88.1702C35.2614 88.0505 34.1608 87.8776 33.0734 87.6548C33.0036 87.8809 32.8839 88.0871 32.7309 88.2733C32.6711 88.3465 32.548 88.3997 32.4549 88.3997C32.0326 88.3997 31.4108 87.994 31.2977 87.6349C31.2512 87.4885 31.2478 87.3555 31.2644 87.2258C30.4797 87.0197 29.7049 86.7803 28.9401 86.5209C28.9401 86.5408 28.9367 86.5575 28.9367 86.5774C28.5843 87.4786 28.3249 87.6581 27.5933 87.4885C27.4903 87.4653 27.3938 87.4154 27.2941 87.3821C26.1136 87.0164 26.0371 86.9266 26.0138 85.7295C26.0138 85.6098 26.0072 85.49 26.0072 85.3703C20.5903 82.9562 15.7752 79.1853 11.8846 74.4301C11.8447 74.4135 11.8048 74.3969 11.7682 74.3736C11.6352 74.2938 11.4989 74.2007 11.3925 74.0843C11.2628 73.9413 11.1231 73.7817 11.1963 73.5655C9.19113 70.9784 7.45532 68.122 6.03209 65.0494C5.79932 65.1259 5.54992 65.116 5.28057 64.9962C4.64544 64.6637 4.52241 64.5174 4.79176 64.268C5.14757 63.9388 5.18748 63.5497 5.21075 63.1574C2.95288 57.6374 1.6926 51.4989 1.6926 45.0278C1.6926 43.3153 1.78236 41.6294 1.95528 39.9701C1.71585 39.8104 1.47979 39.6442 1.2437 39.4846C0.485531 39.1254 0.445601 39.0722 0.635143 38.63C0.831335 38.1711 1.08074 38.0647 1.51968 38.3107C1.69925 38.4105 1.82894 38.6 1.98523 38.7497C2.01849 38.7863 2.05171 38.8195 2.08497 38.8561C3.51817 27.5368 8.83202 17.6141 16.4503 10.877C16.437 10.877 16.427 10.8837 16.4137 10.8837C16.151 10.8937 15.885 10.8504 15.6189 10.8305C15.333 10.9702 15.0536 11.1198 14.7643 11.2462C14.6247 11.306 14.4218 11.3526 14.372 11.1464C14.3387 11.0167 14.3786 10.7773 14.465 10.7274C14.8275 10.5179 15.2199 10.3583 15.599 10.1821C15.7453 10.0291 15.8716 9.8462 16.0446 9.72982C16.2341 9.60013 16.447 9.63671 16.6232 9.80297C16.8294 9.99584 16.9358 10.2253 16.8726 10.5113C23.3037 4.98462 31.3177 1.69923 40 1.69923C44.1533 1.69923 48.1536 2.45407 51.9012 3.84404C51.9877 3.81411 52.0841 3.80081 52.1506 3.82077C52.4931 3.92385 52.7924 4.10009 53.0784 4.30293C53.4176 4.4426 53.7568 4.58891 54.0926 4.73855C54.3054 4.78178 54.4384 4.84163 54.5016 4.92809C68.4546 11.4091 78.3041 26.9415 78.3041 45.0312C78.3041 54.3187 75.707 62.9312 71.291 69.9908C71.7599 70.0307 72.1024 70.3732 72.0758 70.7789C72.0392 71.3077 71.5936 71.6967 70.9951 71.7133C70.7556 71.72 70.5462 71.5637 70.4231 71.3243C68.1087 74.7427 65.3587 77.7587 62.2629 80.2693C62.2862 80.3425 62.2994 80.4223 62.2895 80.4788C62.2363 80.808 62.0234 81.0541 61.7341 81.2137C61.508 81.3367 61.3052 81.2835 61.1356 81.1472C58.1162 83.4151 54.8009 85.2107 51.2661 86.4444C51.2295 86.5242 51.1896 86.6007 51.1431 86.6739C50.6409 87.4952 49.8296 87.7878 48.985 87.4353C48.8819 87.3921 48.7622 87.319 48.6857 87.2325C46.7104 87.7513 44.6754 88.0971 42.5971 88.2534C42.7367 89.2975 42.3743 89.7132 41.1905 89.8129C40.8247 89.8429 40.4822 89.936 40.143 90.0457C55.0836 89.9858 68.1187 80.6584 74.9422 66.9116C74.9356 66.9116 74.9322 66.9149 74.9289 66.9183C74.7893 66.9449 74.6063 66.905 74.4866 66.8251C74.194 66.6356 74.0577 66.3397 74.0976 65.9938C74.1209 65.7777 74.2106 65.5782 74.4534 65.5083C74.6895 65.4385 74.8791 65.5216 75.022 65.6979C75.1517 65.8575 75.2415 66.0371 75.2781 66.2299C78.2908 59.9085 80 52.686 80 45.0245C80 42.208 79.7672 39.4513 79.325 36.7745C79.0124 36.6414 79.0556 36.4519 79.2385 36.2723C75.6106 15.6222 59.3965 0 40 0C35.5009 0 31.1747 0.8413 27.1344 2.39089C27.0147 2.59706 26.772 2.70679 26.5192 2.68351C26.496 2.68351 26.4727 2.67354 26.4461 2.66689C25.8442 2.91296 25.2457 3.17233 24.6571 3.45166C24.9098 3.78086 25.0495 4.18322 25.0495 4.68202C25.0129 4.78843 24.9796 4.94804 24.9065 5.08105C24.7934 5.29055 24.5473 5.40693 24.3711 5.29387C23.9122 4.99792 23.4933 4.64211 23.2306 4.15662C9.52701 11.3093 0 26.9382 0 45.0278C0 50.3882 0.837979 55.5358 2.37427 60.3076C2.55716 60.2344 2.76669 60.2743 2.94958 60.2244C3.20895 60.1579 3.46498 60.0449 3.63789 60.3774C3.77423 60.6401 3.75094 60.8829 3.62458 61.1422C3.47162 61.4482 3.21227 61.5712 2.98948 61.3949C2.87642 61.3052 2.7567 61.2187 2.64696 61.1256C5.8725 70.5794 11.8547 78.5102 19.4763 83.6611C19.8055 83.6611 20.138 83.6611 20.4572 83.7143C20.8662 83.7842 21.0757 84.0967 21.1156 84.5124C21.1223 84.5789 21.1223 84.6454 21.1156 84.7119C21.2486 84.7917 21.385 84.8715 21.5213 84.9513C21.5978 84.6487 21.7441 84.3694 21.917 84.0967C22.193 83.6678 22.6353 83.6478 22.9812 84.0535C23.1175 84.2131 23.2937 84.3927 23.327 84.5822C23.4034 85.0578 23.4434 85.5333 23.44 86.0088C27.5368 88.117 32.0027 89.4638 36.698 89.8994C36.5018 89.7431 36.3255 89.5336 36.2125 89.3141L36.2058 89.3175ZM48.6923 2.42082C48.8253 2.17142 49.0481 2.07166 49.3275 2.12486C49.4538 2.14814 49.5137 2.26453 49.4372 2.32106C49.2443 2.46737 49.0315 2.58708 48.8154 2.72342C48.7522 2.57045 48.6691 2.46737 48.6957 2.42082H48.6923ZM39.1421 0.714939C39.1986 0.548674 39.3749 0.525397 39.5278 0.595228C39.6708 0.661734 39.7872 0.764818 39.7739 0.961011C39.6741 1.08405 39.5245 1.10067 39.3715 1.05412C39.2119 1.00424 39.0856 0.881204 39.1421 0.714939ZM36.6049 1.22038C36.7711 1.19046 36.9141 1.26361 36.9274 1.43985C36.9407 1.61609 36.8243 1.7225 36.6381 1.73913C36.4852 1.74911 36.3189 1.71585 36.3123 1.53629C36.3056 1.37002 36.4386 1.25031 36.6049 1.22038ZM0.472207 48.4263C0.522086 48.29 0.641795 48.1669 0.761506 48.0771C0.831337 48.0239 0.974323 48.004 1.0508 48.0406C1.21042 48.117 1.2304 48.2866 1.16057 48.4363C1.06746 48.6325 0.921123 48.7721 0.681702 48.7621C0.505461 48.7123 0.412351 48.5793 0.472207 48.4263ZM1.17051 52.7525C1.00425 52.7259 0.851303 52.676 0.901183 52.4566C0.951062 52.2437 1.02752 52.0243 1.25364 51.9644C1.42323 51.9212 1.5496 52.0542 1.5895 52.2205C1.66266 52.5397 1.50637 52.7259 1.17384 52.7492L1.17051 52.7525ZM1.63606 42.5472C1.57953 42.8464 1.3634 42.9761 1.06745 42.9495C0.751545 42.9196 0.422348 42.8631 0.369144 42.474C0.325915 42.1681 0.784781 41.8156 1.13394 41.8522C1.40661 41.8821 1.69259 42.2512 1.63939 42.5438L1.63606 42.5472Z" fill="#51B1E0"/>
  <path d="M39.8836 88.3631C39.8836 88.4728 39.9268 88.5859 40.01 88.6424C40.4522 88.9483 40.9311 88.9483 41.3733 88.7122C41.5329 88.6258 41.5196 88.4662 41.4199 88.3298C40.9477 88.3498 40.4755 88.3631 40 88.3631C39.9601 88.3631 39.9235 88.3631 39.8836 88.3631Z" fill="#51B1E0"/>
  <path d="M10.0258 33.0899C10.0557 33.1664 10.1355 33.2329 10.2685 33.2961C10.4015 33.3593 10.5046 33.3759 10.5811 33.3493C10.6576 33.3227 10.7241 33.2495 10.7773 33.1332L11.2362 32.1522L15.2165 36.1326L15.0802 36.4252C15.0237 36.5449 15.0104 36.6413 15.0403 36.7145C15.0703 36.791 15.1501 36.8575 15.2831 36.9207C15.4161 36.9838 15.5192 37.0005 15.5956 36.9739C15.6721 36.9473 15.7387 36.8741 15.7919 36.7577L16.6132 35.0086C16.6697 34.8889 16.683 34.7925 16.6531 34.7193C16.6232 34.6428 16.5434 34.5763 16.4104 34.5132C16.2773 34.45 16.1742 34.4333 16.0978 34.4599C16.0213 34.4866 15.9548 34.5597 15.9016 34.6761L15.6056 35.3112L15.5325 35.2414C15.4593 35.4176 15.313 35.5207 15.0769 35.5174C14.904 35.5174 14.7876 35.421 14.7676 35.2514C14.7444 35.0485 14.8741 34.8557 15.0403 34.7626L14.5615 34.2937L15.752 31.7532L16.417 31.823C16.4104 31.7698 16.427 31.7133 16.4735 31.6567C16.7994 31.2677 17.3481 31.2012 17.7405 31.5204C17.8136 31.5802 17.8336 31.7033 17.8801 31.7964C17.8435 31.8928 17.8336 32.0225 17.7637 32.079C17.5642 32.2387 17.2949 32.2885 17.0388 32.242L16.8659 32.6144C16.8094 32.7341 16.7961 32.8306 16.826 32.9037C16.8559 32.9802 16.9357 33.0467 17.0688 33.1099C17.2018 33.1731 17.3048 33.1897 17.3813 33.1631C17.4578 33.1365 17.5243 33.0633 17.5775 32.9469L18.4454 31.0914C18.502 30.9717 18.5153 30.8753 18.4853 30.8021C18.4554 30.7256 18.3756 30.6591 18.2426 30.596C18.1096 30.5328 18.0065 30.5161 17.93 30.5427C17.8535 30.5694 17.787 30.6425 17.7338 30.7589L17.5842 31.0781L11.5521 30.5062C11.4091 30.4895 11.2927 30.5128 11.1996 30.576C11.1065 30.6359 11.0267 30.7389 10.9635 30.8786L10.0623 32.8006C10.0058 32.9203 9.99251 33.0168 10.0224 33.0899H10.0258ZM11.6352 31.3042L14.9272 31.66L13.9662 33.7151L11.592 31.4073L11.6385 31.3076L11.6352 31.3042Z" fill="#51B1E0"/>
  <path d="M15.3895 26.8685C15.6389 27.2575 15.9714 27.62 16.3904 27.9558C16.8094 28.2917 17.235 28.5378 17.6673 28.6974C18.0996 28.857 18.5219 28.9302 18.9309 28.9169C19.3399 28.9036 19.7257 28.8038 20.0948 28.6176C20.4606 28.4314 20.7865 28.162 21.0724 27.8062C21.3584 27.4504 21.5513 27.0746 21.651 26.6756C21.7541 26.2766 21.7674 25.8775 21.6909 25.4752C21.6145 25.0728 21.4515 24.6771 21.2021 24.2914C20.9527 23.9023 20.6202 23.5399 20.2012 23.204C19.7822 22.8681 19.3566 22.6221 18.9243 22.4625C18.492 22.3028 18.0697 22.2297 17.6607 22.2397C17.2517 22.253 16.8626 22.3494 16.4968 22.5356C16.1311 22.7218 15.8052 22.9912 15.5192 23.347C15.2332 23.7028 15.0403 24.0786 14.9406 24.4776C14.8375 24.8766 14.8275 25.2757 14.904 25.678C14.9805 26.0804 15.1434 26.4761 15.3928 26.8652L15.3895 26.8685ZM15.7852 24.6838C15.8517 24.4011 15.9847 24.1351 16.1842 23.8857C16.1842 23.8857 16.1842 23.8857 16.1876 23.8824C16.2175 23.8192 16.2607 23.7693 16.3206 23.7327C16.4868 23.5598 16.673 23.4235 16.8759 23.3237C17.1386 23.1974 17.4179 23.1375 17.7172 23.1375C18.0165 23.1375 18.3291 23.2073 18.6516 23.337C18.9742 23.4667 19.3 23.6596 19.6259 23.9223C19.9518 24.1816 20.2112 24.4576 20.4074 24.7469C20.6036 25.0362 20.7332 25.3255 20.7997 25.6148C20.8663 25.9041 20.8663 26.1934 20.7997 26.4761C20.7332 26.7587 20.6002 27.0248 20.4007 27.2742C20.2012 27.5236 19.9684 27.7131 19.7057 27.8361C19.443 27.9625 19.1637 28.0257 18.8678 28.0224C18.5685 28.0224 18.2592 27.9558 17.9333 27.8262C17.6108 27.6965 17.2849 27.5036 16.959 27.2409C16.6331 26.9815 16.3738 26.7055 16.1776 26.4162C15.9814 26.1269 15.8484 25.8376 15.7819 25.545C15.7154 25.2524 15.7154 24.9664 15.7819 24.6838H15.7852Z" fill="#51B1E0"/>
  <path d="M20.0881 19.5327C20.1679 19.546 20.261 19.5161 20.3675 19.4363L20.6568 19.2234L22.9014 22.2993C23.1441 22.6319 23.4001 22.8879 23.6662 23.0642C23.9355 23.2404 24.2082 23.3468 24.4942 23.3834C24.7768 23.42 25.0694 23.3867 25.3687 23.2903C25.5084 23.2437 25.6447 23.1839 25.7844 23.1107C25.6447 23.1539 25.4751 23.1872 25.3488 23.1373C25.1426 23.0575 25.2324 22.8613 25.3055 22.7316C25.4086 22.5521 25.5483 22.3925 25.6747 22.2262C25.6747 22.2062 25.678 22.1929 25.678 22.173C25.4984 22.296 25.3255 22.3925 25.1592 22.449C24.9663 22.5155 24.7802 22.5321 24.5973 22.5022C24.4144 22.4723 24.2348 22.3891 24.0586 22.2561C23.8823 22.1231 23.7061 21.9369 23.5298 21.6941L21.3551 18.7147L21.8771 18.3323C21.9836 18.2558 22.0401 18.176 22.0534 18.0962C22.0667 18.0164 22.0268 17.9166 21.9404 17.8002C21.8539 17.6805 21.7708 17.6173 21.691 17.6007C21.6111 17.5874 21.518 17.6173 21.4116 17.6971L19.8986 18.8011C19.7922 18.8776 19.7357 18.9574 19.7224 19.0372C19.7124 19.117 19.749 19.2168 19.8354 19.3332C19.9219 19.4529 20.005 19.5161 20.0848 19.5327H20.0881Z" fill="#51B1E0"/>
  <path d="M26.4095 22.6219C26.2798 22.7117 26.1469 22.7981 26.0138 22.8879H26.0072C25.9407 22.9644 25.8842 23.0675 25.8077 23.1041C25.9606 23.0243 26.1169 22.9245 26.2699 22.8114C26.3862 22.725 26.4927 22.6352 26.5924 22.5454C26.5293 22.5687 26.4661 22.592 26.4062 22.6219H26.4095Z" fill="#51B1E0"/>
  <path d="M27.1211 21.6376C27.1544 21.6875 27.1776 21.7374 27.1909 21.7872C27.2707 21.6243 27.3306 21.4614 27.3639 21.2885C27.4171 21.0058 27.3971 20.7099 27.3106 20.4039C27.2242 20.0947 27.0579 19.7754 26.8152 19.4396L24.5706 16.3637L24.8599 16.1509C24.9663 16.0744 25.0229 15.9946 25.0362 15.9148C25.0495 15.835 25.0096 15.7352 24.9231 15.6188C24.8366 15.4991 24.7535 15.4359 24.6737 15.4193C24.5939 15.406 24.5008 15.4359 24.3977 15.5157L22.8847 16.6197C22.7783 16.6962 22.7217 16.776 22.7084 16.8558C22.6985 16.9356 22.735 17.0354 22.8215 17.1518C22.908 17.2715 22.9911 17.3347 23.0709 17.3513C23.1507 17.3646 23.2438 17.3347 23.3502 17.2549L23.8723 16.8725L26.0471 19.8552C26.2233 20.098 26.3497 20.3241 26.4228 20.5303C26.496 20.7365 26.5192 20.9326 26.4926 21.1155C26.4793 21.2086 26.4527 21.2984 26.4162 21.3849C26.4261 21.3816 26.4328 21.3749 26.4394 21.3716C26.7387 21.2419 26.9615 21.3915 27.1211 21.631V21.6376Z" fill="#51B1E0"/>
  <path d="M32.5381 15.456C32.4051 15.7586 32.2022 15.988 31.863 16.0545C31.6369 16.0978 31.4341 16.0146 31.3243 15.8251C31.3243 15.8184 31.321 15.8151 31.3177 15.8085L29.2261 16.5367C29.103 16.5799 29.0232 16.6365 28.99 16.7096C28.9567 16.7828 28.9634 16.8892 29.0132 17.0255C29.0631 17.1652 29.123 17.2516 29.1928 17.2882C29.266 17.3248 29.3624 17.3215 29.4854 17.2783L33.6487 15.8284C33.7718 15.7852 33.8516 15.7287 33.8848 15.6555C33.9181 15.5823 33.9114 15.4759 33.8615 15.3396C33.8117 15.1999 33.7518 15.1135 33.682 15.0769C33.6088 15.0403 33.5124 15.0437 33.3893 15.0869L32.6279 15.3529C32.5979 15.3895 32.568 15.4227 32.5414 15.4593L32.5381 15.456Z" fill="#51B1E0"/>
  <path d="M36.7146 12.0741L37.6524 12.0574L37.7554 17.3513L36.8177 17.3679C36.688 17.3679 36.5949 17.4012 36.5383 17.461C36.4818 17.5209 36.4585 17.624 36.4619 17.7703C36.4619 17.9166 36.4951 18.0197 36.5517 18.0762C36.6082 18.1328 36.7013 18.1594 36.8343 18.156L37.1768 18.1494C37.24 17.9366 37.4262 17.7304 37.6257 17.7171C37.8419 17.7005 38.0015 17.8302 38.0514 18.1328L40.0266 18.0929C40.1563 18.0929 40.2494 18.0596 40.3059 17.9997C40.3625 17.9399 40.3857 17.8368 40.3824 17.6905C40.3824 17.5442 40.3491 17.4411 40.2926 17.3846C40.2361 17.328 40.143 17.3014 40.01 17.3048L38.6233 17.3314L38.5901 15.6122L39.9501 15.5856C40.3392 15.5789 40.685 15.5191 40.9843 15.4093C41.2835 15.2996 41.5363 15.1466 41.7424 14.9538C41.9486 14.7609 42.1016 14.5281 42.2047 14.2588C42.3077 13.9894 42.3543 13.6902 42.351 13.3676C42.3443 13.0384 42.2845 12.7425 42.1714 12.4764C42.0584 12.2104 41.8954 11.9843 41.6826 11.7947C41.4698 11.6052 41.2137 11.4622 40.9078 11.3625C40.6019 11.2627 40.256 11.2161 39.867 11.2228L36.7046 11.2826C36.5749 11.2826 36.4818 11.3159 36.4253 11.3758C36.3688 11.4356 36.3455 11.5387 36.3488 11.685C36.3488 11.8313 36.3821 11.9344 36.4386 11.9909C36.4951 12.0475 36.5882 12.0741 36.7213 12.0707L36.7146 12.0741ZM39.7572 12.0142C40.2993 12.0042 40.7149 12.1206 40.9976 12.3634C41.2802 12.6061 41.4266 12.9486 41.4332 13.3876C41.4432 13.8198 41.3102 14.159 41.0375 14.4118C40.7648 14.6611 40.3558 14.7908 39.8138 14.8041L38.5768 14.8274L38.5236 12.0408L39.7606 12.0175L39.7572 12.0142Z" fill="#51B1E0"/>
  <path d="M43.3985 18.0098C43.435 18.083 43.5149 18.1362 43.6412 18.1761L45.4901 18.7414C45.6164 18.7813 45.7129 18.778 45.7827 18.7414C45.8525 18.7015 45.9091 18.6117 45.9523 18.4721C45.9955 18.3324 45.9989 18.226 45.9623 18.1528C45.9257 18.0797 45.8459 18.0265 45.7196 17.9866L45.0512 17.7804L45.9124 16.6066L45.9722 16.6232C45.9988 16.4935 46.1385 16.447 46.2649 16.4303C46.5841 16.3904 46.8003 16.5766 46.7936 16.846C46.7936 16.856 46.7903 16.8659 46.787 16.8759L48.5926 17.4312L48.6425 18.8877L47.8943 18.6583C47.7679 18.6184 47.6715 18.6184 47.6016 18.6583C47.5318 18.6982 47.4753 18.788 47.432 18.9276C47.3888 19.0673 47.3855 19.1737 47.4221 19.2469C47.4587 19.32 47.5385 19.3732 47.6648 19.4131L49.6234 20.015C49.7498 20.0549 49.8462 20.0549 49.9161 20.015C49.9859 19.9751 50.0424 19.8853 50.0857 19.7456C50.1289 19.606 50.1322 19.4996 50.0956 19.4264C50.059 19.3533 49.9792 19.3001 49.8529 19.2602L49.517 19.1571L49.2377 13.105C49.2344 12.962 49.1945 12.849 49.1213 12.7658C49.0648 12.7027 48.9816 12.6561 48.8852 12.6129C48.8253 12.8191 48.6092 12.8955 48.4296 12.9986C48.2866 13.0784 48.1171 13.0818 48.004 12.9521C47.8245 12.7459 47.9308 12.563 48.0938 12.41C48.1071 12.3967 48.1237 12.3868 48.1403 12.3768L46.7604 11.9545C46.634 11.9146 46.5376 11.9179 46.4677 11.9545C46.3979 11.9944 46.3414 12.0842 46.2982 12.2238C46.2549 12.3635 46.2516 12.4699 46.2882 12.5431C46.3247 12.6162 46.4045 12.6694 46.5309 12.7093L47.5651 13.0252L44.1833 17.5243L43.874 17.4279C43.7476 17.388 43.6512 17.388 43.5814 17.4279C43.5115 17.4678 43.455 17.5576 43.4118 17.6973C43.3685 17.8369 43.3652 17.9433 43.4018 18.0165L43.3985 18.0098ZM48.3565 13.2613L48.4629 13.2946L48.5726 16.6032L46.4045 15.9382L48.3565 13.2646V13.2613Z" fill="#51B1E0"/>
  <path d="M51.0799 20.843L52.7658 21.9869C52.8756 22.0601 52.9687 22.09 53.0451 22.0734C53.1249 22.0567 53.2047 21.9869 53.2879 21.8672C53.371 21.7475 53.4043 21.6444 53.391 21.5679C53.3777 21.4881 53.3145 21.4116 53.2081 21.3385L52.5862 20.9161L53.82 19.1039L54.1159 19.3067C54.2622 19.4065 54.3885 19.5062 54.495 19.6027C54.6014 19.6991 54.6912 19.8055 54.7643 19.9152C54.8375 20.025 54.894 20.148 54.9339 20.2777C54.9738 20.4074 55.0004 20.5537 55.0104 20.7133C55.0204 20.8463 55.0204 20.9827 55.0171 21.1256C55.0137 21.2686 55.0038 21.4183 54.9905 21.5679C54.9772 21.7175 54.9605 21.8705 54.9472 22.0235C54.9306 22.1764 54.9206 22.3261 54.9139 22.4757C54.8973 22.8282 54.9239 23.1009 54.9938 23.2904C55.0636 23.48 55.1667 23.6196 55.303 23.7127L55.6389 23.9388C55.7486 24.012 55.8417 24.0419 55.9182 24.0253C55.998 24.0087 56.0778 23.9388 56.1609 23.8191C56.2441 23.6994 56.2773 23.5963 56.264 23.5199C56.2507 23.4401 56.1875 23.3636 56.0811 23.2904L55.9913 23.2272C55.8916 23.1607 55.8284 23.061 55.8018 22.9313C55.7752 22.8016 55.7653 22.6453 55.7752 22.4657C55.7819 22.3394 55.7918 22.203 55.8051 22.0601C55.8184 21.9171 55.8317 21.7708 55.8417 21.6211C55.8517 21.4715 55.8584 21.3218 55.8584 21.1655C55.8584 21.0126 55.8484 20.8629 55.8284 20.72C55.8118 20.6069 55.7885 20.4972 55.7586 20.3908C55.7287 20.2843 55.6821 20.1846 55.6256 20.0915C55.8583 20.1846 56.0845 20.2411 56.3073 20.2644C56.5301 20.2877 56.7429 20.2777 56.9391 20.2345C57.1353 20.1912 57.3181 20.1114 57.4877 19.9984C57.6573 19.8853 57.8037 19.7357 57.93 19.5495C58.093 19.31 58.1994 19.064 58.2526 18.8079C58.3058 18.5519 58.2991 18.2991 58.2326 18.0497C58.1661 17.8003 58.043 17.5543 57.8602 17.3182C57.6773 17.0788 57.4312 16.856 57.1253 16.6498L54.7045 15.0038C54.5947 14.9306 54.5016 14.9007 54.4251 14.9173C54.3453 14.9339 54.2655 15.0038 54.1824 15.1235C54.0993 15.2432 54.066 15.3463 54.0793 15.4228C54.0926 15.5026 54.1525 15.579 54.2622 15.6522L54.8475 16.0479L51.8713 20.4273L51.2861 20.0316C51.1763 19.9585 51.0832 19.9285 51.0067 19.9452C50.9269 19.9618 50.8471 20.0316 50.764 20.1513C50.6809 20.271 50.6476 20.3741 50.6609 20.4506C50.6709 20.5105 50.7174 20.567 50.7773 20.6202C50.8438 20.6268 50.9103 20.6402 50.9735 20.6568C51.02 20.6668 51.05 20.7632 51.0799 20.8397V20.843ZM55.5591 16.5367L56.5766 17.2284C56.9756 17.5011 57.225 17.7904 57.3281 18.1029C57.4312 18.4155 57.378 18.7248 57.1652 19.034C57.0621 19.1837 56.949 19.2934 56.826 19.3732C56.8426 19.4164 56.8593 19.4563 56.8825 19.5029C56.7994 19.6193 56.7329 19.7889 56.6099 19.8654C56.3738 20.0083 56.1044 20.0349 55.8284 19.9551C55.589 19.8853 55.456 19.6991 55.4526 19.4863C55.4526 19.4264 55.4793 19.3566 55.5158 19.2901C55.4227 19.2402 55.3263 19.1803 55.2299 19.1138L54.2589 18.4521L55.5591 16.5367Z" fill="#51B1E0"/>
  <path d="M62.8148 22.7817L58.7879 26.2168L57.7504 25.003C57.664 24.9033 57.5808 24.8501 57.501 24.8467C57.4212 24.8434 57.3248 24.8866 57.2117 24.9831C57.0987 25.0795 57.0421 25.166 57.0321 25.2458C57.0255 25.3256 57.0621 25.4154 57.1486 25.5151L59.7855 28.6043C59.8719 28.7041 59.9518 28.7573 60.0349 28.7606C60.1147 28.7639 60.2111 28.7207 60.3242 28.6243C60.4372 28.5278 60.4938 28.4414 60.5038 28.3616C60.5104 28.2818 60.4738 28.192 60.3874 28.0922L59.3499 26.8785L63.3768 23.4435L64.3378 24.5707C64.4243 24.6705 64.5074 24.7237 64.5872 24.727C64.667 24.7304 64.7635 24.6871 64.8732 24.5907C64.9863 24.4943 65.0428 24.4078 65.0527 24.328C65.0594 24.2482 65.0228 24.1584 64.9364 24.0586L62.4491 21.1457C62.3626 21.0459 62.2795 20.9927 62.1997 20.9894C62.1199 20.9827 62.0234 21.0293 61.9104 21.1257C61.7973 21.2222 61.7408 21.3086 61.7308 21.3884C61.7241 21.4682 61.7607 21.558 61.8472 21.6578L62.8082 22.7851L62.8148 22.7817Z" fill="#51B1E0"/>
  <path d="M66.6522 28.3582C66.3862 28.3648 66.1202 28.438 65.8508 28.5743C65.6679 28.6674 65.5183 28.7705 65.3986 28.8836C65.2789 28.9966 65.1858 29.1196 65.116 29.2527C65.0494 29.3823 65.0029 29.522 64.9763 29.6683C64.9497 29.8146 64.943 29.9676 64.953 30.1206C64.963 30.3367 64.9929 30.5562 65.0461 30.7856C65.0993 31.0117 65.1592 31.2412 65.219 31.4673C65.2822 31.6934 65.3387 31.9129 65.3919 32.129C65.4451 32.3452 65.4784 32.548 65.495 32.7376C65.5083 32.9737 65.4784 33.1798 65.4019 33.3627C65.3254 33.5456 65.1725 33.6953 64.9464 33.8083C64.7934 33.8848 64.6404 33.9247 64.4841 33.9314C64.3279 33.938 64.1749 33.9047 64.0252 33.8382C63.8756 33.7717 63.7326 33.6653 63.5963 33.519C63.4599 33.3727 63.3336 33.1898 63.2172 32.9604C62.9878 32.5048 62.9046 32.0725 62.9645 31.6569C63.0244 31.2412 63.2172 30.8654 63.5464 30.5229C63.6661 30.3999 63.6861 30.2636 63.6129 30.1139C63.5398 29.9676 63.4633 29.8811 63.3835 29.8512C63.3037 29.8213 63.2039 29.8346 63.0809 29.8944L62.5023 30.1837C62.5189 30.4897 62.5521 30.8155 62.5721 31.1913C62.0001 31.1714 61.5944 31.0683 61.3118 30.902C61.2918 30.9851 61.3151 31.0916 61.385 31.2312C61.4581 31.3775 61.5346 31.464 61.6144 31.4939C61.6942 31.5238 61.794 31.5105 61.917 31.4507L62.3194 31.2478C62.183 31.587 62.1265 31.9362 62.1531 32.292C62.1764 32.6478 62.2761 33.0003 62.4491 33.3428C62.6286 33.6986 62.8282 33.9879 63.0543 34.2173C63.2804 34.4468 63.5165 34.613 63.7692 34.7161C64.0186 34.8192 64.2813 34.8658 64.5507 34.8491C64.82 34.8325 65.0893 34.756 65.352 34.623C65.5815 34.5066 65.771 34.3769 65.9174 34.234C66.0637 34.091 66.1767 33.9347 66.2565 33.7717C66.3363 33.6088 66.3862 33.4359 66.4095 33.2563C66.4228 33.1566 66.4261 33.0535 66.4261 32.9504C66.1501 32.5913 66.1302 32.4416 66.3131 32.0958C66.3064 32.0659 66.3031 32.0393 66.2931 32.0093C66.2333 31.7732 66.1734 31.5438 66.1102 31.321C66.047 31.0982 65.9905 30.8821 65.9406 30.6792C65.8907 30.473 65.8641 30.2835 65.8641 30.1139C65.8641 29.9543 65.8941 29.8113 65.9506 29.6883C66.0071 29.5652 66.1102 29.4655 66.2565 29.3923C66.5458 29.246 66.8318 29.2327 67.1145 29.3458C67.3971 29.4622 67.6365 29.7116 67.8294 30.0973C68.0189 30.4764 68.112 30.8555 68.1021 31.2379C68.0954 31.5006 68.0323 31.7533 67.9159 31.9927C68.0821 32.2587 68.1985 32.548 68.2949 32.844L69.4555 32.2621C69.5752 32.2022 69.6483 32.129 69.6716 32.0459C69.6949 31.9628 69.6716 31.8497 69.5984 31.7034C69.5253 31.5571 69.4488 31.4706 69.369 31.4407C69.2892 31.4108 69.1894 31.4241 69.0664 31.4839L68.7505 31.6435C68.8469 31.3476 68.8868 31.0317 68.8636 30.6925C68.8436 30.3533 68.7538 30.0275 68.5942 29.7149C68.4479 29.4222 68.2717 29.1729 68.0688 28.9667C67.866 28.7605 67.6432 28.6042 67.4071 28.5045C67.1677 28.4014 66.9149 28.3548 66.6489 28.3648L66.6522 28.3582Z" fill="#51B1E0"/>
  <path d="M24.9364 67.5601C24.9597 67.1112 24.9098 66.7255 24.7834 66.3996C24.6405 66.087 24.4609 65.7811 24.2447 65.4885L23.8756 64.9864C23.8391 64.9963 23.7992 65.0063 23.7559 65.0096C23.5597 65.0163 23.4666 64.8733 23.45 64.7037C23.44 64.6106 23.4467 64.5142 23.4733 64.4377L22.2629 62.7883L14.5715 68.4314L15.3995 69.5586L16.1377 69.0166C16.0379 68.857 16.1111 68.714 16.2075 68.5843C16.417 68.2917 16.693 68.1753 17.0389 68.3116C17.0522 68.3183 17.0621 68.3249 17.0754 68.3283L18.4022 67.354L19.6625 69.0731C19.7423 69.1796 19.8255 69.276 19.9086 69.3658C19.9086 69.3558 19.9086 69.3458 19.9152 69.3392C20.0981 68.9002 20.424 68.5743 20.8164 68.325C20.7865 68.2917 20.7565 68.2618 20.7266 68.2252L19.4995 66.5492L21.9968 64.717L23.1939 66.3497C23.4267 66.6523 23.5531 66.9749 23.5697 67.3174C23.5897 67.5369 23.5531 67.7497 23.4567 67.9525C23.3403 68.1653 23.1541 68.3649 22.8947 68.5544C22.5854 68.7838 22.2263 68.8902 21.8273 68.8736C21.8339 68.9867 21.8073 69.0964 21.7408 69.2028C21.498 69.5852 21.1622 69.8413 20.7665 70.0175C21.0625 70.1638 21.375 70.247 21.7075 70.2636C22.4591 70.3101 23.1208 70.1239 23.6927 69.7049C24.1151 69.3957 24.4243 69.0499 24.6205 68.6708C24.8333 68.2884 24.9397 67.9193 24.9397 67.5568L24.9364 67.5601Z" fill="#51B1E0"/>
  <path d="M25.3455 77.496C25.1526 77.4461 24.9598 77.3597 24.7669 77.2266C24.4942 77.0404 24.3013 76.821 24.1883 76.5682C24.0586 76.3321 23.9888 76.0894 23.9788 75.8433C23.9455 75.5707 23.9987 75.2814 24.1384 74.9754C24.2714 74.6628 24.6039 74.1208 25.136 73.346C25.668 72.5712 26.0571 72.0625 26.3065 71.8197C26.5393 71.5869 26.7887 71.4373 27.0547 71.3708C27.2875 71.291 27.5402 71.2677 27.8128 71.2976C28.0788 71.3276 28.3515 71.4307 28.6275 71.6102C28.8969 71.8064 29.0997 72.0259 29.2294 72.2686C29.3458 72.5081 29.409 72.7475 29.4123 72.9902C29.4456 73.2629 29.399 73.5522 29.2726 73.8548C29.133 74.1707 28.7971 74.7194 28.2651 75.4908C27.733 76.2656 27.3473 76.7711 27.1079 77.0105C26.8651 77.2466 26.6091 77.3962 26.3431 77.4627C26.1469 77.5359 25.9341 77.5625 25.7113 77.5459C26.0671 77.6589 26.2499 77.9449 26.3663 78.3273C26.5027 78.7762 26.7787 78.6698 27.1112 78.4969C27.5003 78.2941 27.6765 78.2143 27.8361 78.3074C27.9226 78.2342 28.0123 78.1544 28.0988 78.058C28.3615 77.772 28.8005 77.1801 29.419 76.2823C30.0475 75.3678 30.4431 74.7426 30.6094 74.4001C30.7724 74.0576 30.8555 73.7484 30.8588 73.4691C30.932 72.9836 30.8655 72.4615 30.6593 71.9028C30.4531 71.3375 30.0508 70.8454 29.4489 70.4198C28.8437 70.0174 28.2451 69.8179 27.6466 69.8312C27.0447 69.8345 26.526 69.9542 26.0937 70.1903C25.8476 70.3034 25.5915 70.4929 25.3222 70.7656C25.0562 71.0383 24.6106 71.6335 23.9821 72.548C23.3636 73.4458 22.9745 74.0709 22.8083 74.4234C22.7185 74.613 22.6586 74.7759 22.6254 74.9156C22.5954 75.0552 22.5688 75.2015 22.5422 75.3578C22.4757 75.8466 22.5522 76.372 22.7717 76.9274C22.9745 77.4893 23.3702 77.9848 23.9588 78.4104C23.9688 78.4171 23.9788 78.4238 23.9887 78.4304C24.0885 78.2741 24.2149 78.1311 24.3612 77.9915C24.6505 77.7188 24.9498 77.4993 25.3455 77.4927V77.496Z" fill="#51B1E0"/>
  <path d="M32.2887 79.4381C32.5979 79.9735 32.6744 80.5454 32.1856 81.0542C32.0758 81.2703 31.9661 81.4865 31.8597 81.6993C31.7367 81.8689 31.6203 82.0385 31.5072 82.2114L37.0505 83.4617L37.0937 83.2688C36.9308 83.2289 36.7679 83.1724 36.6116 83.0826C36.2325 82.8698 36.0596 82.5805 36.1194 82.1781C36.1361 82.0651 36.1693 81.9653 36.2092 81.8755L32.9537 81.1406L34.6596 73.5856C34.4468 73.5889 34.2273 73.549 34.0112 73.4526C33.8715 73.3927 33.7319 73.273 33.6554 73.1433C33.6088 73.0668 33.5755 72.9804 33.5456 72.8873L33.3927 72.854L31.9894 79.069C32.1058 79.1687 32.2055 79.2885 32.2887 79.4281V79.4381Z" fill="#51B1E0"/>
  <path d="M48.4562 82.0549L43.6113 73.5388L42.4574 73.7483L40.848 83.7342L42.3078 83.4715L42.627 81.2469L42.913 81.1937C42.9096 81.0507 42.913 80.9044 42.9229 80.7614C42.9728 80.083 43.2455 79.8236 43.9538 79.7671C44.1134 79.7538 44.2796 79.7671 44.7751 79.7671C44.815 79.7671 45.2008 79.7338 45.5266 79.9899C45.7561 80.1695 45.9556 80.3657 46.062 80.625H46.0753L47.1594 82.5936L47.738 82.4905C47.7878 82.4473 47.8444 82.4107 47.9009 82.3941C48.137 82.3209 48.3133 82.2112 48.4562 82.0582V82.0549ZM42.7999 79.9101L43.3752 75.5639H43.4018L45.4601 79.4279L42.8032 79.9068L42.7999 79.9101Z" fill="#51B1E0"/>
  <path d="M52.001 69.5318L55.8151 75.1416L55.7918 75.1549L48.5194 71.8995L47.4287 72.641L52.7924 80.5319L53.9497 79.7438L50.1355 74.134L50.1588 74.1208L57.4246 77.3829L58.5219 76.638L53.1582 68.7471L52.001 69.5318Z" fill="#51B1E0"/>
  <path d="M64.1217 66.5825C64.0286 66.4329 63.9089 66.2866 63.7592 66.1436C63.4866 65.8709 62.9712 65.4652 62.2196 64.9332C61.7607 65.0229 61.2985 65.1161 60.8396 65.2092C60.7465 65.3056 60.6534 65.3987 60.5603 65.4885C60.7798 65.6348 61.0225 65.7977 61.3018 65.9973C62.0002 66.4861 62.4657 66.8386 62.6951 67.0447C62.9279 67.2609 63.0842 67.4903 63.1607 67.7364C63.4101 68.3449 63.3103 68.9734 62.8581 69.6185L61.897 70.9885L56.3172 67.0713L57.2782 65.7013C57.6739 65.1094 58.2093 64.8135 58.8877 64.8135C58.9475 64.8068 59.0041 64.8101 59.0639 64.8135C59.1537 64.4676 59.2501 64.1218 59.3598 63.7826C59.4031 63.6563 59.4629 63.5465 59.5394 63.4534C59.4264 63.4335 59.31 63.4202 59.1903 63.4135C57.9599 63.3137 56.9823 63.7726 56.254 64.7935L54.3952 67.4404L62.203 72.9238L64.0053 70.3567C64.4044 69.7881 64.6105 69.2195 64.6271 68.6475C64.6637 68.0855 64.5773 67.5635 64.3644 67.0846C64.2846 66.9051 64.1982 66.7388 64.1117 66.5892L64.1217 66.5825Z" fill="#51B1E0"/>
  <path d="M10.345 51.3824C10.1422 51.3458 10.1588 50.9168 10.3982 50.5378C10.4215 50.5012 10.4481 50.4713 10.4747 50.438V44.7783C10.4015 44.7684 10.3217 44.7517 10.2352 44.7152C10.0557 44.6387 9.91271 44.4724 9.7531 44.3461C9.70987 44.3128 9.6733 44.2729 9.63672 44.2363V52.9619H10.4747V51.389C10.4348 51.389 10.3916 51.389 10.345 51.3824Z" fill="#51B1E0"/>
  <path d="M10.4714 42.6469V41.8655H9.63342V42.3809C9.96595 42.3809 10.2652 42.4374 10.4714 42.6469Z" fill="#51B1E0"/>
  <path d="M69.3757 50.6742V52.962H70.2137V50.8538C70.1471 50.8538 70.084 50.8538 70.0108 50.8471C69.778 50.8272 69.5719 50.7607 69.3757 50.6709V50.6742Z" fill="#51B1E0"/>
  <path d="M69.3757 41.8655V46.1551C69.4122 46.1285 69.4422 46.1019 69.4788 46.0786C69.5586 46.0287 69.7914 46.1285 69.8978 46.2249C70.0108 46.3214 70.1306 46.5009 70.1206 46.634C70.0906 46.9731 70.1372 47.2924 70.2137 47.6016V41.8688H69.3757V41.8655Z" fill="#51B1E0"/>
  <path d="M27.4737 44.1301C27.5003 43.924 27.6831 43.7943 27.8993 43.771C28.0788 43.7544 28.1719 43.8641 28.1985 44.0337C28.1985 44.1235 28.172 44.2066 28.1287 44.2764H28.2717C28.7273 44.2764 29.1429 44.2 29.5154 44.0437C29.8878 43.8874 30.2103 43.6613 30.4764 43.3686C30.7424 43.0727 30.9486 42.7136 31.0949 42.2912C31.2412 41.8656 31.3144 41.3868 31.3144 40.8514C31.3144 40.316 31.2412 39.8338 31.0949 39.4115C30.9486 38.9859 30.7424 38.6268 30.4764 38.3341C30.2103 38.0382 29.8911 37.8121 29.5154 37.6558C29.1396 37.4962 28.7273 37.4197 28.2717 37.4197H27.7729C27.6 37.4529 27.4238 37.4529 27.2442 37.4197H25.5483C25.4186 37.4197 25.3222 37.4496 25.269 37.5061C25.2125 37.5627 25.1859 37.6657 25.1859 37.8121C25.1859 37.9584 25.2125 38.0615 25.269 38.118C25.3255 38.1745 25.4186 38.2044 25.5483 38.2044H26.1967V43.4983H25.5483C25.4186 43.4983 25.3222 43.5282 25.269 43.5848C25.2125 43.6413 25.1859 43.7444 25.1859 43.8907C25.1859 44.037 25.2125 44.1401 25.269 44.1966C25.3255 44.2532 25.4186 44.2831 25.5483 44.2831H27.5302C27.4936 44.2299 27.4703 44.1767 27.4737 44.1335V44.1301ZM27.0646 38.1978H28.142C28.4845 38.1978 28.7971 38.2543 29.0731 38.3674C29.3524 38.4804 29.5885 38.65 29.7847 38.8728C29.9809 39.0956 30.1339 39.375 30.2403 39.7042C30.3467 40.0334 30.4032 40.4158 30.4032 40.8481C30.4032 41.2803 30.35 41.6594 30.2403 41.992C30.1306 42.3212 29.9809 42.5972 29.7847 42.82C29.5885 43.0428 29.3524 43.209 29.0731 43.3221C28.7938 43.4351 28.4845 43.4917 28.142 43.4917H27.0646V38.1978Z" fill="#51B1E0"/>
  <path d="M38.6665 42.5772C38.7929 42.248 38.8561 41.8789 38.8561 41.4599C38.8561 41.0409 38.7929 40.6718 38.6665 40.3426C38.5402 40.0134 38.364 39.7374 38.1445 39.5079C37.9217 39.2818 37.659 39.1056 37.3564 38.9859C37.0505 38.8662 36.7213 38.803 36.3621 38.803C35.9764 38.803 35.6239 38.8894 35.308 39.059C34.9888 39.2319 34.7094 39.4714 34.4733 39.7839V39.3217C34.4733 39.1754 34.4467 39.0723 34.3902 39.0158C34.3337 38.9593 34.2406 38.9293 34.1109 38.9293H33.1898C33.0601 38.9293 32.9637 38.9593 32.9105 39.0158C32.8539 39.0723 32.8273 39.1754 32.8273 39.3217C32.8273 39.468 32.8539 39.5711 32.9105 39.6277C32.967 39.6842 33.0601 39.7141 33.1898 39.7141H33.6653V45.7595H33.0169C32.8872 45.7595 32.7908 45.7894 32.7376 45.846C32.681 45.9025 32.6544 46.0056 32.6544 46.1519C32.6544 46.2982 32.681 46.4013 32.7376 46.4578C32.7941 46.5143 32.8872 46.5443 33.0169 46.5443H35.8168C35.9465 46.5443 36.0429 46.5143 36.0961 46.4578C36.1526 46.4013 36.1792 46.2982 36.1792 46.1519C36.1792 46.0056 36.1526 45.9025 36.0961 45.846C36.0396 45.7894 35.9465 45.7595 35.8168 45.7595H34.5332V43.209C34.766 43.4983 35.032 43.7211 35.3346 43.8774C35.6372 44.0337 35.9797 44.1102 36.3688 44.1102C36.7279 44.1102 37.0604 44.0503 37.363 43.9273C37.669 43.8042 37.9317 43.6313 38.1511 43.4052C38.3739 43.1791 38.5468 42.8997 38.6732 42.5705L38.6665 42.5772ZM37.8352 42.1848C37.7621 42.4043 37.6557 42.5938 37.516 42.7534C37.3763 42.913 37.2067 43.0394 37.0006 43.1259C36.7977 43.2156 36.5616 43.2589 36.2989 43.2589C36.0362 43.2589 35.8068 43.219 35.5906 43.1358C35.3712 43.056 35.185 42.9396 35.0254 42.7867C34.8657 42.6337 34.7427 42.4475 34.6563 42.2214C34.5665 41.9986 34.5232 41.7425 34.5232 41.4566C34.5232 41.1706 34.5665 40.9179 34.6563 40.6917C34.746 40.469 34.8691 40.2794 35.0254 40.1264C35.185 39.9735 35.3712 39.8571 35.5906 39.7773C35.8068 39.6975 36.0462 39.6543 36.2989 39.6543C36.5517 39.6543 36.7944 39.6975 37.0006 39.7873C37.2034 39.877 37.3763 40.0001 37.516 40.1597C37.6557 40.3193 37.7621 40.5089 37.8352 40.7283C37.9084 40.9478 37.945 41.1905 37.945 41.4499C37.945 41.7093 37.9084 41.952 37.8352 42.1715V42.1848Z" fill="#51B1E0"/>
  <path d="M41.9918 43.4916C41.8622 43.4916 41.7657 43.5215 41.7125 43.578C41.656 43.6345 41.6294 43.7376 41.6294 43.8839C41.6294 44.0303 41.656 44.1333 41.7125 44.1899C41.7691 44.2464 41.8622 44.2763 41.9918 44.2763H45.8924C46.0221 44.2763 46.1186 44.2464 46.1718 44.1899C46.2283 44.1333 46.2549 44.0303 46.2549 43.8839C46.2549 43.7376 46.2283 43.6345 46.1718 43.578C46.1152 43.5215 46.0221 43.4916 45.8924 43.4916H44.416V37.649C44.416 37.5027 44.3728 37.3963 44.2896 37.3265C44.2032 37.2599 44.1001 37.2466 43.977 37.2899L41.8655 38.048C41.7724 38.078 41.7092 38.1345 41.676 38.2143C41.6427 38.2941 41.646 38.4072 41.6926 38.5502C41.7391 38.6931 41.799 38.7829 41.8755 38.8195C41.9519 38.8561 42.0317 38.8594 42.1149 38.8295L43.5481 38.3074V43.4916H41.9918Z" fill="#51B1E0"/>
  <path d="M52.7558 37.4097C52.6794 37.3265 52.5497 37.2866 52.3668 37.2866C52.2172 37.2866 52.0941 37.3165 51.9977 37.3764C51.9013 37.4363 51.8115 37.5227 51.7317 37.6391L48.9317 41.533C48.8918 41.5862 48.8752 41.676 48.8752 41.8057C48.8752 41.952 48.9018 42.0551 48.9584 42.1116C49.0149 42.1682 49.108 42.1981 49.2377 42.1981H52.0043V43.4949H51.1497C51.02 43.4949 50.9236 43.5249 50.8704 43.5814C50.8139 43.6379 50.7873 43.741 50.7873 43.8873C50.7873 44.0336 50.8139 44.1367 50.8704 44.1933C50.927 44.2498 51.02 44.2797 51.1497 44.2797H53.6371C53.7667 44.2797 53.8632 44.2498 53.9164 44.1933C53.9596 44.15 53.9796 44.0735 53.9896 43.9804C53.9729 43.9804 53.9563 43.9804 53.9397 43.9804C53.3444 43.8873 53.1183 43.7809 53.1383 43.4949H52.8722V42.1981H53.81C53.9397 42.1981 54.0361 42.1682 54.0893 42.1116C54.1458 42.0551 54.1724 41.952 54.1724 41.8057C54.1724 41.6594 54.1458 41.5563 54.0893 41.4998C54.0328 41.4432 53.9397 41.4133 53.81 41.4133H52.8722V37.7389C52.8722 37.6025 52.8323 37.4961 52.7558 37.413V37.4097ZM52.0043 41.41H50.0258L52.0509 38.5403L52.0043 41.41Z" fill="#51B1E0"/>
  <path d="M28.5743 55.2264C28.3648 55.0368 28.2517 54.8007 28.2085 54.5281C28.1487 54.1257 28.5111 53.7433 28.8802 53.8497V48.8219C28.8802 48.6755 28.837 48.5691 28.7539 48.4993C28.6674 48.4328 28.5643 48.4195 28.4413 48.4627L26.3297 49.2209C26.2366 49.2508 26.1734 49.3074 26.1402 49.3872C26.1069 49.467 26.1102 49.58 26.1568 49.723C26.2033 49.866 26.2632 49.9558 26.3397 49.9924C26.4162 50.0289 26.496 50.0323 26.5791 50.0023L28.0123 49.4803V54.6644H26.4561C26.3264 54.6644 26.23 54.6943 26.1768 54.7509C26.1236 54.8074 26.0936 54.9105 26.0936 55.0568C26.0936 55.2031 26.1202 55.3062 26.1768 55.3627C26.2333 55.4192 26.3264 55.4492 26.4561 55.4492H28.8769C28.7705 55.386 28.6674 55.3128 28.571 55.2264H28.5743Z" fill="#51B1E0"/>
  <path d="M35.7503 54.4119C35.7503 54.4119 35.7436 54.4019 35.7403 54.3953C35.6805 54.4219 35.6206 54.4451 35.5574 54.4684C35.1617 54.6081 34.6995 54.6912 34.1674 54.7211C34.0909 54.7245 34.0311 54.761 33.9945 54.8275C33.9546 54.8941 33.9446 55.0138 33.9612 55.19C33.9779 55.3496 34.0145 55.456 34.0743 55.5059C34.1342 55.5591 34.2073 55.5824 34.2905 55.5791C34.7959 55.5558 35.2482 55.4826 35.6505 55.3629C36.0529 55.2399 36.4053 55.0836 36.7113 54.8874C36.7678 54.8508 36.8177 54.8076 36.8709 54.771C36.7246 54.6979 36.545 54.6613 36.3222 54.6713C36.0961 54.6812 35.9032 54.5915 35.7536 54.4152L35.7503 54.4119Z" fill="#51B1E0"/>
  <path d="M37.3032 54.4018C37.3663 54.3387 37.4362 54.2788 37.496 54.209C37.7155 53.9529 37.8918 53.6802 38.0314 53.3876C38.1711 53.095 38.2708 52.7924 38.334 52.4798C38.3972 52.1639 38.4304 51.8547 38.4304 51.5454C38.4304 51.1264 38.3939 50.7573 38.3174 50.4381C38.2409 50.1189 38.1312 49.8362 37.9849 49.5835C37.8718 49.3939 37.7454 49.231 37.5991 49.088C37.5792 49.0681 37.5592 49.0548 37.5359 49.0348C37.4628 49.1146 37.363 49.1379 37.2533 49.078C37.1934 49.0448 37.1435 48.9018 37.1635 48.8286C37.1701 48.8087 37.1801 48.7954 37.1901 48.7788C37.1668 48.7655 37.1435 48.7455 37.1203 48.7322C36.9473 48.6391 36.7612 48.5659 36.5683 48.5227C36.3721 48.4762 36.1726 48.4529 35.9697 48.4529C35.6106 48.4529 35.2847 48.5061 34.9954 48.6158C34.7028 48.7222 34.4567 48.8752 34.2505 49.0681C34.0444 49.2609 33.8848 49.4904 33.7717 49.7564C33.6586 50.0224 33.6021 50.3117 33.6021 50.6243C33.6021 50.9568 33.6586 51.2561 33.7717 51.5221C33.8848 51.7915 34.0411 52.0209 34.2439 52.2105C34.4434 52.4 34.6829 52.5496 34.9555 52.6527C35.2282 52.7558 35.5275 52.809 35.8467 52.809C36.1659 52.809 36.4885 52.7392 36.7811 52.5962C37.0737 52.4565 37.3198 52.2537 37.526 51.9843C37.4728 52.3767 37.3663 52.7359 37.21 53.0584C37.0538 53.381 36.8376 53.6603 36.565 53.8997C36.5184 53.9396 36.4685 53.9762 36.4186 54.0128C36.4253 54.0228 36.4319 54.0261 36.4386 54.0361C36.7146 54.2223 37.0039 54.3553 37.3065 54.3952L37.3032 54.4018ZM37.3298 51.2162C37.2566 51.3692 37.1569 51.4989 37.0272 51.6086C36.8975 51.7183 36.7412 51.8048 36.5616 51.8646C36.3787 51.9245 36.1825 51.9544 35.973 51.9544C35.7469 51.9544 35.5408 51.9212 35.3612 51.858C35.1816 51.7948 35.0287 51.705 34.9056 51.5886C34.7793 51.4723 34.6828 51.3326 34.6163 51.1696C34.5498 51.0067 34.5166 50.8238 34.5166 50.6243C34.5166 50.4248 34.5498 50.2485 34.6197 50.0856C34.6895 49.9227 34.7859 49.7863 34.9156 49.6699C35.0419 49.5536 35.1949 49.4671 35.3745 49.4039C35.554 49.3407 35.7536 49.3108 35.973 49.3108C36.1925 49.3108 36.3987 49.3441 36.5816 49.4139C36.7611 49.4837 36.9174 49.5802 37.0438 49.7032C37.1701 49.8262 37.2699 49.9759 37.3397 50.1455C37.4096 50.3184 37.4428 50.5046 37.4428 50.7108C37.4428 50.897 37.4062 51.0632 37.3331 51.2162H37.3298Z" fill="#51B1E0"/>
  <path d="M43.0293 55.3828C42.9827 55.4027 42.9295 55.4227 42.8664 55.4459C42.7766 55.4227 42.6868 55.3894 42.6004 55.3528C42.4141 55.3728 42.2878 55.2896 42.2146 55.1201C42.0816 55.0037 41.9486 54.884 41.8156 54.7676C41.7923 54.7842 41.7724 54.8008 41.7557 54.8274C41.7158 54.8939 41.7059 55.0137 41.7225 55.1899C41.7391 55.3495 41.7757 55.4559 41.8355 55.5058C41.8954 55.559 41.9685 55.5823 42.0517 55.579C42.3609 55.5656 42.6469 55.5291 42.9162 55.4792C42.8996 55.4659 42.8797 55.4592 42.863 55.4459C42.9329 55.4293 42.9827 55.4094 43.026 55.3828H43.0293Z" fill="#51B1E0"/>
  <path d="M44.8982 52.2837C44.9381 52.2771 44.978 52.2804 45.0112 52.2837C45.111 52.1939 45.2041 52.0975 45.2906 51.9878C45.2706 52.1241 45.244 52.2538 45.2141 52.3835C45.2906 52.4566 45.3438 52.5531 45.377 52.6495C45.51 53.0253 45.5798 53.4276 45.5599 53.8167C45.6497 53.677 45.7328 53.534 45.8027 53.3877C45.9423 53.0951 46.0421 52.7925 46.1052 52.4799C46.1684 52.164 46.2017 51.8547 46.2017 51.5455C46.2017 51.1265 46.1651 50.7574 46.0886 50.4382C46.0122 50.1189 45.9024 49.8363 45.7561 49.5836C45.6431 49.394 45.5167 49.2311 45.3704 49.0881C45.2274 48.9484 45.0677 48.8287 44.8948 48.7356C44.7219 48.6425 44.5357 48.5694 44.3429 48.5261C44.15 48.4829 43.9471 48.4563 43.7443 48.4563C43.5414 48.4563 43.3453 48.4762 43.1624 48.5128C42.9861 48.7988 42.8099 49.0881 42.6037 49.3575C42.5339 49.4472 42.2945 49.4971 42.1881 49.4472C42.0883 49.4007 41.9753 49.1446 42.0218 49.0715C41.8156 49.2643 41.656 49.4938 41.5429 49.7598C41.4299 50.0258 41.3734 50.3151 41.3734 50.6277C41.3734 50.9602 41.4299 51.2595 41.5429 51.5255C41.656 51.7949 41.8123 52.0243 42.0152 52.2139C42.2147 52.4034 42.4541 52.5531 42.7268 52.6561C42.9994 52.7592 43.2987 52.8124 43.6179 52.8124C43.9372 52.8124 44.2597 52.7426 44.5524 52.5996C44.5723 52.5896 44.5889 52.5797 44.6055 52.5697C44.6255 52.4267 44.7219 52.3103 44.9048 52.2837H44.8982ZM44.3295 51.8647C44.1467 51.9246 43.9505 51.9545 43.741 51.9545C43.5148 51.9545 43.3087 51.9213 43.1291 51.8581C42.9496 51.7949 42.7966 51.7051 42.6736 51.5887C42.5472 51.4723 42.4508 51.3327 42.3843 51.1697C42.3177 51.0068 42.2845 50.8239 42.2845 50.6244C42.2845 50.4249 42.3178 50.2486 42.3876 50.0857C42.4574 49.9228 42.5539 49.7864 42.6835 49.67C42.8132 49.5536 42.9629 49.4672 43.1424 49.404C43.322 49.3408 43.5215 49.3109 43.741 49.3109C43.9604 49.3109 44.1666 49.3441 44.3495 49.414C44.5291 49.4838 44.6853 49.5802 44.8117 49.7033C44.9381 49.8263 45.0378 49.976 45.1077 50.1455C45.1775 50.3185 45.2108 50.5047 45.2108 50.7108C45.2108 50.8971 45.1742 51.0633 45.101 51.2163C45.0278 51.3693 44.9281 51.4989 44.7984 51.6087C44.6687 51.7184 44.5124 51.8049 44.3329 51.8647H44.3295Z" fill="#51B1E0"/>
  <path d="M44.0968 54.3684C44.2863 54.1357 44.4659 53.9096 44.5723 53.6602C44.4958 53.7466 44.416 53.8297 44.3262 53.9062C44.0602 54.1357 43.7343 54.3219 43.3519 54.4616C43.6013 54.5547 43.8441 54.681 44.0968 54.3718V54.3684Z" fill="#51B1E0"/>
  <path d="M54.0394 52.0177C54.0394 51.4823 53.9829 50.9935 53.8665 50.5579C53.7501 50.1189 53.5872 49.7465 53.371 49.4339C53.1582 49.1214 52.8988 48.8819 52.5929 48.7123C52.287 48.5428 51.9478 48.4563 51.5754 48.4563C51.203 48.4563 50.8571 48.5428 50.5545 48.7123C50.2519 48.8819 49.9925 49.1247 49.7797 49.4339C49.5669 49.7465 49.4006 50.1223 49.2843 50.5579C49.1679 50.9968 49.1113 51.4823 49.1113 52.0177C49.1113 52.5531 49.1679 53.0419 49.2843 53.4775C49.4006 53.9164 49.5636 54.2889 49.7797 54.5981C49.9925 54.9074 50.2519 55.1501 50.5545 55.3197C50.8571 55.4893 51.1963 55.5758 51.5754 55.5758C51.9545 55.5758 52.2903 55.4893 52.5929 55.3197C52.8988 55.1501 53.1582 54.9107 53.371 54.5981C53.5838 54.2889 53.7501 53.9131 53.8665 53.4775C53.9829 53.0386 54.0394 52.5531 54.0394 52.0177ZM53.0119 53.1716C52.9354 53.5074 52.829 53.7901 52.6893 54.0195C52.553 54.249 52.3901 54.4219 52.2005 54.5416C52.011 54.6613 51.8048 54.7212 51.5754 54.7212C51.3459 54.7212 51.1398 54.6613 50.9502 54.5416C50.7607 54.4219 50.5977 54.249 50.4614 54.0195C50.325 53.7901 50.2186 53.5074 50.1388 53.1716C50.0624 52.8357 50.0225 52.4533 50.0225 52.021C50.0225 51.5887 50.0624 51.2063 50.1388 50.8705C50.2153 50.5346 50.3217 50.252 50.4614 50.0192C50.601 49.7864 50.7607 49.6135 50.9502 49.4938C51.1398 49.3741 51.3459 49.3142 51.5754 49.3142C51.8048 49.3142 52.011 49.3741 52.2005 49.4938C52.3901 49.6135 52.553 49.7897 52.6893 50.0192C52.8257 50.252 52.9321 50.5346 53.0119 50.8705C53.0884 51.2063 53.1283 51.5887 53.1283 52.021C53.1283 52.4533 53.0884 52.8357 53.0119 53.1716Z" fill="#51B1E0"/>
  <path d="M30.3434 58.8943H29.8479L29.5453 59.8453C29.6883 59.9285 29.7781 60.0216 29.8213 60.1313L30.0009 59.546C30.0308 59.4496 30.0707 59.2135 30.0707 59.2135H30.0873C30.0873 59.2135 30.1272 59.4463 30.1572 59.546L30.5662 60.8861H29.6318C29.6318 60.8861 29.6185 60.9094 29.6118 60.926C29.4921 61.0158 29.3724 61.1089 29.256 61.2054C29.1895 61.2619 29.123 61.3184 29.0598 61.375L28.8902 61.9103H29.2759L29.4821 61.2386H30.6759L30.8821 61.9103H31.2977L30.3401 58.8976L30.3434 58.8943Z" fill="#51B1E0"/>
  <path d="M33.0834 58.8943H32.0093V61.907H32.395V60.6633H33.0834C33.642 60.6633 33.9845 60.3042 33.9845 59.7722C33.9845 59.2401 33.6786 58.8943 33.0834 58.8943ZM33.0701 60.3109H32.395V59.2434H33.0701C33.3993 59.2434 33.5788 59.4463 33.5788 59.7688C33.5788 60.0914 33.376 60.3075 33.0701 60.3075V60.3109Z" fill="#51B1E0"/>
  <path d="M35.8567 62.1199H36.1659L36.8509 58.6782H36.545L35.8567 62.1199Z" fill="#51B1E0"/>
  <path d="M39.9568 58.8943H39.8171C39.5378 59.0606 39.1221 59.1869 38.876 59.2135V59.443H39.5976V61.5845H38.8827V61.9037H40.6185V61.5845H39.9601V58.8943H39.9568Z" fill="#51B1E0"/>
  <path d="M42.8764 61.538H41.6826C41.6992 61.4881 41.7258 61.4382 41.7624 61.385C42.1016 60.8663 42.8631 60.3808 42.8631 59.6259C42.8631 59.0739 42.5106 58.8445 42.0783 58.8445C41.646 58.8445 41.267 59.1138 41.267 59.7589C41.267 59.8653 41.2802 59.9352 41.2802 59.9352H41.6527V59.7556C41.6527 59.443 41.7624 59.1803 42.075 59.1803C42.3876 59.1803 42.484 59.4231 42.484 59.6226C42.484 60.2378 41.8123 60.6734 41.4531 61.1988C41.3168 61.395 41.2437 61.6145 41.2437 61.8539V61.9104H42.8797V61.5413L42.8764 61.538Z" fill="#51B1E0"/>
  <path d="M45.3305 58.8943H43.6179V59.2634H44.8782C44.4858 59.8919 43.997 60.8695 43.997 61.907H44.406C44.4027 61.8006 44.4027 61.7673 44.4027 61.6842C44.4027 60.7099 44.9214 59.7522 45.3338 59.1304V58.8976L45.3305 58.8943Z" fill="#51B1E0"/>
  <path d="M46.92 61.9569C46.92 61.9569 46.9266 61.9569 46.9299 61.9569C47.1926 61.6742 47.4354 61.3816 47.5019 60.9792C47.4952 60.7731 47.4653 60.5636 47.4919 60.3607C47.4952 60.3341 47.5019 60.3042 47.5052 60.2776C47.3822 60.1147 47.1993 60.0116 46.9532 60.0116C46.7337 60.0116 46.5509 60.1213 46.4212 60.2975C46.4245 59.5992 46.5143 59.1603 46.8767 59.1603C47.1328 59.1603 47.2592 59.403 47.2592 59.8187H47.6249C47.6249 59.2601 47.4088 58.8411 46.8967 58.8411C46.3846 58.8411 46.0554 59.2334 46.0554 60.4871C46.0554 61.6011 46.3813 61.9569 46.92 61.9569ZM46.9 60.3308C47.2026 60.3308 47.339 60.6234 47.339 60.9859C47.339 61.3483 47.2026 61.641 46.9 61.641C46.5974 61.641 46.4577 61.3483 46.4577 60.9859C46.4577 60.6234 46.5974 60.3308 46.9 60.3308Z" fill="#51B1E0"/>
  <path d="M48.7821 61.814C48.9085 61.9038 49.0748 61.957 49.2876 61.957C49.8728 61.957 50.1123 61.5613 50.1123 61.0791C50.1123 60.7533 49.9992 60.4939 49.7232 60.3576C49.9427 60.2112 50.0524 59.9618 50.0524 59.6759C50.0524 59.2137 49.793 58.8379 49.2876 58.8379C48.7821 58.8379 48.5228 59.217 48.5228 59.6759C48.5228 59.9618 48.6325 60.2112 48.8486 60.3576C48.5992 60.4839 48.4862 60.7134 48.4695 61.0027C48.7888 61.2088 48.7988 61.5081 48.7821 61.814ZM49.2876 59.1604C49.5337 59.1604 49.6966 59.3566 49.6966 59.6825C49.6966 60.0084 49.5337 60.2046 49.2876 60.2046C49.0415 60.2046 48.8852 60.0084 48.8852 59.6825C48.8852 59.3566 49.0448 59.1604 49.2876 59.1604ZM49.2876 60.5271C49.5869 60.5271 49.7432 60.7366 49.7432 61.0791C49.7432 61.4216 49.5835 61.6378 49.2876 61.6378C48.9916 61.6378 48.832 61.4216 48.832 61.0791C48.832 60.7366 48.9916 60.5271 49.2876 60.5271Z" fill="#51B1E0"/>
</svg>