<svg xmlns="http://www.w3.org/2000/svg" width="80" height="81" viewBox="0 0 80 81" fill="none">
  <path d="M19.29 19.3344L18.6669 18.6812L16.671 20.5867L17.2942 21.24L17.9745 20.5897L21.4605 24.2413L22.0987 23.6302L19.0944 20.4844C18.8686 20.6018 18.6278 20.6861 18.3418 20.68C18.3809 20.3941 18.5224 20.2195 18.694 20.0659L18.6097 19.9786L19.287 19.3314L19.29 19.3344Z" fill="#E0DC51"/>
  <path d="M23.8928 22.1159L22.3967 20.0869L23.2546 19.4547L24.7508 21.4807L25.4612 20.9569L21.927 16.1704L21.2166 16.6942L22.7158 18.7262L21.8578 19.3614L20.3586 17.3294L19.6482 17.8532L23.1824 22.6397L23.8928 22.1159Z" fill="#E0DC51"/>
  <path d="M25.5124 17.9977L26.5509 17.4137L26.1084 16.628L25.0698 17.212L24.2751 15.7972L25.699 14.9964L25.2565 14.2107L23.9169 14.9633C23.9229 14.9874 23.9289 15.0114 23.9379 15.0355C23.8898 15.0566 23.8416 15.0987 23.7995 15.0927C23.7724 15.0897 23.7573 15.0747 23.7483 15.0596L23.0649 15.4419L23.8115 16.7695C23.8115 16.7695 23.8145 16.7695 23.8175 16.7695C24.0002 16.6029 24.1788 16.6019 24.3534 16.7665C24.4015 16.8357 24.4678 16.902 24.4888 16.9772C24.528 17.1097 24.4286 17.2602 24.3293 17.212C24.2209 17.1608 24.1125 17.1337 24.0072 17.1187L25.7743 20.2645C25.8555 20.096 25.979 19.9725 26.1175 19.8612C26.1265 19.8341 26.1325 19.8039 26.1506 19.7799C26.3733 19.4879 26.5178 19.4337 26.6864 19.5812C26.9001 19.7708 26.8971 19.9063 26.6683 20.2164C26.4365 20.3609 26.1987 20.4813 25.9218 20.5234L25.985 20.6378L28.1795 19.4036L27.737 18.6179L26.3131 19.4186L25.5184 18.0037L25.5124 17.9977Z" fill="#E0DC51"/>
  <path d="M28.2007 13.5393C28.2007 13.5393 28.3181 13.5543 28.3392 13.5904C28.3964 13.6868 28.4325 13.7952 28.4506 13.8403C28.4506 14.033 28.4204 14.1413 28.3301 14.2256L29.9166 18.6087L32.1804 17.7899L31.8763 16.95L30.4434 17.4678L28.7215 12.7114L27.8906 13.0125L28.1224 13.6537C28.1465 13.6145 28.1676 13.5784 28.1977 13.5423L28.2007 13.5393ZM30.0822 17.9796C30.1484 17.9284 30.2056 17.8441 30.2778 17.829C30.4314 17.7959 30.5638 17.8501 30.5849 18.0337C30.6 18.1602 30.5428 18.2655 30.4163 18.2926C30.311 18.3167 30.1785 18.3348 30.0852 18.2926C29.8895 18.2083 29.9467 18.0849 30.0792 17.9765L30.0822 17.9796Z" fill="#E0DC51"/>
  <path d="M32.3038 16.327C32.3941 16.7093 32.6048 17.0043 32.9299 17.2121C33.2581 17.4198 33.6133 17.48 33.9926 17.3897C34.3689 17.3024 34.6579 17.0887 34.8626 16.7575C35.0673 16.4234 35.1215 16.0651 35.0312 15.6798L34.2846 12.5189C34.1943 12.1366 33.9836 11.8416 33.6554 11.6339C33.3243 11.4262 32.9721 11.3659 32.5928 11.4562C32.2195 11.5435 31.9305 11.7543 31.7288 12.0884C31.5241 12.4226 31.4699 12.7808 31.5602 13.1661L32.3068 16.327H32.3038ZM32.4483 11.9831C32.662 11.7784 32.945 11.8807 33.1948 11.8265C33.3775 11.66 33.5561 11.659 33.7307 11.8235C33.7789 11.8928 33.8451 11.959 33.8662 12.0343C33.9053 12.1667 33.806 12.3172 33.7066 12.269C33.3062 12.0824 32.9149 12.1878 32.5175 12.245C32.4844 12.251 32.4242 12.1757 32.4091 12.1306C32.3971 12.0854 32.4122 12.0132 32.4453 11.9801L32.4483 11.9831ZM32.4573 12.5611C32.5326 12.4406 32.6379 12.3654 32.7734 12.3323C32.9089 12.2992 33.0383 12.3202 33.1557 12.3955C33.2731 12.4707 33.3514 12.5761 33.3815 12.7146L34.1311 15.8845C34.1642 16.023 34.1431 16.1524 34.0709 16.2728C33.9986 16.3932 33.8932 16.4685 33.7578 16.5016C33.6223 16.5347 33.4929 16.5137 33.3725 16.4384C33.252 16.3632 33.1768 16.2578 33.1437 16.1193L32.3941 12.9494C32.361 12.8109 32.3821 12.6815 32.4573 12.5611Z" fill="#E0DC51"/>
  <path d="M36.3076 10.8751L35.3202 10.9745L35.7025 14.8187C35.7176 14.8428 35.7326 14.8669 35.7416 14.897C35.7567 14.9481 35.7507 14.9993 35.7236 15.0354L35.8259 16.074C35.8892 16.068 35.9524 16.0921 36.0186 16.1493C36.2323 16.3389 36.2293 16.4744 36.0005 16.7845C35.9674 16.8055 35.9373 16.8206 35.9042 16.8386L35.9102 16.8989L36.7892 16.8116L36.413 13.0155L37.9994 16.6911L38.9447 16.5978L38.3577 10.6704L37.4786 10.7577L37.4937 10.8962C37.4937 10.8962 37.5178 10.8811 37.5328 10.8811C37.6863 10.848 37.8188 10.9022 37.8399 11.0858C37.8549 11.2123 37.7977 11.3176 37.6713 11.3447C37.6291 11.3538 37.584 11.3598 37.5418 11.3658L37.876 14.7434L36.3136 10.8751H36.3076Z" fill="#E0DC51"/>
  <path d="M41.9129 16.2548C42.1929 15.9869 42.3404 15.6557 42.3554 15.2614L42.4638 12.1517C42.4788 11.7633 42.3554 11.4231 42.0935 11.1372C41.8346 10.8482 41.5095 10.6977 41.1242 10.6856L39.7364 10.6375L39.5287 16.5889L40.9165 16.6371C41.2988 16.6491 41.6329 16.5227 41.9129 16.2548ZM40.8472 11.2636C40.8803 11.2275 40.9375 11.2154 40.9827 11.1913C40.9947 11.2395 41.0098 11.2877 41.0218 11.3359C40.9767 11.3569 40.9255 11.3991 40.8834 11.3931C40.8141 11.381 40.7991 11.3178 40.8472 11.2666V11.2636ZM40.3746 14.8821C40.3505 14.6864 40.3927 14.5058 40.492 14.3432L40.5251 13.4401C40.4258 13.4552 40.3264 13.4732 40.2241 13.4883C40.191 13.4943 40.1308 13.419 40.1157 13.3739C40.1037 13.3287 40.1157 13.2565 40.1518 13.2233C40.2662 13.115 40.3987 13.0909 40.5372 13.0879L40.5913 11.5857L41.1242 11.6038C41.2627 11.6098 41.3771 11.664 41.4704 11.7694C41.5637 11.8747 41.6088 11.9981 41.6058 12.1396L41.5667 13.2625C41.5667 13.2625 41.5697 13.2715 41.5727 13.2745C41.5878 13.3257 41.5818 13.3829 41.5607 13.4281L41.4975 15.2523C41.4914 15.3908 41.4403 15.5112 41.3409 15.6106C41.2416 15.7099 41.1212 15.7581 40.9797 15.7521L40.4468 15.734L40.4739 14.9513C40.4228 14.9393 40.3806 14.9152 40.3776 14.8821H40.3746Z" fill="#E0DC51"/>
  <path d="M43.2736 15.0867C43.3007 15.177 43.2676 15.2613 43.1743 15.2854C43.1532 15.2914 43.1382 15.2884 43.1231 15.2854L43.102 15.4058C43.0478 15.7309 43.102 16.029 43.2465 16.3059C43.3549 16.2367 43.4482 16.2517 43.5506 16.342C43.7162 16.4865 43.7493 16.6039 43.6529 16.7876C43.8245 16.914 44.0202 17.0043 44.246 17.0404C44.6283 17.1037 44.9775 17.0194 45.2936 16.7936C45.6097 16.5648 45.7993 16.2547 45.8655 15.8664L46.3954 12.6603C46.4586 12.272 46.3803 11.9198 46.1545 11.6007C45.9318 11.2816 45.6277 11.0889 45.2424 11.0257C44.8631 10.9625 44.5169 11.0468 44.2008 11.2756C43.8847 11.5044 43.6951 11.8144 43.6288 12.2028L43.1713 14.9573C43.2194 14.9843 43.2526 15.0295 43.2676 15.0867H43.2736ZM44.9263 11.5555C44.9925 11.5044 45.0497 11.4201 45.125 11.405C45.2785 11.3719 45.411 11.4261 45.4321 11.6097C45.4471 11.7362 45.3899 11.8415 45.2635 11.8686C45.1581 11.8927 45.0257 11.9108 44.9323 11.8686C44.7367 11.7843 44.7939 11.6609 44.9263 11.5525V11.5555ZM43.957 15.5383L44.4898 12.3232C44.5139 12.1817 44.5831 12.0703 44.6975 11.989C44.8119 11.9078 44.9384 11.8777 45.0768 11.9017C45.2153 11.9258 45.3237 11.9921 45.405 12.1095C45.4862 12.2239 45.5133 12.3503 45.4923 12.4918L44.9594 15.7068C44.9353 15.8483 44.8691 15.9597 44.7547 16.041C44.6403 16.1223 44.5169 16.1524 44.3784 16.1313C44.24 16.1072 44.1286 16.041 44.0473 15.9236C43.966 15.8092 43.9359 15.6797 43.96 15.5413L43.957 15.5383Z" fill="#E0DC51"/>
  <path d="M48.1685 13.9578L48.2136 17.9376L49.1227 18.2145L49.3515 17.4679C49.3666 17.4017 49.3846 17.3355 49.4087 17.2813L49.9506 15.5172C49.8482 15.5413 49.7971 15.463 49.779 15.3727C49.7609 15.2854 49.779 15.2071 49.8693 15.165C49.9446 15.165 49.9987 15.2041 50.0289 15.2583L50.8688 12.5189L50.0228 12.26L48.8488 16.0862L48.8759 13.9789C48.6381 13.9037 48.4033 13.9187 48.1685 13.9548V13.9578Z" fill="#E0DC51"/>
  <path d="M47.0486 17.5823L48.1594 13.9578C48.048 13.9728 47.9336 13.9939 47.8223 14.009C47.7891 14.015 47.7289 13.9397 47.7139 13.8946C47.7018 13.8494 47.7139 13.7772 47.75 13.7441C47.9637 13.5394 48.2467 13.6417 48.4966 13.5875C48.7043 13.3979 48.7555 13.3527 48.8819 13.449L48.9 11.9168L48.611 11.8295C48.611 11.8295 48.617 11.8475 48.62 11.8566C48.5718 11.8776 48.5237 11.9198 48.4815 11.9107C48.4123 11.8987 48.3972 11.8355 48.4454 11.7843C48.4454 11.7843 48.4514 11.7813 48.4544 11.7783L47.9517 11.6248L46.2057 17.3204L47.0516 17.5793L47.0486 17.5823ZM47.3406 14.4756C47.3406 14.4756 47.458 14.4906 47.4791 14.5268C47.5363 14.6231 47.5724 14.7315 47.5905 14.7766C47.5905 14.9723 47.5604 15.0776 47.467 15.1649C47.4008 15.2282 47.16 15.1951 47.1509 15.1168C47.1239 14.879 47.1841 14.6622 47.3376 14.4786L47.3406 14.4756Z" fill="#E0DC51"/>
  <path d="M53.7075 20.4543L54.1409 19.6626L52.708 18.8799L53.4877 17.456L54.5353 18.0279L54.9688 17.2362L53.9212 16.6643L54.7009 15.2404L56.1338 16.0231L56.5673 15.2313L54.3607 14.0242L52.13 18.1032C52.1541 18.1363 52.1722 18.1755 52.1782 18.2296C52.1932 18.3561 52.136 18.4615 52.0096 18.4885C51.9765 18.4946 51.9434 18.5006 51.9073 18.5066L51.5009 19.2502L53.7105 20.4573L53.7075 20.4543ZM54.6196 14.2409C54.6196 14.2409 54.737 14.256 54.7581 14.2921C54.8153 14.3884 54.8514 14.4968 54.8695 14.5389C54.8695 14.7346 54.8394 14.84 54.746 14.9273C54.6798 14.9905 54.439 14.9574 54.43 14.8791C54.4029 14.6413 54.4631 14.4245 54.6166 14.2409H54.6196Z" fill="#E0DC51"/>
  <path d="M57.5908 16.9773C57.4493 17.0646 57.3078 17.1428 57.1573 17.2L56.5011 19.3344L55.8237 20.2676C55.8598 20.3158 55.899 20.3609 55.914 20.4151C55.9532 20.5476 55.8538 20.6981 55.7545 20.6499C55.7003 20.6228 55.6431 20.6048 55.5889 20.5897L55.2819 21.0112C55.327 21.0955 55.3541 21.1797 55.3722 21.2159C55.3722 21.3664 55.3541 21.4657 55.2999 21.544L55.7515 21.8721L57.2145 19.8522L60.2068 17.7449L59.4151 17.1699L57.636 18.5186L58.3585 16.4023L57.5697 15.8303L57.4373 16.2578C57.4915 16.2578 57.5457 16.2849 57.6029 16.333C57.8166 16.5197 57.8136 16.6582 57.5848 16.9682L57.5908 16.9773ZM57.6932 18.5427C57.7594 18.4915 57.8166 18.4072 57.8888 18.3921C58.0424 18.359 58.1748 18.4132 58.1959 18.5968C58.2109 18.7233 58.1537 18.8286 58.0273 18.8557C57.9219 18.8798 57.7895 18.8979 57.6962 18.8557C57.5005 18.7714 57.5577 18.648 57.6902 18.5396L57.6932 18.5427Z" fill="#E0DC51"/>
  <path d="M57.0972 22.9166L57.5216 23.32C57.5216 23.32 57.5367 23.305 57.5457 23.299C57.5547 23.2719 57.5608 23.2418 57.5788 23.2177C57.8016 22.9257 57.9461 22.8715 58.1147 23.019C58.3284 23.2056 58.3254 23.3441 58.0966 23.6542C58.0515 23.6813 58.0063 23.7054 57.9642 23.7324L58.9305 24.6476L59.5506 23.9913L58.3645 22.8715L59.4814 21.6914L60.3484 22.5102L60.9685 21.854L60.1015 21.0352L61.2184 19.8551L62.4044 20.9749L63.0246 20.3187L61.3628 18.7473C61.3719 18.7804 61.3809 18.8135 61.3899 18.8466C61.3448 18.8677 61.2936 18.9099 61.2515 18.9008C61.1822 18.8888 61.1672 18.8255 61.2153 18.7744C61.2424 18.7443 61.2876 18.7292 61.3267 18.7112L61.1943 18.5847L57.1032 22.9136L57.0972 22.9166Z" fill="#E0DC51"/>
  <path d="M19.874 55.7266C19.6663 55.7807 19.4495 55.7747 19.2237 55.7085C18.998 55.6423 18.8083 55.5339 18.6578 55.3804L18.1641 55.7657L18.6277 56.3587L15.0153 59.1794L15.5601 59.8748L20.2563 56.2082L19.877 55.7205L19.874 55.7266Z" fill="#E0DC51"/>
  <path d="M22.0776 58.6737C22.0866 58.2854 21.9572 57.9512 21.6863 57.6713C21.4153 57.3943 21.0872 57.2528 20.6958 57.2498C20.3045 57.2468 19.9703 57.3823 19.6844 57.6592L17.3543 59.926C17.0744 60.2 16.9269 60.5311 16.9208 60.9194C16.9118 61.3078 17.0443 61.6419 17.3152 61.9219C17.5831 62.1958 17.9113 62.3373 18.2996 62.3403C18.6879 62.3464 19.0251 62.2079 19.3081 61.9339L21.6381 59.6671C21.9181 59.3932 22.0656 59.0621 22.0746 58.6737H22.0776ZM21.0119 58.9988L18.6789 61.2687C18.5765 61.368 18.4531 61.4162 18.3116 61.4162C18.1701 61.4162 18.0497 61.365 17.9504 61.2656C17.8541 61.1663 17.8059 61.0429 17.8089 60.9044C17.8119 60.7629 17.8661 60.6425 17.9685 60.5431L20.3015 58.2733C20.4038 58.174 20.5242 58.1228 20.6657 58.1228C20.8072 58.1228 20.9276 58.174 21.024 58.2733C21.1203 58.3727 21.1685 58.4961 21.1655 58.6376C21.1624 58.7791 21.1113 58.8995 21.0059 58.9988H21.0119Z" fill="#E0DC51"/>
  <path d="M24.513 61.4523L25.0759 60.7479L22.9235 59.0229L22.3606 59.7274L23.0921 60.3144L19.9342 64.2519L20.6236 64.8059L23.7814 60.8683L24.513 61.4523Z" fill="#E0DC51"/>
  <path d="M25.8556 64.2279L24.9435 63.6709L26.262 61.5155L25.5094 61.0549L22.4058 66.1334L23.1584 66.594L24.4739 64.4416L25.383 64.9985L24.0675 67.1509L24.8231 67.6115L27.9268 62.533L27.1742 62.0724L25.8556 64.2279Z" fill="#E0DC51"/>
  <path d="M31.1448 63.9751L29.1279 67.7591C29.1128 67.8524 29.0797 67.9187 29.0195 67.9759C29.0195 67.9759 29.0135 67.9789 29.0105 67.9819L28.306 69.3004L29.179 69.5924L29.8172 68.3642L30.6932 68.6592L30.4524 70.0229L30.9251 70.1825C31.0003 69.9567 31.1448 69.8062 31.3134 69.6707C31.3224 69.6436 31.3284 69.6135 31.3435 69.5894C31.3917 69.5262 31.4338 69.478 31.4759 69.4389L32.2978 64.3664L31.1448 63.9781V63.9751ZM30.8468 67.7862L30.2266 67.5785L31.2833 65.4592L30.8468 67.7892V67.7862ZM31.5 68.3311C31.3916 68.3582 31.3435 68.2769 31.3224 68.1866C31.3043 68.0993 31.3224 68.021 31.4127 67.9789C31.5151 67.9789 31.5723 68.0451 31.5964 68.1324C31.6234 68.2227 31.5903 68.307 31.497 68.3311H31.5Z" fill="#E0DC51"/>
  <path d="M31.3344 70.3149L31.3404 70.2727C31.3164 70.2817 31.2923 70.2878 31.2682 70.2938L31.3344 70.3149Z" fill="#E0DC51"/>
  <path d="M35.8951 65.2666L35.1034 69.1921L34.7452 65.0348L33.7728 64.8391L33.6193 65.5947C33.7096 65.5947 33.7969 65.5947 33.8842 65.5767C34.0669 65.4101 34.2455 65.4091 34.4201 65.5736C34.4682 65.6429 34.5345 65.7091 34.5555 65.7844C34.5947 65.9168 34.4953 66.0673 34.396 66.0192C34.11 65.8867 33.83 65.9018 33.5471 65.9439L32.5928 70.6762L33.4598 70.8508L34.2124 67.1119L34.6519 71.0916L35.5821 71.2783L36.7591 65.4382L35.8921 65.2636L35.8951 65.2666ZM33.8451 68.4816C33.7789 68.5449 33.538 68.5118 33.529 68.4335C33.5019 68.1957 33.5621 67.9789 33.7156 67.7953C33.7277 67.7802 33.833 67.8103 33.8541 67.8465C33.9113 67.9428 33.9474 68.0512 33.9655 68.0933C33.9655 68.289 33.9354 68.3943 33.8421 68.4816H33.8451Z" fill="#E0DC51"/>
  <path d="M39.2517 69.6404L38.3215 65.5734L37.3311 65.5132L36.9758 71.4587L37.8579 71.5128L38.0837 67.7047L39.071 71.5851L40.0193 71.6423L40.3745 65.6968L39.4925 65.6426L39.2517 69.6404Z" fill="#E0DC51"/>
  <path d="M41.9852 66.6874L41.94 65.6157L41.058 65.6518L41.1062 66.844C41.2627 66.8199 41.4313 66.8439 41.5878 66.8138C41.8015 66.6182 41.8497 66.579 41.9852 66.6874Z" fill="#E0DC51"/>
  <path d="M41.1212 67.2022L41.1603 68.1234C41.1844 68.0782 41.2145 68.0331 41.2506 67.9909C41.2627 67.9759 41.368 68.006 41.3891 68.0421C41.4463 68.1384 41.4824 68.2468 41.5005 68.292C41.5005 68.4876 41.4704 68.593 41.3771 68.6803C41.3409 68.7134 41.2566 68.7194 41.1814 68.7044L41.3018 71.6004L42.1838 71.5642L42.0032 67.2233C41.7052 67.1179 41.4132 67.154 41.1182 67.2022H41.1212Z" fill="#E0DC51"/>
  <path d="M45.6186 65.6188C45.423 65.5345 45.4802 65.4111 45.6126 65.3027C45.6788 65.2515 45.736 65.1672 45.8113 65.1522C45.8263 65.1492 45.8414 65.1522 45.8564 65.1522V65.1401L44.9413 65.2756L44.8811 69.9718L43.4813 65.4893L42.5631 65.6248L44.0201 70.023C44.0954 70.0049 44.1646 70.029 44.2399 70.0922C44.4476 70.2728 44.4476 70.4113 44.2399 70.6943L44.4596 71.3596L45.6638 71.1819L45.8384 65.6369C45.7601 65.6459 45.6819 65.6459 45.6186 65.6188ZM43.8606 69.0325C43.7522 69.0596 43.704 68.9784 43.683 68.888C43.6649 68.8007 43.683 68.7225 43.7733 68.6803C43.8756 68.6803 43.9328 68.7466 43.9569 68.8339C43.984 68.9242 43.9509 69.0085 43.8576 69.0325H43.8606Z" fill="#E0DC51"/>
  <path d="M50.1823 69.1649L48.6109 69.6105L48.1654 68.0481L49.3123 67.723L49.3003 67.6839C49.0353 67.6628 48.7734 67.72 48.5055 67.7591C48.4724 67.7651 48.4122 67.6899 48.3971 67.6447C48.3851 67.5996 48.3971 67.5273 48.4333 67.4942C48.647 67.2895 48.93 67.3918 49.1798 67.3377C49.1859 67.3316 49.1919 67.3286 49.1979 67.3226L49.0654 66.853L47.9185 67.1781L47.473 65.6157L49.0444 65.1702L48.7975 64.3032L46.3772 64.9926L48.0058 70.7213L50.4261 70.0319L50.1793 69.1649H50.1823ZM48.1563 68.9121C48.0901 68.9753 47.8493 68.9422 47.8402 68.8639C47.8131 68.6261 47.8734 68.4093 48.0269 68.2257C48.0389 68.2107 48.1443 68.2408 48.1654 68.2769C48.2226 68.3732 48.2587 68.4816 48.2767 68.5268C48.2767 68.7224 48.2466 68.8278 48.1533 68.9151L48.1563 68.9121Z" fill="#E0DC51"/>
  <path d="M52.675 65.2062L52.3408 64.4085C52.1753 64.0111 51.9495 63.7402 51.6695 63.5987C51.6665 63.5987 51.6605 63.5957 51.6575 63.5927C51.7508 63.7311 51.7087 63.8666 51.531 64.1074C51.236 64.2881 50.932 64.4416 50.5527 64.4326C50.5978 64.1014 50.7785 63.9178 50.9832 63.7522C50.9922 63.7251 50.9982 63.695 51.0163 63.6739C51.0795 63.5927 51.1337 63.5325 51.1848 63.4873C50.9801 63.4873 50.7544 63.5355 50.5105 63.6378L49.2251 64.1767L51.525 69.6646L52.3408 69.3214L51.4738 67.2533L51.9435 67.0576C51.9706 67.0456 51.9946 67.0365 52.0157 67.0275L53.3764 68.8879L54.2584 68.5176L52.6509 66.3742C52.8285 65.9829 52.8375 65.5946 52.675 65.2062ZM51.8953 65.9498C51.8441 66.0822 51.7538 66.1725 51.6244 66.2297L51.1337 66.4344L50.3961 64.6764L50.8868 64.4717C51.1969 64.3423 51.4196 64.4356 51.5521 64.7547L51.8893 65.5554C51.9435 65.6879 51.9465 65.8173 51.8953 65.9498Z" fill="#E0DC51"/>
  <path d="M56.5763 64.9022C56.5041 64.845 56.4198 64.7848 56.3204 64.7246C56.1097 64.5951 55.8569 64.4898 55.5558 64.4055C55.4655 64.3784 55.2849 64.3392 55.02 64.2911C54.7972 64.2519 54.6196 64.2068 54.4901 64.1556C54.15 64.0262 53.9121 63.8425 53.7767 63.6047C53.6894 63.4542 53.6472 63.3097 53.6502 63.1742C53.6502 63.0057 53.7225 62.8822 53.864 62.8009C53.9964 62.7257 54.1229 62.7106 54.2403 62.7558C54.4059 62.819 54.5594 62.9485 54.7009 63.1502L55.3571 62.5932C55.2096 62.3795 55.041 62.2109 54.8484 62.0905C54.6557 61.9701 54.457 61.9069 54.2493 61.8948C53.9844 61.8828 53.7135 61.955 53.4395 62.1116C53.1565 62.2741 52.9579 62.4819 52.8495 62.7377C52.6779 63.1592 52.7231 63.6017 52.994 64.0743C53.1445 64.3362 53.3372 64.547 53.578 64.7035C53.7978 64.842 54.1048 64.9624 54.5022 65.0678C54.9718 65.1852 55.324 65.2755 55.5588 65.3357C55.8719 65.438 56.0917 65.5976 56.2121 65.8113C56.2964 65.9588 56.3355 66.0883 56.3295 66.1966C56.3204 66.4164 56.2361 66.5759 56.0706 66.6783C55.9532 66.7505 55.8207 66.7626 55.6702 66.7144C55.4685 66.6512 55.2638 66.4766 55.0621 66.1936L54.3607 66.6663C54.5353 66.9312 54.728 67.1449 54.9477 67.3014C55.1645 67.461 55.3933 67.5543 55.6281 67.5844C55.6822 67.5904 55.7394 67.5935 55.7966 67.5904C55.7695 67.5664 55.7455 67.5302 55.7364 67.5031C55.7244 67.458 55.7364 67.3857 55.7726 67.3526C55.9863 67.1479 56.2693 67.2503 56.5191 67.1961C56.7298 67.0034 56.781 66.9613 56.9105 67.0636C57.0881 66.865 57.1904 66.6482 57.2175 66.4104C57.2627 66.0461 57.1784 65.6849 56.9677 65.3297C56.8804 65.1852 56.7509 65.0407 56.5703 64.8992L56.5763 64.9022ZM56.5101 65.5223C56.4409 65.5103 56.4258 65.4471 56.474 65.3959C56.5071 65.3598 56.5643 65.3477 56.6094 65.3236C56.6215 65.3718 56.6365 65.42 56.6486 65.4681C56.6004 65.4892 56.5522 65.5314 56.5101 65.5223Z" fill="#E0DC51"/>
  <path d="M56.2874 60.3323C56.3566 60.3263 56.4228 60.3865 56.5583 60.513C56.6064 60.5822 56.6727 60.6484 56.6937 60.7237C56.7329 60.8561 56.6336 61.0067 56.5342 60.9585C56.3295 60.8622 56.1248 60.8441 55.9231 60.8561L58.6174 66.0249L59.3519 65.471L58.6987 64.2488L59.4362 63.6919L60.4236 64.6582L61.1641 64.0983L56.7961 59.938L56.2813 60.3263L56.2874 60.3323ZM58.8732 63.9658C58.5782 64.1465 58.2742 64.3 57.8949 64.291C57.94 63.9598 58.1207 63.7762 58.3254 63.6106C58.3344 63.5835 58.3404 63.5534 58.3555 63.5324C58.5782 63.2404 58.7227 63.1862 58.8913 63.3337C59.105 63.5203 59.102 63.6588 58.8732 63.9689V63.9658ZM58.4307 61.9218C58.5331 61.9218 58.5903 61.988 58.6144 62.0753C58.6415 62.1656 58.6083 62.2499 58.515 62.274C58.4066 62.3011 58.3585 62.2198 58.3374 62.1295C58.3194 62.0422 58.3374 61.964 58.4277 61.9218H58.4307ZM58.81 63.0778L58.2862 63.4722L57.1333 61.401L58.807 63.0778H58.81Z" fill="#E0DC51"/>
  <path d="M61.2604 61.1934C61.2484 61.1543 61.2605 61.0971 61.2845 61.061L61.2273 61.0038L61.5886 60.6425C61.6097 60.6215 61.6277 60.6034 61.6458 60.5853L62.0793 60.8533C62.3141 60.6395 62.3291 60.6486 62.579 60.8834C62.6272 60.9526 62.6934 61.0188 62.7145 61.0941C62.7295 61.1453 62.7235 61.1964 62.7054 61.2416L63.6055 61.7955L64.2829 61.1212L61.986 59.7424C62.004 59.315 61.8625 58.9507 61.5675 58.6527L60.9564 58.0416C60.6524 57.7375 60.3423 57.569 60.0292 57.5419C59.671 57.5088 59.3188 57.6683 58.9696 58.0145L57.9822 58.9989L62.1816 63.2164L62.8078 62.5933L61.5073 61.2898C61.4621 61.2988 61.414 61.3048 61.3658 61.3109C61.3327 61.3169 61.2725 61.2416 61.2575 61.1965L61.2604 61.1934ZM58.81 59.1675C58.7047 59.1916 58.5722 59.2096 58.4789 59.1675C58.2832 59.0832 58.3404 58.9597 58.4729 58.8514C58.5391 58.8002 58.5963 58.7159 58.6715 58.7009C58.8251 58.6677 58.9575 58.7219 58.9786 58.9056C58.9937 59.032 58.9365 59.1374 58.81 59.1645V59.1675ZM60.9775 59.9983L60.5982 60.3746L59.2556 59.026L59.6319 58.6497C59.8697 58.4119 60.1105 58.4149 60.3543 58.6587L60.9685 59.2758C61.0678 59.3782 61.119 59.4986 61.122 59.6401C61.122 59.7816 61.0738 59.902 60.9745 60.0013L60.9775 59.9983Z" fill="#E0DC51"/>
  <path d="M64.3912 57.6562C64.0962 57.8368 63.7922 57.9904 63.4128 57.9813C63.458 57.6502 63.6386 57.4666 63.8433 57.301C63.8524 57.2739 63.8584 57.2438 63.8764 57.2197C63.9035 57.1866 63.9276 57.1565 63.9517 57.1294L62.1334 54.3147L61.5825 55.0131C61.6277 55.0974 61.6578 55.1817 61.6729 55.2178C61.6729 55.2419 61.6729 55.263 61.6729 55.284L62.8078 56.9126L60.7216 56.1059L60.1195 56.8705L63.5724 58.0807L65.5321 59.622L66.08 58.9266L64.4153 57.6171C64.4153 57.6171 64.4002 57.6381 64.3912 57.6502V57.6562ZM64.7103 58.0927C64.8638 58.0596 64.9963 58.1138 65.0174 58.2974C65.0324 58.4239 64.9752 58.5292 64.8488 58.5563C64.7434 58.5804 64.611 58.5985 64.5176 58.5563C64.322 58.472 64.3792 58.3486 64.5116 58.2402C64.5779 58.189 64.6351 58.1048 64.7103 58.0897V58.0927Z" fill="#E0DC51"/>
  <path d="M78.8802 34.1333C79.2234 36.2194 79.3859 38.3237 79.398 40.434C79.3919 41.331 79.3528 42.2251 79.2836 43.1132C79.3077 43.1252 79.3348 43.1433 79.3588 43.1644C79.5726 43.351 79.5696 43.4895 79.3408 43.7995C79.3016 43.8236 79.2595 43.8447 79.2204 43.8688C79.0849 45.2837 78.8742 46.6835 78.5882 48.0622C78.6484 48.0863 78.6845 48.1375 78.7056 48.2037C78.7327 48.294 78.6996 48.3783 78.6062 48.4024C78.5701 48.4114 78.54 48.4024 78.5159 48.3934C78.3925 48.9593 78.257 49.5222 78.1065 50.0822C78.1878 49.9467 78.2962 49.8383 78.4166 49.739C78.4256 49.7119 78.4316 49.6818 78.4467 49.6577C78.6695 49.3657 78.814 49.3115 78.9825 49.459C78.9886 49.462 78.9916 49.4681 78.9946 49.4711C79.2023 48.5529 79.3859 47.6257 79.5274 46.6895C79.8465 44.6184 79.988 42.5262 80 40.434C79.982 36.9209 79.5033 33.465 78.6243 30.1445C78.4437 30.2439 78.257 30.3221 78.0493 30.3553C78.3895 31.5955 78.6725 32.8539 78.8832 34.1333H78.8802Z" fill="#E0DC51"/>
  <path d="M71.6673 64.7306C71.7336 64.6794 71.7908 64.5951 71.863 64.5801C71.9172 64.5681 71.9654 64.5741 72.0105 64.5861C73.3652 62.7649 74.5663 60.8262 75.6019 58.7972C75.6019 58.7972 75.6019 58.7972 75.5989 58.7972C75.5296 58.7851 75.5146 58.7219 75.5627 58.6707C75.5958 58.6346 75.653 58.6226 75.6982 58.5985C75.6982 58.6015 75.6982 58.6045 75.6982 58.6075C77.0408 55.9434 78.0945 53.1166 78.8199 50.1755C78.5761 50.314 78.3172 50.4193 78.0102 50.4193C77.7452 51.3887 77.4412 52.343 77.104 53.2852C77.1191 53.2972 77.1311 53.3093 77.1462 53.3243C77.1944 53.3936 77.2606 53.4598 77.2817 53.5351C77.3208 53.6675 77.2214 53.818 77.1221 53.7699C77.0649 53.7428 77.0077 53.7247 76.9505 53.7097C74.4188 60.5071 70.0297 66.5308 64.3311 71.0403C64.319 71.0584 64.307 71.0765 64.2919 71.0945C64.2558 71.1156 64.2227 71.1336 64.1866 71.1547C60.9926 73.6563 57.3922 75.6883 53.4787 77.1122C51.0132 78.0093 48.4905 78.6355 45.9438 79.0118C45.9197 79.0298 45.8896 79.0449 45.8565 79.0539C45.7601 79.075 45.6488 79.087 45.5584 79.063C41.8135 79.5777 38.0265 79.5536 34.3238 79.0058C34.3719 79.075 34.4382 79.1412 34.4592 79.2165C34.4984 79.3489 34.399 79.4995 34.2997 79.4513C33.8993 79.2646 33.508 79.37 33.1106 79.4272C33.0775 79.4332 33.0173 79.358 33.0022 79.3128C32.9902 79.2677 33.0052 79.1954 33.0383 79.1623C33.2521 78.9576 33.5351 79.0599 33.7849 79.0058C33.818 78.9757 33.8451 78.9516 33.8722 78.9275C24.7056 77.4675 16.0779 72.8586 9.88262 65.5976C6.22201 61.3048 3.63009 56.3317 2.13996 51.0816C1.92622 51.0876 1.7155 51.1298 1.50176 51.1629C1.46865 51.1689 1.40845 51.0937 1.39339 51.0485C1.38135 51.0033 1.3964 50.9311 1.42952 50.898C1.60713 50.7294 1.8329 50.7686 2.04664 50.7565C0.384918 44.7087 0.189251 38.3056 1.50779 32.1585C1.50779 32.1585 1.50779 32.1585 1.50478 32.1585C1.47166 32.1645 1.41145 32.0892 1.3964 32.0441C1.38436 31.9989 1.39641 31.9267 1.43253 31.8936C1.4807 31.8484 1.53488 31.8183 1.58907 31.7972C2.4109 28.1306 3.76857 24.5603 5.68918 21.2128C5.68015 21.1526 5.72832 21.0834 5.80358 21.0231C6.02333 20.6438 6.2461 20.2675 6.48091 19.8943C7.85664 17.7057 9.43708 15.6888 11.1801 13.8494C11.159 13.8494 11.144 13.8555 11.1229 13.8555C11.168 13.5243 11.3487 13.3407 11.5534 13.1751C11.5624 13.148 11.5684 13.1179 11.5865 13.0938C11.8092 12.8048 11.9538 12.7507 12.1193 12.8921C17.0112 8.07858 23.0831 4.62871 29.6457 2.83152C29.6938 2.50941 29.8714 2.32577 30.0731 2.1602C30.0822 2.1331 30.0882 2.10301 30.1062 2.07893C30.329 1.78692 30.4735 1.73273 30.6421 1.88023C30.8558 2.06688 30.8528 2.20537 30.624 2.51543C30.5578 2.55758 30.4916 2.59369 30.4223 2.62981C33.6856 1.80497 37.0602 1.38955 40.4679 1.41363C40.4468 1.18484 40.507 0.974122 40.6546 0.79651C40.6666 0.781458 40.772 0.811557 40.793 0.847681C40.8502 0.944013 40.8864 1.05239 40.9044 1.09755C40.9044 1.24806 40.8864 1.34741 40.8352 1.42267C41.5998 1.43471 42.3644 1.46782 43.1321 1.52501C43.1441 1.51297 43.1622 1.50093 43.1803 1.4919C43.2344 1.4919 43.2766 1.51297 43.3067 1.54307C44.6975 1.65446 46.0883 1.83809 47.476 2.103C52.1933 3.0031 56.6426 4.78825 60.6434 7.26879C60.8541 7.10322 61.119 7.19052 61.3538 7.13935C61.5365 6.97277 61.7151 6.97177 61.8897 7.13633C61.9378 7.20557 62.0041 7.2718 62.0251 7.34706C62.0643 7.47952 61.9649 7.63003 61.8656 7.58186C61.5826 7.44941 61.3026 7.46446 61.0227 7.50359C67.4498 11.5887 72.6728 17.486 75.8758 24.4188C75.9511 24.4188 76.0263 24.4188 76.1016 24.4008C76.3725 24.1539 76.3755 24.1509 76.6314 24.3917C75.1594 20.972 73.2387 17.7689 70.9177 14.876C70.7341 14.9543 70.5384 15.0084 70.3157 15.0024C70.3488 14.7646 70.4511 14.605 70.5836 14.4696C69.9364 13.6869 69.2621 12.9253 68.5576 12.1937C68.5637 12.2118 68.5727 12.2299 68.5757 12.2419C68.5757 12.4376 68.5456 12.5429 68.4523 12.6302C68.386 12.6935 68.1452 12.6604 68.1362 12.5821C68.1091 12.3473 68.1693 12.1305 68.3198 11.9499C65.0867 8.6385 61.2725 5.86897 56.9828 3.83697C56.8925 3.85503 56.7991 3.86407 56.7028 3.86106C56.7088 3.80687 56.7269 3.76473 56.7389 3.71657C55.7907 3.27705 54.8213 2.87065 53.8279 2.50338C47.1479 0.0318728 40.0465 -0.503977 33.2671 0.673075C33.3183 0.763386 33.3544 0.862734 33.3695 0.904879C33.3695 1.10055 33.3394 1.20593 33.2461 1.29323C33.1798 1.35645 32.939 1.32332 32.93 1.24505C32.9059 1.05239 32.948 0.87176 33.0444 0.712211C29.6758 1.31729 26.3915 2.34685 23.2787 3.77376C23.3359 3.8701 23.3721 3.97846 23.3901 4.02361C23.3901 4.21929 23.36 4.32466 23.2667 4.41196C23.2005 4.47518 22.9596 4.44205 22.9506 4.36378C22.9295 4.19219 22.9596 4.03265 23.0319 3.88515C21.617 4.54442 20.2413 5.28497 18.9077 6.1068C18.9829 6.23624 18.9348 6.37169 18.7662 6.60048C18.4712 6.7811 18.1671 6.93464 17.7878 6.92561C17.7939 6.88045 17.8089 6.84132 17.821 6.80219C15.6896 8.21104 13.6847 9.83362 11.8394 11.6549C11.8604 11.7392 11.8303 11.8175 11.737 11.8415C11.7039 11.8506 11.6768 11.8445 11.6557 11.8355C10.6593 12.8319 9.71103 13.8856 8.81996 14.9994C5.01486 19.7407 2.42895 25.2557 1.08633 31.0416C1.11041 31.0507 1.1345 31.0627 1.14353 31.0777C1.20073 31.1741 1.23686 31.2825 1.25492 31.3276C1.25492 31.5233 1.22482 31.6287 1.13149 31.716C1.09537 31.7521 1.00204 31.7551 0.926783 31.74C-1.17445 41.5538 0.282571 52.0901 5.44836 60.9616C14.0008 75.6492 31.4127 83.4701 48.0721 80.0142C49.6676 79.6831 51.2239 79.2526 52.7442 78.7318C52.7622 78.6867 52.8014 78.6415 52.8556 78.5994C52.9218 78.5482 52.979 78.4639 53.0512 78.4488C53.1596 78.4278 53.2559 78.4489 53.3101 78.5271C56.0857 77.5307 58.7197 76.2302 61.1732 74.6678C61.1642 74.6558 61.1581 74.6407 61.1551 74.6317C61.1431 74.5865 61.1551 74.5143 61.1913 74.4812C61.3327 74.3457 61.5043 74.3427 61.6759 74.3427C65.5021 71.826 68.8797 68.6712 71.6553 65.0407C71.4686 64.9564 71.5228 64.836 71.6553 64.7306H71.6673ZM57.7865 5.10434C57.8528 5.05316 57.91 4.96887 57.9852 4.95382C58.1388 4.92071 58.2712 4.97489 58.2923 5.15852C58.3073 5.28496 58.2501 5.39032 58.1237 5.41741C58.0183 5.44149 57.8859 5.45956 57.7926 5.41741C57.5969 5.33312 57.6541 5.2097 57.7865 5.10133V5.10434ZM49.9596 1.72972C50.0619 1.72972 50.1191 1.79595 50.1432 1.88325C50.1703 1.97356 50.1372 2.05786 50.0439 2.08194C49.9355 2.10903 49.8873 2.02774 49.8663 1.93743C49.8482 1.85013 49.8663 1.77186 49.9566 1.72972H49.9596ZM47.4339 1.03734C47.4339 1.03734 47.5513 1.05238 47.5724 1.08851C47.6296 1.18484 47.6657 1.29322 47.6838 1.33837C47.6838 1.53405 47.6537 1.6394 47.5603 1.7267C47.4941 1.78992 47.2533 1.75681 47.2442 1.67854C47.2172 1.44073 47.2774 1.22398 47.4309 1.04035L47.4339 1.03734ZM35.6483 1.29924C35.7507 1.29924 35.8079 1.36547 35.832 1.45277C35.8591 1.54308 35.8259 1.62736 35.7326 1.65144C35.6242 1.67854 35.5761 1.59726 35.555 1.50695C35.5369 1.41965 35.555 1.34138 35.6453 1.29924H35.6483ZM16.373 8.03342C16.4061 7.99729 16.4633 7.98525 16.5084 7.96117C16.5205 8.00934 16.5355 8.0575 16.5476 8.10566C16.4994 8.12674 16.4512 8.1689 16.4091 8.15987C16.3399 8.14782 16.3248 8.08459 16.373 8.03342ZM9.702 14.9633C9.73512 14.9272 9.79231 14.9151 9.83746 14.891C9.8495 14.9392 9.86456 14.9874 9.8766 15.0355C9.82843 15.0566 9.78027 15.0987 9.73812 15.0927C9.66889 15.0807 9.65384 15.0175 9.702 14.9663V14.9633ZM42.0092 80.6946C41.6088 80.5079 41.2175 80.6133 40.8201 80.6705C40.787 80.6765 40.7268 80.6013 40.7118 80.5561C40.6997 80.5109 40.7148 80.4387 40.7479 80.4056C40.9616 80.2009 41.2446 80.3032 41.4944 80.249C41.6771 80.0825 41.8557 80.0815 42.0303 80.246C42.0785 80.3153 42.1447 80.3815 42.1658 80.4568C42.2049 80.5892 42.1056 80.7397 42.0062 80.6916L42.0092 80.6946ZM49.0745 79.1021C49.0053 79.09 48.9903 79.0268 49.0384 78.9757C49.0715 78.9395 49.1287 78.9275 49.1739 78.9034C49.1859 78.9516 49.201 78.9997 49.213 79.0479C49.1679 79.069 49.1167 79.1111 49.0745 79.1051V79.1021ZM58.4217 75.7124C58.3133 75.7395 58.2652 75.6582 58.2441 75.5679C58.2261 75.4806 58.2441 75.4024 58.3344 75.3602C58.4368 75.3602 58.494 75.4264 58.5181 75.5137C58.5451 75.604 58.512 75.6883 58.4187 75.7124H58.4217ZM68.1362 68.7494C68.0699 68.8127 67.8291 68.7795 67.8201 68.7013C67.793 68.4635 67.8532 68.2467 68.0067 68.0631C68.0188 68.048 68.1241 68.0781 68.1452 68.1143C68.2024 68.2106 68.2385 68.319 68.2566 68.3641C68.2566 68.5598 68.2265 68.6652 68.1332 68.7525L68.1362 68.7494Z" fill="#E0DC51"/>
  <path d="M76.6194 24.8463C76.4207 24.753 76.222 24.7319 76.0264 24.744C76.791 26.4418 77.4382 28.1969 77.953 30.0031C78.0313 29.8827 78.1336 29.7833 78.245 29.693C78.254 29.6659 78.2601 29.6358 78.2781 29.6117C78.3353 29.5395 78.3835 29.4823 78.4316 29.4371C77.9771 27.8326 77.4232 26.2612 76.779 24.7319C76.7549 24.8162 76.6886 24.8794 76.6224 24.8463H76.6194Z" fill="#E0DC51"/>
  <path d="M76.1378 39.9162C75.9391 39.9071 75.7404 39.9402 75.5417 39.9734C75.5417 40.1269 75.5477 40.2834 75.5477 40.4369C75.4815 51.5392 70.0538 61.8557 61.4592 68.4092C61.4592 68.4092 61.4622 68.4092 61.4622 68.4123C61.5194 68.5086 61.5556 68.617 61.5736 68.6621C61.5736 68.8578 61.5435 68.9632 61.4502 69.0504C61.384 69.1137 61.1431 69.0806 61.1341 69.0023C61.1191 68.8638 61.1341 68.7374 61.1793 68.6139C60.2912 69.2792 59.37 69.9024 58.4188 70.4834C58.3917 70.5526 58.3435 70.6309 58.2743 70.7242C58.0274 70.8747 57.7715 71.0012 57.4735 71.0343C55.7606 72.0066 53.9574 72.8495 52.0699 73.5299C51.1608 73.858 50.2396 74.144 49.3154 74.3938C49.3154 74.3938 49.3154 74.3969 49.3154 74.3999C49.3546 74.5323 49.2552 74.6828 49.1559 74.6347C49.0204 74.5714 48.8849 74.5444 48.7525 74.5353C44.6524 75.5649 40.4349 75.8328 36.3016 75.3903C36.3107 75.4926 36.2565 75.61 36.13 75.7816C35.835 75.9622 35.531 76.1158 35.1517 76.1067C35.1968 75.7756 35.3774 75.592 35.5821 75.4264C35.5912 75.3993 35.5972 75.3692 35.6122 75.3451C35.6213 75.3331 35.6303 75.321 35.6393 75.309C26.9574 74.2162 18.7121 69.9987 12.8629 63.1742C7.81756 57.286 5.00588 49.9708 4.54529 42.5141C4.40381 42.5623 4.25328 42.5924 4.08771 42.5894C4.13287 42.2642 4.31048 42.0806 4.51218 41.915C4.33456 37.9323 4.83128 33.9225 6.01435 30.0723C6.01435 30.0572 6.02037 30.0392 6.0294 30.0211C6.72781 27.7633 7.66102 25.5627 8.83807 23.4585C8.7899 23.4675 8.73873 23.4735 8.69056 23.4826C8.65745 23.4886 8.59725 23.4133 8.58219 23.3682C8.57015 23.323 8.58219 23.2508 8.61832 23.2177C8.74475 23.0972 8.89527 23.0822 9.04578 23.0822C9.28661 22.6668 9.53347 22.2513 9.79537 21.8449C10.1656 21.2609 10.557 20.695 10.9574 20.1411C10.8851 20.1501 10.8129 20.1591 10.7376 20.1591C10.7828 19.828 10.9634 19.6444 11.1681 19.4788C11.1771 19.4517 11.1831 19.4216 11.1982 19.3975C11.3999 19.1326 11.5384 19.0664 11.6859 19.1627C16.8727 12.4677 24.2993 7.89491 32.4243 6.10676C32.4574 6.01946 32.4995 5.93818 32.5628 5.86292C32.5748 5.84787 32.6802 5.87797 32.7012 5.91409C32.7253 5.95322 32.7464 5.99538 32.7614 6.03451C37.2679 5.08625 41.9792 4.9899 46.6362 5.86591C50.5196 6.59743 54.2012 7.99124 57.5638 9.91787C57.5849 9.89981 57.606 9.87874 57.627 9.86369C57.6361 9.83659 57.6421 9.80648 57.6571 9.7824C57.8799 9.49039 58.0244 9.43622 58.193 9.58372C58.4067 9.77037 58.4037 9.90884 58.1749 10.2189C58.1599 10.2279 58.1448 10.237 58.1298 10.246C66.911 15.4961 73.3682 24.4339 75.0751 34.7594C75.34 36.3699 75.4845 37.9895 75.5267 39.6181C75.6982 39.579 75.8849 39.6121 76.0565 39.576C76.0806 39.5549 76.1016 39.5368 76.1197 39.5188C76.1016 38.9769 76.0776 38.4381 76.0354 37.8992C75.9692 37.8872 75.9541 37.824 76.0023 37.7728C76.0083 37.7668 76.0204 37.7637 76.0264 37.7577C75.9331 36.5837 75.7825 35.4187 75.5839 34.2687C75.5748 34.2777 75.5718 34.2868 75.5628 34.2958C75.4966 34.359 75.2557 34.3259 75.2467 34.2476C75.2196 34.0098 75.2798 33.7931 75.4333 33.6094C75.4363 33.6064 75.4514 33.6064 75.4695 33.6094C74.5453 28.8109 72.6849 24.2653 70.0538 20.2344C69.9605 20.2525 69.8672 20.2645 69.7648 20.2615C69.7829 20.1381 69.822 20.0417 69.8702 19.9544C69.4909 19.3855 69.0965 18.8255 68.6841 18.2777C68.5456 18.2957 68.4102 18.3198 68.2687 18.3409C68.2356 18.3469 68.1754 18.2716 68.1603 18.2265C68.1483 18.1813 68.1633 18.1091 68.1964 18.076C68.2687 18.0067 68.353 17.9736 68.4373 17.9555C68.2777 17.7448 68.1152 17.5371 67.9526 17.3294C67.9887 17.4016 68.0098 17.4709 68.0248 17.501C68.0248 17.6967 67.9947 17.802 67.9014 17.8893C67.8352 17.9525 67.5943 17.9194 67.5853 17.8411C67.5582 17.6033 67.6184 17.3866 67.772 17.203C67.781 17.1939 67.8232 17.203 67.8623 17.221C64.4365 12.9764 60.0624 9.49039 54.9599 7.14833C54.8575 7.16338 54.7582 7.18146 54.6558 7.19651C54.6227 7.20253 54.5625 7.12727 54.5474 7.08211C54.5384 7.05201 54.5444 7.00685 54.5595 6.97073C53.9183 6.68776 53.271 6.4138 52.6118 6.16695C44.833 3.25894 36.419 3.25895 28.7968 5.74551C28.7998 5.74852 28.8028 5.75152 28.8088 5.75453C28.857 5.82377 28.9232 5.89 28.9443 5.96526C28.9834 6.09772 28.8841 6.24824 28.7847 6.20008C28.3844 6.01344 27.993 6.11879 27.5957 6.17599C27.5866 6.17599 27.5776 6.17297 27.5655 6.16695C21.4936 8.3886 15.9877 12.2148 11.8063 17.4317C11.6829 17.5853 11.5655 17.7448 11.445 17.9014C11.4511 17.9134 11.4571 17.9254 11.4601 17.9405C11.4872 18.0308 11.4541 18.1151 11.3608 18.1392C11.3216 18.1482 11.2945 18.1392 11.2704 18.1271C5.31896 25.9511 2.89862 35.9365 4.17502 45.5034C4.22017 45.5305 4.25028 45.5726 4.26533 45.6268C4.28641 45.6991 4.26834 45.7653 4.21415 45.8014C4.26232 46.1356 4.31952 46.4697 4.3737 46.8039C4.4309 46.8039 4.48508 46.8309 4.54228 46.8821C4.75602 47.0718 4.75301 47.2073 4.52422 47.5173C4.5182 47.5203 4.50917 47.5263 4.50315 47.5294C5.25273 51.4699 6.63449 55.3051 8.67551 58.8453C15.6656 70.9891 29.3146 78.0063 43.09 76.8533C43.1502 76.7841 43.2164 76.7209 43.2887 76.6637C43.2977 76.6366 43.3037 76.6065 43.3218 76.5824C43.5446 76.2904 43.6891 76.2362 43.8576 76.3837C44.0021 76.5101 44.0443 76.6125 43.9901 76.76C45.1461 76.6336 46.302 76.456 47.455 76.2121C62.1155 73.1024 73.4826 60.8442 75.7284 46.0663C76.0113 44.2029 76.1408 42.3184 76.1498 40.4339C76.1498 40.2593 76.1408 40.0877 76.1378 39.9131V39.9162ZM55.2157 7.4825C55.2157 7.4825 55.3331 7.49754 55.3542 7.53367C55.4114 7.63 55.4475 7.73838 55.4656 7.78353C55.4656 7.97921 55.4355 8.08456 55.3422 8.17186C55.2759 8.23508 55.0351 8.20196 55.0261 8.12369C54.999 7.88587 55.0592 7.66912 55.2127 7.48549L55.2157 7.4825ZM48.0029 5.20365C48.036 5.16752 48.0932 5.15549 48.1384 5.1314C48.1504 5.17957 48.1655 5.22773 48.1775 5.27589C48.1293 5.29697 48.0812 5.33911 48.039 5.33309C47.9698 5.32105 47.9547 5.25784 48.0029 5.20666V5.20365ZM44.4868 4.96883C44.553 4.91765 44.6102 4.83336 44.6825 4.81831C44.836 4.7852 44.9685 4.83938 44.9895 5.02302C45.0046 5.14945 44.9474 5.25483 44.8209 5.28192C44.7156 5.306 44.5831 5.32407 44.4898 5.28192C44.2941 5.19763 44.3513 5.07419 44.4838 4.96582L44.4868 4.96883ZM41.2266 4.96883C41.2597 4.93271 41.3169 4.92067 41.362 4.89659C41.3741 4.94475 41.3891 4.99291 41.4012 5.04108C41.353 5.06215 41.3048 5.10429 41.2627 5.09526C41.1935 5.08322 41.1784 5.02001 41.2266 4.96883ZM37.7105 4.73403C37.7767 4.68286 37.8339 4.59857 37.9062 4.58351C38.0597 4.5504 38.1921 4.60458 38.2132 4.78822C38.2283 4.91465 38.1711 5.02001 38.0446 5.0471C37.9393 5.07119 37.8068 5.08925 37.7135 5.0471C37.5178 4.96281 37.575 4.83939 37.7075 4.73102L37.7105 4.73403ZM33.6916 4.77317C33.7248 4.73704 33.7819 4.72499 33.8271 4.7009C33.8391 4.74907 33.8542 4.79725 33.8662 4.84541C33.8211 4.86649 33.7699 4.90863 33.7278 4.90261C33.6585 4.89057 33.6435 4.82734 33.6916 4.77616V4.77317ZM23.7153 7.88889C23.7484 7.85276 23.8056 7.84072 23.8508 7.81664C23.8628 7.86481 23.8778 7.91297 23.8899 7.96113C23.8417 7.98221 23.7936 8.02435 23.7514 8.01833C23.6822 8.00629 23.6671 7.94308 23.7153 7.8919V7.88889ZM18.4381 11.7271C18.5405 11.7271 18.5977 11.7933 18.6217 11.8806C18.6488 11.9709 18.6157 12.0552 18.5224 12.0793C18.414 12.1064 18.3659 12.0251 18.3448 11.9348C18.3267 11.8475 18.3448 11.7692 18.4351 11.7271H18.4381ZM9.32575 21.2579C9.35887 21.2218 9.41606 21.2097 9.46122 21.1857C9.47326 21.2338 9.48831 21.282 9.50035 21.3302C9.45219 21.3512 9.40402 21.3934 9.36188 21.3874C9.29264 21.3753 9.27759 21.3121 9.32575 21.2609V21.2579ZM48.5959 75.4987C48.5297 75.5619 48.2889 75.5288 48.2799 75.4505C48.2528 75.2127 48.313 74.9959 48.4665 74.8123C48.4785 74.7972 48.5839 74.8273 48.605 74.8635C48.6622 74.9598 48.6983 75.0682 48.7164 75.1133C48.7164 75.309 48.6863 75.4144 48.5929 75.5017L48.5959 75.4987ZM55.9142 72.2806C55.8449 72.2685 55.8299 72.2053 55.878 72.1541C55.9111 72.118 55.9683 72.106 56.0135 72.0819C56.0255 72.1301 56.0406 72.1782 56.0526 72.2264C56.0075 72.2475 55.9563 72.2896 55.9142 72.2806ZM67.5161 63.8546C67.4468 63.8425 67.4318 63.7793 67.48 63.7281C67.5131 63.692 67.5703 63.68 67.6154 63.6559C67.6275 63.704 67.6425 63.7522 67.6546 63.8004C67.6064 63.8214 67.5582 63.8636 67.5161 63.8576V63.8546ZM69.524 60.6034C69.4156 60.6305 69.3675 60.5492 69.3464 60.4619C69.3283 60.3746 69.3464 60.2963 69.4367 60.2542C69.5391 60.2542 69.5962 60.3204 69.6203 60.4077C69.6474 60.498 69.6143 60.5823 69.521 60.6064L69.524 60.6034Z" fill="#E0DC51"/>
  <path d="M40.5492 25.4845C40.9556 25.4755 41.362 25.4845 41.7623 25.5146L41.7202 23.6843L39.0109 23.7476L39.053 25.611C39.5437 25.5417 40.0404 25.4996 40.5492 25.4875V25.4845ZM40.7539 24.7018C40.787 24.6657 40.8442 24.6537 40.8893 24.6296C40.9014 24.6778 40.9164 24.7259 40.9285 24.7741C40.8803 24.7952 40.8321 24.8373 40.79 24.8313C40.7208 24.8192 40.7057 24.756 40.7539 24.7048V24.7018Z" fill="#E0DC51"/>
  <path d="M40.9074 26.4117C41.0519 26.2883 41.1001 26.2853 41.2355 26.4057L41.7804 26.3936L41.7744 26.1287C41.4673 26.1047 41.1573 26.0896 40.8472 26.0896C40.7509 26.0896 40.6545 26.0896 40.5612 26.0926C40.0555 26.1046 39.5558 26.1498 39.0651 26.2221L39.0711 26.4569L40.9074 26.4147V26.4117Z" fill="#E0DC51"/>
  <path d="M42.5209 52.7403L42.4908 51.1809C42.4637 51.1839 42.4366 51.1899 42.4095 51.1929C42.4216 51.2381 42.4336 51.2833 42.4457 51.3284C42.3975 51.3495 42.3493 51.3916 42.3072 51.3856C42.238 51.3736 42.2229 51.3104 42.2711 51.2592C42.2982 51.2291 42.3403 51.214 42.3794 51.199C41.97 51.2471 41.5546 51.2772 41.1362 51.2863C41.0368 51.2863 40.9345 51.2893 40.8351 51.2893C40.4799 51.2893 40.1307 51.2712 39.7815 51.2441L39.8116 52.7975L42.5209 52.7433V52.7403Z" fill="#E0DC51"/>
  <path d="M42.4788 50.5699L42.4668 50.031L39.7574 50.0852L39.7695 50.6301C40.218 50.6692 40.6696 50.6873 41.1241 50.6752C41.5817 50.6662 42.0333 50.6271 42.4788 50.5669V50.5699Z" fill="#E0DC51"/>
  <path d="M45.2604 51.5723L46.3592 51.5423C46.4194 51.4911 46.4766 51.4188 46.5458 51.4038C46.6722 51.3767 46.7806 51.4158 46.8288 51.5302H46.88L46.8318 49.8203C46.2327 50.1364 45.6096 50.4043 44.9684 50.6181L45.2604 51.5754V51.5723Z" fill="#E0DC51"/>
  <path d="M44.4417 48.8812L44.5139 49.113C44.5741 49.113 44.6313 49.1371 44.6915 49.1912C44.8902 49.3658 44.8992 49.5013 44.7126 49.7662L44.7939 50.0311C45.4953 49.7933 46.1696 49.4953 46.8168 49.1371L46.8078 48.8149L44.4447 48.8812H44.4417Z" fill="#E0DC51"/>
  <path d="M44.3151 51.5964L44.1586 51.0786L44.1736 51.6024L44.3151 51.5964Z" fill="#E0DC51"/>
  <path d="M50.1552 47.3156C50.1372 47.3938 50.083 47.457 50.0197 47.448C49.8632 47.6045 49.7067 47.7581 49.5441 47.9056C49.5441 47.9056 49.5441 47.9116 49.5471 47.9146C49.5471 48.1103 49.517 48.2157 49.4237 48.303C49.3635 48.3602 49.1678 48.3391 49.1196 48.2789C48.7464 48.592 48.358 48.881 47.9576 49.1489V49.2843L50.67 49.2241L50.6158 46.8098C50.4713 46.9754 50.3238 47.1379 50.1733 47.2975C50.1673 47.3035 50.1612 47.3095 50.1552 47.3156Z" fill="#E0DC51"/>
  <path d="M47.9427 48.4265C48.4003 48.1014 48.8398 47.7432 49.2522 47.3519C49.1047 47.3699 48.9542 47.397 48.8067 47.4181C48.7736 47.4241 48.7133 47.3488 48.6983 47.3037C48.6863 47.2585 48.6983 47.1863 48.7344 47.1532C48.9482 46.9485 49.2311 47.0508 49.481 46.9966C49.6405 46.8521 49.7068 46.7919 49.788 46.816C49.8784 46.7197 49.9687 46.6203 50.056 46.521L47.9036 46.5692L47.9457 48.4205L47.9427 48.4265ZM48.5538 47.4933C48.5658 47.5415 48.5809 47.5897 48.5929 47.6378C48.5448 47.6589 48.4966 47.701 48.4545 47.692C48.3852 47.68 48.3702 47.6168 48.4183 47.5656C48.4514 47.5295 48.5086 47.5174 48.5538 47.4933Z" fill="#E0DC51"/>
  <path d="M50.7363 45.4402C50.7694 45.4522 50.8025 45.4733 50.8386 45.5034C50.8446 45.5094 50.8507 45.5155 50.8567 45.5215C51.4046 44.7538 51.8591 43.932 52.2144 43.071L50.67 43.1162L50.7393 45.4402H50.7363Z" fill="#E0DC51"/>
  <path d="M53.4576 45.7474L53.3794 43.0381L52.8797 43.0531C52.5034 44.0225 52.0067 44.9467 51.3986 45.8076L53.4546 45.7474H53.4576Z" fill="#E0DC51"/>
  <path d="M52.1693 41.6142L52.7141 41.5991C52.7954 41.2951 52.8647 40.988 52.9249 40.6749C52.8737 40.6749 52.8225 40.6689 52.7834 40.6509C52.5877 40.5666 52.6449 40.4431 52.7773 40.3348C52.8436 40.2836 52.9008 40.1993 52.973 40.1843C52.9851 40.1843 52.9941 40.1843 53.0031 40.1843C53.0663 39.7538 53.1085 39.3143 53.1235 38.8748L52.094 38.9019L52.1662 41.6112L52.1693 41.6142Z" fill="#E0DC51"/>
  <path d="M54.8786 41.5418L54.8063 38.8325L53.7346 38.8596C53.7015 39.7868 53.569 40.6989 53.3433 41.581L54.8755 41.5418H54.8786Z" fill="#E0DC51"/>
  <path d="M52.0578 37.1617L53.0723 37.1436C52.979 36.2165 52.7863 35.3103 52.4943 34.4434L52.0066 34.4524L52.0578 37.1617Z" fill="#E0DC51"/>
  <path d="M54.7672 37.1105L54.716 34.4011L53.1295 34.4312C53.4095 35.3012 53.5931 36.2073 53.6804 37.1315L54.7641 37.1105H54.7672Z" fill="#E0DC51"/>
  <path d="M53.1566 32.9654L53.0964 30.2561L50.9019 30.3073C51.5671 31.1321 52.1241 32.0292 52.5636 32.9805L53.1566 32.9684V32.9654Z" fill="#E0DC51"/>
  <path d="M50.4262 30.6834C50.4262 30.6834 50.4051 30.6563 50.3931 30.6443V30.7225C50.3931 30.7225 50.4141 30.6954 50.4262 30.6834Z" fill="#E0DC51"/>
  <path d="M50.5527 31.0054C50.4744 31.0265 50.4263 30.9874 50.3992 30.9302L50.4293 32.2216C50.634 31.9688 50.7724 31.9236 50.932 32.0651C51.1457 32.2547 51.1427 32.3902 50.9139 32.7003C50.7634 32.7936 50.6099 32.8779 50.4473 32.9381V33.0314L51.9013 32.9983C51.5491 32.2788 51.1277 31.5955 50.637 30.9513C50.6189 30.9783 50.5948 30.9994 50.5557 31.0084L50.5527 31.0054Z" fill="#E0DC51"/>
  <path d="M50.2215 29.5215L50.1613 26.9146L48.8518 26.9446C48.8759 26.9687 48.906 26.9928 48.9361 27.0229C48.9843 27.0922 49.0505 27.1584 49.0716 27.2336C49.1107 27.3661 49.0114 27.5166 48.912 27.4684C48.5116 27.2818 48.1203 27.3872 47.7229 27.4444C47.6898 27.4504 47.6296 27.3751 47.6146 27.33C47.6025 27.2848 47.6145 27.2126 47.6507 27.1795C47.8644 26.9748 48.1474 27.0771 48.3972 27.0229C48.4273 26.9958 48.4544 26.9687 48.4815 26.9477L47.449 26.9717L47.455 27.2969C48.2738 27.7875 49.0445 28.3716 49.7519 29.0459C49.9115 29.1994 50.068 29.356 50.2185 29.5155L50.2215 29.5215Z" fill="#E0DC51"/>
  <path d="M49.487 29.6449C49.4358 29.5937 49.3877 29.5425 49.3365 29.4944C48.7585 28.9405 48.1353 28.4528 47.4761 28.0283L47.5152 29.69L49.487 29.6449Z" fill="#E0DC51"/>
  <path d="M46.2658 24.7832L43.5565 24.8434L43.5776 25.7676C44.5228 25.9693 45.438 26.2794 46.311 26.6888L46.2689 24.7832H46.2658ZM45.1701 25.31C45.0647 25.3341 44.9323 25.3522 44.8389 25.31C44.6433 25.2257 44.7005 25.1023 44.8329 24.9939C44.8991 24.9428 44.9563 24.8585 45.0286 24.8434C45.1821 24.8103 45.3146 24.8645 45.3356 25.0481C45.3507 25.1746 45.2935 25.2799 45.1671 25.307L45.1701 25.31Z" fill="#E0DC51"/>
  <path d="M46.326 27.4955V27.3751C45.456 26.9416 44.5379 26.6135 43.5896 26.3967L43.6167 27.5557L46.326 27.4925V27.4955Z" fill="#E0DC51"/>
  <path d="M35.3323 50.0581L35.3624 51.7891L36.6629 51.768L37.0121 50.7144C36.4371 50.5368 35.8772 50.317 35.3323 50.0611V50.0581Z" fill="#E0DC51"/>
  <path d="M35.3232 49.3748C35.9283 49.6788 36.5575 49.9287 37.2077 50.1304L37.5689 49.0376L35.3202 49.0767L35.3262 49.3748H35.3232Z" fill="#E0DC51"/>
  <path d="M38.0596 50.9853C38.0054 50.9733 37.9483 50.9613 37.8941 50.9492L37.6292 51.747L38.0717 51.7379L38.0596 50.9823V50.9853Z" fill="#E0DC51"/>
  <path d="M31.4187 47.1951L31.4759 49.6816C31.497 49.6997 31.512 49.7177 31.5271 49.7448L34.1882 49.6846L34.1822 49.4378C33.3815 48.9531 32.6259 48.3781 31.9305 47.7159C31.7529 47.5473 31.5843 47.3727 31.4187 47.1981V47.1951Z" fill="#E0DC51"/>
  <path d="M34.107 47.138C34.107 47.138 34.122 47.129 34.1281 47.1229V46.9724L32.0961 47.0176C32.1804 47.1018 32.2616 47.1892 32.3489 47.2734C32.9149 47.8123 33.523 48.291 34.1642 48.7064L34.1311 47.2554C34.0739 47.2373 34.0618 47.1801 34.107 47.135V47.138Z" fill="#E0DC51"/>
  <path d="M30.8228 45.5154C30.9552 45.7021 31.0937 45.8827 31.2382 46.0633L31.2292 45.4312C31.1027 45.4793 30.9673 45.5064 30.8228 45.5154Z" fill="#E0DC51"/>
  <path d="M31.1298 44.8442C31.1388 44.8171 31.1448 44.787 31.1629 44.7629C31.1809 44.7388 31.199 44.7178 31.2171 44.6967L31.199 43.6431L29.736 43.6671C30.0219 44.2662 30.3531 44.8412 30.7354 45.3891C30.8077 45.1422 30.9582 44.9827 31.1328 44.8412L31.1298 44.8442Z" fill="#E0DC51"/>
  <path d="M29.5915 46.2168C29.8052 46.0121 30.0882 46.1144 30.3381 46.0602C30.3682 46.0331 30.3923 46.0091 30.4163 45.988C29.8835 45.2625 29.4319 44.4888 29.0677 43.676L28.4867 43.685L28.5318 46.3944L29.5614 46.3763C29.5614 46.3763 29.5554 46.3673 29.5554 46.3613C29.5433 46.3161 29.5554 46.2439 29.5915 46.2107V46.2168Z" fill="#E0DC51"/>
  <path d="M26.8701 39.5518L26.9213 42.2612L28.5228 42.2311C28.2519 41.3611 28.0743 40.4549 27.993 39.5308L26.8701 39.5518Z" fill="#E0DC51"/>
  <path d="M29.5825 39.5007L28.6041 39.5188C28.6884 40.446 28.872 41.3521 29.158 42.2191L29.6367 42.2101L29.5855 39.5007H29.5825Z" fill="#E0DC51"/>
  <path d="M29.4711 35.0486H29.438C29.4079 35.1088 29.3537 35.1479 29.2965 35.1208C29.2363 35.0938 29.1761 35.0727 29.1158 35.0576H29.0045C28.7576 35.9336 28.6101 36.8458 28.5649 37.785L29.5433 37.7579L29.4711 35.0486Z" fill="#E0DC51"/>
  <path d="M28.2097 35.0815C28.1766 35.0876 28.1404 35.0936 28.1073 35.0966C28.0983 35.0966 28.0862 35.0936 28.0742 35.0846L26.7737 35.1177C26.7737 35.1177 26.7647 35.1448 26.7587 35.1568L26.8309 37.827L27.9538 37.7969C27.9959 36.8607 28.1374 35.9485 28.3692 35.0725H28.2097V35.0815Z" fill="#E0DC51"/>
  <path d="M30.6842 33.4649C30.7504 33.4137 30.8076 33.3294 30.8829 33.3144C30.91 33.3084 30.934 33.3084 30.9581 33.3084L30.919 31.5684C30.7925 31.6346 30.6571 31.6888 30.5156 31.7249C30.1363 32.3119 29.8052 32.9381 29.5282 33.5883L30.5939 33.5642C30.6149 33.5311 30.6481 33.498 30.6872 33.4649H30.6842Z" fill="#E0DC51"/>
  <path d="M28.1886 30.9062L28.2518 33.6155L28.8599 33.6004C29.2513 32.6221 29.763 31.7009 30.3711 30.855L28.1916 30.9032L28.1886 30.9062ZM28.7305 32.8749C28.7636 32.8388 28.8208 32.8268 28.8659 32.8027C28.878 32.8509 28.893 32.899 28.9051 32.9472C28.8569 32.9683 28.8087 33.0104 28.7666 33.0044C28.6974 32.9923 28.6823 32.9291 28.7305 32.878V32.8749Z" fill="#E0DC51"/>
  <path d="M33.6825 27.6579L33.6765 27.3779L30.9672 27.4412L31.0274 30.024C31.798 29.1209 32.6921 28.3232 33.6855 27.6609L33.6825 27.6579Z" fill="#E0DC51"/>
  <path d="M33.6284 29.5333C33.6284 29.5333 33.6886 29.5333 33.7278 29.5544L33.7007 28.3804C32.9842 28.8921 32.3279 29.4822 31.7379 30.1324L33.4388 30.0933C33.4327 29.8856 33.493 29.6959 33.6284 29.5333Z" fill="#E0DC51"/>
  <path d="M37.5358 27.7784L37.5087 26.5471C36.5605 26.815 35.6604 27.1944 34.8235 27.667V27.8386L37.5388 27.7784H37.5358Z" fill="#E0DC51"/>
  <path d="M37.4726 25.0691L34.7633 25.1323L34.8054 26.9867C35.6483 26.5381 36.5484 26.1799 37.4937 25.927L37.4756 25.0721L37.4726 25.0691Z" fill="#E0DC51"/>
  <path d="M39.0531 25.608C38.5232 25.6832 38.0024 25.7886 37.4937 25.9241C36.5515 26.1769 35.6514 26.5352 34.8054 26.9837C34.4201 27.1884 34.0438 27.4142 33.6826 27.655C32.6922 28.3203 31.7951 29.1151 31.0244 30.0182C30.7956 30.2891 30.5759 30.5661 30.3682 30.855C29.7601 31.701 29.2483 32.6221 28.857 33.6005C28.7155 33.9587 28.589 34.323 28.4777 34.6933C28.58 34.6933 28.6824 34.6933 28.7817 34.6752C28.9894 34.4886 29.0406 34.4404 29.164 34.5367C29.2694 34.2146 29.3928 33.8985 29.5253 33.5855C29.8022 32.9352 30.1303 32.3121 30.5127 31.722C30.3983 31.7521 30.2809 31.7702 30.1544 31.7672C30.1996 31.4361 30.3802 31.2524 30.5849 31.0869C30.5939 31.0598 30.6 31.0297 30.615 31.0056C30.8378 30.7136 30.9823 30.6594 31.1509 30.8069C31.1539 30.8069 31.1569 30.8129 31.1599 30.8159C31.3435 30.5811 31.5392 30.3523 31.7409 30.1296C32.3309 29.4793 32.9872 28.8923 33.7036 28.3775C34.0619 28.1186 34.4382 27.8808 34.8235 27.6641C35.6634 27.1914 36.5635 26.8121 37.5088 26.5442C38.0145 26.4027 38.5383 26.2944 39.0681 26.2161C39.5588 26.1438 40.0555 26.0987 40.5643 26.0866C40.6606 26.0866 40.7569 26.0836 40.8503 26.0836C41.1603 26.0836 41.4704 26.0987 41.7774 26.1228C42.3916 26.1679 42.9966 26.2582 43.5927 26.3937C44.541 26.6104 45.4591 26.9386 46.3261 27.3721C46.7205 27.5677 47.1058 27.7845 47.4791 28.0253C48.1383 28.4498 48.7615 28.9375 49.3395 29.4914C49.3907 29.5395 49.4388 29.5907 49.49 29.6419C49.8121 29.961 50.1131 30.2951 50.3961 30.6413C50.4082 30.6564 50.4172 30.6684 50.4292 30.6805C50.4413 30.6684 50.4533 30.6594 50.4714 30.6503C50.5737 30.6503 50.6309 30.7166 50.655 30.8039C50.6701 30.8551 50.664 30.9062 50.6369 30.9454C51.1276 31.5866 51.5491 32.2729 51.9013 32.9924C52.0157 33.2272 52.1211 33.4681 52.2204 33.7089C52.2355 33.6908 52.2565 33.6727 52.2746 33.6577C52.3408 33.6065 52.398 33.5222 52.4703 33.5072C52.6238 33.4741 52.7562 33.5282 52.7773 33.7119C52.7924 33.8383 52.7352 33.9437 52.6087 33.9708C52.5214 33.9888 52.4161 34.0039 52.3318 33.9858C52.389 34.1364 52.4432 34.2869 52.4943 34.4404C52.7863 35.3074 52.982 36.2135 53.0723 37.1407C53.1055 37.4598 53.1265 37.7789 53.1355 38.104C53.1416 38.3629 53.1356 38.6188 53.1265 38.8777C53.1085 39.3202 53.0693 39.7567 53.0061 40.1872C53.1446 40.1691 53.262 40.2233 53.2801 40.3919C53.2951 40.5183 53.2379 40.6237 53.1115 40.6508C53.0513 40.6628 52.985 40.6749 52.9218 40.6749C52.8646 40.9849 52.7954 41.295 52.7111 41.599C52.5756 42.1018 52.407 42.5925 52.2084 43.0711C51.8531 43.9321 51.4016 44.7539 50.8507 45.5215C51.0434 45.6992 51.0343 45.8406 50.8116 46.1387C50.5978 46.2711 50.3811 46.3825 50.1312 46.4337C50.1041 46.4668 50.074 46.4969 50.0469 46.527C49.9596 46.6263 49.8723 46.7227 49.779 46.822C49.8362 46.8401 49.8994 46.8973 50.0078 46.9996C50.056 47.0689 50.1222 47.1351 50.1432 47.2104C50.1553 47.2465 50.1523 47.2826 50.1432 47.3187C50.1493 47.3127 50.1553 47.3067 50.1613 47.3007C50.3148 47.1411 50.4623 46.9786 50.6038 46.813C50.8838 46.4909 51.1457 46.1567 51.3865 45.8105C51.9946 44.9496 52.4883 44.0254 52.8676 43.0561C53.0543 42.5774 53.2078 42.0867 53.3342 41.587C53.56 40.705 53.6925 39.7928 53.7256 38.8656C53.7346 38.6098 53.7376 38.3539 53.7316 38.095C53.7256 37.7729 53.7015 37.4538 53.6714 37.1347C53.5811 36.2075 53.3974 35.3044 53.1205 34.4344C52.9609 33.9377 52.7713 33.456 52.5545 32.9834C52.115 32.0321 51.5611 31.135 50.8928 30.3102C50.6761 30.0423 50.4503 29.7804 50.2125 29.5275C50.062 29.3679 49.9054 29.2114 49.7459 29.0579C49.0384 28.3836 48.2678 27.7995 47.449 27.3089C47.0757 27.0831 46.6904 26.8784 46.296 26.6947C45.423 26.2853 44.5078 25.9752 43.5626 25.7736C42.9695 25.6471 42.3645 25.5598 41.7473 25.5177C41.347 25.4906 40.9406 25.4786 40.5342 25.4876C40.0284 25.4996 39.5287 25.5418 39.038 25.611L39.0531 25.608Z" fill="#E0DC51"/>
  <path d="M41.1211 50.6752C40.6665 50.6842 40.215 50.6692 39.7665 50.63C39.1975 50.5819 38.6346 50.4946 38.0837 50.3681L37.891 50.9491C37.9452 50.9612 38.0024 50.9732 38.0566 50.9853C38.2583 51.0304 38.463 51.0695 38.6677 51.1027C38.6887 51.0756 38.7158 51.0485 38.7489 51.0214C38.8152 50.9702 38.8724 50.8859 38.9446 50.8709C39.0981 50.8377 39.2306 50.8919 39.2517 51.0756C39.2577 51.1147 39.2517 51.1508 39.2426 51.1839C39.4203 51.205 39.5979 51.2231 39.7755 51.2381C40.1247 51.2652 40.4769 51.2833 40.8291 51.2833C40.9285 51.2833 41.0308 51.2833 41.1301 51.2803C41.5486 51.2713 41.964 51.2411 42.3734 51.193C42.3825 51.19 42.3915 51.187 42.4005 51.1809C42.4005 51.1809 42.4005 51.187 42.4005 51.19C42.4276 51.187 42.4547 51.1809 42.4818 51.1779C43.0267 51.1087 43.5625 51.0033 44.0863 50.8679L43.9087 50.2869C43.4361 50.4073 42.9574 50.5006 42.4698 50.5668C42.0242 50.627 41.5697 50.6632 41.1151 50.6752H41.1211Z" fill="#E0DC51"/>
  <path d="M49.1107 48.258C49.0836 48.0202 49.1438 47.8035 49.2973 47.6198C49.3094 47.6048 49.4147 47.6349 49.4358 47.671C49.49 47.7613 49.5261 47.8637 49.5442 47.9088C49.7067 47.7613 49.8663 47.6078 50.0198 47.4513C50.0108 47.4513 50.0017 47.4513 49.9927 47.4453C49.7429 47.3279 49.496 47.3248 49.2522 47.3549C48.8367 47.7463 48.4002 48.1045 47.9427 48.4296C47.5784 48.6885 47.2021 48.9263 46.8168 49.1401C46.1696 49.4983 45.4952 49.7994 44.7938 50.0342L44.9714 50.6152C45.6126 50.3984 46.2358 50.1305 46.8348 49.8174C47.2202 49.6157 47.5965 49.393 47.9607 49.1521C48.3611 48.8842 48.7494 48.5952 49.1227 48.2821C49.1167 48.2761 49.1137 48.2671 49.1107 48.2611V48.258Z" fill="#E0DC51"/>
  <path d="M37.2047 50.1304C36.5575 49.9317 35.9283 49.6818 35.3202 49.3748C34.9229 49.1761 34.5375 48.9503 34.1612 48.7065C33.52 48.291 32.9119 47.8124 32.346 47.2735C32.2587 47.1892 32.1774 47.1049 32.0931 47.0176C31.7891 46.7106 31.5031 46.3915 31.2382 46.0603C31.0937 45.8797 30.9552 45.6991 30.8227 45.5125C30.7806 45.5125 30.7415 45.5245 30.6993 45.5215C30.7053 45.4733 30.7204 45.4312 30.7354 45.389C30.3531 44.8412 30.022 44.2662 29.736 43.6671C29.5132 43.1975 29.3146 42.7158 29.155 42.2191C28.872 41.3491 28.6884 40.446 28.6011 39.5188C28.574 39.2359 28.5559 38.9499 28.5499 38.6639C28.5439 38.3689 28.5499 38.0769 28.565 37.7849C28.6101 36.8456 28.7576 35.9335 29.0045 35.0605C29.0045 35.0515 29.0075 35.0424 29.0105 35.0334C28.7968 34.9973 28.589 35.0213 28.3783 35.0545C28.3783 35.0605 28.3753 35.0695 28.3723 35.0755C28.1405 35.9515 27.996 36.8637 27.9569 37.7999C27.9448 38.0889 27.9358 38.3809 27.9448 38.6759C27.9509 38.9619 27.9719 39.2449 27.996 39.5279C28.0773 40.452 28.2549 41.3582 28.5258 42.2282C28.562 42.3425 28.5981 42.4569 28.6372 42.5683C28.6583 42.5322 28.6824 42.4931 28.7095 42.46C28.7215 42.4449 28.8269 42.475 28.8479 42.5111C28.9051 42.6075 28.9413 42.7158 28.9593 42.761C28.9593 42.9506 28.9292 43.056 28.8449 43.1403C28.9172 43.3209 28.9924 43.4985 29.0707 43.6761C29.435 44.4889 29.8895 45.2626 30.4193 45.9881C30.615 45.8135 30.6421 45.8376 30.8739 46.0573C30.9221 46.1266 30.9883 46.1928 31.0094 46.2681C31.0485 46.4005 30.9492 46.551 30.8498 46.5029C30.8318 46.4938 30.8137 46.4908 30.7987 46.4818C30.9943 46.7256 31.199 46.9604 31.4158 47.1922C31.5813 47.3699 31.7499 47.5414 31.9275 47.71C32.6229 48.3723 33.3785 48.9473 34.1793 49.432C34.5556 49.6577 34.9379 49.8654 35.3323 50.0521C35.8771 50.308 36.4371 50.5277 37.0121 50.7053L37.2047 50.1243V50.1304Z" fill="#E0DC51"/>
  <path d="M36.419 55.3986C36.3136 55.4227 36.2624 55.3444 36.2444 55.2541C36.2263 55.1668 36.2444 55.0885 36.3347 55.0464C36.416 55.0464 36.4671 55.0915 36.5003 55.1517L37.6291 51.747L37.8941 50.9493L38.0867 50.3683L40.7238 42.4058C40.6907 42.3998 40.6365 42.3366 40.6214 42.2945C40.6094 42.2493 40.6214 42.1771 40.6576 42.1439C40.7148 42.0867 40.781 42.0566 40.8472 42.0356L41.1332 41.1746L41.3831 41.9904C41.3831 41.9904 41.3981 41.9904 41.4071 41.9874C41.5898 41.8208 41.7684 41.8198 41.943 41.9844C41.9912 42.0536 42.0574 42.1199 42.0785 42.1951C42.1176 42.3276 42.0183 42.4781 41.9189 42.4299C41.7714 42.3607 41.6269 42.3336 41.4824 42.3276L42.807 46.6655C42.9756 46.521 43.0117 46.5511 43.2344 46.7588C43.2826 46.8281 43.3488 46.8943 43.3699 46.9696C43.409 47.102 43.3097 47.2525 43.2104 47.2044C43.1231 47.1622 43.0327 47.1382 42.9454 47.1231L43.7823 49.8595C43.8636 49.7 43.984 49.5795 44.1195 49.4682C44.1285 49.4411 44.1345 49.411 44.1496 49.3899C44.2911 49.2033 44.4025 49.116 44.5078 49.1129L44.4356 48.8811L44.2008 48.1165C44.1646 48.0894 44.1406 48.0443 44.1285 47.9931C44.1195 47.957 44.1225 47.9208 44.1285 47.8877L43.5897 46.1267C43.4241 46.1899 43.2495 46.229 43.0508 46.226C43.093 45.928 43.2435 45.7504 43.4271 45.5938L41.7503 40.1029C41.6721 40.1391 41.5878 40.1661 41.5005 40.1872C41.5065 40.2113 41.5125 40.2354 41.5185 40.2565C41.4704 40.2775 41.4222 40.3197 41.3801 40.3106C41.3229 40.3016 41.3048 40.2534 41.3289 40.2083C41.2928 40.2113 41.2566 40.2203 41.2175 40.2233C40.9676 40.2294 40.7388 40.1631 40.5341 40.0518L38.2372 46.9876C38.2613 46.9696 38.2854 46.9545 38.3095 46.9485C38.463 46.9154 38.5955 46.9696 38.6165 47.1532C38.6316 47.2796 38.5744 47.385 38.448 47.4121C38.3426 47.4362 38.2101 47.4542 38.1168 47.4121C38.1108 47.4091 38.1048 47.4061 38.0988 47.4031L37.5569 49.0377L37.1957 50.1304L37.003 50.7114L36.6538 51.7651L35.3292 55.7658H36.2895L36.41 55.4016L36.419 55.3986Z" fill="#E0DC51"/>
  <path d="M44.7908 50.031L44.7095 49.7661C44.6945 49.7842 44.6854 49.8053 44.6674 49.8263C44.4205 49.9768 44.1646 50.1033 43.8696 50.1364L43.9148 50.2869L44.0924 50.8679L44.1556 51.0726L44.3152 51.5934L45.5885 55.7598H46.5428L45.2604 51.5663L44.9684 50.609L44.7908 50.028V50.031Z" fill="#E0DC51"/>
  <path d="M42.5571 38.8326C42.539 38.08 41.9159 37.4869 41.1663 37.502C40.4137 37.5201 39.8207 38.1432 39.8357 38.8928C39.8478 39.3955 40.1338 39.823 40.5432 40.0488C40.7479 40.1601 40.9767 40.2264 41.2265 40.2204C41.2657 40.2204 41.3018 40.2113 41.3379 40.2053C41.3409 40.1963 41.3439 40.1903 41.353 40.1812C41.3861 40.1451 41.4433 40.133 41.4884 40.109C41.4944 40.133 41.5005 40.1571 41.5095 40.1812C41.5968 40.1601 41.6781 40.133 41.7594 40.0969C42.241 39.8772 42.5691 39.3895 42.5571 38.8266V38.8326Z" fill="#E0DC51"/>
  <path d="M36.2985 55.7657H33.6795C33.4206 55.7657 33.2069 55.9794 33.2069 56.2383V56.717C33.2069 56.9759 33.4206 57.1896 33.6795 57.1896H35.8621C35.9433 56.9939 36.0788 56.8615 36.2323 56.7381C36.2414 56.711 36.2474 56.6809 36.2624 56.6568C36.4852 56.3648 36.6297 56.3106 36.7983 56.4581C37.012 56.6447 37.009 56.7832 36.7802 57.0933C36.726 57.1264 36.6688 57.1595 36.6116 57.1896H43.5084C43.5806 57.0903 43.6709 57.009 43.7673 56.9307C43.7763 56.9036 43.7823 56.8735 43.8004 56.8495C44.0231 56.5574 44.1676 56.5032 44.3362 56.6508C44.5259 56.8163 44.5439 56.9458 44.3844 57.1866H48.5989C48.8578 57.1866 49.0715 56.9729 49.0715 56.714V56.2353C49.0715 55.9764 48.8578 55.7627 48.5989 55.7627H36.3016L36.2985 55.7657Z" fill="#E0DC51"/>
  <path d="M17.1767 25.4213C17.7637 25.4213 18.2363 24.9456 18.2363 24.3616C18.2363 23.7776 17.7607 23.302 17.1767 23.302C16.8696 23.302 16.5957 23.4345 16.403 23.6422C16.5836 23.585 16.7883 23.6301 16.975 23.591C17.1576 23.4244 17.3362 23.4234 17.5108 23.588C17.559 23.6572 17.6252 23.7234 17.6463 23.7987C17.6854 23.9312 17.5861 24.0817 17.4867 24.0335C17.0864 23.8469 16.695 23.9522 16.2976 24.0094C16.2736 24.0124 16.2314 23.9733 16.2073 23.9312C16.1501 24.0636 16.114 24.2081 16.114 24.3616C16.114 24.9487 16.5896 25.4213 17.1737 25.4213H17.1767Z" fill="#E0DC51"/>
  <path d="M62.6031 25.4181C63.1883 25.4181 63.6628 24.9437 63.6628 24.3585C63.6628 23.7733 63.1883 23.2988 62.6031 23.2988C62.0179 23.2988 61.5435 23.7733 61.5435 24.3585C61.5435 24.9437 62.0179 25.4181 62.6031 25.4181Z" fill="#E0DC51"/>
</svg>