<svg width="64" height="64" viewBox="0 0 64 64" fill="none" xmlns="http://www.w3.org/2000/svg">
<g filter="url(#filter0_i_150_10029)">
<path d="M35.96 20.8399C42.394 24.4919 46.758 31.5319 46.758 39.3859C46.758 42.5919 46.03 45.6099 44.732 48.2919H53.072C54.6095 48.2919 56.084 48.9027 57.1711 49.9898C58.2583 51.077 58.869 52.5515 58.869 54.0889C58.869 55.6264 58.2583 57.1009 57.1711 58.188C56.084 59.2752 54.6095 59.8859 53.072 59.8859H28.132C27.6867 59.8859 27.26 59.8806 26.852 59.8699C26.572 59.8806 26.2907 59.8859 26.008 59.8859C12.132 59.8859 5.13202 50.7839 5.13202 39.3239C5.13202 30.7559 10.396 23.1899 17.844 19.9179L17.914 19.8779C20.79 18.6679 26.44 14.2699 31.258 6.86992C33.664 3.77592 37.306 3.34192 39.85 5.28792C42.392 7.23192 42.618 10.8559 41.024 13.4339C39.932 15.1999 37.164 19.1339 35.96 20.8399Z" fill="url(#paint0_linear_150_10029)"/>
<path d="M35.96 20.8399C42.394 24.4919 46.758 31.5319 46.758 39.3859C46.758 42.5919 46.03 45.6099 44.732 48.2919H53.072C54.6095 48.2919 56.084 48.9027 57.1711 49.9898C58.2583 51.077 58.869 52.5515 58.869 54.0889C58.869 55.6264 58.2583 57.1009 57.1711 58.188C56.084 59.2752 54.6095 59.8859 53.072 59.8859H28.132C27.6867 59.8859 27.26 59.8806 26.852 59.8699C26.572 59.8806 26.2907 59.8859 26.008 59.8859C12.132 59.8859 5.13202 50.7839 5.13202 39.3239C5.13202 30.7559 10.396 23.1899 17.844 19.9179L17.914 19.8779C20.79 18.6679 26.44 14.2699 31.258 6.86992C33.664 3.77592 37.306 3.34192 39.85 5.28792C42.392 7.23192 42.618 10.8559 41.024 13.4339C39.932 15.1999 37.164 19.1339 35.96 20.8399Z" fill="url(#paint1_radial_150_10029)"/>
</g>
<g filter="url(#filter1_f_150_10029)">
<path d="M29.32 29.43C29.32 26.552 31.46 24.218 34.096 24.218H41.044C43.682 24.218 45.82 26.552 45.82 29.43C45.82 31.314 44.906 32.964 43.534 33.878C44.9 34.738 45.82 36.348 45.82 38.192C45.82 40.06 44.878 41.686 43.484 42.538C44.882 43.436 45.82 45.098 45.82 46.996C45.82 48.496 45.53 50.744 43.144 51.296L34.058 52.166C31.442 52.166 29.32 49.852 29.32 46.996C29.32 45.096 30.26 43.436 31.658 42.536C30.264 41.686 29.32 40.06 29.32 38.192C29.32 36.348 30.24 34.738 31.606 33.878C30.234 32.964 29.32 31.314 29.32 29.43Z" fill="url(#paint2_radial_150_10029)"/>
</g>
<path d="M53.072 48.292H34.164C30.963 48.292 28.368 50.887 28.368 54.088V54.09C28.368 57.291 30.963 59.886 34.164 59.886H53.072C56.2731 59.886 58.868 57.291 58.868 54.09V54.088C58.868 50.887 56.2731 48.292 53.072 48.292Z" fill="url(#paint3_radial_150_10029)"/>
<path d="M53.072 48.292H34.164C30.963 48.292 28.368 50.887 28.368 54.088V54.09C28.368 57.291 30.963 59.886 34.164 59.886H53.072C56.2731 59.886 58.868 57.291 58.868 54.09V54.088C58.868 50.887 56.2731 48.292 53.072 48.292Z" fill="url(#paint4_radial_150_10029)"/>
<path d="M45.346 19.136H36.826C33.6073 19.136 30.998 21.7453 30.998 24.964C30.998 28.1827 33.6073 30.792 36.826 30.792H45.346C48.5648 30.792 51.174 28.1827 51.174 24.964C51.174 21.7453 48.5648 19.136 45.346 19.136Z" fill="url(#paint5_radial_150_10029)"/>
<path d="M45.346 19.136H36.826C33.6073 19.136 30.998 21.7453 30.998 24.964C30.998 28.1827 33.6073 30.792 36.826 30.792H45.346C48.5648 30.792 51.174 28.1827 51.174 24.964C51.174 21.7453 48.5648 19.136 45.346 19.136Z" fill="url(#paint6_linear_150_10029)"/>
<path d="M45.392 38.824H36.78C33.5867 38.824 30.998 41.4122 30.998 44.605C30.998 47.7977 33.5867 50.386 36.78 50.386H45.392C48.5854 50.386 51.174 47.7977 51.174 44.605C51.174 41.4122 48.5854 38.824 45.392 38.824Z" fill="url(#paint7_radial_150_10029)"/>
<path d="M45.392 38.824H36.78C33.5867 38.824 30.998 41.4122 30.998 44.605C30.998 47.7977 33.5867 50.386 36.78 50.386H45.392C48.5854 50.386 51.174 47.7977 51.174 44.605C51.174 41.4122 48.5854 38.824 45.392 38.824Z" fill="url(#paint8_linear_150_10029)"/>
<path d="M45.392 38.824H36.78C33.5867 38.824 30.998 41.4122 30.998 44.605C30.998 47.7977 33.5867 50.386 36.78 50.386H45.392C48.5854 50.386 51.174 47.7977 51.174 44.605C51.174 41.4122 48.5854 38.824 45.392 38.824Z" fill="url(#paint9_radial_150_10029)"/>
<g filter="url(#filter2_f_150_10029)">
<path d="M47.304 28.9019H35.05C34.67 28.9019 34.362 29.2099 34.362 29.5899C34.362 29.9698 34.67 30.2779 35.05 30.2779H47.304C47.684 30.2779 47.992 29.9698 47.992 29.5899C47.992 29.2099 47.684 28.9019 47.304 28.9019Z" fill="#C26B04"/>
</g>
<g filter="url(#filter3_f_150_10029)">
<path d="M47.304 39.2439H35.05C34.67 39.2439 34.362 39.5519 34.362 39.9319C34.362 40.3119 34.67 40.6199 35.05 40.6199H47.304C47.684 40.6199 47.992 40.3119 47.992 39.9319C47.992 39.5519 47.684 39.2439 47.304 39.2439Z" fill="#C26B04"/>
</g>
<path d="M45.612 29.198H36.56C33.4882 29.198 30.998 31.6882 30.998 34.76V34.762C30.998 37.8338 33.4882 40.324 36.56 40.324H45.612C48.6839 40.324 51.174 37.8338 51.174 34.762V34.76C51.174 31.6882 48.6839 29.198 45.612 29.198Z" fill="url(#paint10_radial_150_10029)"/>
<path d="M45.612 29.198H36.56C33.4882 29.198 30.998 31.6882 30.998 34.76V34.762C30.998 37.8338 33.4882 40.324 36.56 40.324H45.612C48.6839 40.324 51.174 37.8338 51.174 34.762V34.76C51.174 31.6882 48.6839 29.198 45.612 29.198Z" fill="url(#paint11_linear_150_10029)"/>
<path d="M45.612 29.198H36.56C33.4882 29.198 30.998 31.6882 30.998 34.76V34.762C30.998 37.8338 33.4882 40.324 36.56 40.324H45.612C48.6839 40.324 51.174 37.8338 51.174 34.762V34.76C51.174 31.6882 48.6839 29.198 45.612 29.198Z" fill="url(#paint12_radial_150_10029)"/>
<path d="M21.322 29.5159C19.206 27.8959 16.47 24.0959 16.736 21.3999C16.836 20.3639 17.006 20.3859 17.914 19.8799C20.79 18.6679 26.44 14.2699 31.258 6.86992C33.664 3.77592 37.306 3.34192 39.85 5.28792C42.392 7.23192 42.618 10.8559 41.024 13.4339C39.61 15.7219 35.384 21.6519 35.384 21.6519L29.448 28.4319C28.5137 29.6525 27.133 30.4523 25.6094 30.6556C24.0857 30.8588 22.5436 30.4489 21.322 29.5159Z" fill="url(#paint13_radial_150_10029)"/>
<path d="M21.322 29.5159C19.206 27.8959 16.47 24.0959 16.736 21.3999C16.836 20.3639 17.006 20.3859 17.914 19.8799C20.79 18.6679 26.44 14.2699 31.258 6.86992C33.664 3.77592 37.306 3.34192 39.85 5.28792C42.392 7.23192 42.618 10.8559 41.024 13.4339C39.61 15.7219 35.384 21.6519 35.384 21.6519L29.448 28.4319C28.5137 29.6525 27.133 30.4523 25.6094 30.6556C24.0857 30.8588 22.5436 30.4489 21.322 29.5159Z" fill="url(#paint14_radial_150_10029)"/>
<defs>
<filter id="filter0_i_150_10029" x="5.13202" y="3.36304" width="54.487" height="56.5229" filterUnits="userSpaceOnUse" color-interpolation-filters="sRGB">
<feFlood flood-opacity="0" result="BackgroundImageFix"/>
<feBlend mode="normal" in="SourceGraphic" in2="BackgroundImageFix" result="shape"/>
<feColorMatrix in="SourceAlpha" type="matrix" values="0 0 0 0 0 0 0 0 0 0 0 0 0 0 0 0 0 0 127 0" result="hardAlpha"/>
<feOffset dx="0.75" dy="-0.75"/>
<feGaussianBlur stdDeviation="1"/>
<feComposite in2="hardAlpha" operator="arithmetic" k2="-1" k3="1"/>
<feColorMatrix type="matrix" values="0 0 0 0 0.898039 0 0 0 0 0.470588 0 0 0 0 0.364706 0 0 0 1 0"/>
<feBlend mode="normal" in2="shape" result="effect1_innerShadow_150_10029"/>
</filter>
<filter id="filter1_f_150_10029" x="27.82" y="22.718" width="19.5001" height="30.948" filterUnits="userSpaceOnUse" color-interpolation-filters="sRGB">
<feFlood flood-opacity="0" result="BackgroundImageFix"/>
<feBlend mode="normal" in="SourceGraphic" in2="BackgroundImageFix" result="shape"/>
<feGaussianBlur stdDeviation="0.75" result="effect1_foregroundBlur_150_10029"/>
</filter>
<filter id="filter2_f_150_10029" x="33.612" y="28.1519" width="15.1299" height="2.87598" filterUnits="userSpaceOnUse" color-interpolation-filters="sRGB">
<feFlood flood-opacity="0" result="BackgroundImageFix"/>
<feBlend mode="normal" in="SourceGraphic" in2="BackgroundImageFix" result="shape"/>
<feGaussianBlur stdDeviation="0.375" result="effect1_foregroundBlur_150_10029"/>
</filter>
<filter id="filter3_f_150_10029" x="33.612" y="38.4939" width="15.1299" height="2.87598" filterUnits="userSpaceOnUse" color-interpolation-filters="sRGB">
<feFlood flood-opacity="0" result="BackgroundImageFix"/>
<feBlend mode="normal" in="SourceGraphic" in2="BackgroundImageFix" result="shape"/>
<feGaussianBlur stdDeviation="0.375" result="effect1_foregroundBlur_150_10029"/>
</filter>
<linearGradient id="paint0_linear_150_10029" x1="28.688" y1="62.6659" x2="61.216" y2="23.6659" gradientUnits="userSpaceOnUse">
<stop stop-color="#FDB033"/>
<stop offset="1" stop-color="#FFCB25"/>
</linearGradient>
<radialGradient id="paint1_radial_150_10029" cx="0" cy="0" r="1" gradientUnits="userSpaceOnUse" gradientTransform="translate(15.268 22.0859) scale(17.2895 9.1579)">
<stop stop-color="#FFD337"/>
<stop offset="1" stop-color="#FFC42A" stop-opacity="0"/>
</radialGradient>
<radialGradient id="paint2_radial_150_10029" cx="0" cy="0" r="1" gradientUnits="userSpaceOnUse" gradientTransform="translate(31.392 49.192) rotate(-56.922) scale(17.1784 14.2961)">
<stop stop-color="#E47938"/>
<stop offset="1" stop-color="#A95A0C"/>
</radialGradient>
<radialGradient id="paint3_radial_150_10029" cx="0" cy="0" r="1" gradientUnits="userSpaceOnUse" gradientTransform="translate(56.32 52.72) rotate(180) scale(20.2106 3.31578)">
<stop stop-color="#FFD230"/>
<stop offset="1" stop-color="#FFD230" stop-opacity="0"/>
</radialGradient>
<radialGradient id="paint4_radial_150_10029" cx="0" cy="0" r="1" gradientUnits="userSpaceOnUse" gradientTransform="translate(58.2146 51.2974) rotate(149.897) scale(5.56658 6.65338)">
<stop stop-color="#FFEA4A"/>
<stop offset="1" stop-color="#FFEA4A" stop-opacity="0"/>
</radialGradient>
<radialGradient id="paint5_radial_150_10029" cx="0" cy="0" r="1" gradientUnits="userSpaceOnUse" gradientTransform="translate(47.57 23.7) rotate(180) scale(11.75 5.68548)">
<stop stop-color="#FFE949"/>
<stop offset="1" stop-color="#FFBE3E"/>
</radialGradient>
<linearGradient id="paint6_linear_150_10029" x1="29.79" y1="26.586" x2="38.45" y2="26.586" gradientUnits="userSpaceOnUse">
<stop stop-color="#E08C16"/>
<stop offset="1" stop-color="#E08C16" stop-opacity="0"/>
</linearGradient>
<radialGradient id="paint7_radial_150_10029" cx="0" cy="0" r="1" gradientUnits="userSpaceOnUse" gradientTransform="translate(47.57 43.35) rotate(180) scale(11.75 5.63976)">
<stop stop-color="#FFE949"/>
<stop offset="1" stop-color="#FFBE3E"/>
</radialGradient>
<linearGradient id="paint8_linear_150_10029" x1="29.79" y1="46.214" x2="38.45" y2="46.214" gradientUnits="userSpaceOnUse">
<stop stop-color="#E08C16"/>
<stop offset="1" stop-color="#E08C16" stop-opacity="0"/>
</linearGradient>
<radialGradient id="paint9_radial_150_10029" cx="0" cy="0" r="1" gradientUnits="userSpaceOnUse" gradientTransform="translate(34.844 50.608) scale(13.1269 3.68996)">
<stop stop-color="#F27C5B"/>
<stop offset="1" stop-color="#F27C5B" stop-opacity="0"/>
</radialGradient>
<radialGradient id="paint10_radial_150_10029" cx="0" cy="0" r="1" gradientUnits="userSpaceOnUse" gradientTransform="translate(47.57 33.554) rotate(180) scale(11.75 5.42636)">
<stop stop-color="#FFE949"/>
<stop offset="1" stop-color="#FFBE3E"/>
</radialGradient>
<linearGradient id="paint11_linear_150_10029" x1="30.998" y1="35.982" x2="38.32" y2="35.982" gradientUnits="userSpaceOnUse">
<stop stop-color="#E08C16"/>
<stop offset="1" stop-color="#E08C16" stop-opacity="0"/>
</linearGradient>
<radialGradient id="paint12_radial_150_10029" cx="0" cy="0" r="1" gradientUnits="userSpaceOnUse" gradientTransform="translate(34.844 40.536) scale(13.1269 2.78948)">
<stop stop-color="#E9842F"/>
<stop offset="1" stop-color="#E9842F" stop-opacity="0"/>
</radialGradient>
<radialGradient id="paint13_radial_150_10029" cx="0" cy="0" r="1" gradientUnits="userSpaceOnUse" gradientTransform="translate(25.946 12.7599) rotate(44.029) scale(5.21566 15.0808)">
<stop stop-color="#D6983B"/>
<stop offset="0.858" stop-color="#D6983B" stop-opacity="0"/>
</radialGradient>
<radialGradient id="paint14_radial_150_10029" cx="0" cy="0" r="1" gradientUnits="userSpaceOnUse" gradientTransform="translate(42.0339 6.13502) rotate(143.588) scale(8.1074 8.37074)">
<stop stop-color="#FFEA4A"/>
<stop offset="1" stop-color="#FFEA4A" stop-opacity="0"/>
</radialGradient>
</defs>
</svg>
