<svg width="29" height="28" viewBox="0 0 29 28" fill="none" xmlns="http://www.w3.org/2000/svg">
<path d="M20.0999 8.39999C21.5609 8.39997 22.964 8.9709 24.0099 9.99096C25.0558 11.011 25.6617 12.3994 25.6982 13.86C25.7348 15.3205 25.1991 16.7374 24.2055 17.8085C23.2119 18.8796 21.839 19.52 20.3799 19.593L20.0999 19.6H17.2999C17.0339 19.5999 16.7778 19.4989 16.5834 19.3172C16.389 19.1356 16.2708 18.887 16.2527 18.6216C16.2345 18.3561 16.3178 18.0937 16.4857 17.8874C16.6536 17.681 16.8935 17.5461 17.1571 17.5098L17.2999 17.5H20.0999C21.0097 17.5022 21.8847 17.15 22.5393 16.5181C23.1939 15.8862 23.5767 15.0242 23.6065 14.1149C23.6364 13.2055 23.311 12.3203 22.6992 11.6468C22.0875 10.9733 21.2375 10.5645 20.3295 10.507L20.0999 10.5H17.2999C17.0339 10.4999 16.7778 10.3989 16.5834 10.2172C16.389 10.0356 16.2708 9.78698 16.2527 9.52156C16.2345 9.25615 16.3178 8.99374 16.4857 8.78738C16.6536 8.58101 16.8935 8.44606 17.1571 8.40979L17.2999 8.39999H20.0999ZM11.6999 8.39999C11.9659 8.40008 12.222 8.50114 12.4164 8.68276C12.6108 8.86437 12.729 9.11301 12.7471 9.37843C12.7653 9.64384 12.682 9.90624 12.5141 10.1126C12.3462 10.319 12.1062 10.4539 11.8427 10.4902L11.6999 10.5H8.89989C7.99005 10.4978 7.11511 10.85 6.46051 11.4819C5.80592 12.1138 5.42312 12.9758 5.39326 13.8851C5.36341 14.7945 5.68884 15.6797 6.30057 16.3532C6.91231 17.0267 7.76227 17.4355 8.67029 17.493L8.89989 17.5H11.6999C11.9659 17.5001 12.222 17.6011 12.4164 17.7828C12.6108 17.9644 12.729 18.213 12.7471 18.4784C12.7653 18.7438 12.682 19.0062 12.5141 19.2126C12.3462 19.419 12.1062 19.5539 11.8427 19.5902L11.6999 19.6H8.89989C7.43892 19.6 6.03578 19.0291 4.98987 18.009C3.94395 16.989 3.33809 15.6006 3.30156 14.14C3.26502 12.6795 3.8007 11.2625 4.79431 10.1915C5.78791 9.12039 7.16074 8.48002 8.61989 8.40699L8.89989 8.39999H11.6999ZM9.24989 12.95H19.7499C20.0159 12.9501 20.272 13.0511 20.4664 13.2328C20.6608 13.4144 20.779 13.663 20.7971 13.9284C20.8153 14.1938 20.732 14.4562 20.5641 14.6626C20.3962 14.869 20.1562 15.0039 19.8927 15.0402L19.7499 15.05H9.24989C8.98386 15.0499 8.72778 14.9489 8.53339 14.7672C8.33899 14.5856 8.22079 14.337 8.20266 14.0716C8.18453 13.8061 8.26782 13.5437 8.4357 13.3374C8.60358 13.131 8.84354 12.9961 9.10709 12.9598L9.24989 12.95Z" fill="#454545"/>
</svg>
