<svg width="48" height="48" viewBox="0 0 48 48" fill="none" xmlns="http://www.w3.org/2000/svg">
<g clip-path="url(#clip0_280_13052)">
<rect width="48" height="48" fill="white"/>
<circle cx="24" cy="24" r="24" fill="#F7F5F2"/>
<path d="M35.232 35.5305H12.768C12.624 35.5305 12.48 35.6745 12.48 35.8185V38.1225C12.48 38.2665 12.624 38.4105 12.768 38.4105H35.232C35.376 38.4105 35.52 38.2665 35.52 38.1225V35.8185C35.52 35.6745 35.376 35.5305 35.232 35.5305Z" fill="#51B1E0"/>
<path d="M35.52 28.3305H28.32C27.456 28.3305 26.88 27.7545 26.88 26.8905V20.9865C26.88 20.5545 27.168 20.1225 27.456 19.9785C29.184 18.6825 30.192 16.3785 29.616 13.9305C29.184 11.9145 27.456 10.1865 25.44 9.75452C21.552 8.89052 18.24 11.7705 18.24 15.3705C18.24 17.2425 19.104 18.9705 20.544 19.9785C20.976 20.2665 21.12 20.6985 21.12 21.1305V26.8905C21.12 27.7545 20.544 28.3305 19.68 28.3305H12.48C11.616 28.3305 11.04 28.9065 11.04 29.7705V33.8025C11.04 33.9465 11.184 34.0905 11.328 34.0905H36.672C36.816 34.0905 36.96 33.9465 36.96 33.8025V29.7705C36.96 28.9065 36.384 28.3305 35.52 28.3305Z" fill="#51B1E0"/>
</g>
<defs>
<clipPath id="clip0_280_13052">
<rect width="48" height="48" fill="white"/>
</clipPath>
</defs>
</svg>
