<svg width="270" height="117" viewBox="0 0 270 117" fill="none" xmlns="http://www.w3.org/2000/svg">
<g clip-path="url(#clip0_280_13049)">
<path fill-rule="evenodd" clip-rule="evenodd" d="M134.905 0C117.262 0 103 14.4375 103 32.2987C103 46.576 112.138 58.6615 124.816 62.939C126.4 63.2605 126.981 62.244 126.981 61.3889C126.981 60.6401 126.929 58.0735 126.929 55.3993C118.054 57.3247 116.206 51.5491 116.206 51.5491C114.779 47.8058 112.666 46.8438 112.666 46.8438C109.761 44.8652 112.878 44.8652 112.878 44.8652C116.1 45.0791 117.791 48.1806 117.791 48.1806C120.642 53.0998 125.238 51.7099 127.087 50.8541C127.351 48.7686 128.196 47.3248 129.094 46.5229C122.016 45.7741 114.568 42.9936 114.568 30.5872C114.568 27.0578 115.835 24.1703 117.843 21.9247C117.526 21.1227 116.416 17.8067 118.16 13.3685C118.16 13.3685 120.854 12.5127 126.928 16.6838C129.529 15.9768 132.211 15.6172 134.905 15.6142C137.599 15.6142 140.345 15.9889 142.88 16.6838C148.955 12.5127 151.649 13.3685 151.649 13.3685C153.393 17.8067 152.283 21.1227 151.966 21.9247C154.026 24.1703 155.241 27.0578 155.241 30.5872C155.241 42.9936 147.793 45.7203 140.662 46.5229C141.824 47.5387 142.828 49.4635 142.828 52.5118C142.828 56.8431 142.775 60.3192 142.775 61.3882C142.775 62.244 143.357 63.2605 144.941 62.9396C157.618 58.6609 166.756 46.576 166.756 32.2987C166.809 14.4375 152.494 0 134.905 0Z" fill="#454545"/>
</g>
<path d="M2.208 102.576C2.208 96.624 7.056 91.776 13.008 91.776C18.96 91.776 23.808 96.624 23.808 102.576C23.808 108.504 18.96 113.352 13.008 113.352C7.056 113.352 2.208 108.504 2.208 102.576ZM4.296 102.576C4.296 107.352 8.208 111.288 13.008 111.288C17.808 111.288 21.72 107.352 21.72 102.576C21.72 97.776 17.808 93.864 13.008 93.864C8.208 93.864 4.296 97.776 4.296 102.576ZM7.368 102.504C7.368 98.904 9.816 96.36 13.32 96.36C14.952 96.36 16.44 97.056 17.52 98.136L16.008 99.576C15.312 98.832 14.328 98.376 13.272 98.376C10.968 98.376 9.36 100.08 9.36 102.504C9.36 104.928 10.968 106.608 13.272 106.608C14.328 106.608 15.312 106.176 16.008 105.432L17.52 106.872C16.44 107.928 14.952 108.648 13.32 108.648C9.816 108.648 7.368 106.104 7.368 102.504ZM33.0349 109.056C36.5149 105.696 41.4349 102.024 41.4349 99.024C41.4349 96.96 40.1389 95.496 38.2669 95.496C36.8749 95.496 35.4589 96.528 34.8109 97.992L32.7949 97.128C33.7309 94.944 36.0109 93.432 38.2669 93.432C41.4829 93.432 43.7149 95.736 43.7149 99.024C43.7149 102.696 39.5149 106.152 36.2029 109.056H44.0029V111.048H33.2749L33.0349 109.056ZM52.8664 109.2C55.3384 109.2 57.0184 106.392 57.0184 102.336C57.0184 98.256 55.3384 95.472 52.8664 95.472C50.3944 95.472 48.7144 98.256 48.7144 102.336C48.7144 106.392 50.3944 109.2 52.8664 109.2ZM46.4344 102.336C46.4344 97.128 49.0984 93.456 52.8664 93.456C56.6344 93.456 59.2984 97.128 59.2984 102.336C59.2984 107.544 56.6344 111.216 52.8664 111.216C49.0984 111.216 46.4344 107.544 46.4344 102.336ZM62.0036 109.056C65.4836 105.696 70.4036 102.024 70.4036 99.024C70.4036 96.96 69.1076 95.496 67.2356 95.496C65.8436 95.496 64.4276 96.528 63.7796 97.992L61.7636 97.128C62.6996 94.944 64.9796 93.432 67.2356 93.432C70.4516 93.432 72.6836 95.736 72.6836 99.024C72.6836 102.696 68.4836 106.152 65.1716 109.056H72.9716V111.048H62.2436L62.0036 109.056ZM85.4831 93.624V104.424H87.8111V106.416H85.4831V111.048H83.2031V106.416H75.6671L75.4271 104.424L83.2991 93.624H85.4831ZM78.1631 104.424H83.2031V97.464L78.1631 104.424ZM108.49 93.552V95.544H103.426V111.12H101.146V95.544H96.0823V93.552H108.49ZM113.995 111.216C110.803 111.216 108.547 108.864 108.547 105.528C108.547 102.192 110.803 99.816 113.995 99.816C117.499 99.816 118.603 102.672 118.675 102.888C119.371 104.568 119.131 106.32 119.131 106.44H110.827C111.115 108.096 112.459 109.248 113.995 109.248C116.059 109.248 116.851 108 117.019 107.712L118.819 108.576C118.267 109.848 116.683 111.216 113.995 111.216ZM110.827 104.592H116.971C116.755 103.032 115.915 101.784 113.995 101.784C112.387 101.784 111.115 102.936 110.827 104.592ZM126.86 111.264C123.716 111.264 121.484 108.888 121.484 105.552C121.484 102.24 123.716 99.84 126.86 99.84C128.012 99.84 129.308 100.416 130.244 101.64V99.816H132.524V111.144H130.244V109.464C129.308 110.736 128.036 111.264 126.86 111.264ZM123.764 105.552C123.764 107.784 125.06 109.296 126.98 109.296C128.732 109.296 130.244 107.736 130.268 105.552C130.244 103.392 128.732 101.808 126.98 101.808C125.06 101.808 123.764 103.32 123.764 105.552ZM150.029 104.544C150.029 102.936 149.093 101.832 147.749 101.832C146.213 101.832 145.157 102.936 145.157 104.4V111.144H142.877V104.544C142.877 102.936 141.965 101.832 140.645 101.832C139.109 101.832 138.029 103.128 138.029 104.736V111.144H135.749V99.816H138.029V101.4C138.701 100.488 139.757 99.84 140.813 99.84C142.181 99.84 143.549 100.704 144.197 101.904C144.965 100.704 146.477 99.84 147.869 99.84C150.485 99.84 152.309 101.76 152.309 104.424V111.144H150.029V104.544ZM161.578 111.12V93.552H167.266C170.074 93.552 172.066 95.52 172.066 98.328C172.066 99.432 171.49 100.704 170.602 101.592C170.818 101.712 171.034 101.832 171.226 101.952C172.546 102.84 173.506 104.568 173.506 106.152C173.506 109.08 171.514 111.12 168.658 111.12H161.578ZM163.834 109.128H168.49C170.146 109.128 171.274 107.928 171.274 106.2C171.274 104.328 170.146 103.056 168.49 103.056H163.834V109.128ZM163.834 101.064H167.434C168.874 100.992 169.858 99.912 169.858 98.4C169.858 96.696 168.754 95.544 167.122 95.544H163.834V101.064ZM182.215 111.288C181.303 111.288 179.839 110.88 178.807 109.464V111.168H176.527V94.08H178.807V101.664C179.839 100.224 181.303 99.84 182.239 99.84C185.383 99.84 187.639 102.216 187.639 105.552C187.639 108.912 185.383 111.288 182.215 111.288ZM178.807 105.576C178.807 107.688 180.295 109.344 182.119 109.344C184.063 109.344 185.359 107.832 185.359 105.576C185.359 103.32 184.063 101.832 182.119 101.832C180.295 101.832 178.807 103.512 178.807 105.576ZM195.274 111.264C192.13 111.264 189.898 108.888 189.898 105.552C189.898 102.24 192.13 99.84 195.274 99.84C196.426 99.84 197.722 100.416 198.658 101.64V99.816H200.938V111.144H198.658V109.464C197.722 110.736 196.45 111.264 195.274 111.264ZM192.178 105.552C192.178 107.784 193.474 109.296 195.394 109.296C197.146 109.296 198.658 107.736 198.682 105.552C198.658 103.392 197.146 101.808 195.394 101.808C193.474 101.808 192.178 103.32 192.178 105.552ZM209.268 111.216C206.076 111.216 203.82 108.864 203.82 105.528C203.82 102.192 206.076 99.816 209.268 99.816C212.772 99.816 213.876 102.672 213.948 102.888C214.644 104.568 214.404 106.32 214.404 106.44H206.1C206.388 108.096 207.732 109.248 209.268 109.248C211.332 109.248 212.124 108 212.292 107.712L214.092 108.576C213.54 109.848 211.956 111.216 209.268 111.216ZM206.1 104.592H212.244C212.028 103.032 211.188 101.784 209.268 101.784C207.66 101.784 206.388 102.936 206.1 104.592ZM217.444 101.04H227.788V103.296H217.444V101.04ZM236.894 111.288C235.982 111.288 234.518 110.88 233.486 109.464V111.168H231.206V94.08H233.486V101.664C234.518 100.224 235.982 99.84 236.918 99.84C240.062 99.84 242.318 102.216 242.318 105.552C242.318 108.912 240.062 111.288 236.894 111.288ZM233.486 105.576C233.486 107.688 234.974 109.344 236.798 109.344C238.742 109.344 240.038 107.832 240.038 105.576C240.038 103.32 238.742 101.832 236.798 101.832C234.974 101.832 233.486 103.512 233.486 105.576ZM249.954 111.264C246.81 111.264 244.578 108.888 244.578 105.552C244.578 102.24 246.81 99.84 249.954 99.84C251.106 99.84 252.402 100.416 253.338 101.64V99.816H255.618V111.144H253.338V109.464C252.402 110.736 251.13 111.264 249.954 111.264ZM246.858 105.552C246.858 107.784 248.154 109.296 250.074 109.296C251.826 109.296 253.338 107.736 253.362 105.552C253.338 103.392 251.826 101.808 250.074 101.808C248.154 101.808 246.858 103.32 246.858 105.552ZM261.356 94.08V104.832L265.676 99.816H268.724L264.356 104.856L268.724 111.144H265.94L262.724 106.56L261.356 108.192V111.144H259.076V94.08H261.356Z" fill="#5E5E5E"/>
<defs>
<clipPath id="clip0_280_13049">
<rect width="64" height="63" fill="white" transform="translate(103)"/>
</clipPath>
</defs>
</svg>
