<svg width="452" height="320" viewBox="0 0 452 320" fill="none" xmlns="http://www.w3.org/2000/svg">
<circle cx="160" cy="160" r="159" stroke="#51B1E0" stroke-width="2"/>
<path d="M159.02 284.968C161.68 284.968 163.56 286.928 163.56 289.708C163.56 292.488 161.68 294.468 159.02 294.468C156.1 294.468 155.18 292.088 155.12 291.908C154.54 290.508 154.74 289.048 154.74 288.948L161.66 288.948C161.42 287.568 160.3 286.608 159.02 286.608C157.3 286.608 156.64 287.648 156.5 287.888L155 287.168C155.46 286.108 156.78 284.968 159.02 284.968ZM161.66 290.488L156.54 290.488C156.72 291.788 157.42 292.828 159.02 292.828C160.36 292.828 161.42 291.868 161.66 290.488Z" fill="#51B1E0"/>
<path d="M136.803 282.767C139.378 283.249 140.843 285.537 140.332 288.27C139.825 290.983 137.629 292.607 135.053 292.125C134.11 291.949 133.136 291.279 132.557 290.133L132.278 291.627L130.41 291.278L132.145 281.998L134.012 282.348L133.755 283.724C134.717 282.825 135.839 282.587 136.803 282.767ZM138.464 287.92C138.806 286.092 137.976 284.655 136.403 284.361C134.968 284.093 133.49 285.139 133.136 286.925C132.825 288.698 133.821 290.227 135.256 290.495C136.829 290.789 138.122 289.749 138.464 287.92Z" fill="#51B1E0"/>
<path d="M114.949 280.022C114.911 278.849 114.077 278.011 113.462 277.773C112.473 277.39 111.65 277.522 111.39 278.193C111.144 278.827 111.931 279.454 112.759 280.139C113.787 281.03 115.274 282.229 114.617 283.926C114.032 285.436 112.272 285.827 110.5 285.141C109.437 284.729 108.008 283.489 108.194 281.738L109.925 281.808C109.815 282.923 110.608 283.423 111.093 283.611C111.932 283.936 112.628 283.799 112.845 283.239C113.091 282.605 112.364 282.045 111.506 281.326C110.411 280.387 108.961 279.204 109.611 277.525C110.225 275.94 112.066 275.452 114.061 276.225C115.404 276.745 116.522 278.122 116.666 279.744L114.949 280.022Z" fill="#51B1E0"/>
<path d="M96.2119 262.659L97.9803 263.754L93.6769 266.829L92.3131 276.288L90.5277 275.182L91.679 268.156L86.0045 272.382L84.2531 271.297L96.2119 262.659Z" fill="#51B1E0"/>
<path d="M58.4121 235.588C57.4479 234.312 55.7756 234.221 54.2753 235.354C52.791 236.475 52.4204 238.108 53.3846 239.385C54.2885 240.582 56.169 240.716 57.5416 239.679C58.9301 238.631 59.316 236.785 58.4121 235.588ZM65.8329 235.824L54.916 244.068L53.771 242.552L54.9681 241.648C53.7163 241.716 52.5658 240.956 52.0595 240.285C50.4686 238.179 50.9118 235.513 53.1303 233.838C55.3807 232.138 58.0657 232.442 59.6567 234.548C60.1749 235.235 60.5473 236.557 60.1711 237.719L64.6879 234.308L65.8329 235.824Z" fill="#51B1E0"/>
<path d="M48.9024 217.516L40.4521 221.724L39.6052 220.023L40.93 219.363C39.7854 219.218 38.6955 218.42 38.2053 217.346L39.7987 216.553C40.5028 218.101 42.416 218.623 43.8124 217.928L48.0555 215.815L48.9024 217.516Z" fill="#51B1E0"/>
<path d="M37.9474 193.757C37.5205 192.257 36.013 191.563 34.2048 192.077C32.4158 192.586 31.4994 193.97 31.9264 195.47C32.3587 196.99 33.8415 197.67 35.6497 197.156C37.458 196.641 38.3798 195.277 37.9474 193.757ZM36.1697 198.983C33.4958 199.744 31.0769 198.478 30.349 195.919C29.621 193.361 31.0164 191.03 33.6903 190.269C36.3642 189.508 38.7968 190.75 39.5248 193.308C40.2527 195.867 38.8436 198.222 36.1697 198.983Z" fill="#51B1E0"/>
<path d="M29.402 165.976C28.0677 166.099 27.2236 166.961 27.3269 168.076C27.445 169.351 28.4423 170.142 29.6571 170.029L35.2531 169.511L35.4284 171.403L29.9519 171.91C28.6176 172.034 27.7716 172.876 27.8731 173.971C27.9912 175.245 29.1497 176.042 30.484 175.918L35.8012 175.426L35.9765 177.317L26.5768 178.188L26.4015 176.297L27.7158 176.175C26.9074 175.687 26.2885 174.861 26.2073 173.985C26.1021 172.849 26.7139 171.648 27.6598 171.018C26.605 170.473 25.7718 169.285 25.6648 168.13C25.4636 165.959 26.9166 164.298 29.1271 164.093L34.7032 163.576L34.8785 165.468L29.402 165.976Z" fill="#51B1E0"/>
<path d="M26.0027 147.996L26.178 146.105L35.5578 146.974L35.3825 148.866L26.0027 147.996ZM22.4033 147.824C21.766 147.765 21.3504 147.264 21.4094 146.627C21.4685 145.99 21.969 145.574 22.6062 145.633C23.2435 145.692 23.6591 146.193 23.6001 146.83C23.541 147.467 23.0405 147.883 22.4033 147.824Z" fill="#51B1E0"/>
<path d="M36.274 126.282C37.4387 126.135 38.1959 125.227 38.3765 124.593C38.6666 123.573 38.4597 122.766 37.7671 122.569C37.1131 122.383 36.5618 123.224 35.9557 124.112C35.163 125.217 34.107 126.809 32.3565 126.311C30.7983 125.867 30.247 124.151 30.767 122.324C31.079 121.227 32.1816 119.69 33.9426 119.713L34.0324 121.444C32.9116 121.437 32.4867 122.272 32.3444 122.772C32.0981 123.638 32.2994 124.319 32.8765 124.483C33.5305 124.669 34.0214 123.894 34.6577 122.973C35.4916 121.796 36.5366 120.243 38.2679 120.736C39.903 121.201 40.5588 122.989 39.9731 125.047C39.5791 126.432 38.3112 127.672 36.7099 127.965L36.274 126.282Z" fill="#51B1E0"/>
<path d="M48.4739 103.478C47.2882 105.86 44.6957 106.669 42.2071 105.43C39.7186 104.191 38.7842 101.625 39.9698 99.244C41.2714 96.6301 43.8119 96.8674 43.9998 96.8939C45.5116 96.9988 46.7294 97.8286 46.8189 97.8732L43.7344 104.068C45.0767 104.468 46.4353 103.893 47.0058 102.747C47.7725 101.208 47.1357 100.153 46.9833 99.9211L48.2964 98.8993C49.0402 99.7836 49.4723 101.473 48.4739 103.478ZM42.3558 103.381L44.638 98.798C43.3941 98.3797 42.1511 98.5427 41.4379 99.975C40.8406 101.175 41.2275 102.551 42.3558 103.381Z" fill="#51B1E0"/>
<path d="M51.4012 82.2816L56.5959 75.4027L58.0962 76.5357L52.9014 83.4146L51.4012 82.2816Z" fill="#51B1E0"/>
<path d="M76.502 59.4334C75.5992 58.4432 74.403 58.2887 73.5753 59.0433C72.6294 59.9056 72.5988 61.1784 73.4207 62.0799L77.2069 66.2332L75.8028 67.5132L72.0975 63.4486C71.1947 62.4584 70.0133 62.2905 69.2003 63.0316C68.2544 63.8939 68.3169 65.2983 69.2196 66.2886L72.8172 70.2349L71.413 71.5149L65.0534 64.5387L66.4575 63.2587L67.3468 64.2342C67.2486 63.2952 67.5351 62.3033 68.1855 61.7105C69.0279 60.9425 70.3555 60.7065 71.4282 61.0818C71.2275 59.9116 71.6736 58.5306 72.5309 57.7492C74.1419 56.2805 76.3431 56.4389 77.8387 58.0795L81.6114 62.218L80.2073 63.498L76.502 59.4334Z" fill="#51B1E0"/>
<path d="M94.3203 53.6896C92.0928 55.0689 89.469 54.3646 88.0056 52.001C86.5526 49.6545 87.0811 46.9749 89.3087 45.5956C90.1249 45.0902 91.2958 44.9298 92.496 45.3864L91.6958 44.094L93.3112 43.0938L98.2807 51.1199L96.6653 52.1201L95.9283 50.9298C95.8232 52.2416 95.1536 53.1737 94.3203 53.6896ZM89.621 51.0008C90.6001 52.5822 92.1817 53.0849 93.542 52.2427C94.7833 51.4741 95.1702 49.7055 94.2291 48.1475C93.2645 46.6277 91.4984 46.1687 90.2571 46.9373C88.8967 47.7796 88.6418 49.4194 89.621 51.0008Z" fill="#51B1E0"/>
<path d="M108.47 30.6054L111.707 38.9604L113.554 33.7622L115.922 32.8446L114.045 38.0759L119.332 41.6472L117.169 42.4853L113.29 39.8913L112.718 41.5713L113.607 43.8652L111.835 44.5516L106.698 31.2918L108.47 30.6054Z" fill="#51B1E0"/>
<path d="M134.827 27.8962L136.695 27.547L138.426 36.8066L136.558 37.1558L134.827 27.8962ZM134.009 24.3869C133.891 23.7577 134.259 23.2211 134.888 23.1035C135.517 22.9859 136.053 23.3535 136.171 23.9826C136.289 24.6117 135.921 25.1484 135.292 25.266C134.663 25.3836 134.126 25.016 134.009 24.3869Z" fill="#51B1E0"/>
<path d="M163.128 29.6522C163.128 28.1522 162.308 27.1922 160.988 27.1922C159.608 27.2122 158.568 28.2922 158.588 29.6522L158.588 34.9722L156.688 34.9722L156.688 25.5322L158.588 25.5322L158.588 26.8722C159.208 26.0922 160.228 25.5522 161.168 25.5522C163.088 25.5522 165.028 26.8522 165.028 29.5722L165.028 34.9722L163.128 34.9722L163.128 29.6522Z" fill="#51B1E0"/>
<path d="M183.449 35.6151C184.983 35.9017 186.4 34.7424 186.716 33.0517C187.024 31.4003 186.129 29.768 184.596 29.4813C183.043 29.191 181.749 30.2311 181.408 32.0594C181.066 33.8877 181.896 35.3247 183.449 35.6151ZM179.54 31.7103C180.047 28.9973 182.243 27.3731 184.818 27.8545C185.88 28.053 186.858 28.8056 187.315 29.8472L187.59 28.3727L189.438 28.7182L187.825 37.3487C187.325 40.0223 185.136 41.8308 182.344 41.309C180.811 41.0223 179.477 40.1016 178.832 38.4347L180.507 37.7507C180.988 38.8783 181.65 39.4701 182.653 39.6576C184.383 39.981 185.643 38.7922 185.955 37.1212L186.124 36.2168C185.24 37.0282 184.032 37.3925 183.069 37.2124C180.494 36.731 179.029 34.4429 179.54 31.7103Z" fill="#51B1E0"/>
<path d="M225.115 47.118L226.765 48.1393L225.849 49.6186L232.565 53.7774L233.481 52.2981L235.165 53.3404L231.754 58.8498L221.704 52.6274L225.115 47.118ZM224.588 42.8399C227.394 44.5771 231.095 46.8448 234.589 48.4201L233.96 49.7012C232.565 49.1431 231.171 48.4684 229.843 47.7638L228.591 49.7873L226.958 48.7766L228.169 46.8211C226.63 45.9626 225.219 45.0887 223.961 44.3096L224.588 42.8399ZM226.496 41.1274C229.046 42.024 231.187 41.4914 232.113 39.995L232.545 39.2978L234.279 40.3717L233.848 41.0689C232.974 42.4803 233.531 44.5428 235.441 46.3601L233.954 47.2038C232.445 45.7283 231.723 44.0819 231.787 42.498C230.378 43.3668 228.496 43.5188 226.431 42.8279L226.496 41.1274ZM224.175 52.3223L230.891 56.4811L231.776 55.0528L225.059 50.894L224.175 52.3223ZM233.913 51.6009L239.272 42.9457L240.956 43.988L235.597 52.6432L233.913 51.6009Z" fill="#51B1E0"/>
<path d="M259.933 59.9755L261.322 61.242L249.398 74.3225L248.008 73.0559L259.933 59.9755ZM241.641 60.269C245.871 61.1211 249.124 60.1354 251.785 57.6623L248.163 54.3612L249.241 53.1788L254.326 57.8138C253.167 59.0849 251.899 60.1487 250.491 60.9216L252.442 62.7002L256.915 57.7932L258.275 59.0328L247.227 71.1525L245.867 69.9129L251.378 63.8678L248.924 61.6312C246.796 62.4516 244.342 62.65 241.54 62.0716L241.641 60.269Z" fill="#51B1E0"/>
<path d="M282.345 92.3146L286.018 99.6908L278.552 103.408L274.879 96.0321L282.345 92.3146ZM277.167 97.0376L279.12 100.958L283.757 98.6495L281.804 94.7287L277.167 97.0376ZM269.084 101.13L274.15 98.6069L275.024 100.361L271.39 102.171L275.82 111.069L274.388 111.782L269.084 101.13ZM277.123 107.404L288.725 101.627L289.598 103.382L284.872 105.735L285.986 107.973L284.518 108.704L283.404 106.466L277.997 109.159L277.123 107.404Z" fill="#51B1E0"/>
<path d="M293.054 117.21L296.36 128.829L294.802 129.272L292.027 119.519L287.025 120.943L289.849 130.869L288.33 131.301L284.974 119.509L293.054 117.21ZM279.181 119.099L280.739 118.655L285.129 134.083L283.571 134.526L279.181 119.099Z" fill="#51B1E0"/>
<path d="M299.557 142.436L299.736 144.368L295.275 144.781L296.212 154.898L294.639 155.043L293.523 142.995L299.557 142.436ZM289.585 141.251L291.178 141.103L292.658 157.075L291.065 157.223L289.585 141.251ZM282.955 143.834L288.153 143.352L288.333 145.304L284.729 145.638L285.687 155.973L284.093 156.121L282.955 143.834Z" fill="#51B1E0"/>
<path d="M294.423 203.603L293.887 205.488L291.425 204.787L290.752 207.154L289.193 206.71L289.867 204.344L287.77 203.747L287.097 206.114L285.538 205.67L286.212 203.304L283.807 202.62L284.343 200.735L294.423 203.603ZM292.533 191.025C294.919 191.704 296.069 194.09 295.331 196.687C294.597 199.265 292.357 200.707 289.972 200.028C287.567 199.344 286.441 196.944 287.174 194.366C287.913 191.769 290.129 190.341 292.533 191.025ZM292.013 192.853C290.494 192.42 289.19 193.276 288.752 194.815C288.314 196.354 288.972 197.768 290.492 198.201C291.992 198.628 293.277 197.766 293.715 196.227C294.153 194.688 293.514 193.28 292.013 192.853ZM284.692 190.812L286.212 191.244L283.038 202.401L276.863 200.644L277.399 198.759L282.054 200.084L284.692 190.812Z" fill="#51B1E0"/>
<path d="M281.539 213.06L278.419 219.327L280.71 220.468L279.837 222.222L277.545 221.081L274.398 227.401L272.984 226.697L280.125 212.356L281.539 213.06ZM283.949 215.266C282.8 218.559 283.414 221.814 285.401 222.803L286.01 223.106L285.127 224.879L284.519 224.576C282.513 223.577 279.573 225.04 277.637 227.941L276.57 226.583C278.248 224.246 280.508 222.713 282.726 222.566C281.507 220.708 281.35 217.971 282.222 215.233L283.949 215.266ZM276.556 212.568L277.953 213.263L272.497 224.22L267.305 221.635L268.17 219.898L271.965 221.788L276.556 212.568Z" fill="#51B1E0"/>
<path d="M254.457 253.731L242.647 264.497L241.597 263.344L253.406 252.579L254.457 253.731ZM255.536 256.103C253.343 258.536 252.555 261.175 253.496 262.564L257.339 259.06L258.404 260.228L248.723 269.053L247.658 267.886L251.516 264.369C250.22 263.304 247.534 263.831 244.909 265.791L244.376 264.166C246.881 262.343 249.561 261.631 251.509 262.373C250.965 260.351 251.906 257.762 253.968 255.422L255.536 256.103ZM248.944 250.475C250.319 251.983 249.414 254.404 246.606 256.964C243.812 259.511 241.318 260.188 239.943 258.681C238.556 257.158 239.46 254.737 242.254 252.19C245.062 249.63 247.557 248.953 248.944 250.475ZM247.481 251.809C246.74 250.996 245.242 251.55 243.291 253.328C241.355 255.093 240.666 256.534 241.407 257.347C242.148 258.16 243.646 257.606 245.582 255.841C247.533 254.062 248.222 252.622 247.481 251.809Z" fill="#51B1E0"/>
<path d="M229.233 283.27L227.567 284.302L222.071 275.425L223.737 274.394L225.096 276.587L228.258 274.629L227.511 273.422L234.466 269.115L238.666 275.9L231.712 280.206L230.954 278.982L227.791 280.94L229.233 283.27ZM233.644 271.435L229.954 273.72L232.512 277.852L236.202 275.567L233.644 271.435ZM230.122 265.9C231.238 267.703 229.963 269.974 226.817 271.922C223.689 273.859 221.087 273.988 219.971 272.186C218.834 270.349 220.13 268.112 223.259 266.174C226.405 264.227 228.985 264.064 230.122 265.9ZM228.439 266.942C227.818 265.939 226.219 266.13 224.059 267.467C221.916 268.793 221.016 270.151 221.637 271.154C222.258 272.157 223.864 271.939 226.007 270.613C228.166 269.275 229.06 267.946 228.439 266.942ZM229.09 275.972L225.927 277.931L226.949 279.58L230.111 277.622L229.09 275.972Z" fill="#51B1E0"/>
<path d="M206.855 287.079L203.274 288.466L205.391 293.931L203.582 294.631L197.174 278.089L198.983 277.389L202.703 286.993L206.284 285.606L206.855 287.079ZM212.837 277.662C210.766 279.902 210.353 283.708 211.553 286.804L212.615 289.545L210.768 290.26L209.706 287.519C208.529 284.479 205.773 282.072 202.789 281.898L203.3 280.006C205.519 280.197 207.588 281.497 209.175 283.435C208.999 280.822 209.639 278.322 211.136 276.648L212.837 277.662Z" fill="#51B1E0"/>
<path d="M251 56.5C267.667 39.8333 284.333 39.8333 301 56.5C317.667 73.1667 334.333 73.1667 351 56.5C367.667 39.8333 384.333 39.8333 401 56.5C417.667 73.1667 434.333 73.1667 451 56.5" stroke="#51B1E0" stroke-width="2"/>
<path d="M251 97.5C267.667 80.8333 284.333 80.8333 301 97.5C317.667 114.167 334.333 114.167 351 97.5C367.667 80.8333 384.333 80.8333 401 97.5C417.667 114.167 434.333 114.167 451 97.5" stroke="#51B1E0" stroke-width="2"/>
<path d="M251 138.5C267.667 121.833 284.333 121.833 301 138.5C317.667 155.167 334.333 155.167 351 138.5C367.667 121.833 384.333 121.833 401 138.5C417.667 155.167 434.333 155.167 451 138.5" stroke="#51B1E0" stroke-width="2"/>
<path d="M150.592 132.352H156.16V188.992H150.592V160H146.432V186.24H140.992V133.44H146.432V154.88H150.592V132.352ZM107.008 174.848V138.24H111.68V151.488H116.16V138.24H120.832V174.848H107.008ZM111.68 169.856H116.16V156.416H111.68V169.856ZM123.776 174.848V138.24H128.32V151.488H132.864V138.24H137.536V174.848H123.776ZM128.32 169.856H132.864V156.416H128.32V169.856ZM200.194 132.352H206.466V146.688H214.466V151.936H206.466V166.4H200.194V132.352ZM164.418 162.944V135.872H170.626V144.256H184.77V135.872H190.978V162.944H164.418ZM169.282 174.336V169.28H206.466V188.992H200.194V174.336H169.282ZM170.626 158.016H184.77V149.12H170.626V158.016Z" fill="#09171E"/>
</svg>
