<svg xmlns="http://www.w3.org/2000/svg" width="18" height="18" viewBox="0 0 18 18" fill="none">
  <path d="M1.49996 9C1.49996 7.42588 1.99524 5.89166 2.91565 4.61467C3.83605 3.33768 5.13491 2.38266 6.62825 1.88488C8.1216 1.3871 9.7337 1.3718 11.2362 1.84115C12.7387 2.3105 14.0555 3.24071 15 4.5H12C11.8011 4.5 11.6103 4.57902 11.4696 4.71967C11.329 4.86032 11.25 5.05109 11.25 5.25C11.25 5.44891 11.329 5.63968 11.4696 5.78033C11.6103 5.92098 11.8011 6 12 6H16.5C16.6989 6 16.8896 5.92098 17.0303 5.78033C17.1709 5.63968 17.25 5.44891 17.25 5.25V0.75C17.25 0.551088 17.1709 0.360322 17.0303 0.21967C16.8896 0.0790178 16.6989 0 16.5 0C16.3011 0 16.1103 0.0790178 15.9696 0.21967C15.829 0.360322 15.75 0.551088 15.75 0.75V3.0465C14.3797 1.49326 12.5156 0.460216 10.4721 0.121642C8.42869 -0.216933 6.33101 0.15969 4.53298 1.18797C2.73496 2.21625 1.34664 3.83325 0.60226 5.76616C-0.142124 7.69907 -0.197013 9.82958 0.446853 11.7983C1.09072 13.7669 2.39393 15.4533 4.13662 16.5728C5.87931 17.6923 7.95481 18.1764 10.013 17.9435C12.0711 17.7106 13.986 16.7749 15.4344 15.2943C16.8829 13.8137 17.7763 11.8788 17.964 9.816C17.98 9.61877 17.9175 9.42319 17.7899 9.27187C17.6624 9.12056 17.4803 9.02577 17.2832 9.00816C17.0861 8.99054 16.89 9.05154 16.7377 9.17785C16.5854 9.30416 16.4891 9.48555 16.47 9.6825C16.2973 11.6069 15.3887 13.3905 13.9334 14.6614C12.4781 15.9324 10.5885 16.5927 8.65837 16.5047C6.72824 16.4167 4.90652 15.5872 3.57293 14.1891C2.23933 12.791 1.49675 10.9321 1.49996 9Z" fill="black"/>
</svg>