<svg width="70" height="71" viewBox="0 0 70 71" fill="none" xmlns="http://www.w3.org/2000/svg">
<path d="M41.625 70.02H28.15C12.625 70.02 0.0249939 57.42 0.0249939 41.895V28.745H69.75V41.895C69.75 57.42 57.15 70.02 41.625 70.02Z" fill="url(#paint0_linear_183_2026)"/>
<path d="M41.625 70.02H28.15C12.625 70.02 0.0249939 57.42 0.0249939 41.895V28.745H69.75V41.895C69.75 57.42 57.15 70.02 41.625 70.02Z" fill="url(#paint1_linear_183_2026)"/>
<path d="M49.8 7.8125H19.95C8.925 7.8125 0 17.72 0 28.745C0 39.77 8.925 48.695 19.95 48.695H49.775C60.8 48.695 69.725 39.77 69.725 28.745C69.75 17.745 62.305 7.8125 49.8 7.8125Z" fill="url(#paint2_linear_183_2026)"/>
<g filter="url(#filter0_f_183_2026)">
<path d="M61.3475 23.4C60.6725 20.825 58.74 19.01 57.4425 16.76C57.4425 16.76 15.9925 3.79749 8.75 16.3275C7.45 18.5775 4.8275 21.2875 4.2975 24.5325C2.54 35.2725 9.1925 37.67 12.9475 40.625C16.9725 43.79 23.455 43.085 33.2775 43.085C40.8975 43.085 48.7425 43.325 53.965 40.625C59.44 37.795 63.115 30.1375 61.3475 23.4Z" fill="#642A2B"/>
</g>
<path d="M62.97 22.5775C62.295 20.0025 60.3625 18.1875 59.0625 15.9375C57.7375 13.6625 56.6925 10.4825 54.845 8.63249C52.9975 6.78249 50.97 5.89499 48.67 4.56999C46.42 3.26999 45.115 1.57249 42.54 0.897492C39.66 0.142492 37.3875 0.897492 34.6875 0.897492C31.9875 0.897492 30.7825 -0.157508 26.9125 1.13249C24.3875 1.97499 23.735 3.26999 21.485 4.56999C19.235 5.91999 16.875 6.44499 15.0775 8.70999C13.4075 10.8175 12.145 13.5975 10.82 15.8975C9.52 18.1475 7.485 19.7225 6.9525 22.97C5.195 33.71 10.8125 38.57 14.57 41.5225C18.595 44.6875 25.0775 43.985 34.9 43.985C42.52 43.985 50.365 44.2225 55.585 41.5225C61.0625 38.6925 64.7375 29.315 62.97 22.5775Z" fill="#FAF8FC"/>
<path d="M62.97 22.5775C62.295 20.0025 60.3625 18.1875 59.0625 15.9375C57.7375 13.6625 56.6925 10.4825 54.845 8.63249C52.9975 6.78249 50.97 5.89499 48.67 4.56999C46.42 3.26999 45.115 1.57249 42.54 0.897492C39.66 0.142492 37.3875 0.897492 34.6875 0.897492C31.9875 0.897492 30.7825 -0.157508 26.9125 1.13249C24.3875 1.97499 23.735 3.26999 21.485 4.56999C19.235 5.91999 16.875 6.44499 15.0775 8.70999C13.4075 10.8175 12.145 13.5975 10.82 15.8975C9.52 18.1475 7.485 19.7225 6.9525 22.97C5.195 33.71 10.8125 38.57 14.57 41.5225C18.595 44.6875 25.0775 43.985 34.9 43.985C42.52 43.985 50.365 44.2225 55.585 41.5225C61.0625 38.6925 64.7375 29.315 62.97 22.5775Z" fill="url(#paint3_radial_183_2026)"/>
<path d="M62.97 22.5775C62.295 20.0025 60.3625 18.1875 59.0625 15.9375C57.7375 13.6625 56.6925 10.4825 54.845 8.63249C52.9975 6.78249 50.97 5.89499 48.67 4.56999C46.42 3.26999 45.115 1.57249 42.54 0.897492C39.66 0.142492 37.3875 0.897492 34.6875 0.897492C31.9875 0.897492 30.7825 -0.157508 26.9125 1.13249C24.3875 1.97499 23.735 3.26999 21.485 4.56999C19.235 5.91999 16.875 6.44499 15.0775 8.70999C13.4075 10.8175 12.145 13.5975 10.82 15.8975C9.52 18.1475 7.485 19.7225 6.9525 22.97C5.195 33.71 10.8125 38.57 14.57 41.5225C18.595 44.6875 25.0775 43.985 34.9 43.985C42.52 43.985 50.365 44.2225 55.585 41.5225C61.0625 38.6925 64.7375 29.315 62.97 22.5775Z" fill="url(#paint4_radial_183_2026)"/>
<path d="M62.97 22.5775C62.295 20.0025 60.3625 18.1875 59.0625 15.9375C57.7375 13.6625 56.6925 10.4825 54.845 8.63249C52.9975 6.78249 50.97 5.89499 48.67 4.56999C46.42 3.26999 45.115 1.57249 42.54 0.897492C39.66 0.142492 37.3875 0.897492 34.6875 0.897492C31.9875 0.897492 30.7825 -0.157508 26.9125 1.13249C24.3875 1.97499 23.735 3.26999 21.485 4.56999C19.235 5.91999 16.875 6.44499 15.0775 8.70999C13.4075 10.8175 12.145 13.5975 10.82 15.8975C9.52 18.1475 7.485 19.7225 6.9525 22.97C5.195 33.71 10.8125 38.57 14.57 41.5225C18.595 44.6875 25.0775 43.985 34.9 43.985C42.52 43.985 50.365 44.2225 55.585 41.5225C61.0625 38.6925 64.7375 29.315 62.97 22.5775Z" fill="url(#paint5_radial_183_2026)"/>
<path d="M62.97 22.5775C62.295 20.0025 60.3625 18.1875 59.0625 15.9375C57.7375 13.6625 56.6925 10.4825 54.845 8.63249C52.9975 6.78249 50.97 5.89499 48.67 4.56999C46.42 3.26999 45.115 1.57249 42.54 0.897492C39.66 0.142492 37.3875 0.897492 34.6875 0.897492C31.9875 0.897492 30.7825 -0.157508 26.9125 1.13249C24.3875 1.97499 23.735 3.26999 21.485 4.56999C19.235 5.91999 16.875 6.44499 15.0775 8.70999C13.4075 10.8175 12.145 13.5975 10.82 15.8975C9.52 18.1475 7.485 19.7225 6.9525 22.97C5.195 33.71 10.8125 38.57 14.57 41.5225C18.595 44.6875 25.0775 43.985 34.9 43.985C42.52 43.985 50.365 44.2225 55.585 41.5225C61.0625 38.6925 64.7375 29.315 62.97 22.5775Z" fill="url(#paint6_radial_183_2026)"/>
<path d="M25.375 22.27L27.3 26.595C27.725 27.545 28.85 27.97 29.8 27.545C30.75 27.12 31.175 25.995 30.75 25.045L28.825 20.72C28.6176 20.2641 28.2386 19.9086 27.7705 19.7306C27.3023 19.5527 26.7828 19.5669 26.325 19.77C25.375 20.195 24.95 21.295 25.375 22.27Z" fill="#C5BFCF"/>
<path d="M18.95 32.845L18.075 37.495C17.875 38.52 18.55 39.52 19.6 39.72C20.625 39.92 21.625 39.245 21.825 38.195L22.7 33.545C22.747 33.2987 22.7447 33.0455 22.6934 32.8001C22.642 32.5546 22.5426 32.3218 22.4009 32.1149C22.2591 31.9081 22.0778 31.7313 21.8674 31.5949C21.657 31.4585 21.4217 31.365 21.175 31.32C20.9284 31.2695 20.6741 31.2692 20.4274 31.3191C20.1807 31.3689 19.9465 31.468 19.7389 31.6103C19.5312 31.7526 19.3544 31.9353 19.2188 32.1474C19.0833 32.3595 18.9919 32.5968 18.95 32.845Z" fill="#BAB1C8"/>
<path d="M14.55 23.645L10.35 25.845C10.1286 25.9584 9.93206 26.1147 9.7717 26.3049C9.61134 26.495 9.49042 26.7151 9.41596 26.9525C9.34151 27.1898 9.31502 27.4395 9.33803 27.6872C9.36104 27.9349 9.4331 28.1755 9.55 28.395C10.025 29.32 11.175 29.695 12.1 29.195L16.3 26.995C16.5214 26.8816 16.7179 26.7253 16.8783 26.5351C17.0387 26.345 17.1596 26.1249 17.234 25.8875C17.3085 25.6502 17.335 25.4005 17.312 25.1528C17.289 24.9051 17.2169 24.6645 17.1 24.445C16.8659 24.0027 16.4669 23.6707 15.9894 23.5209C15.512 23.3711 14.9948 23.4157 14.55 23.645Z" fill="url(#paint7_linear_183_2026)"/>
<path d="M44.375 10.17L43.5 14.82C43.3 15.845 43.975 16.845 45.025 17.045C46.05 17.245 47.05 16.57 47.25 15.52L48.125 10.87C48.172 10.6237 48.1697 10.3705 48.1184 10.1251C48.067 9.87961 47.9676 9.64675 47.8259 9.43992C47.6841 9.23308 47.5028 9.05635 47.2924 8.91992C47.082 8.78348 46.8467 8.69005 46.6 8.645C45.575 8.47 44.575 9.14499 44.375 10.17Z" fill="#E0DDE2"/>
<path d="M17.6 10.92L14.775 14.72C14.15 15.57 14.325 16.745 15.175 17.37C16.025 17.995 17.2 17.82 17.825 16.97L20.65 13.17C21.275 12.32 21.1 11.145 20.25 10.52C20.0501 10.3713 19.8227 10.2636 19.581 10.2032C19.3393 10.1428 19.088 10.1309 18.8417 10.168C18.5953 10.2052 18.3588 10.2908 18.1457 10.4199C17.9325 10.5489 17.7471 10.7189 17.6 10.92Z" fill="#A6A2A9"/>
<path d="M35.15 32.62L32.325 36.42C31.7 37.27 31.875 38.445 32.725 39.07C33.575 39.695 34.75 39.52 35.375 38.67L38.2 34.87C38.825 34.02 38.65 32.845 37.8 32.22C37.3929 31.9293 36.8886 31.8084 36.394 31.8831C35.8993 31.9578 35.4531 32.2221 35.15 32.62Z" fill="#C7BFD5"/>
<path d="M53.8 22.52L56.875 26.12C57.207 26.4798 57.665 26.6976 58.1536 26.728C58.6422 26.7584 59.1237 26.599 59.4977 26.283C59.8716 25.9671 60.1092 25.519 60.1609 25.0322C60.2126 24.5454 60.0743 24.0574 59.775 23.67L56.7 20.07C56.368 19.7102 55.91 19.4924 55.4214 19.462C54.9328 19.4316 54.4513 19.591 54.0773 19.9069C53.7034 20.2229 53.4658 20.671 53.4141 21.1578C53.3625 21.6446 53.5007 22.1326 53.8 22.52Z" fill="#EDEBEF"/>
<path d="M35 10.295L32.625 6.19499C32.3719 5.7586 31.9565 5.44007 31.4693 5.30892C30.9822 5.17777 30.463 5.24466 30.025 5.49499C29.125 6.01999 28.8 7.16999 29.325 8.09499L31.7 12.195C32.225 13.095 33.375 13.42 34.3 12.895C35.225 12.37 35.525 11.22 35 10.295Z" fill="#CCCACF"/>
<path d="M55.1 36.37L52.725 32.27C52.4719 31.8336 52.0565 31.5151 51.5693 31.3839C51.0822 31.2528 50.563 31.3197 50.125 31.57C49.225 32.095 48.9 33.245 49.425 34.17L51.8 38.27C52.325 39.17 53.475 39.495 54.4 38.97C55.3 38.445 55.625 37.295 55.1 36.37Z" fill="#DAD4E2"/>
<path d="M45.55 23.245L41.2 21.37C40.9703 21.271 40.7232 21.2183 40.4731 21.215C40.2229 21.2117 39.9746 21.2578 39.7423 21.3507C39.51 21.4436 39.2984 21.5815 39.1195 21.7564C38.9406 21.9313 38.7981 22.1398 38.7 22.37C38.275 23.32 38.725 24.445 39.7 24.87L44.05 26.745C45 27.17 46.125 26.72 46.55 25.745C46.7432 25.2803 46.7467 24.7584 46.5598 24.2911C46.3729 23.8238 46.0104 23.4483 45.55 23.245Z" fill="#D5D0DD"/>
<defs>
<filter id="filter0_f_183_2026" x="3.00755" y="9.86856" width="59.7875" height="34.2834" filterUnits="userSpaceOnUse" color-interpolation-filters="sRGB">
<feFlood flood-opacity="0" result="BackgroundImageFix"/>
<feBlend mode="normal" in="SourceGraphic" in2="BackgroundImageFix" result="shape"/>
<feGaussianBlur stdDeviation="0.5" result="effect1_foregroundBlur_183_2026"/>
</filter>
<linearGradient id="paint0_linear_183_2026" x1="69.75" y1="50.7825" x2="1.56249" y2="50.7825" gradientUnits="userSpaceOnUse">
<stop stop-color="#FF3F48"/>
<stop offset="0.136" stop-color="#FC2D53"/>
<stop offset="0.313" stop-color="#D42C62"/>
<stop offset="0.51" stop-color="#D82D67"/>
<stop offset="0.755" stop-color="#C52E62"/>
<stop offset="1" stop-color="#984651"/>
</linearGradient>
<linearGradient id="paint1_linear_183_2026" x1="28.4375" y1="73.4375" x2="28.4375" y2="60.3125" gradientUnits="userSpaceOnUse">
<stop stop-color="#A2336C"/>
<stop offset="1" stop-color="#A82B66" stop-opacity="0"/>
</linearGradient>
<linearGradient id="paint2_linear_183_2026" x1="64.0625" y1="9.845" x2="7.1875" y2="38.2825" gradientUnits="userSpaceOnUse">
<stop stop-color="#EB3334"/>
<stop offset="1" stop-color="#B22B4D"/>
</linearGradient>
<radialGradient id="paint3_radial_183_2026" cx="0" cy="0" r="1" gradientUnits="userSpaceOnUse" gradientTransform="translate(15.9375 55.3125) rotate(-46.58) scale(64.106 65.367)">
<stop offset="0.475" stop-color="#E0D4EF"/>
<stop offset="0.909" stop-color="#FCFBFD" stop-opacity="0"/>
</radialGradient>
<radialGradient id="paint4_radial_183_2026" cx="0" cy="0" r="1" gradientUnits="userSpaceOnUse" gradientTransform="translate(47.1875 28.595) rotate(109.194) scale(48.476 57.825)">
<stop offset="0.395" stop-color="#D1CDD5" stop-opacity="0"/>
<stop offset="0.66" stop-color="#9B96A1"/>
</radialGradient>
<radialGradient id="paint5_radial_183_2026" cx="0" cy="0" r="1" gradientUnits="userSpaceOnUse" gradientTransform="translate(31.8746 6.09392) rotate(91.302) scale(6.87677 8.02723)">
<stop stop-color="#E0DFE0"/>
<stop offset="1" stop-color="#F9F6FC" stop-opacity="0"/>
</radialGradient>
<radialGradient id="paint6_radial_183_2026" cx="0" cy="0" r="1" gradientUnits="userSpaceOnUse" gradientTransform="translate(43.9075 7.03249) rotate(150.751) scale(4.47705 8.23515)">
<stop stop-color="#F6F5F6"/>
<stop offset="1" stop-color="#F1EFF2" stop-opacity="0"/>
</radialGradient>
<linearGradient id="paint7_linear_183_2026" x1="10.3125" y1="28.125" x2="17.3225" y2="23.4325" gradientUnits="userSpaceOnUse">
<stop stop-color="#807985"/>
<stop offset="1" stop-color="#A6A0AE"/>
</linearGradient>
</defs>
</svg>
