<svg width="24" height="21" viewBox="0 0 24 21" fill="none" xmlns="http://www.w3.org/2000/svg">
<path d="M13.473 0.851125C13.3245 0.592471 13.1104 0.377574 12.8523 0.228134C12.5942 0.0786933 12.3012 0 12.003 0C11.7048 0 11.4118 0.0786933 11.1537 0.228134C10.8956 0.377574 10.6815 0.592471 10.533 0.851125L0.247495 18.3516C-0.438005 19.5186 0.383995 21.0021 1.7175 21.0021H22.287C23.6205 21.0021 24.444 19.5171 23.757 18.3516L13.473 0.851125ZM12 6.00212C12.8025 6.00212 13.431 6.69512 13.35 7.49462L12.825 12.7551C12.8074 12.9618 12.7128 13.1543 12.56 13.2946C12.4073 13.4349 12.2074 13.5127 12 13.5127C11.7926 13.5127 11.5927 13.4349 11.44 13.2946C11.2872 13.1543 11.1926 12.9618 11.175 12.7551L10.65 7.49462C10.6311 7.30597 10.652 7.11547 10.7113 6.93537C10.7705 6.75528 10.8668 6.5896 10.994 6.44899C11.1212 6.30839 11.2764 6.19598 11.4497 6.11902C11.6229 6.04205 11.8104 6.00223 12 6.00212ZM12.003 15.0021C12.4008 15.0021 12.7823 15.1602 13.0637 15.4415C13.345 15.7228 13.503 16.1043 13.503 16.5021C13.503 16.8999 13.345 17.2815 13.0637 17.5628C12.7823 17.8441 12.4008 18.0021 12.003 18.0021C11.6052 18.0021 11.2236 17.8441 10.9423 17.5628C10.661 17.2815 10.503 16.8999 10.503 16.5021C10.503 16.1043 10.661 15.7228 10.9423 15.4415C11.2236 15.1602 11.6052 15.0021 12.003 15.0021Z" fill="#E1505F"/>
</svg>
